<?xml version="1.0" standalone="no"?>
<!DOCTYPE svg PUBLIC "-//W3C//DTD SVG 1.1//EN" "http://www.w3.org/Graphics/SVG/1.1/DTD/svg11.dtd" >
<svg xmlns="http://www.w3.org/2000/svg" xmlns:xlink="http://www.w3.org/1999/xlink" version="1.1">
<metadata></metadata>
<defs>
<font id="oe_doo_prothin" horiz-adv-x="0" >
<font-face units-per-em="2048" ascent="1612" descent="-436" />
<missing-glyph horiz-adv-x="411" />
<glyph />
<glyph horiz-adv-x="682" />
<glyph unicode=" "  horiz-adv-x="411" />
<glyph unicode="&#x09;" horiz-adv-x="411" />
<glyph unicode="&#xa0;" horiz-adv-x="411" />
<glyph unicode="!" horiz-adv-x="395" d="M180 262l-8 451v571h51v-571l-8 -451h-35zM154 0v106h88v-106h-88z" />
<glyph unicode="&#x22;" horiz-adv-x="462" d="M117 1026l-27 12q24 41 32.5 87.5t8.5 123.5h-39v107h88v-94q0 -149 -63 -236zM309 1026l-26 12q24 41 32.5 87.5t8.5 123.5h-39v107h88v-94q0 -148 -64 -236z" />
<glyph unicode="#" horiz-adv-x="1411" d="M326 -2l86 405h-217v46h225l84 393h-232v43h240l84 399h43l-82 -399h397l84 399h45l-86 -399h222v-43h-230l-84 -393h236v-46h-244l-84 -405h-45l84 405h-397l-84 -405h-45zM465 449h399l80 393h-397z" />
<glyph unicode="$" horiz-adv-x="1296" d="M627 -190v155q-93 4 -167 26t-127 62t-90 89t-65 114l47 20q56 -128 147 -193.5t255 -74.5v740q-119 39 -192.5 74.5t-121 82t-66 103.5t-18.5 139q0 132 108 229t290 103v127h49v-127q257 -14 383 -228l-41 -26q-119 195 -342 209v-652q88 -28 148.5 -52t116.5 -53.5 t90.5 -61.5t61 -73t37.5 -91.5t11 -114.5q0 -168 -130.5 -269.5t-334.5 -103.5v-153h-49zM627 799v635q-161 -6 -254.5 -88.5t-93.5 -198.5q0 -141 72.5 -210.5t275.5 -137.5zM676 8q189 1 301.5 90.5t112.5 237.5q0 154 -88.5 236.5t-325.5 158.5v-723z" />
<glyph unicode="%" horiz-adv-x="1914" d="M535 547q-128 0 -201.5 102.5t-73.5 282.5t75 284.5t202 104.5t203.5 -104.5t76.5 -284.5q0 -178 -78 -281.5t-204 -103.5zM537 -4l782 1313h51l-782 -1313h-51zM535 592q106 0 169.5 92t63.5 248q0 157 -62 250.5t-169 93.5q-106 0 -168 -93.5t-62 -250.5 q0 -158 60.5 -249t167.5 -91zM1372 -14q-127 0 -200.5 103t-73.5 282q0 180 76 284.5t202 104.5t202.5 -104.5t76.5 -284.5q0 -177 -78.5 -281t-204.5 -104zM1372 31q107 0 171.5 92.5t64.5 247.5q0 157 -62.5 250.5t-169.5 93.5t-168 -93t-61 -251q0 -157 59.5 -248.5 t165.5 -91.5z" />
<glyph unicode="&#x26;" horiz-adv-x="1456" d="M561 -23q-95 0 -176.5 24t-144.5 70.5t-98.5 122t-35.5 171.5q0 83 30.5 156t87 130.5t114.5 99t135 83.5q-62 106 -90.5 194t-28.5 184q0 149 98.5 241.5t231.5 92.5q130 0 209.5 -73.5t79.5 -210.5q0 -62 -21.5 -115t-56.5 -93t-87 -77.5t-105 -67.5t-119 -65 q-30 -15 -45 -23q27 -48 69 -108q197 -293 432 -475q146 183 181 507h51q-38 -340 -193 -536q159 -119 314 -158v-53q-169 43 -346 174q-184 -195 -486 -195zM516 858q167 86 215 117q148 95 180 208q11 38 11 79q0 114 -65 175.5t-173 61.5q-113 0 -195.5 -80.5 t-82.5 -206.5q0 -162 110 -354zM561 25q284 0 449 176q-245 189 -443 483q-49 74 -71 113q-71 -38 -124.5 -76.5t-105.5 -91.5t-80 -120t-28 -144q0 -84 31.5 -150t87 -107t128 -62t156.5 -21z" />
<glyph unicode="'" horiz-adv-x="270" d="M117 1026l-27 12q24 41 32.5 87.5t8.5 123.5h-39v107h88v-94q0 -149 -63 -236z" />
<glyph unicode="(" horiz-adv-x="800" d="M666 -418q-246 192 -378 443t-132 528q0 276 131.5 525t378.5 446l24 -33q-227 -181 -355 -428t-128 -510q0 -264 128.5 -514.5t354.5 -423.5z" />
<glyph unicode=")" horiz-adv-x="800" d="M135 -418l-24 33q227 181 355 428t128 510q0 264 -128.5 514.5t-354.5 423.5l24 33q246 -192 378 -443t132 -528q0 -276 -131.5 -525t-378.5 -446z" />
<glyph unicode="*" horiz-adv-x="1036" d="M334 788l-35 21l197 328l-381 -9v41l381 -8l-197 328l35 20l184 -333l184 333l35 -20l-196 -328l381 8v-41l-381 9l196 -328l-35 -21l-184 334z" />
<glyph unicode="+" horiz-adv-x="1277" d="M616 219v420h-415v45h415v416h48v-416h413v-45h-413v-420h-48z" />
<glyph unicode="," horiz-adv-x="397" d="M180 -223l-26 12q24 41 32.5 87.5t8.5 123.5h-39v106h88v-94q0 -147 -64 -235z" />
<glyph unicode="-" horiz-adv-x="716" d="M152 623v47h413v-47h-413z" />
<glyph unicode="." horiz-adv-x="395" d="M154 0v106h88v-106h-88z" />
<glyph unicode="/" horiz-adv-x="1062" d="M80 0l852 1516h51l-852 -1516h-51z" />
<glyph unicode="0" horiz-adv-x="1185" d="M594 -33q-144 0 -247.5 87.5t-154.5 237t-51 345.5t51 345.5t154.5 237t247.5 87.5t247 -87.5t153 -237t50 -345.5t-50 -345.5t-153 -237t-247 -87.5zM594 14q131 0 223 82t135 220t43 321t-43 321.5t-135 221t-223 82.5t-223.5 -82.5t-136.5 -221.5t-44 -321t44 -320.5 t136.5 -220.5t223.5 -82z" />
<glyph unicode="1" horiz-adv-x="817" d="M139 0v47h256v1180q-95 -68 -250 -68v47q152 0 256 80h43v-1239h226v-47h-531z" />
<glyph unicode="2" horiz-adv-x="1069" d="M143 0v47q2 59 9.5 101t26.5 86.5t48.5 81t80.5 80.5t118.5 90t165.5 106q156 96 223.5 180.5t67.5 192.5q0 141 -87 223t-235 82q-130 0 -218.5 -67t-139.5 -171l-41 19q48 111 153.5 186.5t245.5 75.5q169 0 268 -93.5t99 -254.5q0 -122 -74.5 -217.5t-239.5 -192.5 q-95 -59 -158.5 -102t-112.5 -85t-76.5 -75t-45.5 -74t-24.5 -79t-8.5 -93h736v-47h-781z" />
<glyph unicode="3" horiz-adv-x="1095" d="M551 -31q-160 0 -266 70.5t-160 177.5l41 21q22 -43 53 -80t77 -71t111.5 -53.5t143.5 -19.5q157 0 255.5 89t98.5 231q0 156 -98.5 243t-304.5 87h-84v43h80q80 0 147.5 15t121 46.5t84 85t30.5 125.5q0 134 -81.5 209.5t-240.5 75.5q-114 0 -195 -52t-131 -131l-38 27 q51 82 146 141.5t218 59.5q180 0 274.5 -89t94.5 -241q0 -114 -80.5 -194t-210.5 -99q153 -20 235 -112t82 -240q0 -160 -112.5 -262.5t-290.5 -102.5z" />
<glyph unicode="4" horiz-adv-x="1136" d="M739 0v352h-618v43l618 891h49v-891h228v-43h-228v-352h-49zM174 395h565v817z" />
<glyph unicode="5" horiz-adv-x="1114" d="M543 -31q-85 0 -158 25.5t-120 65.5t-77 79.5t-45 77.5l43 14q13 -29 40 -63t70 -69.5t108.5 -59t138.5 -23.5q184 0 282.5 115.5t98.5 288.5q0 172 -96 269t-244 97q-109 0 -195 -52t-129 -128l-45 10l53 666h627v-45h-586l-45 -557q39 58 126 104.5t194 46.5 q168 0 278.5 -109.5t110.5 -301.5q0 -124 -46.5 -224.5t-146 -163.5t-237.5 -63z" />
<glyph unicode="6" horiz-adv-x="1136" d="M584 -31q-67 0 -128.5 20.5t-119.5 69t-100.5 121t-68.5 185t-26 251.5q0 205 54 360t162.5 244t258.5 89q90 0 164 -27t152 -92l-31 -39q-71 63 -137 88t-148 25q-207 0 -317.5 -176.5t-110.5 -495.5q66 76 175 138.5t223 62.5q106 0 187.5 -33.5t128.5 -90.5t70 -126.5 t23 -147.5q0 -115 -49 -211t-144 -155.5t-218 -59.5zM584 14q111 0 194.5 53.5t125.5 139t42 188.5q0 70 -20.5 131.5t-62 112t-113 80t-164.5 29.5q-65 0 -129.5 -21.5t-115 -56t-88 -69.5t-63.5 -71q9 -135 47 -238t94.5 -161.5t120.5 -87.5t132 -29z" />
<glyph unicode="7" horiz-adv-x="987" d="M242 0l585 1243h-714v43h761v-41l-579 -1245h-53z" />
<glyph unicode="8" horiz-adv-x="1167" d="M590 -31q-197 0 -323 92t-126 248q0 59 23 110.5t57 87.5t89 70t103.5 55.5t116.5 47.5q-57 21 -97.5 40t-84 47t-70.5 58.5t-44 73.5t-17 94q0 139 107.5 227.5t265.5 88.5q157 0 265 -88t108 -228q0 -50 -18 -92.5t-45 -72t-72.5 -58t-85.5 -47t-99 -41.5 q67 -26 115 -48t102 -56t87.5 -70.5t56 -88t22.5 -110.5q0 -157 -121.5 -248.5t-314.5 -91.5zM590 705l73.5 28.5t66 28.5t63 33.5t49.5 37t42 44.5t24 52t10 64q0 119 -95 195t-233 76q-139 0 -233.5 -76t-94.5 -195q0 -26 6 -50t15 -43t26.5 -38t32.5 -33t41.5 -29.5 t45 -25.5t52 -24.5t53 -22.5t56.5 -22zM590 16q173 0 280 78t107 215q0 55 -23.5 102.5t-57 81t-91 66.5t-104 53t-117.5 47q-57 -22 -98 -39t-90.5 -42t-83 -51.5t-63.5 -59t-44.5 -72.5t-14.5 -86q0 -136 112.5 -214.5t287.5 -78.5z" />
<glyph unicode="9" horiz-adv-x="1138" d="M522 -31q-89 0 -163 28t-152 93l31 35q71 -61 137 -86t147 -25q207 0 317.5 177t110.5 495q-67 -76 -175 -138.5t-222 -62.5q-106 0 -187.5 33.5t-128.5 90.5t-70.5 126.5t-23.5 147.5q0 115 49 211.5t144.5 155.5t218.5 59q67 0 128 -20.5t119 -69t101 -121t68.5 -185 t25.5 -251.5q0 -205 -54 -360t-162.5 -244t-258.5 -89zM553 530q65 0 129.5 21.5t114.5 56t87.5 69.5t63.5 71q-7 109 -33.5 197.5t-65 146.5t-88 98t-101 57t-105.5 17q-111 0 -194.5 -53.5t-125.5 -139t-42 -188.5q0 -69 20.5 -130.5t62 -112.5t113 -80.5t164.5 -29.5z " />
<glyph unicode=":" horiz-adv-x="395" d="M154 969v106h88v-106h-88zM154 0v106h88v-106h-88z" />
<glyph unicode=";" horiz-adv-x="397" d="M156 969v106h88v-106h-88zM180 -182l-26 12q41 71 41 170h-39v106h88v-94q0 -47 -18 -101t-46 -93z" />
<glyph unicode="&#x3c;" horiz-adv-x="1366" d="M1114 184l-903 396v45l903 389v-49l-852 -365l852 -367v-49z" />
<glyph unicode="=" horiz-adv-x="1370" d="M262 809v45h846v-45h-846zM262 412v45h846v-45h-846z" />
<glyph unicode="&#x3e;" horiz-adv-x="1366" d="M252 184v49l852 365l-852 367v49l903 -396v-45z" />
<glyph unicode="?" horiz-adv-x="1030" d="M432 281q-2 35 -2 88q5 145 39.5 209.5t148.5 134.5q60 37 89.5 58.5t62.5 56t46 74.5t13 95q0 124 -84 197.5t-223 73.5q-112 0 -194 -58t-131 -141l-43 27q48 85 146 150t222 65q167 0 264 -84t97 -230q0 -49 -12 -89.5t-28.5 -68.5t-51.5 -58.5t-62 -49t-80 -51.5 q-49 -31 -78.5 -58t-48.5 -55t-26.5 -72t-9.5 -88.5t-1 -125.5h-53zM418 -2v94h78v-94h-78z" />
<glyph unicode="@" horiz-adv-x="1777" d="M881 -125q-168 0 -302.5 57.5t-219.5 156t-130 225.5t-45 270q0 211 93.5 375t254.5 252.5t361 88.5q148 0 278.5 -51t224.5 -141.5t148.5 -221t54.5 -282.5q0 -104 -24.5 -184t-66 -127t-92 -70.5t-107.5 -23.5q-85 0 -140 36t-73 99q-149 -139 -322 -139 q-120 0 -195 77.5t-75 229.5q0 136 44 247.5t128.5 178.5t193.5 67q171 0 291 -108l13 94h47l-82 -561q-12 -83 33 -130.5t137 -47.5q106 0 175.5 92t69.5 270q0 191 -87 340.5t-237.5 231t-336.5 81.5q-139 0 -261 -49t-210.5 -136.5t-139.5 -213.5t-51 -274 q0 -187 75.5 -336.5t225 -238.5t349.5 -89q223 0 407 90l21 -37q-109 -52 -205.5 -75t-222.5 -23zM774 236q161 0 316 143q0 29 2 43l61 416q-45 48 -117 81t-166 33q-99 0 -173.5 -66t-110 -166.5t-35.5 -217.5q0 -131 62 -198.5t161 -67.5z" />
<glyph unicode="A" horiz-adv-x="1325" d="M84 0l551 1524h55l551 -1524h-55l-197 545h-655l-197 -545h-53zM350 592h623l-311 862z" />
<glyph unicode="B" horiz-adv-x="1363" d="M215 0v1516h416q275 0 409 -87.5t134 -295.5q0 -68 -21 -125t-54 -94.5t-77.5 -66t-85.5 -44t-84 -23.5q50 -6 96.5 -18.5t103 -41.5t97 -70t68.5 -108.5t28 -152.5q0 -183 -131 -286t-377 -103h-522zM266 801h420q197 0 316.5 85t119.5 247q0 184 -119 259.5t-368 75.5 h-369v-667zM266 45h475q220 0 336.5 91.5t116.5 252.5q0 179 -131.5 272t-376.5 93h-420v-709z" />
<glyph unicode="C" horiz-adv-x="1417" d="M754 -31q-180 0 -321.5 104t-218.5 286.5t-77 410.5q0 222 78.5 400t216.5 277t309 99q91 0 168 -25.5t131.5 -66.5t99.5 -102t73.5 -123.5t52.5 -138.5l-49 -17q-22 71 -47.5 128t-66 115t-89.5 96.5t-119 62.5t-154 24q-159 0 -285.5 -94.5t-197 -261t-70.5 -373.5 q0 -212 70 -383.5t200 -271t296 -99.5q90 0 165.5 28t125.5 70.5t91 104.5t64.5 117.5t42.5 122.5l49 -13q-16 -59 -38.5 -115t-67 -124.5t-100.5 -118.5t-142.5 -84.5t-189.5 -34.5z" />
<glyph unicode="D" horiz-adv-x="1394" d="M213 0v1516h276q779 0 779 -758t-779 -758h-276zM264 47h230q363 0 543 176.5t180 534.5t-180 534t-543 176h-230v-1421z" />
<glyph unicode="E" horiz-adv-x="1187" d="M213 0v1516h856v-48h-805v-639h610v-47h-610v-735h819v-47h-870z" />
<glyph unicode="F" horiz-adv-x="1144" d="M213 0v1516h838v-48h-787v-641h592v-47h-592v-780h-51z" />
<glyph unicode="G" horiz-adv-x="1447" d="M741 -31q-95 0 -183 31.5t-166 97.5t-136 159.5t-91.5 226.5t-33.5 290q0 121 25.5 234.5t76.5 211t122 170.5t168.5 114.5t209.5 41.5q109 0 197 -35.5t150.5 -102t105.5 -145t76 -180.5l-50 -16q-34 100 -73 173.5t-95 134.5t-134 92.5t-177 31.5q-103 0 -192.5 -39.5 t-154.5 -108.5t-111.5 -160.5t-69.5 -198t-23 -218.5q0 -182 46 -329t124.5 -239t178 -141t210.5 -49q215 0 347.5 168.5t123.5 438.5h-403v47h455v-670h-52v334q-18 -68 -59 -132t-100 -117t-140.5 -84.5t-171.5 -31.5z" />
<glyph unicode="H" horiz-adv-x="1478" d="M213 0v1516h51v-687h950v687h52v-1516h-52v782h-950v-782h-51z" />
<glyph unicode="I" horiz-adv-x="501" d="M225 0v1516h51v-1516h-51z" />
<glyph unicode="J" horiz-adv-x="995" d="M428 -31q-128 0 -215.5 66t-136.5 162l45 22q106 -203 307 -203q156 0 235.5 91t79.5 270v1139h52v-1139q0 -203 -96.5 -305.5t-270.5 -102.5z" />
<glyph unicode="K" horiz-adv-x="1310" d="M213 0v1516h51v-922l850 922h62l-529 -574l610 -942h-59l-584 905l-350 -379v-526h-51z" />
<glyph unicode="L" horiz-adv-x="1144" d="M213 0v1516h51v-1469h789v-47h-840z" />
<glyph unicode="M" horiz-adv-x="1757" d="M213 0v1516h47l619 -1453l618 1453h47v-1516h-51v1386l-590 -1386h-51l-590 1386v-1386h-49z" />
<glyph unicode="N" horiz-adv-x="1495" d="M213 0v1516h55l965 -1422v1422h49v-1516h-49l-971 1434v-1434h-49z" />
<glyph unicode="O" horiz-adv-x="1497" d="M748 -31q-175 0 -314.5 99.5t-218 280t-78.5 409.5t78.5 409t218 279.5t314.5 99.5q130 0 243 -58t194.5 -161t128 -250.5t46.5 -318.5t-46.5 -318.5t-128 -250.5t-194.5 -161.5t-243 -58.5zM748 16q161 0 289 95t200 264.5t72 382.5t-72 382.5t-200 264t-289 94.5 q-122 0 -226.5 -55.5t-177.5 -153t-114.5 -235t-41.5 -297.5q0 -214 70.5 -383t198.5 -264t291 -95z" />
<glyph unicode="P" horiz-adv-x="1259" d="M213 0v1516h449q246 0 376.5 -108t130.5 -284q0 -175 -130.5 -280t-376.5 -105h-398v-739h-51zM264 786h400q220 0 337 91.5t117 246.5q0 156 -117.5 250t-336.5 94h-400v-682z" />
<glyph unicode="Q" horiz-adv-x="1497" d="M1124 -352q-402 0 -405 323q-256 12 -419 230.5t-163 556.5q0 229 78.5 409t218 279.5t314.5 99.5q130 0 243 -58t194.5 -161t128 -250.5t46.5 -318.5q0 -224 -76.5 -401.5t-210.5 -278t-303 -107.5q1 -144 90 -210t264 -66h95v-47h-95zM748 16q161 0 289 95t200 264.5 t72 382.5t-72 382.5t-200 264t-289 94.5q-122 0 -226.5 -55.5t-177.5 -153t-114.5 -235t-41.5 -297.5q0 -214 70.5 -383t198.5 -264t291 -95z" />
<glyph unicode="R" horiz-adv-x="1341" d="M213 0v1516h449q245 0 376 -108t131 -284q0 -157 -110 -259t-316 -120l431 -745h-60l-428 741h-422v-741h-51zM264 786h400q220 0 337 91.5t117 246.5q0 156 -117.5 250t-336.5 94h-400v-682z" />
<glyph unicode="S" horiz-adv-x="1296" d="M670 -31q-102 0 -184 21t-139.5 56t-102 89t-73 111.5t-50.5 130.5l49 16q28 -89 66 -154.5t96 -117.5t142.5 -78.5t195.5 -26.5q200 0 319 92.5t119 247.5q0 162 -93.5 247.5t-348.5 168.5q-92 30 -154.5 54.5t-116.5 53.5t-86.5 59t-56 69.5t-32.5 85.5t-9 106 q0 143 118 244.5t314 101.5q99 0 181 -27.5t139.5 -77.5t97 -110.5t65.5 -134.5l-49 -16q-117 319 -434 319q-176 0 -278.5 -87t-102.5 -212q0 -78 20.5 -132t73.5 -98t127.5 -77t200.5 -74q104 -33 172.5 -61.5t130.5 -67t97 -84t55 -107.5t20 -143q0 -177 -136 -282 t-353 -105z" />
<glyph unicode="T" horiz-adv-x="1245" d="M598 0v1468h-518v48h1085v-48h-516v-1468h-51z" />
<glyph unicode="U" horiz-adv-x="1454" d="M725 -31q-160 0 -280.5 70t-181 186t-60.5 260v1031h51v-1031q0 -129 55 -234.5t163.5 -170t252.5 -64.5q141 0 251 63t167 165.5t57 224.5v1047h51v-1047q0 -135 -64 -248.5t-185.5 -182.5t-276.5 -69z" />
<glyph unicode="V" horiz-adv-x="1337" d="M641 -8l-555 1524h55l529 -1455l528 1455h53l-555 -1524h-55z" />
<glyph unicode="W" horiz-adv-x="1859" d="M516 0l-422 1516h56l395 -1424l360 1424h53l396 -1424l360 1424h51l-385 -1516h-55l-393 1415l-361 -1415h-55z" />
<glyph unicode="X" horiz-adv-x="1308" d="M70 0l553 815l-473 701h57l446 -660l445 660h55l-473 -699l553 -817h-57l-527 776l-524 -776h-55z" />
<glyph unicode="Y" horiz-adv-x="1222" d="M586 0v690l-516 826h55l487 -779l490 779h53l-518 -826v-690h-51z" />
<glyph unicode="Z" horiz-adv-x="1255" d="M96 0v47l991 1423h-937v46h995v-48l-987 -1423h981v-45h-1043z" />
<glyph unicode="[" horiz-adv-x="759" d="M205 -410v1926h432v-48h-381v-1830h381v-48h-432z" />
<glyph unicode="\" horiz-adv-x="1062" d="M932 0l-852 1516h51l852 -1516h-51z" />
<glyph unicode="]" horiz-adv-x="759" d="M123 -410v48h381v1830h-381v48h432v-1926h-432z" />
<glyph unicode="^" horiz-adv-x="1277" d="M227 758l389 657h48l389 -657h-47l-367 618l-365 -618h-47z" />
<glyph unicode="_" horiz-adv-x="1024" d="M0 -205v51h1024v-51h-1024z" />
<glyph unicode="`" horiz-adv-x="1024" d="M422 1192l-272 309h88l217 -309h-33z" />
<glyph unicode="a" horiz-adv-x="1081" d="M414 -27q-142 0 -220.5 68t-78.5 195q0 183 188.5 290.5t570.5 165.5v88q0 129 -64.5 201t-195.5 72q-137 0 -245 -54t-183 -129l-30 31q77 81 194 139t264 58q155 0 231.5 -82.5t76.5 -231.5v-551q0 -99 5 -142.5t19 -90.5h-47q-13 38 -18 76.5t-7 113.5 q-82 -86 -204 -151.5t-256 -65.5zM414 18q133 0 259.5 71.5t200.5 156.5v405q-198 -30 -338.5 -72.5t-221 -96.5t-116.5 -113.5t-36 -132.5q0 -105 66.5 -161.5t185.5 -56.5z" />
<glyph unicode="b" horiz-adv-x="1179" d="M610 -23q-119 0 -212 56t-175 149v-182h-47v1516h47v-619q68 79 168 140t219 61q203 0 325 -142.5t122 -416.5t-121.5 -418t-325.5 -144zM610 23q179 0 289.5 130.5t110.5 385.5q0 129 -31 229t-86.5 161.5t-128 92.5t-158.5 31q-63 0 -124.5 -21t-110.5 -55.5t-84 -67 t-64 -67.5v-602q104 -114 191 -165.5t196 -51.5z" />
<glyph unicode="c" horiz-adv-x="1077" d="M561 -23q-129 0 -231 76.5t-155.5 203.5t-53.5 280q0 140 38.5 250t103.5 176.5t144 100.5t166 34q144 0 231 -73t148 -220l-41 -21q-28 66 -57 112t-68.5 83.5t-92.5 55.5t-120 18q-79 0 -150 -31.5t-129 -93t-92 -162.5t-34 -229q0 -139 47 -255t138 -187.5t208 -71.5 q130 0 211 67.5t150 210.5l41 -20q-75 -155 -166.5 -229.5t-235.5 -74.5z" />
<glyph unicode="d" horiz-adv-x="1179" d="M571 -23q-203 0 -324.5 143t-121.5 417t122 417.5t324 143.5q119 0 212 -56t175 -149v623h48v-1283q0 -99 5 -142.5t19 -90.5h-47q-25 71 -25 178q-68 -79 -168 -140t-219 -61zM575 23q63 0 124.5 20.5t110.5 55t84 67t64 67.5v603q-104 114 -191 165.5t-196 51.5 q-179 0 -289 -130.5t-110 -385.5q0 -129 31 -229t86.5 -161.5t127.5 -92.5t158 -31z" />
<glyph unicode="e" horiz-adv-x="1093" d="M557 -23q-104 0 -189 47.5t-138.5 126.5t-82 178t-28.5 206q0 112 25.5 206.5t68.5 160t100.5 111t120.5 66.5t129 21q85 0 159.5 -35t131 -101.5t89 -172t32.5 -236.5v-6h-809q0 -141 42 -258t132.5 -192.5t216.5 -75.5q62 0 118.5 20t104 57t84.5 77t74 93l37 -26 q-189 -267 -418 -267zM168 592h758q-9 219 -109.5 341t-253.5 122q-71 0 -137.5 -29.5t-122 -85t-92 -145.5t-43.5 -203z" />
<glyph unicode="f" horiz-adv-x="624" d="M262 0v1030h-188v45h188v211q0 237 303 234h10v-45q-25 3 -45 0q-118 -9 -169.5 -51.5t-51.5 -133.5v-215h258v-45h-258v-1030h-47z" />
<glyph unicode="g" horiz-adv-x="1134" d="M532 -410q-226 0 -351.5 63t-125.5 193q0 49 22.5 94.5t60 79.5t73.5 57.5t74 41.5q-60 15 -87.5 45.5t-27.5 85.5q0 45 36.5 87.5t96.5 74.5q-79 51 -122.5 132t-43.5 177q0 158 109 267.5t286 109.5q148 0 254 -82q151 91 265 110v-49q-57 -9 -121 -35.5t-107 -56.5 q109 -106 109 -264q0 -157 -111 -264t-289 -107q-110 0 -190 41q-125 -63 -125 -141q0 -63 65.5 -85t276.5 -34q88 -5 154 -14.5t125.5 -28.5t97 -46.5t59 -69.5t21.5 -97q0 -120 -128 -202.5t-356 -82.5zM532 395q157 0 255 94t98 232q0 139 -98.5 235.5t-254.5 96.5 t-252 -96.5t-96 -235.5t96 -232.5t252 -93.5zM532 -365q207 0 322 68.5t115 171.5q0 60 -32.5 101t-95 63.5t-128.5 33t-158 15.5q-153 7 -213 18q-98 -37 -169 -105.5t-71 -154.5q0 -74 57 -122.5t150.5 -68.5t222.5 -20z" />
<glyph unicode="h" horiz-adv-x="1153" d="M176 0v1516h47v-629q235 211 443 211q172 0 250.5 -86.5t78.5 -253.5v-758h-47v758q0 149 -68.5 222t-213.5 73q-213 0 -443 -219v-834h-47z" />
<glyph unicode="i" horiz-adv-x="419" d="M178 1356v86h66v-86h-66zM186 0v1075h47v-1075h-47z" />
<glyph unicode="j" horiz-adv-x="419" d="M178 1356v86h66v-86h-66zM94 -412q-23 0 -59 6v46q36 -9 55 -9q96 0 96 113v1331h47v-1321q0 -92 -41 -129t-98 -37z" />
<glyph unicode="k" horiz-adv-x="1048" d="M176 0v1516h47v-1127l635 686h53l-356 -385l408 -690h-52l-387 655l-301 -325v-330h-47z" />
<glyph unicode="l" horiz-adv-x="419" d="M186 0v1516h47v-1516h-47z" />
<glyph unicode="m" horiz-adv-x="1859" d="M176 0v1075h47v-188q235 211 426 211q125 0 200.5 -58t100.5 -166q115 101 222 162.5t217 61.5q157 0 235 -88t78 -252v-758h-47v758q0 295 -266 295q-195 0 -426 -224v-829h-48v758q0 295 -266 295q-196 0 -426 -219v-834h-47z" />
<glyph unicode="n" horiz-adv-x="1153" d="M176 0v1075h47v-188q235 211 443 211q172 0 250.5 -86.5t78.5 -253.5v-758h-47v758q0 149 -68.5 222t-213.5 73q-213 0 -443 -219v-834h-47z" />
<glyph unicode="o" horiz-adv-x="1161" d="M580 -23q-92 0 -176 42t-146.5 114.5t-99.5 178t-37 225.5q0 124 36.5 230t99 178t146.5 112.5t177 40.5q91 0 174.5 -40.5t147 -112.5t101 -178.5t37.5 -229.5q0 -120 -37.5 -225.5t-100.5 -178t-147 -114.5t-175 -42zM580 23q171 0 292 146.5t121 367.5 q0 225 -120.5 370.5t-292.5 145.5q-173 0 -292.5 -145.5t-119.5 -370.5q0 -221 120.5 -367.5t291.5 -146.5z" />
<glyph unicode="p" horiz-adv-x="1179" d="M176 -410v1485h47v-178q68 79 168 140t219 61q203 0 325 -142.5t122 -416.5t-121.5 -418t-325.5 -144q-119 0 -212 56t-175 149v-592h-47zM610 23q179 0 289.5 130.5t110.5 385.5q0 129 -31 229t-86.5 161.5t-128 92.5t-158.5 31q-63 0 -124.5 -21t-110.5 -55.5t-84 -67 t-64 -67.5v-602q104 -114 191 -165.5t196 -51.5z" />
<glyph unicode="q" horiz-adv-x="1179" d="M956 -410v588q-68 -79 -168 -140t-219 -61q-203 0 -324.5 143t-121.5 417t121 417.5t325 143.5q119 0 212 -56t175 -149v182h48v-1485h-48zM573 23q63 0 124.5 20.5t110.5 55t84 67t64 67.5v603q-104 114 -191 165.5t-196 51.5q-179 0 -289 -130.5t-110 -385.5 q0 -129 31 -229t86.5 -161.5t127.5 -92.5t158 -31z" />
<glyph unicode="r" horiz-adv-x="788" d="M176 0v1075h47v-246q64 97 130 156t158.5 88t209.5 17l-8 -41q-90 10 -163.5 -6t-132 -58t-103.5 -95t-91 -130v-760h-47z" />
<glyph unicode="s" horiz-adv-x="1024" d="M506 -23q-243 0 -391 197l37 29q143 -180 354 -180q158 0 251 66.5t93 184.5q0 49 -16 87.5t-43 66t-74 50.5t-97 39.5t-124 35.5q-93 23 -151 45t-106.5 55.5t-70 80.5t-21.5 112q0 109 88.5 180.5t245.5 71.5q233 0 375 -162l-37 -29q-127 146 -338 146 q-143 0 -214.5 -60t-71.5 -147q0 -45 14.5 -80t38 -59.5t66.5 -45t86 -34.5t110 -31q77 -19 128.5 -35.5t105 -43t84 -58t50 -78.5t19.5 -107q0 -136 -107.5 -216.5t-283.5 -80.5z" />
<glyph unicode="t" horiz-adv-x="716" d="M485 -12q-125 0 -174 60t-49 185v797h-188v45h188v391h47v-391h301v-45h-301v-803q0 -100 40 -147t145 -47q52 0 120 12v-45q-70 -12 -129 -12z" />
<glyph unicode="u" horiz-adv-x="1153" d="M487 -23q-172 0 -250.5 86.5t-78.5 253.5v758h47v-758q0 -149 68.5 -221.5t213.5 -72.5q213 0 443 219v833h47v-1075h-47v188q-235 -211 -443 -211z" />
<glyph unicode="v" horiz-adv-x="1026" d="M487 -8l-411 1083h49l389 -1024l389 1024h47l-411 -1083h-52z" />
<glyph unicode="w" horiz-adv-x="1523" d="M426 -8l-350 1083h47l326 -1009l290 1009h47l326 -1009l291 1009h45l-313 -1083h-45l-326 1009l-293 -1009h-45z" />
<glyph unicode="x" horiz-adv-x="1021" d="M96 0l389 549l-368 526h51l342 -487l342 487h49l-369 -520l390 -555h-52l-362 516l-363 -516h-49z" />
<glyph unicode="y" horiz-adv-x="1021" d="M160 -416q-71 0 -174 25l12 45q95 -25 162 -25q104 0 166 47.5t100 147.5l63 166l-413 1085h49l389 -1020l385 1020h47l-479 -1268q-43 -116 -115 -169.5t-192 -53.5z" />
<glyph unicode="z" horiz-adv-x="1021" d="M121 0v41l706 991h-669v43h725v-41l-707 -991h731v-43h-786z" />
<glyph unicode="{" horiz-adv-x="739" d="M555 -410q-117 0 -169 55t-52 162v533q0 56 -6.5 87t-29.5 56.5t-67.5 35t-119.5 9.5v50q77 0 121.5 9.5t67 35t28.5 56t6 87.5v532q0 107 52 162.5t169 55.5h84v-48h-84q-170 0 -170 -170v-532q0 -98 -27.5 -147t-99.5 -66q73 -20 100 -66.5t27 -146.5v-533 q0 -82 40 -125.5t130 -43.5h84v-48h-84z" />
<glyph unicode="|" horiz-adv-x="677" d="M315 -412v1667h47v-1667h-47z" />
<glyph unicode="}" horiz-adv-x="739" d="M100 -410v48h84q90 0 130 43.5t40 125.5v533q0 98 27.5 147t99.5 66q-73 20 -100 66.5t-27 146.5v532q0 170 -170 170h-84v48h84q117 0 169.5 -55.5t52.5 -162.5v-532q0 -56 6.5 -87t29.5 -56.5t67.5 -35t119.5 -9.5v-50q-77 0 -121.5 -9.5t-67 -35t-28.5 -56t-6 -87.5 v-533q0 -107 -52 -162t-170 -55h-84z" />
<glyph unicode="~" horiz-adv-x="1277" d="M874 578q-52 0 -242 65.5t-235 65.5q-87 0 -98 -99l-43 4q4 70 45 105t107 35q50 0 236 -65.5t230 -65.5q90 0 93 82h45q-3 -69 -38 -98t-100 -29z" />
<glyph unicode="&#xa2;" horiz-adv-x="1077" d="M289 -262l76 293q-113 66 -178.5 202.5t-65.5 303.5q0 140 38.5 250t103.5 176.5t144 100.5t166 34q24 0 70 -4l55 213h43l-57 -222q93 -25 156 -94.5t112 -185.5l-41 -21q-45 108 -100 171t-139 85l-258 -985q72 -32 147 -32q130 0 211 67.5t150 210.5l41 -20 q-75 -155 -166.5 -229.5t-235.5 -74.5q-79 0 -160 33l-69 -272h-43zM377 76l254 973q-56 7 -115 -1.5t-122.5 -42t-112.5 -90t-81 -154t-32 -224.5q0 -149 55.5 -273t153.5 -188z" />
<glyph unicode="&#xa3;" horiz-adv-x="1200" d="M303 -31q-96 0 -155.5 54t-59.5 143q0 101 57.5 157t151.5 56q71 0 127 -34.5t113 -98.5q17 73 14 156.5t-33.5 183.5t-85.5 196h-254v47h228q-119 210 -119 381q0 83 30 148.5t80.5 105.5t113.5 61t134 21q75 0 136.5 -23t102.5 -60t70 -87t42.5 -101.5t15.5 -105.5h-49 q-2 59 -21 114.5t-55 105t-99 80t-143 30.5q-130 0 -218.5 -74t-88.5 -215q0 -159 125 -381h360v-47h-334q113 -202 113 -407q0 -97 -27 -176q37 -43 60.5 -67.5t61.5 -55t80.5 -44.5t92.5 -14q206 0 213 344h50q-3 -189 -68.5 -290t-194.5 -101q-52 0 -97.5 14t-84.5 42 t-67 55t-64 68q-40 -86 -106 -133.5t-148 -47.5zM303 16q73 0 129.5 46.5t87.5 127.5q-32 36 -51.5 55.5t-49 43t-59 33.5t-63.5 10q-71 0 -114.5 -44t-43.5 -122q0 -67 45 -108.5t119 -41.5z" />
<glyph unicode="&#xa5;" horiz-adv-x="1222" d="M586 0v285h-416v47h416v260h-416v47h416v51l-516 826h55l487 -779l490 779h53l-518 -826v-51h420v-47h-420v-260h420v-47h-420v-285h-51z" />
<glyph unicode="&#xa8;" horiz-adv-x="1024" d="M328 1192v100h67v-100h-67zM629 1192v100h67v-100h-67z" />
<glyph unicode="&#xa9;" horiz-adv-x="1765" d="M883 -125q-145 0 -277 57t-226.5 153t-150 228t-55.5 277q0 146 55.5 278t150 228t226.5 152.5t277 56.5t276.5 -56.5t226 -152.5t150 -228t55.5 -278q0 -145 -55.5 -277t-150 -228t-226 -153t-276.5 -57zM883 -84q137 0 261 53.5t213 144t141 215t52 261.5 q0 138 -52 262.5t-141 215t-213 143.5t-261 53t-261 -53t-213 -143.5t-141.5 -215t-52.5 -262.5q0 -183 88.5 -338t242.5 -245.5t337 -90.5zM879 193q-147 0 -234.5 114t-87.5 299q0 174 88.5 290t233.5 116q218 0 286 -250l-41 -10q-27 108 -86 163.5t-159 55.5 q-127 0 -204 -104.5t-77 -260.5q0 -166 76 -269.5t205 -103.5q99 0 164.5 59.5t93.5 170.5l41 -12q-32 -125 -108.5 -191.5t-190.5 -66.5z" />
<glyph unicode="&#xab;" horiz-adv-x="985" d="M420 0l-293 539l293 536h51l-295 -536l295 -539h-51zM784 0l-292 539l292 536h52l-295 -536l295 -539h-52z" />
<glyph unicode="&#xad;" horiz-adv-x="716" d="M152 623v47h413v-47h-413z" />
<glyph unicode="&#xae;" horiz-adv-x="1169" d="M586 592q-131 0 -240 64t-172 173.5t-63 239.5t63 239.5t172 173.5t240 64q130 0 239 -64t171.5 -173.5t62.5 -239.5t-62.5 -239.5t-171.5 -173.5t-239 -64zM586 631q181 0 307.5 128t126.5 310t-126.5 310t-307.5 128t-308.5 -128t-127.5 -310t127.5 -310t308.5 -128z M428 803v534h178q90 0 137.5 -37.5t47.5 -107.5q0 -67 -40.5 -104.5t-113.5 -45.5l154 -239h-48l-149 237h-125v-237h-41zM469 1079h133q70 0 110 28t40 85q0 52 -38 79t-108 27h-137v-219z" />
<glyph unicode="&#xb4;" horiz-adv-x="1024" d="M584 1192l217 309h88l-273 -309h-32z" />
<glyph unicode="&#xb8;" horiz-adv-x="1024" d="M518 -397q-141 0 -248 78l25 34q97 -69 223 -69q79 0 130.5 33.5t51.5 99.5q0 33 -28 55.5t-70 22.5q-56 0 -137 -58l-33 25l51 176h45l-45 -150q50 50 119 50q63 0 104.5 -35t41.5 -86q0 -84 -65 -130t-165 -46z" />
<glyph unicode="&#xba;" horiz-adv-x="851" d="M426 883q-138 0 -234 100.5t-96 269.5q0 175 95.5 274t234.5 99t234.5 -99t95.5 -274q0 -169 -96 -269.5t-234 -100.5zM426 928q122 0 202.5 87.5t80.5 237.5q0 156 -79.5 242t-203.5 86t-203.5 -86t-79.5 -242q0 -150 80.5 -237.5t202.5 -87.5z" />
<glyph unicode="&#xbb;" horiz-adv-x="985" d="M150 0l294 537l-294 538h51l293 -538l-293 -537h-51zM514 0l295 537l-295 538h51l293 -538l-293 -537h-51z" />
<glyph unicode="&#x2c6;" horiz-adv-x="1024" d="M215 1182l281 319h32l281 -319h-43l-256 254l-252 -254h-43z" />
<glyph unicode="&#x2da;" horiz-adv-x="1024" d="M512 1196q-77 0 -128.5 51t-51.5 127q0 75 51.5 125.5t128.5 50.5t128.5 -50.5t51.5 -125.5q0 -76 -51.5 -127t-128.5 -51zM512 1241q58 0 95.5 37.5t37.5 95.5q0 57 -37.5 94t-95.5 37t-95.5 -37t-37.5 -94q0 -58 37.5 -95.5t95.5 -37.5z" />
<glyph unicode="&#x2dc;" horiz-adv-x="1024" d="M207 1192q0 90 34.5 131t108.5 41q35 0 80.5 -20t83 -43.5t82.5 -43.5t78 -20q52 0 74 30t22 97h47q0 -90 -34.5 -131t-108.5 -41q-47 0 -108.5 32t-119.5 63.5t-96 31.5q-52 0 -74 -30t-22 -97h-47z" />
<glyph unicode="&#x5b0;" d="M569 -297q-18 0 -32.5 13t-14.5 34q0 16 14.5 32.5t32.5 16.5t33.5 -14t15.5 -35q0 -15 -15 -31t-34 -16zM569 -475q-18 0 -32.5 13t-14.5 34q0 16 14.5 32.5t32.5 16.5t33.5 -14t15.5 -35q0 -15 -15 -31t-34 -16z" />
<glyph unicode="&#x5b1;" d="M737 -297q-18 0 -32.5 13t-14.5 34q0 16 14.5 32.5t32.5 16.5t33.5 -14t15.5 -35q0 -15 -15 -31t-34 -16zM410 -297q-16 0 -30.5 13.5t-14.5 33.5q0 16 13.5 31.5t31.5 15.5t33.5 -14t15.5 -33q0 -15 -14.5 -31t-34.5 -16zM573 -297q-20 0 -34.5 13t-14.5 34 q0 17 13.5 32t35.5 15q14 0 28.5 -14t14.5 -33q0 -17 -12 -32t-31 -15zM492 -449q-18 0 -33 13.5t-15 32.5t14.5 33t33.5 14q16 0 31.5 -14t15.5 -33q0 -17 -13.5 -31.5t-33.5 -14.5zM737 -475q-18 0 -32.5 13t-14.5 34q0 16 14.5 32.5t32.5 16.5t33.5 -14t15.5 -35 q0 -15 -15 -31t-34 -16z" />
<glyph unicode="&#x5b2;" d="M745 -307q-20 0 -34.5 14t-14.5 33q0 20 14.5 34.5t34.5 14.5q19 0 33.5 -14.5t14.5 -34.5q0 -19 -14.5 -33t-33.5 -14zM365 -274v47h282v-47h-282zM745 -487q-20 0 -34.5 14t-14.5 33q0 20 14.5 34.5t34.5 14.5q19 0 33.5 -14.5t14.5 -34.5q0 -19 -14.5 -33t-33.5 -14z " />
<glyph unicode="&#x5b3;" d="M741 -307q-20 0 -34.5 14t-14.5 33q0 20 14.5 34.5t34.5 14.5q19 0 33 -14.5t14 -34.5q0 -19 -14 -33t-33 -14zM473 -483v102l8 107h-121v47h279v-47h-121l8 -107v-102h-53zM741 -487q-20 0 -34.5 14t-14.5 33q0 20 14.5 34.5t34.5 14.5q19 0 33 -14.5t14 -34.5 q0 -19 -14 -33t-33 -14z" />
<glyph unicode="&#x5b4;" d="M580 -307q-20 0 -35 14t-15 33q0 20 15 34.5t35 14.5q19 0 33 -14.5t14 -34.5q0 -19 -14 -33t-33 -14z" />
<glyph unicode="&#x5b5;" d="M489 -297q-16 0 -30.5 13.5t-14.5 33.5q0 16 13.5 31.5t31.5 15.5t34 -14t16 -33q0 -15 -15 -31t-35 -16zM666 -297q-20 0 -35 13t-15 34q0 17 14 32t36 15q14 0 28.5 -14t14.5 -33q0 -17 -12 -32t-31 -15z" />
<glyph unicode="&#x5b6;" d="M483 -297q-16 0 -30.5 13.5t-14.5 33.5q0 16 13.5 31.5t31.5 15.5t33.5 -14t15.5 -33q0 -15 -14.5 -31t-34.5 -16zM659 -297q-20 0 -34.5 13t-14.5 34q0 17 13.5 32t35.5 15q14 0 28.5 -14t14.5 -33q0 -17 -12 -32t-31 -15zM571 -449q-18 0 -32.5 13t-14.5 33q0 19 14 33 t33 14q16 0 31.5 -14t15.5 -33q0 -17 -13.5 -31.5t-33.5 -14.5z" />
<glyph unicode="&#x5b7;" d="M412 -274v47h323v-47h-323z" />
<glyph unicode="&#x5b8;" d="M543 -483v139l16 70h-160v47h344v-47h-159l18 -70v-139h-59z" />
<glyph unicode="&#x5b9;" d="M184 1307q-20 0 -34.5 14t-14.5 33q0 20 14.5 34.5t34.5 14.5q19 0 33 -14.5t14 -34.5q0 -19 -14 -33t-33 -14z" />
<glyph unicode="&#x5ba;" d="M180 1307q-20 0 -34.5 14t-14.5 33q0 20 14.5 34.5t34.5 14.5q19 0 33 -14.5t14 -34.5q0 -19 -14 -33t-33 -14z" />
<glyph unicode="&#x5bb;" d="M567 -297q-16 0 -30.5 13.5t-14.5 33.5q0 16 13.5 31.5t31.5 15.5q16 0 31.5 -14t15.5 -33q0 -15 -14 -31t-33 -16zM672 -426q-16 0 -31.5 13t-15.5 30q0 19 13.5 34t33.5 15q18 0 33.5 -14.5t15.5 -34.5q0 -13 -15 -28t-34 -15zM774 -559q-16 0 -30.5 13.5t-14.5 31.5 q0 16 13.5 31.5t31.5 15.5q19 0 34 -13.5t15 -33.5q0 -14 -15 -29.5t-34 -15.5z" />
<glyph unicode="&#x5bc;" d="M240 549q-20 0 -35 14.5t-15 34.5t14.5 33.5t35.5 13.5q19 0 33 -13.5t14 -33.5t-14 -34.5t-33 -14.5z" />
<glyph unicode="&#x5be;" horiz-adv-x="483" d="M51 1116v43h381v-43h-381z" />
<glyph unicode="&#x5bf;" d="M336 1350v47h364v-47h-364z" />
<glyph unicode="&#x5c1;" d="M1231 1307q-20 0 -34.5 14t-14.5 33q0 20 14.5 34.5t34.5 14.5q19 0 33 -14.5t14 -34.5q0 -19 -14 -33t-33 -14z" />
<glyph unicode="&#x5c2;" d="M188 1307q-20 0 -34.5 14t-14.5 33q0 20 14.5 34.5t34.5 14.5q19 0 33.5 -14.5t14.5 -34.5q0 -19 -14.5 -33t-33.5 -14z" />
<glyph unicode="&#x5c7;" d="M553 -504v160l16 70h-139v47h303v-47h-139l18 -70v-160h-59z" />
<glyph unicode="&#x5d0;" horiz-adv-x="1181" d="M862 287q110 -142 155.5 -194t78.5 -77l-47 -36q-61 61 -113 131l-553 733l-252 -844h-53l266 889l-211 270h64l520 -682l266 682h57l-286 -731z" />
<glyph unicode="&#x5d1;" horiz-adv-x="1009" d="M113 0v45h675q-28 79 -28 209v606q0 254 -266 254h-367v45h371q313 0 313 -299v-620q0 -109 25 -195h143v-45h-866z" />
<glyph unicode="&#x5d2;" horiz-adv-x="684" d="M0 -8v53q297 53 438 315l-49 754h-278v45h325l53 -815l127 -344h-55l-110 307q-64 -130 -183 -212.5t-268 -102.5z" />
<glyph unicode="&#x5d3;" horiz-adv-x="958" d="M678 0v905q0 77 6 119.5t23 89.5h-646v45h805v-45h-112q-25 -82 -25 -194v-920h-51z" />
<glyph unicode="&#x5d4;" horiz-adv-x="1153" d="M918 0v1114h-734v45h785v-1159h-51zM190 0v506q0 112 27 168h47q-22 -70 -22 -252v-422h-52z" />
<glyph unicode="&#x5d5;" horiz-adv-x="452" d="M217 0v1114h-135v45h186v-1159h-51z" />
<glyph unicode="&#x5d6;" horiz-adv-x="638" d="M305 0l-61 889q-6 72 7 123.5t50 101.5h-219v45h475v-45h-209q-35 -52 -46.5 -97.5t-6.5 -117.5l61 -899h-51z" />
<glyph unicode="&#x5d7;" horiz-adv-x="1187" d="M184 0v1159h820v-1159h-52v1114h-716v-1114h-52z" />
<glyph unicode="&#x5d8;" horiz-adv-x="1208" d="M618 -20q-195 0 -314.5 143.5t-119.5 378.5v405q0 187 -22 252h49q25 -64 25 -168v-489q0 -214 105 -345.5t277 -131.5q174 0 280 131.5t106 345.5v358q0 132 -58 200t-170 68q-92 0 -180 -73l-25 37q102 82 205 82q135 0 206.5 -79.5t72.5 -234.5v-358 q0 -235 -120 -378.5t-317 -143.5z" />
<glyph unicode="&#x5d9;" horiz-adv-x="487" d="M283 506l-45 10q30 92 37.5 178.5t7.5 241.5v178h-211v45h262v-227q0 -140 -9.5 -238.5t-41.5 -187.5z" />
<glyph unicode="&#x5da;" horiz-adv-x="937" d="M702 -410v1524h-620v45h672v-1569h-52z" />
<glyph unicode="&#x5db;" horiz-adv-x="1001" d="M92 0v45h293q172 0 276.5 127t104.5 334v608h-674v45h725v-653q0 -228 -118.5 -367t-313.5 -139h-293z" />
<glyph unicode="&#x5dc;" horiz-adv-x="987" d="M379 -14l-27 37q92 61 163 128.5t132 158t94 207.5t33 255v342h-682v402h51v-357h682v-387q0 -506 -446 -786z" />
<glyph unicode="&#x5dd;" horiz-adv-x="1208" d="M184 0v1159h840v-1159h-840zM236 45h737v1069h-737v-1069z" />
<glyph unicode="&#x5de;" horiz-adv-x="1157" d="M963 856l30 -815l-4 -41h-411v45h362l-29 807q-6 142 -73.5 209t-204.5 67q-85 0 -179.5 -42t-166.5 -111l-90 -975h-54l99 987q-28 44 -74.5 86t-95.5 66l24 43q113 -60 178 -162q85 72 182.5 113t186.5 41q158 0 236 -77.5t84 -240.5z" />
<glyph unicode="&#x5df;" horiz-adv-x="462" d="M227 -410v1524h-135v45h187v-1569h-52z" />
<glyph unicode="&#x5e0;" horiz-adv-x="657" d="M168 -12q-80 0 -150 12v47q68 -12 142 -12q114 0 188 51.5t74 142.5v885h-264v45h315v-926q0 -115 -85 -180t-220 -65z" />
<glyph unicode="&#x5e1;" horiz-adv-x="1208" d="M618 -20q-89 0 -166.5 33t-137.5 96t-95 164.5t-35 228.5v657h527q344 0 344 -366v-291q0 -127 -36 -228.5t-97 -164.5t-139 -96t-165 -33zM618 27q170 0 278 122.5t108 352.5v291q0 162 -71 241.5t-222 79.5h-475v-612q0 -230 107 -352.5t275 -122.5z" />
<glyph unicode="&#x5e2;" horiz-adv-x="1101" d="M895 1159h51l-28 -661q-6 -136 -68.5 -248.5t-177.5 -181t-260 -68.5h-330v45h369h2q-42 42 -62.5 90.5t-32.5 114.5l-161 909h51l166 -921q11 -60 26.5 -103t48.5 -86q164 29 266.5 155.5t110.5 293.5z" />
<glyph unicode="&#x5e3;" horiz-adv-x="1040" d="M825 -410v1201q0 130 -55 194.5t-164 91.5l-284 53q-84 -90 -135.5 -201t-51.5 -202q0 -275 252 -334l-12 -53q-145 31 -219 129t-72 258q-2 109 56.5 229t164.5 226l297 -60q146 -28 210.5 -106t64.5 -225v-1201h-52z" />
<glyph unicode="&#x5e4;" horiz-adv-x="1103" d="M164 0v45h403q101 0 178.5 49t115.5 121.5t38 151.5v440q0 125 -72.5 198t-191.5 89l-283 30q-91 -109 -139.5 -196t-48.5 -183q0 -114 63 -174.5t189 -81.5l-13 -53q-290 44 -290 309q0 60 17 117.5t51.5 113.5t66 96.5t82.5 98.5l301 -32q156 -15 237.5 -100.5 t81.5 -231.5v-428q0 -153 -107 -266t-272 -113h-407z" />
<glyph unicode="&#x5e5;" horiz-adv-x="946" d="M877 1159l-353 -721q39 -89 53.5 -180.5t14.5 -212.5v-455h-51v494q2 91 -18.5 200.5t-65.5 186.5l-396 688h60l352 -618l25 -49l321 667h58z" />
<glyph unicode="&#x5e6;" horiz-adv-x="987" d="M920 1159l-322 -659l315 -455v-45h-784v45h721l-768 1114h63l418 -612l299 612h58z" />
<glyph unicode="&#x5e7;" horiz-adv-x="1134" d="M504 0l-27 37q92 61 163 128.5t132 158t94 207.5t33 255v328h-745v45h796v-373q0 -506 -446 -786zM190 -410v928q0 101 27 156h47q-22 -65 -22 -232v-852h-52z" />
<glyph unicode="&#x5e8;" horiz-adv-x="970" d="M745 0v860q0 254 -266 254h-397v45h397q318 0 318 -299v-860h-52z" />
<glyph unicode="&#x5e9;" horiz-adv-x="1429" d="M262 0l-98 1159h51l94 -1116h457q131 0 231.5 80.5t153.5 217.5t53 306v512h51v-512q0 -285 -137.5 -466t-351.5 -181h-504zM618 297l-38 29q116 171 116 426v407h52v-407q0 -276 -130 -455z" />
<glyph unicode="&#x5ea;" horiz-adv-x="1179" d="M86 -4q-20 0 -66 4v43q18 -2 58 -2q105 0 144.5 47.5t39.5 147.5v923h471q159 0 237.5 -77t78.5 -222v-860h-52v860q0 125 -68 189.5t-196 64.5h-420v-872q0 -125 -51 -185.5t-176 -60.5z" />
<glyph unicode="&#x5f0;" horiz-adv-x="905" d="M217 0v1114h-135v45h186v-1159h-51zM670 0v1114h-135v45h186v-1159h-51z" />
<glyph unicode="&#x5f1;" horiz-adv-x="940" d="M217 0v1114h-135v45h186v-1159h-51zM735 506l-45 10q30 92 37.5 178.5t7.5 241.5v178h-211v45h262v-227q0 -140 -9.5 -238.5t-41.5 -187.5z" />
<glyph unicode="&#x5f2;" horiz-adv-x="974" d="M283 506l-45 10q30 92 37.5 178.5t7.5 241.5v178h-211v45h262v-227q0 -140 -9.5 -238.5t-41.5 -187.5zM770 506l-45 10q30 92 37.5 178.5t7.5 241.5v178h-211v45h262v-227q0 -140 -9.5 -238.5t-41.5 -187.5z" />
<glyph unicode="&#x5f3;" horiz-adv-x="270" d="M117 1026l-27 12q24 41 32.5 87.5t8.5 123.5h-39v107h88v-94q0 -149 -63 -236z" />
<glyph unicode="&#x5f4;" horiz-adv-x="462" d="M117 1026l-27 12q24 41 32.5 87.5t8.5 123.5h-39v107h88v-94q0 -149 -63 -236zM309 1026l-26 12q24 41 32.5 87.5t8.5 123.5h-39v107h88v-94q0 -148 -64 -236z" />
<glyph unicode="&#x2000;" horiz-adv-x="821" />
<glyph unicode="&#x2001;" horiz-adv-x="1642" />
<glyph unicode="&#x2002;" horiz-adv-x="821" />
<glyph unicode="&#x2003;" horiz-adv-x="1642" />
<glyph unicode="&#x2004;" horiz-adv-x="547" />
<glyph unicode="&#x2005;" horiz-adv-x="410" />
<glyph unicode="&#x2006;" horiz-adv-x="273" />
<glyph unicode="&#x2007;" horiz-adv-x="273" />
<glyph unicode="&#x2008;" horiz-adv-x="205" />
<glyph unicode="&#x2009;" horiz-adv-x="328" />
<glyph unicode="&#x200a;" horiz-adv-x="91" />
<glyph unicode="&#x2010;" horiz-adv-x="716" d="M152 623v47h413v-47h-413z" />
<glyph unicode="&#x2011;" horiz-adv-x="716" d="M152 623v47h413v-47h-413z" />
<glyph unicode="&#x2012;" horiz-adv-x="716" d="M152 623v47h413v-47h-413z" />
<glyph unicode="&#x2013;" horiz-adv-x="1187" d="M152 623v47h884v-47h-884z" />
<glyph unicode="&#x2014;" horiz-adv-x="1884" d="M152 623v47h1581v-47h-1581z" />
<glyph unicode="&#x2018;" horiz-adv-x="292" d="M90 1053v94q0 147 64 235l26 -12q-24 -41 -32.5 -87.5t-8.5 -123.5h39v-106h-88z" />
<glyph unicode="&#x2019;" horiz-adv-x="270" d="M117 1026l-27 12q24 41 32.5 87.5t8.5 123.5h-39v107h88v-94q0 -149 -63 -236z" />
<glyph unicode="&#x201a;" horiz-adv-x="270" d="M117 -223l-27 12q24 41 32.5 87.5t8.5 123.5h-39v106h88v-94q0 -148 -63 -235z" />
<glyph unicode="&#x201c;" horiz-adv-x="485" d="M90 1053v94q0 147 64 235l26 -12q-24 -41 -32.5 -87.5t-8.5 -123.5h39v-106h-88zM283 1053v94q0 148 63 235l27 -12q-24 -41 -32.5 -87.5t-8.5 -123.5h39v-106h-88z" />
<glyph unicode="&#x201d;" horiz-adv-x="462" d="M117 1026l-27 12q24 41 32.5 87.5t8.5 123.5h-39v107h88v-94q0 -149 -63 -236zM309 1026l-26 12q24 41 32.5 87.5t8.5 123.5h-39v107h88v-94q0 -148 -64 -236z" />
<glyph unicode="&#x201e;" horiz-adv-x="462" d="M117 -223l-27 12q24 41 32.5 87.5t8.5 123.5h-39v106h88v-94q0 -148 -63 -235zM309 -223l-26 12q24 41 32.5 87.5t8.5 123.5h-39v106h88v-94q0 -147 -64 -235z" />
<glyph unicode="&#x2022;" horiz-adv-x="944" d="M469 518q-88 0 -143.5 55.5t-55.5 143.5q0 89 55.5 145t143.5 56q89 0 146 -56t57 -145q0 -88 -57 -143.5t-146 -55.5z" />
<glyph unicode="&#x2026;" horiz-adv-x="1081" d="M154 0v106h88v-106h-88zM498 0v106h88v-106h-88zM840 0v106h88v-106h-88z" />
<glyph unicode="&#x202f;" horiz-adv-x="328" />
<glyph unicode="&#x2039;" horiz-adv-x="641" d="M420 0l-293 539l293 536h51l-295 -536l295 -539h-51z" />
<glyph unicode="&#x203a;" horiz-adv-x="641" d="M170 0l295 537l-295 538h51l293 -538l-293 -537h-51z" />
<glyph unicode="&#x2044;" horiz-adv-x="954" d="M0 0l903 1516h51l-903 -1516h-51z" />
<glyph unicode="&#x205f;" horiz-adv-x="410" />
<glyph unicode="&#x20ac;" horiz-adv-x="1478" d="M846 -31q-221 0 -376.5 171t-195.5 446h-233v47h227q-8 60 -8 137q0 64 6 123h-225v47h231q40 271 194 438.5t368 167.5q87 0 159 -25.5t122.5 -66t92 -102.5t68.5 -123t51 -139l-49 -17q-23 73 -46 128.5t-60.5 114.5t-82.5 96.5t-110.5 62t-144.5 24.5 q-194 0 -332.5 -154.5t-177.5 -404.5h522v-47h-529q-6 -59 -6 -123q0 -77 8 -137h527v-47h-520q41 -255 180 -412.5t340 -157.5q85 0 156 28t117.5 70t85 105t59.5 117t41 123l49 -13q-16 -61 -37 -115.5t-63 -124t-94 -119t-134 -84t-180 -34.5z" />
<glyph unicode="&#x2122;" horiz-adv-x="1763" d="M350 649v821h-289v46h629v-46h-293v-821h-47zM860 649v867h37l342 -816l348 816h39v-867h-45v756l-324 -756h-43l-315 750v-750h-39z" />
<glyph unicode="&#x25fc;" horiz-adv-x="1075" d="M0 1075h1075v-1075h-1075v1075z" />
<glyph unicode="&#xfb1f;" horiz-adv-x="974" d="M283 506l-45 10q30 92 37.5 178.5t7.5 241.5v178h-211v45h262v-227q0 -140 -9.5 -238.5t-41.5 -187.5zM770 506l-45 10q30 92 37.5 178.5t7.5 241.5v178h-211v45h262v-227q0 -140 -9.5 -238.5t-41.5 -187.5zM322 -274v47h323v-47h-323z" />
<glyph unicode="&#xfb20;" horiz-adv-x="1101" d="M895 1159h51l-28 -661q-4 -101 -42 -191.5t-102.5 -158.5t-158.5 -108t-203 -40h-330v45h348q-51 93 -74 205l-159 909h51l164 -919q8 -43 14.5 -68.5t22.5 -60.5t40 -60q165 27 268 153.5t109 293.5z" />
<glyph unicode="&#xfb21;" horiz-adv-x="1888" d="M1505 213q141 -107 198.5 -144.5t98.5 -54.5l-37 -49q-103 66 -141 96l-1044 793l-443 -854h-59l461 885l-361 274h82l916 -696l466 696h68l-493 -727z" />
<glyph unicode="&#xfb22;" horiz-adv-x="1818" d="M1456 0v1114h-1395v45h1665v-45h-219v-1114h-51z" />
<glyph unicode="&#xfb23;" horiz-adv-x="1939" d="M1704 0v1114h-1520v45h1571v-1159h-51zM190 0v465q0 113 27 168l47 -12q-22 -65 -22 -240v-381h-52z" />
<glyph unicode="&#xfb24;" horiz-adv-x="1742" d="M92 0v45h1034q167 0 274 124.5t107 336.5v608h-1415v45h1467v-653q0 -121 -34.5 -218.5t-94.5 -159.5t-138 -95t-166 -33h-1034z" />
<glyph unicode="&#xfb25;" horiz-adv-x="1650" d="M801 -14l-13 43q158 24 288.5 85t226.5 154t149 222t53 282v342h-1413v402h51v-357h1413v-387q0 -212 -99.5 -380.5t-268.5 -270.5t-387 -135z" />
<glyph unicode="&#xfb26;" horiz-adv-x="2054" d="M184 0v1159h1686v-1159h-1686zM236 45h1583v1069h-1583v-1069z" />
<glyph unicode="&#xfb27;" horiz-adv-x="1693" d="M1468 0v860q0 254 -266 254h-1120v45h1120q318 0 318 -299v-860h-52z" />
<glyph unicode="&#xfb28;" horiz-adv-x="2060" d="M168 -4q-102 0 -148 4v43q18 -2 140 -2q105 0 144.5 47.5t39.5 147.5v923h1270q159 0 237 -77t78 -222v-860h-51v860q0 125 -68 189.5t-196 64.5h-1219v-872q0 -125 -51 -185.5t-176 -60.5z" />
<glyph unicode="&#xfb29;" horiz-adv-x="1277" d="M201 625v45h415v415h48v-415h413v-45h-876z" />
<glyph unicode="&#xfb2a;" horiz-adv-x="1429" d="M1231 1307q-20 0 -34.5 14t-14.5 33q0 20 14.5 34.5t34.5 14.5q19 0 33 -14.5t14 -34.5q0 -19 -14 -33t-33 -14zM262 0l-98 1159h51l94 -1116h457q131 0 231.5 80.5t153.5 217.5t53 306v512h51v-512q0 -285 -137.5 -466t-351.5 -181h-504zM618 297l-38 29 q116 171 116 426v407h52v-407q0 -276 -130 -455z" />
<glyph unicode="&#xfb2b;" horiz-adv-x="1429" d="M188 1307q-20 0 -34.5 14t-14.5 33q0 20 14.5 34.5t34.5 14.5q19 0 33.5 -14.5t14.5 -34.5q0 -19 -14.5 -33t-33.5 -14zM262 0l-98 1159h51l94 -1116h457q131 0 231.5 80.5t153.5 217.5t53 306v512h51v-512q0 -285 -137.5 -466t-351.5 -181h-504zM618 297l-38 29 q116 171 116 426v407h52v-407q0 -276 -130 -455z" />
<glyph unicode="&#xfb2c;" horiz-adv-x="1429" d="M1231 1307q-20 0 -34.5 14t-14.5 33q0 20 14.5 34.5t34.5 14.5q19 0 33 -14.5t14 -34.5q0 -19 -14 -33t-33 -14zM262 0l-98 1159h51l94 -1116h457q131 0 231.5 80.5t153.5 217.5t53 306v512h51v-512q0 -285 -137.5 -466t-351.5 -181h-504zM618 297l-38 29 q116 171 116 426v407h52v-407q0 -276 -130 -455zM961 567q-20 0 -35 14.5t-15 34.5t15 34t35 14q19 0 33 -14t14 -34t-14 -34.5t-33 -14.5z" />
<glyph unicode="&#xfb2d;" horiz-adv-x="1429" d="M188 1307q-20 0 -34.5 14t-14.5 33q0 20 14.5 34.5t34.5 14.5q19 0 33.5 -14.5t14.5 -34.5q0 -19 -14.5 -33t-33.5 -14zM262 0l-98 1159h51l94 -1116h457q131 0 231.5 80.5t153.5 217.5t53 306v512h51v-512q0 -285 -137.5 -466t-351.5 -181h-504zM618 297l-38 29 q116 171 116 426v407h52v-407q0 -276 -130 -455zM961 567q-20 0 -35 14.5t-15 34.5t15 34t35 14q19 0 33 -14t14 -34t-14 -34.5t-33 -14.5z" />
<glyph unicode="&#xfb2e;" horiz-adv-x="1181" d="M862 287q110 -142 155.5 -194t78.5 -77l-47 -36q-61 61 -113 131l-553 733l-252 -844h-53l266 889l-211 270h64l520 -682l266 682h57l-286 -731zM408 -274v47h323v-47h-323z" />
<glyph unicode="&#xfb2f;" horiz-adv-x="1181" d="M862 287q110 -142 155.5 -194t78.5 -77l-47 -36q-61 61 -113 131l-553 733l-252 -844h-53l266 889l-211 270h64l520 -682l266 682h57l-286 -731zM397 -274v47h344v-47h-159l18 -70v-139h-59v139l16 70h-160z" />
<glyph unicode="&#xfb30;" horiz-adv-x="1181" d="M862 287q110 -142 155.5 -194t78.5 -77l-47 -36q-61 61 -113 131l-553 733l-252 -844h-53l266 889l-211 270h64l520 -682l266 682h57l-286 -731zM475 391q19 0 33 -13.5t14 -33.5t-14 -34.5t-33 -14.5q-20 0 -34.5 14.5t-14.5 34.5t14.5 33.5t34.5 13.5z" />
<glyph unicode="&#xfb31;" horiz-adv-x="1009" d="M113 0v45h675q-28 79 -28 209v606q0 254 -266 254h-367v45h371q313 0 313 -299v-620q0 -109 25 -195h143v-45h-866zM412 549q-20 0 -35 14.5t-15 34.5t14.5 33.5t35.5 13.5q19 0 33 -13.5t14 -33.5t-14 -34.5t-33 -14.5z" />
<glyph unicode="&#xfb32;" horiz-adv-x="684" d="M0 -8v53q297 53 438 315l-49 754h-278v45h325l53 -815l127 -344h-55l-110 307q-64 -130 -183 -212.5t-268 -102.5zM195 549q-20 0 -35 14.5t-15 34.5t14.5 33.5t35.5 13.5q19 0 33 -13.5t14 -33.5t-14 -34.5t-33 -14.5z" />
<glyph unicode="&#xfb33;" horiz-adv-x="958" d="M678 0v905q0 77 6 119.5t23 89.5h-646v45h805v-45h-112q-25 -82 -25 -194v-920h-51zM365 567q-20 0 -35 14.5t-15 34.5t15 34t35 14q19 0 33 -14t14 -34t-14 -34.5t-33 -14.5z" />
<glyph unicode="&#xfb34;" horiz-adv-x="1153" d="M918 0v1114h-734v45h785v-1159h-51zM190 0v506q0 112 27 168h47q-22 -70 -22 -252v-422h-52zM578 567q-20 0 -35 14.5t-15 34.5t15 34t35 14q19 0 33 -14t14 -34t-14 -34.5t-33 -14.5z" />
<glyph unicode="&#xfb35;" horiz-adv-x="452" d="M217 0v1114h-135v45h186v-1159h-51zM41 567q-20 0 -34.5 14.5t-14.5 34.5t14.5 34t34.5 14q19 0 33 -14t14 -34t-14 -34.5t-33 -14.5z" />
<glyph unicode="&#xfb36;" horiz-adv-x="638" d="M305 0l-61 889q-6 72 7 123.5t50 101.5h-219v45h475v-45h-209q-35 -52 -46.5 -97.5t-6.5 -117.5l61 -899h-51zM96 567q-20 0 -34.5 14.5t-14.5 34.5t14.5 34t34.5 14q19 0 33 -14t14 -34t-14 -34.5t-33 -14.5z" />
<glyph unicode="&#xfb38;" horiz-adv-x="1208" d="M618 -20q-195 0 -314.5 143.5t-119.5 378.5v405q0 187 -22 252h49q25 -64 25 -168v-489q0 -214 105 -345.5t277 -131.5q174 0 280 131.5t106 345.5v358q0 132 -58 200t-170 68q-92 0 -180 -73l-25 37q102 82 205 82q135 0 206.5 -79.5t72.5 -234.5v-358 q0 -235 -120 -378.5t-317 -143.5zM614 547q-20 0 -34.5 14.5t-14.5 34.5t14.5 33.5t34.5 13.5q19 0 33.5 -13.5t14.5 -33.5t-14.5 -34.5t-33.5 -14.5z" />
<glyph unicode="&#xfb39;" horiz-adv-x="487" d="M283 506l-45 10q30 92 37.5 178.5t7.5 241.5v178h-211v45h262v-227q0 -140 -9.5 -238.5t-41.5 -187.5zM125 801q-20 0 -34.5 14.5t-14.5 34.5t14.5 33.5t34.5 13.5q19 0 33 -13.5t14 -33.5t-14 -34.5t-33 -14.5z" />
<glyph unicode="&#xfb3a;" horiz-adv-x="937" d="M702 -410v1524h-620v45h672v-1569h-52zM365 770q-20 0 -35 14.5t-15 34.5t14.5 33.5t35.5 13.5q19 0 33 -13.5t14 -33.5t-14 -34.5t-33 -14.5z" />
<glyph unicode="&#xfb3b;" horiz-adv-x="1001" d="M92 0v45h293q172 0 276.5 127t104.5 334v608h-674v45h725v-653q0 -228 -118.5 -367t-313.5 -139h-293zM387 549q-20 0 -34.5 14.5t-14.5 34.5t14.5 33.5t34.5 13.5q19 0 33 -13.5t14 -33.5t-14 -34.5t-33 -14.5z" />
<glyph unicode="&#xfb3c;" horiz-adv-x="987" d="M379 -14l-27 37q92 61 163 128.5t132 158t94 207.5t33 255v342h-682v402h51v-357h682v-387q0 -506 -446 -786zM391 567q-20 0 -34.5 14.5t-14.5 34.5t14.5 34t34.5 14q19 0 33 -14t14 -34t-14 -34.5t-33 -14.5z" />
<glyph unicode="&#xfb3e;" horiz-adv-x="1157" d="M963 856l30 -815l-4 -41h-411v45h362l-29 807q-6 142 -73.5 209t-204.5 67q-85 0 -179.5 -42t-166.5 -111l-90 -975h-54l99 987q-28 44 -74.5 86t-95.5 66l24 43q113 -60 178 -162q85 72 182.5 113t186.5 41q158 0 236 -77.5t84 -240.5zM641 616q0 -20 -14 -34.5 t-33 -14.5q-20 0 -34.5 14.5t-14.5 34.5t14.5 34t34.5 14q19 0 33 -14t14 -34z" />
<glyph unicode="&#xfb40;" horiz-adv-x="657" d="M168 -12q-80 0 -150 12v47q68 -12 142 -12q114 0 188 51.5t74 142.5v885h-264v45h315v-926q0 -115 -85 -180t-220 -65zM207 567q-20 0 -34.5 14.5t-14.5 34.5t14.5 34t34.5 14q19 0 33 -14t14 -34t-14 -34.5t-33 -14.5z" />
<glyph unicode="&#xfb41;" horiz-adv-x="1208" d="M618 -20q-89 0 -166.5 33t-137.5 96t-95 164.5t-35 228.5v657h527q344 0 344 -366v-291q0 -127 -36 -228.5t-97 -164.5t-139 -96t-165 -33zM618 27q170 0 278 122.5t108 352.5v291q0 162 -71 241.5t-222 79.5h-475v-612q0 -230 107 -352.5t275 -122.5zM621 567 q-20 0 -35 14.5t-15 34.5t15 34t35 14q19 0 33 -14t14 -34t-14 -34.5t-33 -14.5z" />
<glyph unicode="&#xfb43;" horiz-adv-x="1040" d="M825 -410v1201q0 130 -55 194.5t-164 91.5l-284 53q-84 -90 -135.5 -201t-51.5 -202q0 -275 252 -334l-12 -53q-145 31 -219 129t-72 258q-2 109 56.5 229t164.5 226l297 -60q146 -28 210.5 -106t64.5 -225v-1201h-52zM475 674q-20 0 -34.5 14.5t-14.5 34.5t14.5 33.5 t34.5 13.5q19 0 33 -13.5t14 -33.5t-14 -34.5t-33 -14.5z" />
<glyph unicode="&#xfb44;" horiz-adv-x="1103" d="M164 0v45h403q101 0 178.5 49t115.5 121.5t38 151.5v440q0 125 -72.5 198t-191.5 89l-283 30q-91 -109 -139.5 -196t-48.5 -183q0 -114 63 -174.5t189 -81.5l-13 -53q-290 44 -290 309q0 60 17 117.5t51.5 113.5t66 96.5t82.5 98.5l301 -32q156 -15 237.5 -100.5 t81.5 -231.5v-428q0 -153 -107 -266t-272 -113h-407zM539 709q-20 0 -35 14.5t-15 34.5t14.5 33.5t35.5 13.5q19 0 33 -13.5t14 -33.5t-14 -34.5t-33 -14.5z" />
<glyph unicode="&#xfb46;" horiz-adv-x="987" d="M920 1159l-322 -659l315 -455v-45h-784v45h721l-768 1114h63l418 -612l299 612h58zM420 305q0 -20 -14 -34.5t-33 -14.5q-20 0 -34.5 14.5t-14.5 34.5t14.5 33.5t34.5 13.5q19 0 33 -13.5t14 -33.5z" />
<glyph unicode="&#xfb47;" horiz-adv-x="1134" d="M504 0l-27 37q92 61 163 128.5t132 158t94 207.5t33 255v328h-745v45h796v-373q0 -506 -446 -786zM190 -410v928q0 101 27 156h47q-22 -65 -22 -232v-852h-52zM555 567q-20 0 -34.5 14.5t-14.5 34.5t14.5 34t34.5 14q19 0 33 -14t14 -34t-14 -34.5t-33 -14.5z" />
<glyph unicode="&#xfb48;" horiz-adv-x="970" d="M745 0v860q0 254 -266 254h-397v45h397q318 0 318 -299v-860h-52zM389 567q-20 0 -34.5 14.5t-14.5 34.5t14.5 34t34.5 14q19 0 33 -14t14 -34t-14 -34.5t-33 -14.5z" />
<glyph unicode="&#xfb49;" horiz-adv-x="1429" d="M262 0l-98 1159h51l94 -1116h457q131 0 231.5 80.5t153.5 217.5t53 306v512h51v-512q0 -285 -137.5 -466t-351.5 -181h-504zM618 297l-38 29q116 171 116 426v407h52v-407q0 -276 -130 -455zM961 567q-20 0 -35 14.5t-15 34.5t15 34t35 14q19 0 33 -14t14 -34t-14 -34.5 t-33 -14.5z" />
<glyph unicode="&#xfb4a;" horiz-adv-x="1179" d="M86 -4q-20 0 -66 4v43q18 -2 58 -2q105 0 144.5 47.5t39.5 147.5v923h471q159 0 237.5 -77t78.5 -222v-860h-52v860q0 125 -68 189.5t-196 64.5h-420v-872q0 -125 -51 -185.5t-176 -60.5zM662 567q-20 0 -35 14.5t-15 34.5t15 34t35 14q19 0 33 -14t14 -34t-14 -34.5 t-33 -14.5z" />
<glyph unicode="&#xfb4b;" horiz-adv-x="452" d="M174 1307q-20 0 -34.5 14t-14.5 33q0 20 14.5 34.5t34.5 14.5q19 0 33 -14.5t14 -34.5q0 -19 -14 -33t-33 -14zM217 0v1114h-135v45h186v-1159h-51z" />
<glyph unicode="&#xfb4c;" horiz-adv-x="1009" d="M270 1350v47h365v-47h-365zM113 0v45h675q-28 79 -28 209v606q0 254 -266 254h-367v45h371q313 0 313 -299v-620q0 -109 25 -195h143v-45h-866z" />
<glyph unicode="&#xfb4d;" horiz-adv-x="1001" d="M270 1350v47h365v-47h-365zM92 0v45h293q172 0 276.5 127t104.5 334v608h-674v45h725v-653q0 -228 -118.5 -367t-313.5 -139h-293z" />
<glyph unicode="&#xfb4e;" horiz-adv-x="1103" d="M348 1350v47h365v-47h-365zM164 0v45h403q101 0 178.5 49t115.5 121.5t38 151.5v440q0 125 -72.5 198t-191.5 89l-283 30q-91 -109 -139.5 -196t-48.5 -183q0 -114 63 -174.5t189 -81.5l-13 -53q-290 44 -290 309q0 60 17 117.5t51.5 113.5t66 96.5t82.5 98.5l301 -32 q156 -15 237.5 -100.5t81.5 -231.5v-428q0 -153 -107 -266t-272 -113h-407z" />
<glyph unicode="&#xfb4f;" horiz-adv-x="1030" d="M897 -20q-60 61 -113 131l-706 925v467h51v-454l436 -572l266 682h58l-287 -731l109 -141q111 -143 156 -194.5t77 -76.5z" />
<glyph horiz-adv-x="1146" d="M74 0l473 1219h55l473 -1219h-53l-168 430h-563l-166 -430h-51zM309 473h529l-265 684z" />
<glyph horiz-adv-x="1177" d="M182 0v1212h367q236 0 350.5 -71t114.5 -236q0 -65 -26 -118t-68 -85t-86.5 -51t-90.5 -26q43 -5 83.5 -16t87 -35t80.5 -56.5t56.5 -85.5t22.5 -119q0 -148 -112 -230.5t-324 -82.5h-455zM231 645h359q170 0 272.5 65.5t102.5 192.5q0 146 -100.5 205t-311.5 59h-322 v-522zM231 45h408q188 0 286.5 70t98.5 198q0 143 -111.5 215t-320.5 72h-361v-555z" />
<glyph horiz-adv-x="1222" d="M649 -25q-156 0 -277.5 83t-188 229t-66.5 329q0 177 67.5 319t187.5 222t269 80q97 0 174.5 -29t130.5 -82t87.5 -114.5t60.5 -139.5l-50 -16q-23 73 -53.5 129t-77.5 105t-116 75.5t-156 26.5q-206 0 -339.5 -163t-133.5 -413q0 -259 133.5 -427.5t347.5 -168.5 q311 0 420 349l47 -13q-11 -41 -28 -80t-43 -84t-63.5 -82t-84.5 -68.5t-111 -49t-137 -17.5z" />
<glyph horiz-adv-x="1206" d="M182 0v1212h246q670 0 670 -606t-670 -606h-246zM231 45h203q309 0 461 138t152 423t-152 423t-461 138h-203v-1122z" />
<glyph horiz-adv-x="1028" d="M182 0v1212h742v-45h-693v-499h525v-45h-525v-578h707v-45h-756z" />
<glyph horiz-adv-x="987" d="M182 0v1212h725v-45h-676v-501h508v-45h-508v-621h-49z" />
<glyph horiz-adv-x="1251" d="M639 -25q-104 0 -198 42t-167.5 120.5t-117 202t-43.5 276.5q0 168 60.5 308t180.5 226.5t279 86.5q335 0 457 -371l-46 -14q-30 80 -64 138.5t-82 106t-114.5 71.5t-150.5 24q-109 0 -199 -46.5t-149 -126t-91 -183t-32 -218.5q0 -143 39 -258.5t105.5 -188.5 t152.5 -112t182 -39q186 0 294.5 128t108.5 348h-348v45h398v-541h-50v266q-40 -126 -143 -208.5t-262 -82.5z" />
<glyph horiz-adv-x="1275" d="M182 0v1212h49v-546h811v546h52v-1212h-52v623h-811v-623h-49z" />
<glyph horiz-adv-x="438" d="M195 0v1212h49v-1212h-49z" />
<glyph horiz-adv-x="860" d="M369 -25q-110 0 -186.5 52.5t-119.5 130.5l43 24q37 -68 102.5 -115t160.5 -47q138 0 204 70.5t66 212.5v909h49v-909q0 -166 -78.5 -247t-240.5 -81z" />
<glyph horiz-adv-x="1134" d="M182 0v1212h49v-729l727 729h60l-455 -458l524 -754h-57l-500 719l-299 -297v-422h-49z" />
<glyph horiz-adv-x="987" d="M182 0v1212h49v-1167h678v-45h-727z" />
<glyph horiz-adv-x="1513" d="M182 0v1212h49l525 -1151l528 1151h47v-1212h-49v1100l-502 -1100h-47l-504 1100v-1100h-47z" />
<glyph horiz-adv-x="1286" d="M182 0v1212h49l826 -1122v1122h47v-1212h-41l-834 1137v-1137h-47z" />
<glyph horiz-adv-x="1292" d="M645 -25q-231 0 -379.5 176t-148.5 455t148.5 455t379.5 176q229 0 379 -176.5t150 -454.5t-150 -454.5t-379 -176.5zM645 20q210 0 344.5 163.5t134.5 422.5t-134.5 422.5t-344.5 163.5q-211 0 -345 -163.5t-134 -422.5t134 -422.5t345 -163.5z" />
<glyph horiz-adv-x="1091" d="M182 0v1212h391q213 0 327 -85t114 -230q0 -144 -114.5 -227.5t-328.5 -83.5h-340v-586h-49zM231 631h344q189 0 288.5 70.5t99.5 195.5q0 127 -99.5 198.5t-288.5 71.5h-344v-536z" />
<glyph horiz-adv-x="1292" d="M971 -285q-349 0 -355 262q-219 11 -359 185.5t-140 443.5q0 279 148.5 455t379.5 176q229 0 379 -176.5t150 -454.5q0 -270 -142 -445t-364 -184q1 -114 77.5 -165.5t225.5 -51.5h82v-45h-82zM645 20q210 0 344.5 163.5t134.5 422.5t-134.5 423.5t-344.5 164.5 q-211 0 -345 -164.5t-134 -423.5t134 -422.5t345 -163.5z" />
<glyph horiz-adv-x="1159" d="M182 0v1212h391q213 0 327 -85.5t114 -227.5q0 -129 -94.5 -210.5t-270.5 -96.5l369 -592h-57l-367 590h-363v-590h-49zM231 633h344q189 0 288.5 69.5t99.5 194.5q0 127 -99.5 198.5t-288.5 71.5h-344v-534z" />
<glyph horiz-adv-x="1118" d="M578 -25q-107 0 -189.5 24.5t-137 70.5t-89 101.5t-58.5 129.5l48 16q49 -146 147.5 -221.5t280.5 -75.5q169 0 270.5 72t101.5 195q0 67 -19 113.5t-67 84.5t-114.5 65.5t-176.5 61.5q-95 28 -153.5 50t-110 50t-78 61t-41 77.5t-14.5 105.5q0 119 100.5 200t274.5 81 q167 0 270 -77t150 -204l-47 -16q-98 252 -373 252q-156 0 -241 -67.5t-85 -168.5q0 -63 19 -106.5t66.5 -78t109.5 -59t168 -55.5q75 -22 124.5 -39.5t100.5 -41.5t82 -50t56.5 -60.5t36.5 -78.5t11 -100q0 -145 -115.5 -228.5t-307.5 -83.5z" />
<glyph horiz-adv-x="1073" d="M514 0v1167h-446v45h938v-45h-443v-1167h-49z" />
<glyph horiz-adv-x="1253" d="M627 -25q-210 0 -332.5 119t-122.5 297v821h49v-819q0 -160 109.5 -266.5t296.5 -106.5q183 0 295 105t112 256v831h47v-833q0 -168 -125.5 -286t-328.5 -118z" />
<glyph horiz-adv-x="1153" d="M551 -6l-475 1218h49l455 -1159l448 1159h51l-475 -1218h-53z" />
<glyph horiz-adv-x="1605" d="M446 0l-362 1212h49l338 -1128l307 1128h49l336 -1128l312 1128h47l-334 -1212h-49l-334 1135l-309 -1135h-50z" />
<glyph horiz-adv-x="1130" d="M59 0l476 651l-408 561h55l381 -522l381 522h53l-407 -557l477 -655h-55l-449 614l-450 -614h-54z" />
<glyph horiz-adv-x="1056" d="M504 0v551l-447 661h56l415 -618l416 618h53l-444 -661v-551h-49z" />
<glyph horiz-adv-x="1083" d="M84 0v43l848 1124h-803v45h860v-43l-846 -1124h842v-45h-901z" />
<glyph horiz-adv-x="872" d="M436 -426q-144 0 -221.5 124t-77.5 327q0 202 78 326t221 124q144 0 224.5 -124.5t80.5 -325.5q0 -202 -80.5 -326.5t-224.5 -124.5zM436 -379q123 0 188.5 110.5t65.5 293.5t-65.5 293t-188.5 110t-189.5 -110.5t-66.5 -292.5t66.5 -293t189.5 -111z" />
<glyph horiz-adv-x="620" d="M123 -410v45h184v775q-23 -19 -78.5 -32t-101.5 -13v45q141 0 182 47h45v-822h166v-45h-397z" />
<glyph horiz-adv-x="784" d="M121 -410v17q0 94 24 151t86 110.5t199 137.5q101 62 144.5 114t43.5 118q0 93 -57.5 141.5t-154.5 48.5q-79 0 -140.5 -43t-89.5 -106l-43 18q33 74 106.5 125t166.5 51q119 0 189.5 -60.5t70.5 -174.5q0 -80 -49.5 -140t-163.5 -129q-129 -78 -186 -126t-77 -91.5 t-22 -116.5h496v-45h-543z" />
<glyph horiz-adv-x="763" d="M367 -424q-202 0 -293 170l41 21q79 -146 252 -146q107 0 168 52.5t61 146.5q0 105 -59 160t-201 55h-55v45h51q123 0 185.5 39.5t62.5 134.5q0 174 -207 174q-139 0 -215 -115l-39 25q87 135 254 135q254 0 254 -219q0 -81 -43 -130t-119 -65q86 -17 132 -82.5 t46 -156.5q0 -116 -73.5 -180t-202.5 -64z" />
<glyph horiz-adv-x="804" d="M528 -408v232h-438v43l447 590h36v-590h162v-43h-162v-232h-45zM141 -133h387v512z" />
<glyph horiz-adv-x="811" d="M393 -424q-58 0 -107 18.5t-80 48.5t-49 55.5t-30 51.5l43 19q9 -22 24 -43.5t41 -47t67 -41.5t91 -16q124 0 185 73.5t61 190.5q0 115 -65 177.5t-166 62.5q-73 0 -119 -25t-82 -77l-43 10l35 424h428v-45h-385l-27 -318q34 35 85.5 55.5t107.5 20.5q122 0 200 -74.5 t78 -210.5q0 -137 -73 -223t-220 -86z" />
<glyph horiz-adv-x="819" d="M428 -424q-57 0 -107 23.5t-93.5 72t-69 135.5t-25.5 203q0 211 83 337t235 126q60 0 109 -17.5t102 -60.5l-31 -35q-81 68 -180 68q-129 0 -200 -114t-71 -304q47 47 113.5 82t134.5 35q72 0 126.5 -22t85.5 -60.5t46.5 -84.5t15.5 -99q0 -120 -74.5 -202.5 t-199.5 -82.5zM428 -379q104 0 165.5 69.5t61.5 170.5q0 94 -56 157.5t-171 63.5q-71 0 -136.5 -40.5t-109.5 -90.5q11 -170 81 -250t165 -80z" />
<glyph horiz-adv-x="759" d="M215 -408l393 820h-473v45h518v-45l-391 -820h-47z" />
<glyph horiz-adv-x="819" d="M414 -424q-131 0 -217 64t-86 170q0 47 17.5 84t53 65.5t72.5 48.5t92 43q-95 37 -142.5 79.5t-47.5 121.5q0 98 74.5 159.5t183.5 61.5t183.5 -61.5t74.5 -159.5q0 -43 -14.5 -76t-46 -56.5t-59.5 -37.5t-77 -33q58 -24 94.5 -43.5t72 -47.5t52.5 -64.5t17 -83.5 q0 -107 -83.5 -170.5t-213.5 -63.5zM418 72q110 43 145 67q61 44 62 113q0 78 -60.5 127t-150.5 49t-150.5 -49t-60.5 -127q0 -35 14.5 -61.5t44.5 -46t59 -33t73 -30.5q5 -2 8 -3t7.5 -3t8.5 -3zM414 -379q109 0 179.5 51.5t70.5 137.5q0 23 -5 42.5t-17.5 37t-24 31 t-34.5 28t-37 23t-44 21.5t-44.5 19t-47.5 19q-37 -14 -54.5 -21.5t-49.5 -22t-48.5 -25.5t-39 -28.5t-33.5 -34.5t-19 -40t-8 -49q0 -86 73 -137.5t183 -51.5z" />
<glyph horiz-adv-x="819" d="M367 -424q-60 0 -109 17.5t-102 60.5l30 35q81 -68 181 -68q129 0 199.5 113.5t70.5 302.5q-48 -47 -114.5 -81t-133.5 -34q-72 0 -126.5 22t-85.5 60.5t-46.5 84.5t-15.5 99q0 120 74.5 202.5t199.5 82.5q57 0 107 -23.5t93.5 -72t69 -135.5t25.5 -203 q0 -211 -82.5 -337t-234.5 -126zM389 -33q69 0 135 40t111 89q-11 170 -81 251t-165 81q-104 0 -165.5 -69.5t-61.5 -170.5q0 -94 56 -157.5t171 -63.5z" />
<glyph horiz-adv-x="872" d="M436 -12q-117 0 -179 98t-62 260t62 260.5t179 98.5q115 0 178.5 -99t63.5 -260t-63 -259.5t-179 -98.5zM436 25q97 0 150 88t53 233q0 144 -53 234t-150 90q-98 0 -151.5 -89.5t-53.5 -234.5t53 -233t152 -88z" />
<glyph horiz-adv-x="638" d="M160 0v35h147v620q-18 -16 -62 -26.5t-81 -10.5v37q115 0 145 37h37v-657h133v-35h-319z" />
<glyph horiz-adv-x="784" d="M174 0v12q0 107 45.5 166t202.5 154q81 48 116 89.5t35 94.5q0 74 -46.5 114t-123.5 40q-62 0 -111 -35t-73 -86l-35 16q26 59 85.5 99.5t133.5 40.5q95 0 151 -49t56 -140q0 -64 -39.5 -111t-130.5 -102q-104 -64 -149.5 -102t-61 -72.5t-16.5 -93.5h397v-35h-436z" />
<glyph horiz-adv-x="763" d="M371 -12q-160 0 -236 135l33 16q62 -114 203 -114q85 0 133.5 41t48.5 116q0 84 -47 128t-160 44h-45v37h41q98 0 148.5 31.5t50.5 107.5q0 140 -166 140q-111 0 -172 -92l-31 20q68 107 203 107q203 0 203 -175q0 -64 -34.5 -103.5t-94.5 -51.5q68 -13 105.5 -66.5 t37.5 -126.5q0 -93 -59 -143.5t-162 -50.5z" />
<glyph horiz-adv-x="804" d="M504 0v186h-352v35l358 471h29v-471h131v-35h-131v-186h-35zM193 221h311v410z" />
<glyph horiz-adv-x="811" d="M395 -12q-47 0 -86 14.5t-64 38.5t-39.5 44.5t-23.5 41.5l35 14q11 -25 28 -47.5t57.5 -45.5t92.5 -23q99 0 148 58.5t49 152.5q0 92 -52 141t-132 49q-59 0 -96 -20t-66 -62l-33 8l27 340h342v-37h-308l-20 -254q56 62 154 62t160.5 -59t62.5 -168q0 -110 -59 -179 t-177 -69z" />
<glyph horiz-adv-x="819" d="M424 -12q-45 0 -85.5 19t-75 58t-55 108.5t-20.5 162.5q0 168 66 268.5t188 100.5q93 0 168 -62l-24 -29q-67 56 -144 56q-103 0 -160 -91.5t-57 -242.5q39 37 92 64.5t107 27.5q112 0 165.5 -61t53.5 -152q0 -96 -59.5 -161.5t-159.5 -65.5zM424 25q83 0 132.5 55 t49.5 135q0 75 -45 126.5t-137 51.5q-56 0 -108 -32.5t-89 -73.5q10 -136 65.5 -199t131.5 -63z" />
<glyph horiz-adv-x="759" d="M248 0l315 655h-379v37h414v-37l-311 -655h-39z" />
<glyph horiz-adv-x="819" d="M414 -12q-106 0 -175 50t-69 136q0 71 48 113.5t140 81.5q-77 30 -114 62.5t-37 96.5q0 78 59.5 127.5t147.5 49.5t146 -49.5t58 -127.5q0 -35 -11 -60.5t-36 -44.5t-47 -30t-61 -26q95 -40 141.5 -81t46.5 -112q0 -86 -66.5 -136t-170.5 -50zM416 385q94 35 122 57 q43 34 44 86q0 63 -48.5 102.5t-119.5 39.5q-72 0 -121 -39.5t-49 -102.5q0 -28 11 -49t38 -38t45 -25t60 -24q12 -5 18 -7zM414 25q88 0 143 40.5t55 108.5q0 24 -7 44t-24.5 37.5t-30.5 28.5t-44.5 26t-45 21t-50.5 21q-32 -13 -43.5 -18t-39 -18t-39 -21t-31 -22.5 t-27 -28t-14.5 -32t-7 -38.5q0 -68 58.5 -108.5t146.5 -40.5z" />
<glyph horiz-adv-x="819" d="M375 -12q-94 0 -168 61l24 29q63 -53 144 -53q104 0 160.5 90t56.5 241q-39 -38 -92 -65t-107 -27q-112 0 -165.5 61t-53.5 152q0 96 59.5 162t159.5 66q45 0 85.5 -19t75 -58t55 -108.5t20.5 -161.5q0 -168 -66 -269t-188 -101zM393 301q100 0 197 102 q-8 136 -64.5 201.5t-132.5 65.5q-83 0 -132.5 -56t-49.5 -137q0 -75 45 -125.5t137 -50.5z" />
<glyph horiz-adv-x="872" d="M436 918q-117 0 -179 98t-62 260t62 260t179 98q116 0 179 -98.5t63 -259.5t-63 -259.5t-179 -98.5zM436 954q97 0 150 88.5t53 233.5q0 144 -53 233.5t-150 89.5q-98 0 -151.5 -89.5t-53.5 -233.5q0 -145 53 -233.5t152 -88.5z" />
<glyph horiz-adv-x="638" d="M160 930v35h147v620q-18 -16 -62 -26.5t-81 -10.5v37q115 0 145 37h37v-657h133v-35h-319z" />
<glyph horiz-adv-x="784" d="M174 930v12q0 107 45.5 166t202.5 154q81 48 116 89.5t35 94.5q0 74 -46.5 113.5t-123.5 39.5q-63 0 -112 -34.5t-72 -85.5l-35 16q26 59 85 99t134 40q95 0 151 -48.5t56 -139.5q0 -64 -39.5 -111t-130.5 -102q-104 -64 -149.5 -102t-61 -72.5t-16.5 -93.5h397v-35h-436 z" />
<glyph horiz-adv-x="763" d="M371 918q-160 0 -236 135l33 16q63 -115 203 -115q85 0 133.5 41.5t48.5 116.5q0 84 -47 128t-160 44h-45v37h41q98 0 148.5 31.5t50.5 107.5q0 139 -166 139q-111 0 -172 -92l-31 21q67 106 203 106q203 0 203 -174q0 -64 -34.5 -103.5t-94.5 -51.5q68 -13 105.5 -66.5 t37.5 -126.5q0 -93 -59 -143.5t-162 -50.5z" />
<glyph horiz-adv-x="804" d="M504 930v186h-352v35l358 471h29v-471h131v-35h-131v-186h-35zM193 1151h311v410z" />
<glyph horiz-adv-x="811" d="M395 938q-47 0 -86 14.5t-64 38.5t-39.5 44.5t-23.5 41.5l35 15q8 -18 19.5 -34.5t32.5 -37t53.5 -33t72.5 -12.5q99 0 148 58.5t49 152.5q0 92 -52 141t-132 49q-59 0 -96 -20t-66 -62l-33 9l27 339h342v-36h-308l-20 -254q55 61 154 61q98 0 160.5 -59t62.5 -168 q0 -110 -59 -179t-177 -69z" />
<glyph horiz-adv-x="819" d="M424 918q-45 0 -85.5 19t-75 58t-55 108.5t-20.5 162.5q0 168 66 268t188 100q94 0 168 -61l-24 -29q-66 55 -144 55q-104 0 -160.5 -91t-56.5 -242q39 37 92 64.5t107 27.5q112 0 165.5 -61t53.5 -152q0 -96 -59.5 -161.5t-159.5 -65.5zM424 954q83 0 132.5 55.5 t49.5 135.5q0 75 -45 126.5t-137 51.5q-56 0 -108 -32.5t-89 -73.5q10 -136 65.5 -199.5t131.5 -63.5z" />
<glyph horiz-adv-x="759" d="M248 930l315 655h-379v37h414v-37l-311 -655h-39z" />
<glyph horiz-adv-x="819" d="M414 918q-106 0 -175 50t-69 136q0 71 48 113t140 81q-76 30 -113.5 63t-37.5 97q0 78 59.5 127t147.5 49t146 -49t58 -127q0 -65 -38.5 -98t-116.5 -64q47 -20 75.5 -35t57 -38t42 -52t13.5 -67q0 -86 -66.5 -136t-170.5 -50zM416 1315q94 35 122 57q43 34 44 86 q0 63 -48.5 102t-119.5 39q-72 0 -121 -39t-49 -102q0 -28 11 -49t38 -38t45 -25t60 -24q12 -5 18 -7zM414 954q87 0 142.5 41t55.5 109q0 24 -7 44t-24.5 37.5t-30.5 28.5t-44.5 26t-45 21t-50.5 21q-32 -13 -43.5 -18t-39 -18t-39 -21t-31 -22.5t-27 -28t-14.5 -32 t-7 -38.5q0 -68 58.5 -109t146.5 -41z" />
<glyph horiz-adv-x="819" d="M375 918q-94 0 -168 61l24 29q65 -54 144 -54q104 0 160.5 90.5t56.5 241.5q-39 -38 -92 -65t-107 -27q-112 0 -165.5 61t-53.5 152q0 96 59.5 161.5t159.5 65.5q45 0 85.5 -18.5t75 -57.5t55 -108.5t20.5 -161.5q0 -168 -66 -269t-188 -101zM393 1231q100 0 197 102 q-8 136 -64.5 201t-132.5 65q-83 0 -132.5 -55.5t-49.5 -136.5q0 -75 45 -125.5t137 -50.5z" />
<glyph horiz-adv-x="1015" d="M508 -25q-195 0 -303.5 170t-108.5 459t108.5 461t303.5 172t303.5 -172t108.5 -461t-108.5 -459t-303.5 -170zM508 20q169 0 265.5 156t96.5 428t-97 430t-265 158t-265.5 -158t-97.5 -430q0 -271 97 -427.5t266 -156.5z" />
<glyph horiz-adv-x="722" d="M63 0v45h308v1098q-54 -36 -133.5 -58t-163.5 -22v47q92 0 172.5 26.5t132.5 75.5h41v-1167h274v-45h-631z" />
<glyph horiz-adv-x="931" d="M82 0v43q4 58 13.5 102t32.5 86t50.5 74.5t80 75t107.5 80.5t146 96q143 91 206.5 170.5t63.5 187.5q0 127 -82.5 202t-222.5 75q-123 0 -208 -64.5t-132 -162.5l-43 20q52 110 147 181t236 71q162 0 258 -87.5t96 -234.5q0 -118 -70 -207.5t-226 -189.5 q-76 -49 -120 -78.5t-93 -65.5t-74.5 -61.5t-51.5 -56.5t-37 -62t-19 -67.5t-9 -81.5h688v-45h-737z" />
<glyph horiz-adv-x="929" d="M451 -25q-64 0 -120.5 14t-97 36t-77.5 54t-61 61t-48 65l41 28q137 -213 363 -213q149 0 242 86t93 220q0 299 -376 299h-82v45h86q70 0 130 13.5t110 42t79 79t29 119.5q0 133 -74.5 203.5t-218.5 70.5q-111 0 -194.5 -50t-129.5 -124l-36 25q54 82 146.5 138t213.5 56 q166 0 254 -85.5t88 -233.5q0 -118 -74 -189t-178 -88q133 -21 205 -102.5t72 -218.5q0 -155 -107.5 -253t-277.5 -98z" />
<glyph horiz-adv-x="931" d="M641 0v322h-578v38l560 852h65v-845h199v-45h-199v-322h-47zM119 367h522v790z" />
<glyph horiz-adv-x="933" d="M459 -25q-254 0 -383 224l41 26q116 -205 342 -205q158 0 251 105t93 266q0 169 -89 257.5t-233 88.5q-184 0 -301 -166l-41 13l45 628h594v-47h-553l-39 -522q45 59 122.5 99t172.5 40q164 0 267.5 -101t103.5 -290q0 -179 -108 -297.5t-285 -118.5z" />
<glyph horiz-adv-x="942" d="M506 -25q-81 0 -153 35t-131 106t-93.5 192t-34.5 278q0 186 50 332t150.5 232.5t237.5 86.5q153 0 265 -94l-31 -39q-102 88 -234 88q-123 0 -213 -82t-134.5 -223.5t-41.5 -323.5q59 73 158.5 131t210.5 58q90 0 160 -31.5t112.5 -85t64 -119.5t21.5 -139 q0 -167 -101 -284.5t-263 -117.5zM506 20q141 0 228 102.5t87 254.5q0 65 -17.5 122t-53 104.5t-97 75.5t-141.5 28q-114 0 -214.5 -65.5t-152.5 -137.5q8 -125 41.5 -220.5t83.5 -152t109.5 -84t126.5 -27.5z" />
<glyph horiz-adv-x="888" d="M213 0l535 1167h-644v45h693v-45l-535 -1167h-49z" />
<glyph horiz-adv-x="950" d="M475 -29q-185 0 -292 92.5t-107 221.5q0 128 83 211t251 153q-144 63 -211.5 131t-67.5 166q0 116 94.5 203.5t249.5 87.5q80 0 146 -25t108 -67t65 -93.5t23 -105.5q0 -56 -19 -99.5t-61.5 -79t-88.5 -61t-120 -57.5q89 -38 149 -73t106.5 -78.5t68.5 -96t22 -118.5 q0 -59 -26.5 -114t-75 -99.5t-126 -71.5t-171.5 -27zM469 672q165 69 232 126.5t67 147.5q0 43 -17 85t-50.5 78.5t-92 59.5t-133.5 23q-71 0 -129.5 -22.5t-93.5 -58.5t-53.5 -78t-18.5 -85q0 -86 65.5 -145.5t223.5 -130.5zM475 16q150 0 250 76.5t100 190.5 q0 117 -84.5 192t-269.5 152q-186 -72 -266 -149t-80 -193t99 -192.5t251 -76.5z" />
<glyph horiz-adv-x="940" d="M408 -25q-152 0 -265 95l31 39q104 -89 234 -89q123 0 213 82t134.5 223.5t41.5 323.5q-59 -73 -158.5 -130.5t-210.5 -57.5q-90 0 -160 31.5t-112.5 85t-64 119.5t-21.5 139q0 167 101 284t263 117q81 0 153 -35t131 -105.5t93.5 -191.5t34.5 -278q0 -186 -50 -332.5 t-150.5 -233t-237.5 -86.5zM428 506q114 0 214.5 65.5t152.5 137.5q-8 125 -41.5 220.5t-83.5 151.5t-109.5 83.5t-126.5 27.5q-142 0 -228.5 -102t-86.5 -254q0 -65 17.5 -122t53 -104.5t97 -75.5t141.5 -28z" />
<glyph horiz-adv-x="808" d="M395 621q-145 0 -224 123t-79 325q0 201 79 325t224 124q144 0 222.5 -124t78.5 -325q0 -202 -78.5 -325t-222.5 -123zM395 666q121 0 187.5 110.5t66.5 292.5q0 181 -66.5 292.5t-187.5 111.5q-122 0 -189 -111.5t-67 -292.5q0 -182 66.5 -292.5t189.5 -110.5z" />
<glyph horiz-adv-x="561" d="M82 635v45h184v774q-23 -19 -78.5 -32t-101.5 -13v45q141 0 182 47h45v-821h166v-45h-397z" />
<glyph horiz-adv-x="737" d="M80 635v16q0 94 24 151t86 111.5t199 137.5q102 62 145.5 113.5t43.5 117.5q0 93 -58 142t-155 49q-79 0 -140.5 -43.5t-89.5 -106.5l-43 18q33 74 106.5 125.5t166.5 51.5q119 0 189.5 -61t70.5 -175q0 -80 -49.5 -139.5t-163.5 -128.5q-129 -78 -186 -126t-77 -91.5 t-22 -116.5h496v-45h-543z" />
<glyph horiz-adv-x="692" d="M326 621q-202 0 -293 170l41 20q79 -145 252 -145q107 0 168 52t61 146q0 105 -59 160t-201 55h-55v45h51q123 0 185.5 39.5t62.5 134.5q0 175 -207 175q-139 0 -215 -115l-39 24q87 136 254 136q254 0 254 -220q0 -81 -43 -129.5t-119 -64.5q86 -17 132 -82.5t46 -157.5 q0 -116 -73.5 -179.5t-202.5 -63.5z" />
<glyph horiz-adv-x="722" d="M487 637v231h-438v43l447 590h36v-590h162v-43h-162v-231h-45zM100 911h387v512z" />
<glyph horiz-adv-x="729" d="M352 621q-58 0 -107 18.5t-80 48.5t-49 55.5t-30 51.5l43 18q9 -22 24 -43.5t41 -47t67 -41t91 -15.5q124 0 185 73.5t61 190.5q0 115 -64.5 177t-166.5 62q-73 0 -119 -25t-82 -77l-43 10l35 424h428v-45h-385l-27 -317q34 35 85.5 55t107.5 20q122 0 200 -74t78 -210 q0 -137 -73 -223t-220 -86z" />
<glyph horiz-adv-x="737" d="M387 621q-57 0 -107 23.5t-93.5 72t-69 135.5t-25.5 203q0 211 83 337t235 126q60 0 109 -17.5t102 -60.5l-31 -35q-81 68 -180 68q-129 0 -200 -114t-71 -304q47 47 113 81.5t135 34.5q72 0 126.5 -22t86 -60.5t47 -84.5t15.5 -99q0 -120 -75 -202t-200 -82zM387 666 q104 0 165.5 69t61.5 170q0 94 -56 157.5t-171 63.5q-71 0 -136.5 -40.5t-109.5 -90.5q11 -170 81 -249.5t165 -79.5z" />
<glyph horiz-adv-x="677" d="M174 637l393 819h-473v45h518v-45l-391 -819h-47z" />
<glyph horiz-adv-x="745" d="M373 621q-131 0 -217 63.5t-86 169.5q0 47 17.5 84t52.5 66t72.5 49t92.5 43q-46 18 -74.5 32.5t-58 38t-43.5 55.5t-14 74q0 98 74.5 160t183.5 62t183.5 -62t74.5 -160q0 -43 -14.5 -75.5t-46 -56t-59.5 -37.5t-77 -33q57 -24 94 -43.5t72.5 -48t52.5 -65t17 -83.5 q0 -107 -83.5 -170t-213.5 -63zM377 1116q110 43 145 67q61 44 62 113q0 78 -61 127.5t-150 49.5t-150 -49.5t-61 -127.5q0 -35 14.5 -61.5t44.5 -46t59 -33t73 -30.5q5 -2 8 -3t7.5 -3t8.5 -3zM373 666q110 0 180 51t70 137q0 23 -5 42.5t-17.5 37t-24 31t-34.5 28t-37 23 t-44 21.5t-44.5 19t-47.5 19q-37 -14 -54.5 -21.5t-49.5 -22t-48.5 -25.5t-39 -28.5t-33.5 -34.5t-19 -40t-8 -49q0 -86 73 -137t183 -51z" />
<glyph horiz-adv-x="737" d="M326 621q-61 0 -110 17t-101 60l30 35q80 -67 181 -67q129 0 199.5 113t70.5 302q-48 -46 -114.5 -80t-133.5 -34q-72 0 -126.5 22t-85.5 60.5t-46.5 84.5t-15.5 99q0 120 74.5 202.5t199.5 82.5q57 0 107 -23.5t93.5 -72.5t69 -136t25.5 -203q0 -211 -82.5 -336.5 t-234.5 -125.5zM348 1012q69 0 135 40t111 89q-11 170 -81 251t-165 81q-104 0 -165.5 -69.5t-61.5 -170.5q0 -94 56 -157.5t171 -63.5z" />
<glyph horiz-adv-x="849" d="M752 0l-705 1212h51l705 -1212h-51z" />
<glyph horiz-adv-x="524" d="M246 223l-8 826h49l-8 -826h-33zM225 -2v86h74v-86h-74z" />
<glyph horiz-adv-x="1191" d="M291 -2l67 326h-163v41h172l67 319h-182v41h192l66 324h45l-68 -324h308l67 324h45l-67 -324h157v-41h-166l-67 -319h176v-41h-182l-70 -326h-45l70 326h-310l-67 -326h-45zM410 362h311l70 324h-314z" />
<glyph horiz-adv-x="923" d="M379 238v49q2 127 30.5 182.5t129.5 114.5q44 26 65 39.5t49.5 36t41.5 42.5t22.5 48.5t9.5 62.5q0 100 -72.5 157.5t-195.5 57.5q-97 0 -173.5 -47t-117.5 -111l-37 25q44 70 131.5 123t196.5 53q142 0 227.5 -70.5t85.5 -187.5q0 -40 -10.5 -73.5t-25.5 -57t-44.5 -48 t-55 -40.5t-69.5 -41q-52 -31 -80.5 -56t-43.5 -64t-18 -78t-3 -117h-43zM365 -2v86h75v-86h-75z" />
<glyph horiz-adv-x="849" d="M47 0l705 1212h51l-705 -1212h-51z" />
<glyph horiz-adv-x="1259" d="M487 -18q-175 0 -285 80t-110 231q0 56 18 105t45 85t71.5 71t85 58.5t96.5 51.5q-103 173 -103 305q0 118 84 193t199 75t182.5 -59t67.5 -170q0 -62 -25.5 -112.5t-84 -94.5t-101 -68t-128.5 -67q-7 -3 -10.5 -5t-9 -5t-10.5 -5q100 -158 246 -301q89 -89 180 -153 q125 138 158 401h49q-36 -275 -166 -428q140 -100 270 -125v-49q-153 30 -303 137q-159 -151 -416 -151zM446 684q156 76 210 113q131 93 132 211q0 90 -53 138t-147 48q-96 0 -165 -63t-69 -162q0 -124 92 -285zM487 27q238 0 379 135q-80 58 -182 157q-153 150 -256 310 q-65 -34 -110 -63t-89 -70t-66 -92t-22 -111q0 -87 47 -148t123.5 -89.5t175.5 -28.5z" />
<glyph horiz-adv-x="1083" d="M524 -156v146q-123 5 -213 57.5t-153 171.5l41 23q58 -105 139 -153.5t188 -53.5v588q-180 64 -247.5 130.5t-67.5 196.5q0 112 86 190t227 79v120h47v-122q102 -6 176.5 -48.5t135.5 -126.5l-37 -26q-53 74 -118.5 111.5t-156.5 43.5v-516q196 -67 273.5 -144.5 t77.5 -227.5q0 -134 -97.5 -210.5t-253.5 -82.5v-146h-47zM526 672v502q-121 -1 -194.5 -64.5t-73.5 -159.5q0 -107 58 -164.5t210 -113.5zM571 35q139 5 221 69.5t82 178.5q0 70 -16 118t-56 85t-92 63t-139 57v-571z" />
<glyph horiz-adv-x="1370" d="M262 760v45h846v-45h-846zM262 362v46h846v-46h-846z" />
<glyph horiz-adv-x="1136" d="M643 -25q-163 0 -273 127.5t-137 370.5h-206v43h204q-4 62 -4 100q0 72 4 105h-204v43h209q28 230 138.5 351.5t266.5 121.5q73 0 135 -29t106.5 -80.5t76 -115t49.5 -138.5l-43 -12q-36 146 -119.5 238t-204.5 92q-137 0 -233 -111t-123 -317h368v-43h-372 q-5 -83 -5 -105q0 -54 3 -100h374v-43h-368q24 -219 120 -336t238 -117q73 0 133.5 33t100 88t64.5 110.5t40 115.5l45 -15q-13 -50 -33 -98.5t-53 -100.5t-74 -90t-99 -63t-124 -25z" />
<glyph horiz-adv-x="1366" d="M252 139v49l852 365l-852 367v49l903 -396v-45z" />
<glyph horiz-adv-x="1366" d="M1114 139l-903 396v45l903 389v-49l-852 -365l852 -367v-49z" />
<glyph horiz-adv-x="1458" d="M381 465q-96 0 -156.5 83t-60.5 220t60.5 220t156.5 83q95 0 155 -83t60 -220t-60 -220t-155 -83zM387 -6l629 1053h45l-623 -1053h-51zM381 506q76 0 123 71t47 191q0 119 -47 190.5t-123 71.5t-124 -71.5t-48 -190.5q0 -120 48 -191t124 -71zM1077 -29q-95 0 -155 83 t-60 220t60 220.5t155 83.5q96 0 156.5 -83.5t60.5 -220.5t-60.5 -220t-156.5 -83zM1077 12q76 0 124 71t48 191q0 119 -48 191t-124 72t-123 -72t-47 -191q0 -120 47 -191t123 -71z" />
<glyph horiz-adv-x="1277" d="M616 109v419h-415v45h415v416h48v-416h413v-45h-413v-419h-48z" />
<glyph horiz-adv-x="960" d="M223 -33q-76 0 -129 42.5t-53 129.5q0 77 44.5 130t123.5 53q104 0 199 -99q10 58 10 107q0 78 -21.5 144t-60.5 138h-213v43h190q-30 53 -46 87t-31 86.5t-15 103.5q0 132 84 214.5t227 82.5t221 -87t81 -218h-50q-3 115 -68 187.5t-184 72.5q-120 0 -191 -69t-71 -183 q0 -49 16.5 -102.5t31.5 -83.5t49 -91h301v-43h-279q78 -152 78 -282q0 -80 -18 -148q74 -82 103 -106q72 -60 153 -60q170 0 184 275l49 -2q-17 -318 -233 -318q-45 0 -83.5 12.5t-74.5 40t-58 49t-57 60.5q-29 -76 -82.5 -121t-126.5 -45zM223 12q62 0 105.5 44t66.5 118 q-47 49 -90.5 75.5t-95.5 26.5q-56 0 -87.5 -40t-31.5 -99q0 -62 39 -93.5t94 -31.5z" />
<glyph horiz-adv-x="1017" d="M485 0v236h-319v43h319v196h-319v43h319v33l-446 661h55l416 -618l416 618h53l-444 -661v-33h319v-43h-319v-196h319v-43h-319v-236h-50z" />
</font>
</defs>
</svg>
