<?xml version="1.0" standalone="no"?>
<!DOCTYPE svg PUBLIC "-//W3C//DTD SVG 1.1//EN" "http://www.w3.org/Graphics/SVG/1.1/DTD/svg11.dtd" >
<svg xmlns="http://www.w3.org/2000/svg" xmlns:xlink="http://www.w3.org/1999/xlink" version="1.1">
<metadata></metadata>
<defs>
<font id="oe_doo_probold" horiz-adv-x="0" >
<font-face units-per-em="2048" ascent="1612" descent="-436" />
<missing-glyph horiz-adv-x="542" />
<glyph />
<glyph horiz-adv-x="682" />
<glyph unicode=" "  horiz-adv-x="542" />
<glyph unicode="&#x09;" horiz-adv-x="542" />
<glyph unicode="&#xa0;" horiz-adv-x="542" />
<glyph unicode="!" horiz-adv-x="671" d="M219 432l-53 512v404h340v-404l-53 -512h-234zM178 0v295h316v-295h-316z" />
<glyph unicode="&#x22;" horiz-adv-x="976" d="M197 776l-105 92q101 119 101 267h-97v305h342v-244q0 -118 -69.5 -236t-171.5 -184zM645 776l-106 92q100 117 100 267h-96v305h344v-244q0 -117 -70.5 -235t-171.5 -185z" />
<glyph unicode="#" horiz-adv-x="1560" d="M268 0l70 338h-199v209h244l51 241h-217v209h260l72 338h254l-70 -338h205l72 338h254l-72 -338h229v-209h-274l-49 -241h245v-209h-290l-70 -338h-254l70 338h-205l-72 -338h-254zM637 547h207l49 241h-203z" />
<glyph unicode="$" horiz-adv-x="1394" d="M616 -178v153q-171 16 -279 92t-185 207l192 121q67 -98 127.5 -150.5t151.5 -68.5v416q-82 22 -139.5 43t-116 54.5t-94 73.5t-58 99.5t-22.5 134.5q0 169 115 276.5t308 119.5v127h170v-129q141 -18 234.5 -80t159.5 -162l-189 -137q-45 65 -94.5 107t-116.5 59v-379 q90 -22 156 -46t125 -58.5t95 -77t56.5 -102t20.5 -134.5q0 -79 -26.5 -147.5t-79.5 -123.5t-140 -91t-201 -46v-151h-170zM623 838v354q-82 -12 -126 -58.5t-44 -111.5q0 -73 37.5 -112t132.5 -72zM780 172q95 10 144 57t49 123q0 75 -42 118.5t-151 80.5v-379z" />
<glyph unicode="%" horiz-adv-x="2271" d="M563 485q-169 0 -267.5 122t-98.5 327t98.5 326.5t269.5 121.5q169 0 269 -122t100 -326t-100.5 -326.5t-270.5 -122.5zM604 -2l813 1362h248l-813 -1362h-248zM563 668q131 0 131 266q0 262 -129 262q-133 0 -133 -262q0 -266 131 -266zM1708 -18q-171 0 -271 120.5 t-100 325.5q0 203 100.5 324.5t270.5 121.5q169 0 268 -121t99 -325t-99 -325t-268 -121zM1708 162q131 0 131 266q0 264 -131 264q-133 0 -133 -264q0 -266 133 -266z" />
<glyph unicode="&#x26;" horiz-adv-x="1519" d="M598 -27q-266 0 -413.5 106t-147.5 294q0 73 20 135t51 107t79 86t94 68t106 56q-100 192 -100 340q0 162 112.5 270.5t315.5 108.5q99 0 175.5 -27t122.5 -73.5t69.5 -105t23.5 -126.5q0 -67 -21 -125.5t-51.5 -100t-82 -82t-95.5 -66t-108 -58.5q20 -28 71 -96 q105 -138 201 -219q76 130 96 313h270q-38 -279 -151 -465q132 -63 278 -71v-258q-274 11 -477 118q-173 -129 -438 -129zM647 944q95 55 146 113t51 143q0 59 -31 99t-90 40q-60 0 -101.5 -39t-41.5 -116q0 -106 67 -240zM600 193q133 0 223 67q-114 98 -237 262 q-13 18 -42 58t-44 61q-142 -96 -142 -221q0 -108 69 -167.5t173 -59.5z" />
<glyph unicode="'" horiz-adv-x="530" d="M197 776l-105 92q101 119 101 267h-97v305h342v-244q0 -118 -69.5 -236t-171.5 -184z" />
<glyph unicode="(" horiz-adv-x="823" d="M618 -420q-258 213 -391 459t-133 545q0 298 133 543t391 460l150 -157q-162 -169 -252 -385.5t-90 -460.5q0 -247 92.5 -467t257.5 -389z" />
<glyph unicode=")" horiz-adv-x="823" d="M205 -420l-158 148q166 171 259 390t93 466q0 244 -91 461t-251 385l148 157q258 -213 391 -458.5t133 -544.5q0 -298 -133 -544t-391 -460z" />
<glyph unicode="*" horiz-adv-x="1040" d="M369 629l-160 94l186 281l-336 -19v180l338 -20l-188 282l160 95l151 -303l150 303l161 -95l-186 -282l336 20v-180l-336 19l186 -281l-159 -94l-152 301z" />
<glyph unicode="+" horiz-adv-x="1318" d="M543 223v369h-353v229h353v367h233v-367h352v-229h-352v-369h-233z" />
<glyph unicode="," horiz-adv-x="624" d="M244 -358l-107 92q49 55 76 125t27 141h-97v305h342v-244q0 -117 -69.5 -235t-171.5 -184z" />
<glyph unicode="-" horiz-adv-x="727" d="M98 539v211h531v-211h-531z" />
<glyph unicode="." horiz-adv-x="571" d="M115 0v305h342v-305h-342z" />
<glyph unicode="/" horiz-adv-x="1308" d="M55 0l873 1516h327l-874 -1516h-326z" />
<glyph unicode="0" horiz-adv-x="1275" d="M639 -29q-263 0 -413 191t-150 508t150 507.5t413 190.5q262 0 411.5 -191t149.5 -507q0 -208 -66 -365.5t-193.5 -245.5t-301.5 -88zM639 209q262 0 262 461q0 456 -262 456q-264 0 -264 -456q0 -225 66.5 -343t197.5 -118z" />
<glyph unicode="1" horiz-adv-x="923" d="M88 0v236h244v837q-117 -62 -240 -59v248q159 3 248 86h283v-1112h211v-236h-746z" />
<glyph unicode="2" horiz-adv-x="1142" d="M76 0v41q1 69 7.5 118.5t29.5 113.5t65.5 118.5t117 120.5t181.5 133q51 32 74 46.5t60 39.5t52 38t38 33.5t31.5 35.5t19 35.5t13.5 41.5t3 46q0 75 -45.5 118t-128.5 43q-84 0 -163 -53.5t-136 -142.5l-213 153q195 295 520 295q216 0 337.5 -106.5t121.5 -290.5 q0 -60 -10.5 -107t-40 -102t-89.5 -110.5t-151 -112.5q-177 -111 -252 -176t-86 -133h635v-236h-991z" />
<glyph unicode="3" horiz-adv-x="1200" d="M596 -29q-341 0 -528 236l184 168q57 -75 146.5 -119.5t183.5 -44.5q112 0 170.5 47t58.5 137q0 104 -74.5 149.5t-228.5 45.5h-82v221h82q157 0 217.5 43t60.5 121q0 72 -45 108.5t-147 36.5q-179 0 -305 -131l-166 193q88 86 223.5 136t280.5 50q217 0 335.5 -89.5 t118.5 -258.5q0 -112 -64.5 -194t-178.5 -111q136 -29 211 -120.5t75 -217.5q0 -189 -145.5 -297.5t-382.5 -108.5z" />
<glyph unicode="4" horiz-adv-x="1308" d="M719 0v266h-647v217l618 865h320v-846h227v-236h-227v-266h-291zM383 502h336v471z" />
<glyph unicode="5" horiz-adv-x="1193" d="M582 -29q-166 0 -288 48.5t-222 132.5l153 198q66 -58 154.5 -98.5t181.5 -40.5q129 0 193.5 64t64.5 174q0 115 -59 176t-172 61q-68 0 -132.5 -33.5t-115.5 -95.5l-188 57l53 729h819l-14 -227h-576l-22 -289q37 33 107 57.5t159 24.5q211 0 326.5 -124t115.5 -328 q0 -217 -144 -351.5t-394 -134.5z" />
<glyph unicode="6" horiz-adv-x="1216" d="M629 -29q-121 0 -221.5 43.5t-175.5 126.5t-116.5 212t-41.5 292q0 153 34.5 277.5t92 206.5t135.5 137.5t160.5 79.5t171.5 24q140 0 231.5 -32.5t169.5 -90.5l-127 -205q-64 47 -123 66.5t-137 19.5q-131 0 -212 -94.5t-99 -279.5q163 114 329 114q93 0 171.5 -25.5 t139.5 -76t95.5 -134.5t34.5 -194q0 -209 -142 -338t-370 -129zM639 199q104 0 161.5 67.5t57.5 161.5q0 43 -10.5 79t-34 68.5t-67.5 51t-105 18.5q-158 0 -272 -106q9 -171 79.5 -255.5t190.5 -84.5z" />
<glyph unicode="7" horiz-adv-x="1083" d="M190 0l519 1106h-641v242h948v-220l-520 -1128h-306z" />
<glyph unicode="8" horiz-adv-x="1239" d="M621 -29q-252 0 -398.5 99t-146.5 280q0 119 83.5 206t213.5 144q-75 39 -122.5 77.5t-78.5 101.5t-31 145q0 143 128.5 244.5t351.5 101.5q227 0 353 -101t126 -245q0 -103 -61.5 -185.5t-164.5 -131.5q66 -29 112.5 -57.5t89.5 -70t65 -99.5t22 -130q0 -181 -145 -280 t-397 -99zM643 809q84 40 126 83t42 105q0 65 -49 112.5t-139 47.5q-92 0 -141.5 -45.5t-49.5 -112.5q0 -69 54 -112t157 -78zM621 180q113 0 176 51.5t63 133.5q0 75 -61 123t-201 104q-219 -101 -219 -227q0 -82 64.5 -133.5t177.5 -51.5z" />
<glyph unicode="9" horiz-adv-x="1216" d="M549 -29q-142 0 -235 32t-169 91l129 197q66 -47 125.5 -67.5t135.5 -20.5q130 0 211 99t100 286q-167 -117 -330 -117q-93 0 -171.5 25.5t-139 76.5t-95 135t-34.5 193q0 209 142 339t370 130q121 0 221.5 -43.5t174.5 -126.5t115.5 -212.5t41.5 -293.5 q0 -153 -34.5 -277.5t-91.5 -206t-134.5 -136.5t-160 -79t-171.5 -24zM575 696q82 0 153 30.5t120 76.5q-17 330 -270 330q-105 0 -162.5 -64.5t-57.5 -155.5q0 -43 10.5 -79t34 -68.5t67.5 -51t105 -18.5z" />
<glyph unicode=":" horiz-adv-x="618" d="M137 786v306h344v-306h-344zM137 0v305h344v-305h-344z" />
<glyph unicode=";" horiz-adv-x="624" d="M143 786v306h342v-306h-342zM244 -348l-107 92q49 55 76 123t27 133h-97v305h342v-244q0 -111 -70 -227t-171 -182z" />
<glyph unicode="&#x3c;" horiz-adv-x="1339" d="M1153 104l-965 428v152l965 428v-238l-659 -266l659 -268v-236z" />
<glyph unicode="=" horiz-adv-x="1341" d="M211 745v203h917v-203h-917zM211 328v202h917v-202h-917z" />
<glyph unicode="&#x3e;" horiz-adv-x="1339" d="M199 104v236l657 268l-657 266v238l964 -428v-154z" />
<glyph unicode="?" horiz-adv-x="1148" d="M416 436q-6 52 -6 101q1 110 53.5 179t150.5 122q74 39 106 77t32 99q0 55 -44 89t-124 34q-85 0 -173.5 -50t-140.5 -114l-178 170q82 100 217 164.5t305 64.5q206 0 318 -92t112 -244q0 -82 -31 -144t-74.5 -97.5t-113.5 -73.5q-101 -54 -130 -110t-27 -175h-252z M383 0v293h313v-293h-313z" />
<glyph unicode="@" horiz-adv-x="1777" d="M870 -113q-165 0 -300 55t-223.5 151t-136.5 226t-48 281q0 152 53.5 284.5t148 228t231.5 150t298 54.5q160 0 295.5 -51.5t229 -143t146 -220.5t52.5 -281q0 -194 -96 -308t-267 -114q-105 0 -163.5 42t-83.5 121q-125 -139 -295 -139q-113 0 -179.5 75t-66.5 212 q0 223 100.5 359.5t249.5 136.5q84 0 135.5 -26t89.5 -71l13 82h219l-92 -557q-11 -62 14 -90.5t92 -28.5q92 0 148.5 79t56.5 220q0 259 -165 419.5t-435 160.5q-268 0 -430 -165.5t-162 -428.5q0 -129 39 -239t111.5 -190t183 -125.5t246.5 -45.5q217 0 356 92l61 -88 q-177 -117 -426 -117zM809 389q82 0 162 76q0 29 2 41l41 256q-30 32 -61.5 47.5t-78.5 15.5q-62 0 -105.5 -44.5t-62 -108.5t-18.5 -140q0 -71 27.5 -107t93.5 -36z" />
<glyph unicode="A" horiz-adv-x="1454" d="M37 0l538 1522h304l538 -1522h-325l-119 346h-520l-121 -346h-295zM530 578h369l-182 528z" />
<glyph unicode="B" horiz-adv-x="1454" d="M160 0v1516h583q91 0 163.5 -8t147.5 -32t125 -64t81.5 -109t31.5 -162q0 -82 -24.5 -145.5t-68 -103.5t-93.5 -64.5t-111 -36.5q57 -10 103.5 -26t92.5 -45t77 -69t50 -101t19 -138q0 -89 -31.5 -160.5t-83.5 -117.5t-124 -77t-149 -44t-163 -13h-626zM475 885h250 q128 0 194 49t66 141q0 98 -66 145.5t-204 47.5h-240v-383zM475 244h270q139 0 208 54t69 153q0 208 -293 208h-254v-415z" />
<glyph unicode="C" horiz-adv-x="1492" d="M774 -29q-148 0 -272.5 49.5t-218 145.5t-145.5 248t-52 346q0 193 54 345t148 246.5t216.5 143.5t265.5 49q114 0 207 -25t158.5 -67t115.5 -104.5t80.5 -130t52.5 -150.5l-305 -90q-20 68 -43 117t-58.5 93.5t-87.5 67.5t-120 23q-171 0 -265.5 -139.5t-94.5 -378.5 q0 -240 96.5 -385.5t269.5 -145.5q72 0 126.5 23.5t91.5 70t61.5 102t44.5 132.5l305 -70q-125 -516 -631 -516z" />
<glyph unicode="D" horiz-adv-x="1507" d="M160 0v1516h442q145 0 265.5 -24t225 -79.5t176.5 -140.5t113 -213.5t41 -292.5q0 -168 -41.5 -300t-114 -218.5t-177 -143t-224.5 -80.5t-264 -24h-442zM479 260h142q260 0 369.5 118.5t109.5 383.5q0 252 -111.5 368.5t-370.5 116.5h-139v-987z" />
<glyph unicode="E" horiz-adv-x="1288" d="M160 0v1516h1026v-269h-705v-342h512v-254h-512v-391h733v-260h-1054z" />
<glyph unicode="F" horiz-adv-x="1200" d="M160 0v1516h995v-269h-674v-385h480v-254h-480v-608h-321z" />
<glyph unicode="G" horiz-adv-x="1554" d="M745 -29q-215 0 -365.5 100.5t-223 277.5t-72.5 417q0 229 80 404t236.5 274.5t369.5 99.5q231 0 385.5 -112.5t226.5 -372.5l-295 -84q-50 158 -125.5 230.5t-193.5 72.5q-158 0 -258 -129t-100 -379q0 -127 24.5 -225.5t62.5 -156.5t90 -95.5t99.5 -50.5t97.5 -13 q125 0 209.5 78.5t106.5 208.5h-264v238h571v-754h-256l-2 233q-11 -40 -43 -83.5t-81 -84.5t-123 -67.5t-157 -26.5z" />
<glyph unicode="H" horiz-adv-x="1574" d="M160 0v1516h321v-594h613v594h321v-1516h-321v653h-613v-653h-321z" />
<glyph unicode="I" horiz-adv-x="665" d="M172 0v1516h322v-1516h-322z" />
<glyph unicode="J" horiz-adv-x="1093" d="M463 -29q-150 0 -249 43.5t-183 120.5l168 215q115 -123 245 -123q199 0 199 269v1020h322v-1076q0 -221 -121 -345t-381 -124z" />
<glyph unicode="K" horiz-adv-x="1462" d="M160 0v1516h321v-639l523 639h374l-514 -592l570 -924h-367l-412 678l-174 -193v-485h-321z" />
<glyph unicode="L" horiz-adv-x="1200" d="M160 0v1516h321v-1256h674v-260h-995z" />
<glyph unicode="M" horiz-adv-x="1857" d="M160 0v1516h422l352 -1131l334 1131h432v-1516h-309v1047l-330 -1047h-285l-330 1063v-1063h-286z" />
<glyph unicode="N" horiz-adv-x="1589" d="M160 0v1516h317l658 -990v990h297v-1516h-299l-678 989v-989h-295z" />
<glyph unicode="O" horiz-adv-x="1595" d="M799 -29q-111 0 -214.5 30t-194.5 94t-158.5 155.5t-106.5 222t-39 285.5t39 285.5t106.5 221.5t158.5 155t194.5 94t214.5 30q110 0 212.5 -30t193 -94t158 -155t107 -221.5t39.5 -285.5t-39.5 -285.5t-107 -222t-158 -155.5t-193 -94t-212.5 -30zM799 229 q179 0 284 145.5t105 383.5q0 237 -105 378.5t-284 141.5q-182 0 -285.5 -141t-103.5 -379q0 -239 104 -384t285 -145z" />
<glyph unicode="P" horiz-adv-x="1376" d="M160 0v1516h536q105 0 191 -12.5t168.5 -46t138 -86.5t89.5 -140t34 -201q0 -485 -621 -485h-219v-545h-317zM477 793h232q292 0 292 229q0 231 -292 231h-232v-460z" />
<glyph unicode="Q" horiz-adv-x="1595" d="M1102 -399q-220 0 -351 107.5t-137 287.5q-113 25 -207.5 85.5t-167.5 153.5t-114 227.5t-41 295.5q0 155 39 285.5t106.5 221.5t158.5 155t194 94t213 30t213 -30t194 -94t158.5 -155t107 -221.5t39.5 -285.5q0 -167 -45 -305.5t-123.5 -232.5t-180 -153t-218.5 -79 q9 -44 36 -72.5t73.5 -41.5t93 -17t117.5 -4h102v-252h-260zM795 229q180 0 284.5 145t104.5 384q0 238 -104.5 379t-284.5 141t-284.5 -141t-104.5 -379q0 -239 104.5 -384t284.5 -145z" />
<glyph unicode="R" horiz-adv-x="1439" d="M160 0v1516h557q596 0 596 -469q0 -340 -330 -426l348 -621h-342l-325 580h-189v-580h-315zM475 825h230q150 0 222 52.5t72 160.5q0 109 -72 162t-222 53h-230v-428z" />
<glyph unicode="S" horiz-adv-x="1415" d="M721 -29q-126 0 -230 27.5t-182 79.5t-135 117t-102 149l241 148q64 -127 172 -197t250 -70q124 0 198.5 47.5t74.5 135.5q0 46 -20.5 81t-65 61.5t-96 45.5t-132.5 41q-203 57 -280 90q-182 79 -238 213q-29 69 -29 158q0 208 147.5 327t395.5 119q385 0 598 -309 l-221 -174q-63 97 -164 159t-215 62q-108 0 -166.5 -42.5t-58.5 -113.5q0 -37 14.5 -67t37.5 -51.5t64.5 -41t83 -33.5t105.5 -32q59 -16 89.5 -24.5t86 -26t86.5 -31t77 -37t72.5 -46t57.5 -55.5t47 -69t27.5 -82.5t11.5 -99.5q0 -93 -35.5 -174t-106.5 -145.5t-189 -102 t-271 -37.5z" />
<glyph unicode="T" horiz-adv-x="1325" d="M502 0v1247h-457v269h1235v-269h-455v-1247h-323z" />
<glyph unicode="U" horiz-adv-x="1482" d="M741 -25q-304 0 -456 158t-152 445v938h322v-936q0 -167 72 -254.5t218 -87.5q145 0 217 86t72 251v941h316v-943q0 -284 -152.5 -441t-456.5 -157z" />
<glyph unicode="V" horiz-adv-x="1431" d="M561 -6l-524 1522h325l363 -1100l369 1100h301l-525 -1522h-309z" />
<glyph unicode="W" horiz-adv-x="1953" d="M453 0l-408 1516h326l241 -1035l232 1035h295l252 -1035l223 1035h295l-391 -1516h-273l-254 1061l-262 -1061h-276z" />
<glyph unicode="X" horiz-adv-x="1484" d="M66 0l489 801l-444 715h368l279 -463l266 463h332l-434 -717l493 -799h-358l-332 539l-317 -539h-342z" />
<glyph unicode="Y" horiz-adv-x="1415" d="M545 0v647l-525 869h332l357 -596l358 596h328l-527 -869v-647h-323z" />
<glyph unicode="Z" horiz-adv-x="1351" d="M61 0v223l803 1024h-751v269h1159v-232l-785 -1024h783v-260h-1209z" />
<glyph unicode="[" horiz-adv-x="907" d="M145 -410v1926h699v-224h-377v-1478h377v-224h-699z" />
<glyph unicode="\" horiz-adv-x="1247" d="M897 0l-872 1516h325l873 -1516h-326z" />
<glyph unicode="]" horiz-adv-x="907" d="M61 -410v224h379v1478h-379v224h701v-1926h-701z" />
<glyph unicode="^" horiz-adv-x="1318" d="M121 682l459 809h170l458 -809h-258l-286 489l-285 -489h-258z" />
<glyph unicode="_" horiz-adv-x="1024" d="M0 -315v221h1024v-221h-1024z" />
<glyph unicode="`" horiz-adv-x="1024" d="M350 1208l-301 355h316l196 -355h-211z" />
<glyph unicode="a" horiz-adv-x="1175" d="M365 -18q-134 0 -223 76.5t-89 222.5q0 186 176.5 293.5t522.5 132.5v32q0 135 -154 135q-186 0 -360 -135l-134 183q205 192 541 192q219 0 318.5 -105.5t99.5 -320.5v-430q0 -178 29 -258h-316q-24 81 -24 168q-154 -186 -387 -186zM494 219q85 0 151 31t107 74v215 q-387 -32 -387 -207q0 -54 35 -83.5t94 -29.5z" />
<glyph unicode="b" horiz-adv-x="1271" d="M782 -18q-205 0 -338 153v-135h-317v1516h317v-596q140 194 342 194q193 0 305.5 -145.5t112.5 -421.5t-113 -420.5t-309 -144.5zM666 221q109 0 164 84t55 240q0 307 -223 307q-61 0 -120 -35t-98 -78v-413q57 -56 107.5 -80.5t114.5 -24.5z" />
<glyph unicode="c" horiz-adv-x="1136" d="M602 -23q-81 0 -155.5 18.5t-144.5 62t-121 107.5t-82 161.5t-31 218.5q0 127 34.5 227.5t89 163t128 104t146 58t148.5 16.5q107 0 188 -25.5t135 -74.5t88 -104.5t62 -131.5l-268 -86q-32 104 -80.5 147.5t-126.5 43.5q-106 0 -165.5 -89t-59.5 -251q0 -154 52.5 -248 t166.5 -94q159 0 223 200l265 -90q-30 -70 -68 -125t-95.5 -104.5t-141 -77t-187.5 -27.5z" />
<glyph unicode="d" horiz-adv-x="1271" d="M487 -18q-194 0 -305.5 140t-111.5 415q0 277 113.5 427t308.5 150q113 0 193 -41t142 -125v568h320v-1258q0 -184 31 -258h-326q-25 48 -25 168q-131 -186 -340 -186zM610 221q62 0 121.5 34.5t95.5 76.5v413q-59 57 -107.5 82t-113.5 25q-108 0 -163.5 -80t-55.5 -233 q0 -148 55 -233t168 -85z" />
<glyph unicode="e" horiz-adv-x="1179" d="M623 -23q-115 0 -212.5 32.5t-175.5 98.5t-122.5 178t-44.5 259q0 122 35.5 222t92 163t130 106t145 60.5t141.5 17.5q50 0 97 -7t98 -25.5t94 -47.5t83 -77t67.5 -109.5t44 -148.5t16.5 -191v-47h-727q10 -131 76.5 -196.5t183.5 -65.5q89 0 177 40t155 95l119 -193 q-213 -164 -473 -164zM389 647h440q-20 242 -219 242q-83 0 -144 -60.5t-77 -181.5z" />
<glyph unicode="f" horiz-adv-x="825" d="M227 0v860h-182v232h182v82q0 123 41 201.5t116 110.5t180.5 38t234.5 -15v-219q-49 11 -92 8q-40 -1 -65 -5.5t-49.5 -18t-36 -41t-11.5 -70.5v-71h243v-232h-243v-860h-318z" />
<glyph unicode="g" horiz-adv-x="1259" d="M549 -410q-288 0 -419.5 61.5t-131.5 180.5q0 134 186 225q-78 44 -78 127q0 65 45 124t117 104q-90 53 -136 134t-46 179q0 168 128.5 278.5t358.5 110.5q231 0 357 -113q56 47 136.5 80t150.5 39v-239q-99 -10 -193 -39q31 -50 31 -117q0 -168 -126 -276.5t-356 -108.5 q-88 0 -170 20q-43 -34 -43 -65q0 -38 46 -48t221 -18q294 -9 422.5 -79t128.5 -228t-173.5 -245t-455.5 -87zM578 514q91 0 142.5 56.5t51.5 142.5q0 87 -51.5 144.5t-142.5 57.5q-90 0 -141.5 -57.5t-51.5 -144.5t51 -143t142 -56zM600 -252q138 0 219.5 32.5t81.5 88.5 q0 42 -26 64t-93.5 34t-199.5 17q-190 7 -228 14q-67 -55 -67 -109q0 -75 76 -108t237 -33z" />
<glyph unicode="h" horiz-adv-x="1261" d="M127 0v1516h317v-598q24 32 56 62.5t79.5 62.5t112.5 51.5t137 19.5q147 0 232.5 -79t85.5 -244v-791h-318v690q0 162 -139 162q-113 0 -246 -113v-739h-317z" />
<glyph unicode="i" horiz-adv-x="591" d="M135 1241v256h322v-256h-322zM137 0v1092h318v-1092h-318z" />
<glyph unicode="j" horiz-adv-x="591" d="M135 1241v256h322v-256h-322zM113 -416q-45 0 -116 5.5t-87 9.5v213q33 -11 94 -11q69 0 101 34.5t32 115.5v1141h318v-1207q0 -50 -7 -89.5t-28.5 -81t-57.5 -68.5t-99.5 -44.5t-149.5 -17.5z" />
<glyph unicode="k" horiz-adv-x="1198" d="M127 0v1516h317v-848l359 424h338l-357 -410l379 -682h-327l-248 451l-144 -162v-289h-317z" />
<glyph unicode="l" horiz-adv-x="591" d="M137 0v1516h318v-1516h-318z" />
<glyph unicode="m" horiz-adv-x="1906" d="M127 0v1092h317v-174q23 31 56 62t79 63t106 51.5t122 19.5q249 0 299 -199q28 35 61.5 66.5t80 63t105 50.5t120.5 19q159 0 240 -91.5t81 -248.5v-774h-319v690q0 82 -28.5 122t-98.5 40q-99 0 -230 -115v-737h-317v690q0 82 -28.5 122t-100.5 40q-57 0 -110.5 -29 t-117.5 -84v-739h-317z" />
<glyph unicode="n" horiz-adv-x="1261" d="M129 0v1092h317v-174q24 32 56 62.5t79.5 62.5t112 51.5t135.5 19.5q149 0 234.5 -79t85.5 -244v-791h-320v690q0 162 -137 162q-116 0 -246 -113v-739h-317z" />
<glyph unicode="o" horiz-adv-x="1247" d="M623 -23q-81 0 -157.5 18t-150 61t-127.5 106.5t-87 162t-33 220.5q0 124 33 223t86.5 162.5t127 106t150 60t158.5 17.5t158 -17.5t149.5 -60t127.5 -106t87 -162.5t33 -223q0 -122 -33 -220.5t-87 -162t-127.5 -106.5t-150 -61t-157.5 -18zM623 201q115 0 176 92.5 t61 249.5q0 153 -60.5 246.5t-176.5 93.5q-115 0 -175.5 -91.5t-60.5 -248.5q0 -153 60 -247.5t176 -94.5z" />
<glyph unicode="p" horiz-adv-x="1271" d="M127 -412v1504h317v-172q139 192 342 192q193 0 305.5 -145.5t112.5 -421.5t-113 -419.5t-309 -143.5q-207 0 -338 151v-545h-317zM666 219q108 0 163.5 84.5t55.5 239.5q0 307 -223 307q-61 0 -121 -35t-97 -78v-411q57 -57 107.5 -82t114.5 -25z" />
<glyph unicode="q" horiz-adv-x="1271" d="M827 -410v570q-137 -178 -340 -178q-195 0 -306 140t-111 415q0 277 113 427t306 150q114 0 195 -41t143 -125v144h320v-1502h-320zM610 221q62 0 120 34t97 77v413q-59 57 -107.5 82t-113.5 25q-108 0 -163.5 -80t-55.5 -233q0 -148 54.5 -233t168.5 -85z" />
<glyph unicode="r" horiz-adv-x="866" d="M127 0v1092h319v-189q25 40 43.5 64t52.5 56t70.5 49.5t92.5 29.5t124 10l-2 -283q-131 15 -211.5 -15.5t-171.5 -123.5v-690h-317z" />
<glyph unicode="s" horiz-adv-x="1093" d="M557 -23q-306 0 -508 168l123 179q72 -65 178 -105.5t205 -40.5q81 0 131.5 30t50.5 87q0 59 -48.5 87t-164.5 50q-54 10 -86.5 16.5t-83 20.5t-81.5 29.5t-68 41.5t-58 57t-35 76t-14 99q0 160 117.5 251t302.5 91q160 0 270.5 -39.5t208.5 -116.5l-123 -176 q-178 121 -325 121q-74 0 -115 -28t-41 -76q0 -53 47.5 -78.5t155.5 -44.5q54 -9 87 -15.5t85 -20t84 -28.5t70.5 -40.5t60 -56t36.5 -74t15 -95.5q0 -96 -39 -168.5t-106.5 -115.5t-151 -64t-180.5 -21z" />
<glyph unicode="t" horiz-adv-x="874" d="M580 -14q-95 0 -162 15t-106 39.5t-60.5 67.5t-28 87.5t-6.5 111.5v553h-180v232h180v374h320v-374h284v-232h-284v-487q0 -91 31 -124.5t120 -33.5q61 0 111 12v-223q-21 -5 -95.5 -11.5t-123.5 -6.5z" />
<glyph unicode="u" horiz-adv-x="1261" d="M434 -23q-149 0 -234 79t-85 245v791h317v-699q0 -162 139 -162q113 0 246 113v748h318v-1092h-318v172q-24 -32 -56 -62.5t-79.5 -62t-112 -51t-135.5 -19.5z" />
<glyph unicode="v" horiz-adv-x="1105" d="M391 -2l-393 1094h328l239 -744l246 744h295l-391 -1094h-324z" />
<glyph unicode="w" horiz-adv-x="1589" d="M328 -2l-322 1094h318l180 -740l180 740h244l192 -740l185 740h278l-313 -1094h-295l-180 682l-172 -682h-295z" />
<glyph unicode="x" horiz-adv-x="1120" d="M29 0l372 561l-348 531h332l199 -310l184 310h319l-354 -531l371 -561h-332l-217 338l-209 -338h-317z" />
<glyph unicode="y" horiz-adv-x="1138" d="M293 -420q-174 0 -318 41l66 246q3 -1 35 -8t52.5 -11t57.5 -8t70 -4q56 0 89.5 22t53.5 74l23 62l-416 1098h326l252 -721l247 721h308l-465 -1223q-36 -94 -82 -155t-121.5 -97.5t-177.5 -36.5z" />
<glyph unicode="z" horiz-adv-x="1085" d="M68 0v164l530 698h-498v230h891v-170l-532 -697h573v-225h-964z" />
<glyph unicode="{" horiz-adv-x="903" d="M567 -410q-133 0 -206.5 80t-73.5 211v328q0 135 -50 183t-178 48v226q128 0 178 48t50 183v328q0 131 73.5 211t206.5 80h291v-224h-90q-162 0 -162 -164v-276q0 -133 -40 -202t-122 -95q86 -30 124 -97.5t38 -203.5v-277q0 -163 162 -163h90v-224h-291z" />
<glyph unicode="|" horiz-adv-x="819" d="M252 -410v1862h315v-1862h-315z" />
<glyph unicode="}" horiz-adv-x="903" d="M45 -410v224h88q162 0 162 163v308q0 89 19.5 143t52.5 79.5t92 43.5q-61 21 -93.5 46.5t-51.5 79t-19 144.5v307q0 164 -162 164h-88v224h322q132 0 190.5 -64.5t58.5 -194.5v-360q0 -135 50 -183t176 -48v-226q-127 0 -176.5 -48t-49.5 -183v-361q0 -130 -58.5 -194 t-190.5 -64h-322z" />
<glyph unicode="~" horiz-adv-x="1318" d="M899 532q-70 0 -167.5 30t-182 59.5t-123.5 29.5q-33 0 -51.5 -19t-24.5 -67l-170 31q32 276 238 276q75 0 172.5 -29.5t180 -59t120.5 -29.5q34 0 53 18t23 64l170 -21q-35 -283 -238 -283z" />
<glyph unicode="&#xa2;" horiz-adv-x="1146" d="M260 -264l88 299q-127 62 -203.5 191.5t-76.5 318.5q0 102 23.5 188.5t65 147t95 107t115.5 73.5t123.5 40t123.5 13q18 0 50 -4l57 197h158l-66 -224q106 -36 172.5 -113.5t108.5 -191.5l-244 -86q-37 114 -115 158l-186 -645q27 -10 55 -10q79 0 148 50t106 156 l242 -90q-141 -334 -500 -334q-49 0 -106 13l-76 -254h-158zM432 291l170 594q-48 -2 -89.5 -22.5t-76.5 -59.5t-55.5 -106t-20.5 -154q0 -168 72 -252z" />
<glyph unicode="&#xa3;" horiz-adv-x="1411" d="M350 -27q-116 0 -194 56.5t-78 167.5q0 117 78.5 181t187.5 64q110 0 215 -75q6 131 -74 278h-262v152h166q-78 143 -78 260q0 166 120 273.5t304 107.5q95 0 170.5 -22.5t123 -56.5t82.5 -86.5t53 -101t32 -110.5l-252 -55q-33 208 -194 208q-69 0 -113.5 -40.5 t-44.5 -114.5q0 -59 24.5 -119t73.5 -143h340v-152h-266q45 -104 45 -235q0 -91 -39 -177q81 -57 141 -57q78 0 117.5 49t42.5 166h248q-3 -71 -12.5 -126t-34 -112t-62 -94.5t-100 -61.5t-145.5 -24q-174 0 -324 115q-121 -115 -291 -115zM356 117q91 0 150 86 q-48 45 -82.5 66.5t-71.5 21.5q-42 0 -67 -23.5t-25 -64.5q0 -38 25.5 -62t70.5 -24z" />
<glyph unicode="&#xa5;" horiz-adv-x="1398" d="M551 0v178h-346v154h346v127h-346v151h342v25l-467 776h303l317 -530l320 530h301l-471 -774v-27h346v-151h-350v-127h350v-154h-350v-178h-295z" />
<glyph unicode="&#xa8;" horiz-adv-x="1085" d="M195 1196v297h264v-297h-264zM618 1196v297h267v-297h-267z" />
<glyph unicode="&#xa9;" horiz-adv-x="1775" d="M885 -82q-149 0 -281 55t-226 150t-149 227t-55 281t56 282t151 228t228 151t282 56t281 -55t226 -149t149 -226t55 -281t-56 -282t-151 -229t-228 -152t-282 -56zM891 45q163 0 294 75.5t205 209.5t74 301t-74.5 302.5t-207 212.5t-297.5 77q-123 0 -229.5 -44.5 t-182 -122t-119 -186.5t-43.5 -233q0 -167 75 -302.5t207.5 -212.5t297.5 -77zM881 233q-150 0 -240 106.5t-90 297.5t89 297t247 106q128 0 205.5 -65.5t101.5 -179.5l-162 -43q-19 68 -51 102.5t-92 34.5q-75 0 -117.5 -69t-42.5 -183q0 -116 41.5 -182t118.5 -66 q117 0 147 152l164 -45q-35 -127 -109.5 -195t-209.5 -68z" />
<glyph unicode="&#xab;" horiz-adv-x="1292" d="M395 0l-342 547l342 545h301l-327 -545l327 -547h-301zM928 0l-342 547l342 545h301l-328 -545l328 -547h-301z" />
<glyph unicode="&#xad;" horiz-adv-x="727" d="M98 539v211h531v-211h-531z" />
<glyph unicode="&#xae;" horiz-adv-x="1091" d="M545 600q-201 0 -336 135t-135 336q0 200 137 336.5t338 136.5q200 0 334.5 -135t134.5 -336q0 -199 -137 -336t-336 -137zM549 686q163 0 270 109.5t107 275.5t-109 277.5t-272 111.5t-271 -110.5t-108 -276.5t109 -276.5t274 -110.5zM360 823v516h203q96 0 147.5 -42.5 t51.5 -127.5q0 -110 -100 -151l106 -195h-127l-94 181h-64v-181h-123zM483 1092h72q90 0 90 71q0 68 -90 68h-72v-139z" />
<glyph unicode="&#xb4;" horiz-adv-x="1024" d="M475 1208l197 355h315l-301 -355h-211z" />
<glyph unicode="&#xb8;" horiz-adv-x="1024" d="M541 -414q-190 0 -305 78l57 92q46 -30 107 -46.5t116 -16.5q47 0 77 19.5t30 56.5q0 28 -19 42.5t-49 14.5q-42 0 -92 -37l-78 39l53 172h129l-26 -102q45 36 135 36q62 0 105.5 -38t43.5 -101q0 -95 -80.5 -152t-203.5 -57z" />
<glyph unicode="&#xba;" horiz-adv-x="952" d="M477 815q-58 0 -111.5 12t-105.5 41t-90 72.5t-61 112t-23 153.5q0 108 34.5 187.5t93 122.5t124 63t139.5 20q58 0 111 -11.5t105 -40.5t90 -72.5t61.5 -112.5t23.5 -156q0 -85 -23.5 -153.5t-61.5 -112t-90 -72.5t-105.5 -41t-110.5 -12zM477 975q80 0 122 61.5 t42 169.5q0 106 -41.5 168t-122.5 62q-82 0 -123 -60t-41 -170q0 -106 40.5 -168.5t123.5 -62.5z" />
<glyph unicode="&#xbb;" horiz-adv-x="1292" d="M63 0l328 547l-328 545h302l342 -545l-342 -547h-302zM596 0l328 547l-328 545h301l342 -545l-342 -547h-301z" />
<glyph unicode="&#x2c6;" horiz-adv-x="1132" d="M193 1212l268 351h211l268 -351h-184l-191 162l-188 -162h-184z" />
<glyph unicode="&#x2da;" horiz-adv-x="1085" d="M543 1194q-97 0 -161.5 64t-64.5 161q0 95 64.5 159t161.5 64t161 -64t64 -159q0 -97 -64 -161t-161 -64zM543 1317q43 0 70.5 28.5t27.5 73.5q0 43 -28 72t-70 29q-43 0 -71 -29t-28 -72q0 -45 28 -73.5t71 -28.5z" />
<glyph unicode="&#x2dc;" horiz-adv-x="1071" d="M135 1192q0 164 63 241.5t177 77.5q51 0 97 -18.5t74.5 -40.5t63.5 -40.5t66 -18.5q86 0 86 118h174q0 -165 -63.5 -244t-176.5 -79q-51 0 -98 18.5t-75.5 41t-63 41t-64.5 18.5q-86 0 -86 -115h-174z" />
<glyph unicode="&#x5b0;" d="M647 -379q-40 0 -69 28t-29 68t28.5 69.5t69.5 29.5q39 0 67.5 -29t28.5 -70q0 -39 -28.5 -67.5t-67.5 -28.5zM647 -670q-40 0 -69 28.5t-29 68.5t28.5 69t69.5 29q39 0 67.5 -28.5t28.5 -69.5q0 -39 -28.5 -68t-67.5 -29z" />
<glyph unicode="&#x5b1;" d="M944 -379q-40 0 -69 28t-29 68t29 69.5t69 29.5t69 -29t29 -70q0 -38 -29 -67t-69 -29zM356 -379q-40 0 -69 28t-29 68t28.5 69.5t69.5 29.5q39 0 68 -29t29 -70q0 -39 -28.5 -67.5t-68.5 -28.5zM647 -379q-40 0 -69 28t-29 68t28.5 69.5t69.5 29.5q39 0 67.5 -29 t28.5 -70q0 -39 -28.5 -67.5t-67.5 -28.5zM502 -664q-40 0 -69.5 28.5t-29.5 68.5t29.5 69t69.5 29q39 0 68.5 -29.5t29.5 -68.5t-29 -68t-69 -29zM944 -670q-40 0 -69 28.5t-29 68.5t29 69t69 29t69 -28.5t29 -69.5q0 -39 -29 -68t-69 -29z" />
<glyph unicode="&#x5b2;" d="M915 -381q-40 0 -69 28t-29 68q0 41 29 70t69 29t69.5 -29t29.5 -70q0 -39 -29.5 -67.5t-69.5 -28.5zM285 -362v161h448v-161h-448zM915 -674q-40 0 -69 29t-29 67q0 41 29 71t69 30t69.5 -30t29.5 -71q0 -38 -29.5 -67t-69.5 -29z" />
<glyph unicode="&#x5b3;" d="M930 -381q-40 0 -69.5 28.5t-29.5 67.5q0 41 29.5 70t69.5 29t69 -29t29 -70q0 -40 -29 -68t-69 -28zM420 -653v125l26 166h-178v161h480v-161h-177l25 -166v-125h-176zM930 -674q-40 0 -69.5 29t-29.5 67q0 41 29.5 71t69.5 30t69 -30t29 -71q0 -38 -29 -67t-69 -29z " />
<glyph unicode="&#x5b4;" d="M651 -381q-41 0 -69.5 28t-28.5 68q0 41 28.5 70t69.5 29q39 0 68 -29t29 -70q0 -39 -29 -67.5t-68 -28.5z" />
<glyph unicode="&#x5b5;" d="M498 -379q-40 0 -69.5 28.5t-29.5 67.5q0 40 29 69.5t70 29.5q39 0 67.5 -29t28.5 -70q0 -39 -28.5 -67.5t-67.5 -28.5zM803 -379q-41 0 -71 28t-30 68t30 69.5t71 29.5q37 0 65.5 -29t28.5 -70q0 -39 -27.5 -67.5t-66.5 -28.5z" />
<glyph unicode="&#x5b6;" d="M498 -379q-40 0 -69.5 28.5t-29.5 67.5q0 40 29 69.5t70 29.5q39 0 67.5 -29t28.5 -70q0 -39 -28.5 -67.5t-67.5 -28.5zM803 -379q-41 0 -71 28t-30 68t30 69.5t71 29.5q37 0 65.5 -29t28.5 -70q0 -39 -27.5 -67.5t-66.5 -28.5zM651 -664q-41 0 -69.5 28.5t-28.5 68.5 t28.5 69t69.5 29q39 0 68 -29.5t29 -68.5t-29 -68t-68 -29z" />
<glyph unicode="&#x5b7;" d="M381 -362v161h537v-161h-537z" />
<glyph unicode="&#x5b8;" d="M559 -653v188l29 103h-217v161h555v-161h-217l28 -103v-188h-178z" />
<glyph unicode="&#x5b9;" d="M309 1366q-41 0 -70.5 28t-29.5 68q0 41 29.5 70t70.5 29q39 0 68 -29t29 -70q0 -39 -29 -67.5t-68 -28.5z" />
<glyph unicode="&#x5ba;" d="M295 1366q-41 0 -69.5 28t-28.5 68q0 41 28.5 70t69.5 29q40 0 68 -29t28 -70q0 -40 -28 -68t-68 -28z" />
<glyph unicode="&#x5bb;" d="M643 -379q-40 0 -69 28t-29 68t29 69.5t69 29.5q39 0 67.5 -29t28.5 -70q0 -39 -28.5 -67.5t-67.5 -28.5zM801 -627q-40 0 -69.5 28.5t-29.5 66.5q0 41 29 70.5t70 29.5q39 0 67.5 -29.5t28.5 -70.5q0 -37 -28.5 -66t-67.5 -29zM956 -877q-40 0 -68 28.5t-28 68.5t28 69 t68 29t69.5 -29t29.5 -69q0 -38 -29.5 -67.5t-69.5 -29.5z" />
<glyph unicode="&#x5bc;" d="M354 528q-41 0 -69.5 29.5t-28.5 69.5t28.5 69t69.5 29q40 0 68.5 -29t28.5 -69t-28.5 -69.5t-68.5 -29.5z" />
<glyph unicode="&#x5be;" horiz-adv-x="626" d="M51 971v250h524v-250h-524z" />
<glyph unicode="&#x5bf;" d="M319 1397v164h576v-164h-576z" />
<glyph unicode="&#x5c1;" d="M1444 1366q-40 0 -69 28t-29 68q0 41 29 70t69 29t69 -29t29 -70q0 -40 -29 -68t-69 -28z" />
<glyph unicode="&#x5c2;" d="M281 1366q-41 0 -71 28t-30 68q0 41 30 70t71 29q39 0 67.5 -29t28.5 -70q0 -39 -28.5 -67.5t-67.5 -28.5z" />
<glyph unicode="&#x5c7;" d="M563 -690v225l29 103h-197v161h514v-161h-196l28 -103v-225h-178z" />
<glyph unicode="&#x5d0;" horiz-adv-x="1337" d="M1112 315q101 -132 191 -186l-248 -180q-46 31 -84 71.5t-86 104.5l-361 475l-137 -600h-326l230 909l-244 312h371l356 -482l166 482h334l-273 -760z" />
<glyph unicode="&#x5d1;" horiz-adv-x="1112" d="M90 0v252h569q-38 68 -38 221v342q0 75 -39.5 115.5t-114.5 40.5h-369v250h387q227 0 344 -113t117 -332v-307q0 -146 29 -217h115v-252h-1000z" />
<glyph unicode="&#x5d2;" horiz-adv-x="899" d="M27 -25v277q135 6 223.5 42.5t159.5 113.5l-33 563h-258v250h553l45 -768l151 -453h-315l-92 254q-56 -126 -170.5 -200.5t-263.5 -78.5z" />
<glyph unicode="&#x5d3;" horiz-adv-x="1126" d="M530 0v750q0 144 39 221h-516v250h996v-250h-164q-29 -72 -29 -219v-752h-326z" />
<glyph unicode="&#x5d4;" horiz-adv-x="1310" d="M840 0v971h-690v250h1015v-1221h-325zM139 0v475q0 127 62 205h276q-16 -60 -16 -219v-461h-322z" />
<glyph unicode="&#x5d5;" horiz-adv-x="665" d="M195 0v971h-121v250h446v-1221h-325z" />
<glyph unicode="&#x5d6;" horiz-adv-x="888" d="M285 0l-45 705q-12 154 73 266h-239v250h739v-250h-217q-41 -100 -33 -242l47 -729h-325z" />
<glyph unicode="&#x5d7;" horiz-adv-x="1359" d="M152 0v1221h1054v-1221h-325v971h-404v-971h-325z" />
<glyph unicode="&#x5d8;" horiz-adv-x="1329" d="M680 -29q-242 0 -389.5 163t-147.5 429v420q0 163 -34 238h303q57 -71 57 -213v-512q0 -121 58 -196t153 -75t153 75t58 196v356q0 135 -113 135q-44 0 -90 -24l-65 223q120 63 256 63q153 0 245.5 -91t92.5 -245v-350q0 -266 -148 -429t-389 -163z" />
<glyph unicode="&#x5d9;" horiz-adv-x="696" d="M485 442l-272 58q35 128 35 366v105h-185v250h510v-226q0 -202 -21 -331.5t-67 -221.5z" />
<glyph unicode="&#x5da;" horiz-adv-x="1062" d="M598 -412v1383h-524v250h848v-1633h-324z" />
<glyph unicode="&#x5db;" horiz-adv-x="1079" d="M76 0v252h325q100 0 153.5 59.5t53.5 171.5v488h-532v250h858v-719q0 -225 -125 -363.5t-328 -138.5h-405z" />
<glyph unicode="&#x5dc;" horiz-adv-x="1110" d="M406 -33l-117 230q177 91 275 229t98 307v238h-578v545h326v-295h577v-426q0 -179 -61 -336.5t-194.5 -289t-325.5 -202.5z" />
<glyph unicode="&#x5dd;" horiz-adv-x="1353" d="M143 0v1221h1065v-1221h-1065zM469 252h414v719h-414v-719z" />
<glyph unicode="&#x5de;" horiz-adv-x="1341" d="M1200 913l25 -702l-15 -211h-534v252h223l-20 559q-3 158 -152 158q-41 0 -104.5 -24t-108.5 -62l-76 -883h-323l100 907q-62 62 -188 107l127 260q77 -14 158 -59t143 -111q174 127 381 127q172 0 265 -75.5t99 -242.5z" />
<glyph unicode="&#x5df;" horiz-adv-x="665" d="M201 -412v1383h-125v250h448v-1633h-323z" />
<glyph unicode="&#x5e0;" horiz-adv-x="827" d="M299 -14q-141 0 -240 18v256q61 -12 127 -12q94 0 133 35t39 123v565h-211v250h537v-838q0 -65 -8.5 -118t-33.5 -107t-66.5 -90t-112 -59t-164.5 -23z" />
<glyph unicode="&#x5e1;" horiz-adv-x="1320" d="M680 -16q-129 0 -232 45t-169 124t-100.5 183.5t-35.5 226.5v658h602q241 0 356.5 -110.5t115.5 -350.5v-197q-2 -164 -62 -293t-182.5 -207.5t-292.5 -78.5zM680 236q88 0 149.5 67t61.5 193v303q0 81 -40 126.5t-122 45.5h-260v-475q0 -128 58.5 -194t152.5 -66z" />
<glyph unicode="&#x5e2;" horiz-adv-x="1314" d="M872 1221h326l-22 -588q-9 -285 -168.5 -459t-434.5 -174h-499v250h321q-54 47 -90 117t-45 145l-92 709h319l86 -742q16 -135 68 -211q112 32 158 120.5t51 244.5z" />
<glyph unicode="&#x5e3;" horiz-adv-x="1241" d="M797 -412v1200q0 146 -123 166l-168 27q-126 -126 -123 -252q1 -82 35 -128.5t104 -68.5l-47 -251q-196 25 -294.5 144t-98.5 298q0 135 85.5 284.5t223.5 249.5l340 -45q180 -23 284.5 -138.5t104.5 -297.5v-1188h-323z" />
<glyph unicode="&#x5e4;" horiz-adv-x="1249" d="M147 0v252h457q95 0 152 66t57 153v297q0 178 -145 201l-172 22q-48 -40 -75 -92t-26 -104q3 -125 146 -154l-49 -238q-180 6 -291 106t-111 273q0 126 78 250.5t203 222.5l366 -38q184 -19 293 -137t109 -300v-354q0 -183 -132.5 -304.5t-330.5 -121.5h-529z" />
<glyph unicode="&#x5e5;" horiz-adv-x="1189" d="M1165 1221l-360 -760q43 -128 43 -336v-537h-324v615q3 195 -69 315l-432 703h354l250 -447l190 447h348z" />
<glyph unicode="&#x5e6;" horiz-adv-x="1200" d="M1176 1221l-340 -721l217 -320v-180h-951v252h586l-659 969h354l266 -437l178 437h349z" />
<glyph unicode="&#x5e7;" horiz-adv-x="1290" d="M711 -20l-148 231q131 93 203 220t72 276v264h-705v250h1030v-469q0 -241 -115.5 -445t-336.5 -327zM143 -412v889q0 122 64 203h268q-18 -53 -18 -215v-877h-314z" />
<glyph unicode="&#x5e8;" horiz-adv-x="1056" d="M612 0v815q0 73 -38 114.5t-115 41.5h-393v250h411q235 0 348 -107t113 -338v-776h-326z" />
<glyph unicode="&#x5e9;" horiz-adv-x="1746" d="M221 -2l-104 1223h317l82 -971h447q143 0 231 119t88 307v545h322v-531q0 -309 -170 -499.5t-445 -190.5zM893 422l-240 80q54 143 54 336v383h321v-347q0 -165 -31 -262t-104 -190z" />
<glyph unicode="&#x5ea;" horiz-adv-x="1366" d="M195 -10q-88 0 -166 10v250q18 -2 57 -2q90 0 120 33.5t30 124.5v815h561q235 0 347.5 -107t112.5 -338v-776h-325v815q0 73 -38 114.5t-114 41.5h-229v-631q0 -79 -17 -139.5t-56 -109.5t-110.5 -75t-172.5 -26z" />
<glyph unicode="&#x5f0;" horiz-adv-x="1329" d="M195 0v971h-121v250h446v-1221h-325zM858 0v971h-121v250h447v-1221h-326z" />
<glyph unicode="&#x5f1;" horiz-adv-x="1361" d="M195 0v971h-121v250h446v-1221h-325zM1151 442l-272 58q34 124 34 366v105h-184v250h510v-226q0 -202 -21 -331.5t-67 -221.5z" />
<glyph unicode="&#x5f2;" horiz-adv-x="1392" d="M485 442l-272 58q35 128 35 366v105h-185v250h510v-226q0 -202 -21 -331.5t-67 -221.5zM1182 442l-273 58q35 128 35 366v105h-184v250h510v-226q0 -202 -21 -331.5t-67 -221.5z" />
<glyph unicode="&#x5f3;" horiz-adv-x="530" d="M197 776l-105 92q101 119 101 267h-97v305h342v-244q0 -118 -69.5 -236t-171.5 -184z" />
<glyph unicode="&#x5f4;" horiz-adv-x="976" d="M197 776l-105 92q101 119 101 267h-97v305h342v-244q0 -118 -69.5 -236t-171.5 -184zM645 776l-106 92q100 117 100 267h-96v305h344v-244q0 -117 -70.5 -235t-171.5 -185z" />
<glyph unicode="&#x2000;" horiz-adv-x="821" />
<glyph unicode="&#x2001;" horiz-adv-x="1642" />
<glyph unicode="&#x2002;" horiz-adv-x="821" />
<glyph unicode="&#x2003;" horiz-adv-x="1642" />
<glyph unicode="&#x2004;" horiz-adv-x="547" />
<glyph unicode="&#x2005;" horiz-adv-x="410" />
<glyph unicode="&#x2006;" horiz-adv-x="273" />
<glyph unicode="&#x2007;" horiz-adv-x="273" />
<glyph unicode="&#x2008;" horiz-adv-x="205" />
<glyph unicode="&#x2009;" horiz-adv-x="328" />
<glyph unicode="&#x200a;" horiz-adv-x="91" />
<glyph unicode="&#x2010;" horiz-adv-x="727" d="M98 539v211h531v-211h-531z" />
<glyph unicode="&#x2011;" horiz-adv-x="727" d="M98 539v211h531v-211h-531z" />
<glyph unicode="&#x2012;" horiz-adv-x="727" d="M98 539v211h531v-211h-531z" />
<glyph unicode="&#x2013;" horiz-adv-x="1357" d="M115 504v268h1128v-268h-1128z" />
<glyph unicode="&#x2014;" horiz-adv-x="1931" d="M115 504v268h1702v-268h-1702z" />
<glyph unicode="&#x2018;" horiz-adv-x="516" d="M92 913v244q0 117 70 235.5t172 184.5l104 -94q-47 -54 -73.5 -123.5t-26.5 -140.5h96v-306h-342z" />
<glyph unicode="&#x2019;" horiz-adv-x="530" d="M197 776l-105 92q101 119 101 267h-97v305h342v-244q0 -118 -69.5 -236t-171.5 -184z" />
<glyph unicode="&#x201a;" horiz-adv-x="530" d="M197 -358l-105 92q101 119 101 266h-97v305h342v-244q0 -117 -69.5 -235t-171.5 -184z" />
<glyph unicode="&#x201c;" horiz-adv-x="983" d="M92 913v244q0 117 70 235.5t172 184.5l104 -94q-47 -54 -73.5 -123.5t-26.5 -140.5h96v-306h-342zM539 913v244q0 118 69.5 236t171.5 184l107 -94q-49 -54 -76 -123.5t-27 -140.5h97v-306h-342z" />
<glyph unicode="&#x201d;" horiz-adv-x="976" d="M197 776l-105 92q101 119 101 267h-97v305h342v-244q0 -118 -69.5 -236t-171.5 -184zM645 776l-106 92q100 117 100 267h-96v305h344v-244q0 -117 -70.5 -235t-171.5 -185z" />
<glyph unicode="&#x201e;" horiz-adv-x="976" d="M197 -358l-105 92q101 119 101 266h-97v305h342v-244q0 -117 -69.5 -235t-171.5 -184zM645 -358l-106 92q47 56 73.5 126t26.5 140h-96v305h344v-244q0 -117 -70.5 -234.5t-171.5 -184.5z" />
<glyph unicode="&#x2022;" horiz-adv-x="948" d="M473 446q-117 0 -193.5 77t-76.5 194q0 118 76.5 195t193.5 77t194.5 -77t77.5 -195q0 -117 -77.5 -194t-194.5 -77z" />
<glyph unicode="&#x2026;" horiz-adv-x="1597" d="M115 0v305h311v-305h-311zM643 0v305h311v-305h-311zM1171 0v305h312v-305h-312z" />
<glyph unicode="&#x202f;" horiz-adv-x="328" />
<glyph unicode="&#x2039;" horiz-adv-x="765" d="M395 0l-342 547l342 545h301l-327 -545l327 -547h-301z" />
<glyph unicode="&#x203a;" horiz-adv-x="765" d="M70 0l327 547l-327 545h301l340 -545l-340 -547h-301z" />
<glyph unicode="&#x2044;" horiz-adv-x="1124" d="M-27 0l906 1516h272l-905 -1516h-273z" />
<glyph unicode="&#x205f;" horiz-adv-x="410" />
<glyph unicode="&#x20ac;" horiz-adv-x="1513" d="M872 -27q-215 0 -365.5 127t-201.5 369h-213v154h193q-2 29 -2 77v64h-191v154h207q45 251 196 385.5t367 134.5q111 0 197.5 -28t147 -82t101 -121t70.5 -156l-248 -93q-20 61 -40.5 102t-50.5 77t-72.5 53.5t-98.5 17.5q-113 0 -185 -77t-99 -213h313v-154h-328 q-4 -46 -4 -68q0 -23 4 -73h328v-154h-309q26 -129 97 -200.5t189 -71.5q101 0 163.5 69.5t101.5 202.5l254 -80q-60 -190 -189 -303t-332 -113z" />
<glyph unicode="&#x2122;" horiz-adv-x="1894" d="M297 649v690h-240v177h697v-177h-240v-690h-217zM877 649v867h290l170 -588l176 588h285v-867h-207v576l-174 -576h-180l-170 570v-570h-190z" />
<glyph unicode="&#x25fc;" horiz-adv-x="1095" d="M0 1096h1096v-1096h-1096v1096z" />
<glyph unicode="&#xfb1f;" horiz-adv-x="1392" d="M485 442l-272 58q35 128 35 366v105h-185v250h510v-226q0 -202 -21 -331.5t-67 -221.5zM1182 442l-273 58q35 128 35 366v105h-184v250h510v-226q0 -202 -21 -331.5t-67 -221.5zM422 -362v161h536v-161h-536z" />
<glyph unicode="&#xfb20;" horiz-adv-x="1314" d="M868 1221h332l-22 -588q-7 -186 -78.5 -328t-207.5 -223.5t-319 -81.5h-497v250h307q-99 107 -121 262l-92 709h317l86 -742q16 -142 66 -211q111 32 156.5 120.5t48.5 244.5z" />
<glyph unicode="&#xfb21;" horiz-adv-x="1959" d="M1694 274q134 -104 229 -135l-199 -233q-35 14 -74.5 38t-61.5 41t-68 54l-822 663l-266 -702h-338l357 903l-392 318h463l690 -557l312 557h358l-426 -754z" />
<glyph unicode="&#xfb22;" horiz-adv-x="1835" d="M1221 0v971h-1151v250h1689v-250h-213v-971h-325z" />
<glyph unicode="&#xfb23;" horiz-adv-x="1935" d="M1464 0v971h-1314v250h1640v-1221h-326zM139 0v465q0 126 62 205l276 -23q-16 -54 -16 -217v-430h-322z" />
<glyph unicode="&#xfb24;" horiz-adv-x="1724" d="M76 0v252h971q102 0 154 61t52 170v488h-1177v250h1503v-719q0 -140 -51 -252.5t-155.5 -181t-246.5 -68.5h-1050z" />
<glyph unicode="&#xfb25;" horiz-adv-x="1902" d="M838 -33l-50 256q297 37 478.5 184t181.5 357v207h-1364v545h326v-295h1366v-426q0 -223 -118 -403t-330.5 -290t-489.5 -135z" />
<glyph unicode="&#xfb26;" horiz-adv-x="2009" d="M143 0v1221h1721v-1221h-1721zM469 252h1069v719h-1069v-719z" />
<glyph unicode="&#xfb27;" horiz-adv-x="1714" d="M1268 0v815q0 73 -37.5 114.5t-114.5 41.5h-1034v250h1053q235 0 346.5 -106.5t111.5 -338.5v-776h-325z" />
<glyph unicode="&#xfb28;" horiz-adv-x="2064" d="M260 -10q-84 0 -217 10v250q18 -2 109 -2q90 0 118.5 33t28.5 125v815h1196q236 0 349.5 -107t113.5 -338v-776h-326v815q0 73 -38.5 114.5t-114.5 41.5h-856v-631q0 -78 -18 -139t-58.5 -110t-112.5 -75t-174 -26z" />
<glyph unicode="&#xfb29;" horiz-adv-x="1241" d="M190 590v227h353v367h233v-367h352v-227h-938z" />
<glyph unicode="&#xfb2a;" horiz-adv-x="1746" d="M1442 1366q-40 0 -69.5 28.5t-29.5 67.5q0 41 29.5 70t69.5 29t69 -29t29 -70q0 -40 -29 -68t-69 -28zM221 -2l-104 1223h317l82 -971h447q143 0 231 119t88 307v545h322v-531q0 -309 -170 -499.5t-445 -190.5zM893 422l-240 80q54 143 54 336v383h321v-347 q0 -165 -31 -262t-104 -190z" />
<glyph unicode="&#xfb2b;" horiz-adv-x="1746" d="M281 1366q-41 0 -71 28t-30 68q0 41 30 70t71 29q39 0 67.5 -29t28.5 -70q0 -39 -28.5 -67.5t-67.5 -28.5zM221 -2l-104 1223h317l82 -971h447q143 0 231 119t88 307v545h322v-531q0 -309 -170 -499.5t-445 -190.5zM893 422l-240 80q54 143 54 336v383h321v-347 q0 -165 -31 -262t-104 -190z" />
<glyph unicode="&#xfb2c;" horiz-adv-x="1746" d="M1442 1366q-40 0 -69.5 28.5t-29.5 67.5q0 41 29.5 70t69.5 29t69 -29t29 -70q0 -40 -29 -68t-69 -28zM221 -2l-104 1223h317l82 -971h447q143 0 231 119t88 307v545h322v-531q0 -309 -170 -499.5t-445 -190.5zM893 422l-240 80q54 143 54 336v383h321v-347 q0 -165 -31 -262t-104 -190zM1151 688q-32 0 -54 22t-22 52q0 32 22 54t54 22q30 0 51 -22t21 -54q0 -29 -21.5 -51.5t-50.5 -22.5z" />
<glyph unicode="&#xfb2d;" horiz-adv-x="1746" d="M281 1366q-41 0 -71 28t-30 68q0 41 30 70t71 29q39 0 67.5 -29t28.5 -70q0 -39 -28.5 -67.5t-67.5 -28.5zM221 -2l-104 1223h317l82 -971h447q143 0 231 119t88 307v545h322v-531q0 -309 -170 -499.5t-445 -190.5zM893 422l-240 80q54 143 54 336v383h321v-347 q0 -165 -31 -262t-104 -190zM1151 688q-32 0 -54 22t-22 52q0 32 22 54t54 22q30 0 51 -22t21 -54q0 -29 -21.5 -51.5t-50.5 -22.5z" />
<glyph unicode="&#xfb2e;" horiz-adv-x="1337" d="M1112 315q101 -132 191 -186l-248 -180q-46 31 -84 71.5t-86 104.5l-361 475l-137 -600h-326l230 909l-244 312h371l356 -482l166 482h334l-273 -760zM399 -362v161h537v-161h-537z" />
<glyph unicode="&#xfb2f;" horiz-adv-x="1337" d="M1112 315q101 -132 191 -186l-248 -180q-46 31 -84 71.5t-86 104.5l-361 475l-137 -600h-326l230 909l-244 312h371l356 -482l166 482h334l-273 -760zM389 -362v161h555v-161h-217l29 -103v-188h-178v188l28 103h-217z" />
<glyph unicode="&#xfb30;" horiz-adv-x="1337" d="M1112 315q101 -132 191 -186l-248 -180q-46 31 -84 71.5t-86 104.5l-361 475l-137 -600h-326l230 909l-244 312h371l356 -482l166 482h334l-273 -760zM608 289q35 0 59.5 -24.5t24.5 -61.5q0 -34 -24.5 -59t-59.5 -25t-60.5 25t-25.5 59q0 36 25 61t61 25z" />
<glyph unicode="&#xfb31;" horiz-adv-x="1112" d="M90 0v252h569q-38 68 -38 221v342q0 75 -39.5 115.5t-114.5 40.5h-369v250h387q227 0 344 -113t117 -332v-307q0 -146 29 -217h115v-252h-1000zM334 520q-41 0 -69.5 29t-28.5 69t28.5 69.5t69.5 29.5q39 0 67.5 -29.5t28.5 -69.5t-28 -69t-68 -29z" />
<glyph unicode="&#xfb32;" horiz-adv-x="899" d="M27 -25v277q135 6 223.5 42.5t159.5 113.5l-33 563h-258v250h553l45 -768l151 -453h-315l-92 254q-56 -126 -170.5 -200.5t-263.5 -78.5zM182 520q-41 0 -69.5 29t-28.5 69t28.5 69.5t69.5 29.5q40 0 68.5 -29.5t28.5 -69.5t-28.5 -69t-68.5 -29z" />
<glyph unicode="&#xfb33;" horiz-adv-x="1126" d="M530 0v750q0 144 39 221h-516v250h996v-250h-164q-29 -72 -29 -219v-752h-326zM272 524q-41 0 -69.5 29.5t-28.5 69.5t28.5 69t69.5 29q40 0 68.5 -29t28.5 -69t-28.5 -69.5t-68.5 -29.5z" />
<glyph unicode="&#xfb34;" horiz-adv-x="1310" d="M840 0v971h-690v250h1015v-1221h-325zM649 524q-41 0 -69.5 29.5t-28.5 69.5t28.5 69t69.5 29q40 0 68 -29t28 -69t-28.5 -69.5t-67.5 -29.5zM139 0v475q0 127 62 205h276q-16 -60 -16 -219v-461h-322z" />
<glyph unicode="&#xfb35;" horiz-adv-x="665" d="M195 0v971h-121v250h446v-1221h-325zM29 524q-41 0 -70 29.5t-29 69.5t29 69t70 29q40 0 68 -29t28 -69t-28.5 -69.5t-67.5 -29.5z" />
<glyph unicode="&#xfb36;" horiz-adv-x="888" d="M285 0l-45 705q-12 154 73 266h-239v250h739v-250h-217q-41 -100 -33 -242l47 -729h-325zM70 524q-41 0 -70 29.5t-29 69.5t29 69t70 29q40 0 68 -29t28 -69t-28.5 -69.5t-67.5 -29.5z" />
<glyph unicode="&#xfb38;" horiz-adv-x="1329" d="M680 -29q-242 0 -389.5 163t-147.5 429v420q0 163 -34 238h303q57 -71 57 -213v-512q0 -121 58 -196t153 -75t153 75t58 196v356q0 135 -113 135q-44 0 -90 -24l-65 223q120 63 256 63q153 0 245.5 -91t92.5 -245v-350q0 -266 -148 -429t-389 -163zM676 526 q-41 0 -69.5 29.5t-28.5 69.5t28.5 69t69.5 29q40 0 68 -29t28 -69t-28.5 -69.5t-67.5 -29.5z" />
<glyph unicode="&#xfb39;" horiz-adv-x="696" d="M485 442l-272 58q35 128 35 366v105h-185v250h510v-226q0 -202 -21 -331.5t-67 -221.5zM76 651q-41 0 -70 29.5t-29 69.5t29 69t70 29q40 0 68 -29t28 -69t-28.5 -69.5t-67.5 -29.5z" />
<glyph unicode="&#xfb3a;" horiz-adv-x="1062" d="M598 -412v1383h-524v250h848v-1633h-324zM309 637q-41 0 -69.5 29t-28.5 69t28.5 69.5t69.5 29.5q40 0 68.5 -29.5t28.5 -69.5t-28.5 -69t-68.5 -29z" />
<glyph unicode="&#xfb3b;" horiz-adv-x="1079" d="M76 0v252h325q100 0 153.5 59.5t53.5 171.5v488h-532v250h858v-719q0 -225 -125 -363.5t-328 -138.5h-405zM326 520q-41 0 -70 29t-29 69t29 69.5t70 29.5q39 0 67.5 -29.5t28.5 -69.5t-28 -69t-68 -29z" />
<glyph unicode="&#xfb3c;" horiz-adv-x="1110" d="M406 -33l-117 230q177 91 275 229t98 307v238h-578v545h326v-295h577v-426q0 -179 -61 -336.5t-194.5 -289t-325.5 -202.5zM324 524q-41 0 -70 29.5t-29 69.5t29 69t70 29q40 0 68 -29t28 -69t-28.5 -69.5t-67.5 -29.5z" />
<glyph unicode="&#xfb3e;" horiz-adv-x="1341" d="M1200 913l25 -702l-15 -211h-534v252h223l-20 559q-3 158 -152 158q-41 0 -104.5 -24t-108.5 -62l-76 -883h-323l100 907q-62 62 -188 107l127 260q77 -14 158 -59t143 -111q174 127 381 127q172 0 265 -75.5t99 -242.5zM782 623q0 -40 -28.5 -69.5t-67.5 -29.5 q-41 0 -69.5 29.5t-28.5 69.5t28.5 69t69.5 29q40 0 68 -29t28 -69z" />
<glyph unicode="&#xfb40;" horiz-adv-x="827" d="M299 -14q-141 0 -240 18v256q61 -12 127 -12q94 0 133 35t39 123v565h-211v250h537v-838q0 -65 -8.5 -118t-33.5 -107t-66.5 -90t-112 -59t-164.5 -23zM162 524q-41 0 -70 29.5t-29 69.5t29 69t70 29q40 0 68 -29t28 -69t-28.5 -69.5t-67.5 -29.5z" />
<glyph unicode="&#xfb41;" horiz-adv-x="1320" d="M680 -16q-129 0 -232 45t-169 124t-100.5 183.5t-35.5 226.5v658h602q241 0 356.5 -110.5t115.5 -350.5v-197q-2 -164 -62 -293t-182.5 -207.5t-292.5 -78.5zM680 236q88 0 149.5 67t61.5 193v303q0 81 -40 126.5t-122 45.5h-260v-475q0 -128 58.5 -194t152.5 -66z M678 524q-41 0 -69.5 29.5t-28.5 69.5t28.5 69t69.5 29q40 0 68 -29t28 -69t-28.5 -69.5t-67.5 -29.5z" />
<glyph unicode="&#xfb43;" horiz-adv-x="1241" d="M797 -412v1200q0 146 -123 166l-168 27q-126 -126 -123 -252q1 -82 35 -128.5t104 -68.5l-47 -251q-196 25 -294.5 144t-98.5 298q0 135 85.5 284.5t223.5 249.5l340 -45q180 -23 284.5 -138.5t104.5 -297.5v-1188h-323zM592 641q-41 0 -69.5 29t-28.5 69t28.5 69.5 t69.5 29.5q39 0 67.5 -29.5t28.5 -69.5t-28 -69t-68 -29z" />
<glyph unicode="&#xfb44;" horiz-adv-x="1249" d="M147 0v252h457q95 0 152 66t57 153v297q0 178 -145 201l-172 22q-48 -40 -75 -92t-26 -104q3 -125 146 -154l-49 -238q-180 6 -291 106t-111 273q0 126 78 250.5t203 222.5l366 -38q184 -19 293 -137t109 -300v-354q0 -183 -132.5 -304.5t-330.5 -121.5h-529zM604 696 q-41 0 -69.5 29.5t-28.5 69.5t28.5 69t69.5 29q40 0 68 -29t28 -69t-28.5 -69.5t-67.5 -29.5z" />
<glyph unicode="&#xfb46;" horiz-adv-x="1200" d="M1176 1221l-340 -721l217 -320v-180h-951v252h586l-659 969h354l266 -437l178 437h349zM416 451q0 -40 -28.5 -69.5t-68.5 -29.5q-41 0 -69.5 29.5t-28.5 69.5t28.5 69t69.5 29q40 0 68.5 -29t28.5 -69z" />
<glyph unicode="&#xfb47;" horiz-adv-x="1290" d="M711 -20l-148 231q131 93 203 220t72 276v264h-705v250h1030v-469q0 -241 -115.5 -445t-336.5 -327zM639 559q-41 0 -69.5 29t-28.5 69t28.5 69.5t69.5 29.5q39 0 67.5 -29.5t28.5 -69.5t-28 -69t-68 -29zM143 -412v889q0 122 64 203h268q-18 -53 -18 -215v-877h-314z " />
<glyph unicode="&#xfb48;" horiz-adv-x="1056" d="M612 0v815q0 73 -38 114.5t-115 41.5h-393v250h411q235 0 348 -107t113 -338v-776h-326zM319 524q-41 0 -69.5 29.5t-28.5 69.5t28.5 69t69.5 29q40 0 68.5 -29t28.5 -69t-28.5 -69.5t-68.5 -29.5z" />
<glyph unicode="&#xfb49;" horiz-adv-x="1746" d="M221 -2l-104 1223h317l82 -971h447q143 0 231 119t88 307v545h322v-531q0 -309 -170 -499.5t-445 -190.5zM893 422l-240 80q54 143 54 336v383h321v-347q0 -165 -31 -262t-104 -190zM1151 688q-32 0 -54 22t-22 52q0 32 22 54t54 22q30 0 51 -22t21 -54 q0 -29 -21.5 -51.5t-50.5 -22.5z" />
<glyph unicode="&#xfb4a;" horiz-adv-x="1366" d="M195 -10q-88 0 -166 10v250q18 -2 57 -2q90 0 120 33.5t30 124.5v815h561q235 0 347.5 -107t112.5 -338v-776h-325v815q0 73 -38 114.5t-114 41.5h-229v-631q0 -79 -17 -139.5t-56 -109.5t-110.5 -75t-172.5 -26zM741 524q-41 0 -69.5 29.5t-28.5 69.5t28.5 69t69.5 29 q40 0 68.5 -29t28.5 -69t-28.5 -69.5t-68.5 -29.5z" />
<glyph unicode="&#xfb4b;" horiz-adv-x="665" d="M301 1366q-41 0 -70.5 28t-29.5 68q0 41 29.5 70t70.5 29q39 0 67.5 -29t28.5 -70q0 -39 -28.5 -67.5t-67.5 -28.5zM195 0v971h-121v250h446v-1221h-325z" />
<glyph unicode="&#xfb4c;" horiz-adv-x="1112" d="M219 1397v162h576v-162h-576zM90 0v252h569q-38 68 -38 221v342q0 75 -39.5 115.5t-114.5 40.5h-369v250h387q227 0 344 -113t117 -332v-307q0 -146 29 -217h115v-252h-1000z" />
<glyph unicode="&#xfb4d;" horiz-adv-x="1079" d="M221 1397v162h576v-162h-576zM76 0v252h325q100 0 153.5 59.5t53.5 171.5v488h-532v250h858v-719q0 -225 -125 -363.5t-328 -138.5h-405z" />
<glyph unicode="&#xfb4e;" horiz-adv-x="1249" d="M334 1397v162h575v-162h-575zM147 0v252h457q95 0 152 66t57 153v297q0 178 -145 201l-172 22q-48 -40 -75 -92t-26 -104q3 -125 146 -154l-49 -238q-180 6 -291 106t-111 273q0 126 78 250.5t203 222.5l366 -38q184 -19 293 -137t109 -300v-354q0 -183 -132.5 -304.5 t-330.5 -121.5h-529z" />
<glyph unicode="&#xfb4f;" horiz-adv-x="1193" d="M911 -51q-46 31 -84 71.5t-86 104.5l-659 866v522h319v-464l228 -306l168 478h333l-272 -760l111 -146q101 -131 188 -186z" />
<glyph horiz-adv-x="1284" d="M37 0l461 1217h286l463 -1217h-317l-88 248h-428l-92 -248h-285zM485 444h289l-141 396z" />
<glyph horiz-adv-x="1257" d="M139 0v1212h523q61 0 110 -4t105 -14.5t98 -31.5t77.5 -53t54.5 -82t19 -114q0 -122 -71 -190t-178 -88q61 -10 107.5 -28t89 -51.5t65 -90t22.5 -133.5q0 -74 -28 -132.5t-73.5 -95t-107 -61t-124 -34t-130.5 -9.5h-559zM436 707h207q92 0 140 40.5t48 104.5 q0 67 -48 106t-146 39h-201v-290zM436 211h217q102 0 153.5 43.5t51.5 114.5q0 73 -53 115t-160 42h-209v-315z" />
<glyph horiz-adv-x="1294" d="M676 -23q-101 0 -189 23t-163.5 73t-130 123t-85 177.5t-30.5 232.5q0 129 31.5 234t86.5 177.5t130.5 122t162.5 72.5t185 23q100 0 181.5 -20t138.5 -54.5t100 -84.5t69 -104.5t43 -121.5l-286 -80q-15 48 -33 84.5t-46.5 70.5t-71 52t-97.5 18q-136 0 -208.5 -103.5 t-72.5 -285.5q0 -179 74.5 -288t212.5 -109q109 0 168 65t90 185l291 -62q-19 -71 -46 -129.5t-72 -114t-103.5 -93.5t-143 -60.5t-186.5 -22.5z" />
<glyph horiz-adv-x="1318" d="M139 0v1212h408q120 0 220 -18t190 -61.5t152 -111t98 -171t36 -236.5q0 -138 -36.5 -244.5t-99 -175.5t-152.5 -113t-189.5 -62.5t-218.5 -18.5h-408zM451 229h108q207 0 290 90.5t83 290.5q0 187 -84.5 276t-288.5 89h-108v-746z" />
<glyph horiz-adv-x="1138" d="M139 0v1212h903v-241h-589v-236h428v-233h-428v-269h614v-233h-928z" />
<glyph horiz-adv-x="1060" d="M139 0v1212h875v-239h-561v-279h399v-229h-399v-465h-314z" />
<glyph horiz-adv-x="1366" d="M631 -20q-268 0 -410.5 170.5t-142.5 461.5q0 281 158.5 452t435.5 171q96 0 175 -19t150 -62.5t124.5 -122t84.5 -189.5l-278 -74q-74 229 -252 229q-132 0 -209.5 -91t-77.5 -290q0 -212 81 -312.5t216 -100.5q107 0 175.5 59t90.5 150h-217v202h496v-614h-236v180 q-40 -88 -132 -144t-232 -56z" />
<glyph horiz-adv-x="1380" d="M139 0v1212h312v-460h477v460h313v-1212h-313v504h-477v-504h-312z" />
<glyph horiz-adv-x="608" d="M147 0v1212h314v-1212h-314z" />
<glyph horiz-adv-x="964" d="M410 -23q-225 0 -377 136l133 196q38 -38 99 -69t120 -31q79 0 117.5 38.5t38.5 129.5v835h311v-852q0 -383 -442 -383z" />
<glyph horiz-adv-x="1292" d="M139 0v1212h307v-493l431 493h323l-430 -477l469 -735h-340l-324 512l-129 -133v-379h-307z" />
<glyph horiz-adv-x="1060" d="M139 0v1212h314v-979h561v-233h-875z" />
<glyph horiz-adv-x="1607" d="M139 0v1212h406l262 -868l244 868h417v-1212h-288v874l-252 -874h-273l-249 879v-879h-267z" />
<glyph horiz-adv-x="1372" d="M139 0v1212h305l527 -743v743h280v-1212h-286l-545 743v-743h-281z" />
<glyph horiz-adv-x="1400" d="M700 -23q-93 0 -181 23t-168 73t-140 122t-95.5 178t-35.5 233t35.5 233t95.5 178t140 122t168 73t181 23q118 0 226 -38t197.5 -111.5t143.5 -197.5t54 -282t-54 -282t-143.5 -197.5t-197.5 -111.5t-226 -38zM700 215q142 0 226 107.5t84 283.5q0 175 -84 279t-226 104 q-144 0 -225.5 -103.5t-81.5 -279.5q0 -177 82 -284t225 -107z" />
<glyph horiz-adv-x="1214" d="M139 0v1212h477q89 0 161.5 -9t145 -36t122 -70.5t80 -117t30.5 -172.5q0 -399 -537 -399h-174v-408h-305zM444 614h185q121 0 175 51t54 134q0 186 -229 186h-185v-371z" />
<glyph horiz-adv-x="1400" d="M987 -340q-120 0 -209.5 26t-142.5 74t-79.5 109t-29.5 137q-92 23 -170 70t-141 119t-99 177.5t-36 233.5q0 127 35.5 233t95.5 178t140 122t168 73t181 23q92 0 180 -23t168.5 -73t140.5 -122t96 -178t36 -233q0 -134 -40.5 -243.5t-110.5 -182t-155.5 -117.5 t-183.5 -63q6 -50 30 -74t78 -33.5t163 -9.5h94v-223h-209zM700 209q141 0 225.5 108t84.5 289t-84 286t-226 105q-144 0 -226.5 -104.5t-82.5 -286.5q0 -183 82.5 -290t226.5 -107z" />
<glyph horiz-adv-x="1267" d="M139 0v1212h496q252 0 384 -92t132 -295q0 -138 -65.5 -224t-200.5 -126l282 -475h-325l-258 440h-140v-440h-305zM444 643h181q221 0 221 168q0 174 -219 174h-183v-342z" />
<glyph horiz-adv-x="1249" d="M651 -29q-188 0 -340 68.5t-241 208.5l231 160q46 -94 142 -149.5t204 -55.5q213 0 213 129q0 65 -50.5 95t-199.5 62q-80 17 -138.5 33t-116.5 39t-96.5 51.5t-69.5 67.5t-45.5 90t-14.5 115q0 154 126.5 252t336.5 98q194 0 329.5 -64t213.5 -167l-203 -166 q-47 68 -140.5 117t-187.5 49q-176 0 -176 -113q0 -30 12 -52t30 -36.5t62.5 -29.5t83.5 -24.5t119 -27.5q62 -13 108 -26.5t99 -34.5t90 -48.5t69 -64.5t48 -88t16 -113q0 -116 -67.5 -202t-183 -129.5t-263.5 -43.5z" />
<glyph horiz-adv-x="1169" d="M428 0v971h-379v241h1073v-241h-381v-971h-313z" />
<glyph horiz-adv-x="1292" d="M647 -20q-265 0 -398.5 129.5t-133.5 367.5v735h311v-737q0 -129 54 -194.5t171 -65.5q116 0 168.5 65t52.5 193v739h306v-737q0 -237 -134 -366t-397 -129z" />
<glyph horiz-adv-x="1261" d="M479 -4l-442 1216h317l285 -837l295 837h291l-445 -1216h-301z" />
<glyph horiz-adv-x="1695" d="M395 0l-352 1212h315l193 -768l170 768h283l188 -768l174 768h287l-338 -1212h-258l-195 795l-203 -795h-264z" />
<glyph horiz-adv-x="1257" d="M41 0l410 637l-379 575h346l225 -356l213 356h311l-364 -573l414 -639h-340l-259 410l-256 -410h-321z" />
<glyph horiz-adv-x="1263" d="M475 0v512l-450 700h329l289 -460l287 460h309l-453 -700v-512h-311z" />
<glyph horiz-adv-x="1196" d="M61 0v199l660 772h-619v241h1018v-206l-647 -773h645v-233h-1057z" />
<glyph horiz-adv-x="1073" d="M537 -428q-202 0 -312 135.5t-110 364.5q0 228 110 362.5t312 134.5t314 -135t112 -362q0 -228 -112 -364t-314 -136zM537 -229q89 0 127 77t38 224q0 144 -38.5 219.5t-126.5 75.5q-90 0 -129 -75.5t-39 -219.5q0 -301 168 -301z" />
<glyph horiz-adv-x="751" d="M106 -412v199h179v573q-81 -45 -174 -45v177q122 3 178 59h252v-764h155v-199h-590z" />
<glyph horiz-adv-x="952" d="M109 -406v48q0 54 4 90.5t20 84t46 86.5t83.5 85t130.5 92q125 76 150 98q41 44 43 94q0 43 -27 65.5t-74 22.5q-53 0 -110.5 -37t-98.5 -106l-170 125q72 112 165.5 170.5t220.5 58.5q166 0 251.5 -76.5t85.5 -215.5q0 -88 -51.5 -165.5t-185.5 -148.5 q-104 -58 -141 -93.5t-48 -78.5h431v-199h-725z" />
<glyph horiz-adv-x="946" d="M463 -422q-128 0 -228 51t-163 144l151 131q94 -123 217 -123q146 0 146 110q0 62 -42.5 89.5t-140.5 27.5h-81v176h84q88 0 125.5 24t37.5 73q0 81 -108 81q-120 0 -221 -96l-131 158q75 72 172 109.5t202 37.5q163 0 248.5 -67t85.5 -195q0 -70 -35.5 -123t-109.5 -77 q89 -25 132.5 -85.5t43.5 -140.5q0 -151 -103 -228t-282 -77z" />
<glyph horiz-adv-x="1001" d="M526 -410v203h-440v160l436 598h256v-565h156v-193h-156v-203h-252zM315 -31h228v318z" />
<glyph horiz-adv-x="950" d="M451 -428q-129 0 -211.5 33.5t-157.5 93.5l106 164q48 -40 117.5 -69.5t136.5 -29.5q168 0 168 160q0 72 -40 109t-111 37q-89 0 -160 -86l-168 49l41 518h614l-12 -193h-414l-14 -178q61 58 189 58q151 0 237 -79t86 -239q0 -170 -109.5 -259t-297.5 -89z" />
<glyph horiz-adv-x="1003" d="M530 -428q-204 0 -310.5 121t-106.5 362q0 143 35 246t99 160t140.5 82.5t171.5 25.5q192 0 307 -82l-100 -178q-83 58 -207 58q-100 0 -144 -54t-50 -186q59 42 111.5 62t133.5 20q137 0 222.5 -75t85.5 -228t-101 -243.5t-287 -90.5zM532 -242q71 0 108.5 37.5 t37.5 95.5q0 140 -146 140q-54 0 -91.5 -16.5t-75.5 -47.5q5 -101 48 -155t119 -54z" />
<glyph horiz-adv-x="851" d="M164 -410l356 758h-444v203h708v-189l-358 -772h-262z" />
<glyph horiz-adv-x="980" d="M492 -428q-194 0 -299 70t-105 200q0 84 58.5 147t150.5 103q-82 41 -123 92t-41 138q0 104 93 175.5t266 71.5q177 0 267.5 -71t90.5 -176q0 -76 -44 -135t-118 -91q48 -21 81 -41.5t63.5 -50t45.5 -70t15 -92.5q0 -130 -103.5 -200t-297.5 -70zM516 162 q50 26 77.5 56.5t27.5 74.5q0 45 -33 76.5t-90 31.5q-60 0 -93.5 -29t-33.5 -75q0 -51 34 -79.5t111 -55.5zM487 -266q160 0 160 119q0 54 -44 91.5t-136 73.5q-62 -29 -100.5 -71t-38.5 -94q0 -119 159 -119z" />
<glyph horiz-adv-x="1003" d="M442 -428q-189 0 -307 84l101 170q82 -57 206 -57q100 0 144.5 54t50.5 185q-60 -42 -112.5 -62t-131.5 -20q-137 0 -223 78.5t-86 231.5t100.5 243t286.5 90q204 0 311 -121t107 -362q0 -114 -26 -204.5t-69 -147.5t-102 -94.5t-120.5 -52.5t-129.5 -15zM469 104 q54 0 92.5 17t77.5 49q-6 100 -50 154.5t-120 54.5q-71 0 -108 -38.5t-37 -96.5q0 -140 145 -140z" />
<glyph horiz-adv-x="1011" d="M506 -14q-162 0 -251 107.5t-89 289.5q0 183 89 291t251 108t251 -108t89 -291q0 -182 -89 -289.5t-251 -107.5zM506 143q133 0 133 240q0 238 -133 238q-72 0 -102.5 -61t-30.5 -177q0 -240 133 -240z" />
<glyph horiz-adv-x="692" d="M131 0v160h141v456q-70 -34 -141 -34v141q96 0 143 47h203v-610h123v-160h-469z" />
<glyph horiz-adv-x="888" d="M152 0v41q0 42 3 71t16 67t37 69.5t66.5 68.5t104.5 74q105 62 126 83q27 27 27 69q0 35 -21.5 53t-59.5 18q-40 0 -86 -29.5t-78 -84.5l-137 100q59 90 132.5 136t176.5 46q133 0 201.5 -61.5t68.5 -173.5q0 -71 -41.5 -132t-148.5 -118q-85 -47 -114.5 -75t-37.5 -62 h344v-160h-579z" />
<glyph horiz-adv-x="884" d="M434 -12q-206 0 -313 155l121 107q76 -100 174 -100q116 0 116 88q0 50 -33.5 72t-111.5 22h-65v141h65q71 0 101 19t30 59q0 65 -86 65q-94 0 -176 -77l-106 127q125 116 301 116q129 0 197.5 -54t68.5 -155q0 -56 -28 -98.5t-87 -60.5q71 -21 105 -70t34 -113 q0 -120 -82.5 -181.5t-224.5 -61.5z" />
<glyph horiz-adv-x="940" d="M492 0v162h-355v129l350 477h205v-453h125v-153h-125v-162h-200zM322 303h182v254z" />
<glyph horiz-adv-x="888" d="M424 -12q-104 0 -169.5 26t-125.5 74l86 131q38 -31 94 -54.5t109 -23.5q135 0 135 127q0 57 -33 87t-90 30q-66 0 -127 -70l-133 41l33 414h491l-12 -156h-330l-12 -141q45 45 152 45q121 0 189.5 -62.5t68.5 -191.5q0 -137 -87 -206.5t-239 -69.5z" />
<glyph horiz-adv-x="942" d="M494 -12q-164 0 -249 96.5t-85 288.5q0 115 28 197.5t78.5 127.5t111.5 65.5t138 20.5q157 0 246 -67l-80 -142q-68 48 -166 48q-78 0 -114 -44t-42 -149q47 34 90 50t107 16q110 0 179 -60.5t69 -181.5q0 -123 -80 -194.5t-231 -71.5zM496 135q57 0 86.5 31t29.5 76 q0 110 -114 110q-74 0 -138 -49q4 -82 39 -125t97 -43z" />
<glyph horiz-adv-x="788" d="M186 0l285 606h-356v162h565v-152l-285 -616h-209z" />
<glyph horiz-adv-x="919" d="M461 -12q-156 0 -240 55.5t-84 159.5q0 68 47 118.5t121 81.5q-66 33 -99.5 74t-33.5 109q0 84 75 141t214 57q141 0 214 -57t73 -141q0 -60 -35 -106.5t-95 -73.5q82 -36 123 -79.5t41 -123.5q0 -104 -83 -159.5t-238 -55.5zM481 459q40 21 61 45t21 59q0 37 -25.5 61.5 t-72.5 24.5q-48 0 -75.5 -23t-27.5 -61q0 -40 27.5 -61.5t91.5 -44.5zM459 115q63 0 95 25.5t32 70.5q0 43 -36 73t-110 58q-48 -22 -80 -56.5t-32 -74.5q0 -45 33 -70.5t98 -25.5z" />
<glyph horiz-adv-x="942" d="M422 -12q-158 0 -244 65l80 137q66 -47 164 -47q82 0 118 43.5t40 149.5q-47 -34 -90 -50t-107 -16q-109 0 -177.5 62.5t-68.5 185.5q0 122 80 194t229 72q164 0 249 -97t85 -288q0 -92 -21 -164t-55 -117.5t-81 -75.5t-96.5 -42t-104.5 -12zM444 414q74 0 136 51 q-5 79 -39.5 122.5t-94.5 43.5q-58 0 -88 -30.5t-30 -76.5q0 -110 116 -110z" />
<glyph horiz-adv-x="1011" d="M506 834q-162 0 -251 107.5t-89 289.5t89.5 290.5t250.5 108.5t250.5 -108.5t89.5 -290.5t-89 -289.5t-251 -107.5zM506 991q133 0 133 240q0 237 -133 237q-72 0 -102.5 -61t-30.5 -176q0 -240 133 -240z" />
<glyph horiz-adv-x="692" d="M131 846v160h141v456q-72 -35 -141 -35v142q96 0 143 47h203v-610h123v-160h-469z" />
<glyph horiz-adv-x="888" d="M152 850v39q0 54 6.5 90.5t27.5 81.5t69 88.5t124 89.5q99 59 126 84t27 70q0 69 -81 69q-40 0 -86 -29.5t-78 -84.5l-137 100q58 90 132 136t177 46q133 0 201.5 -61t68.5 -172q0 -71 -41.5 -132t-148.5 -118q-85 -47 -114.5 -75t-37.5 -62h344v-160h-579z" />
<glyph horiz-adv-x="884" d="M434 838q-102 0 -182 40.5t-131 112.5l121 107q75 -99 174 -99q116 0 116 88q0 50 -34 72.5t-111 22.5h-65v141h65q71 0 101 19t30 57q0 65 -86 65q-96 0 -176 -75l-106 124q123 117 301 117q129 0 197.5 -53t68.5 -154q0 -124 -115 -159q71 -22 105 -70.5t34 -112.5 q0 -121 -82 -182t-225 -61z" />
<glyph horiz-adv-x="940" d="M492 848v162h-355v129l350 477h205v-453h125v-153h-125v-162h-200zM322 1151h182v254z" />
<glyph horiz-adv-x="888" d="M424 840q-104 0 -169.5 26t-125.5 74l86 129q38 -31 94 -54.5t109 -23.5q135 0 135 127q0 57 -33 87t-90 30q-68 0 -127 -68l-133 39l33 414h491l-12 -154h-330l-12 -143q47 47 152 47q121 0 189.5 -62.5t68.5 -191.5q0 -137 -87 -206.5t-239 -69.5z" />
<glyph horiz-adv-x="942" d="M494 834q-164 0 -249 96.5t-85 288.5q0 115 28 197.5t78.5 127.5t111.5 65.5t138 20.5q157 0 246 -67l-80 -142q-67 47 -166 47q-79 0 -114.5 -43.5t-41.5 -148.5q47 33 90 49t107 16q110 0 179 -60t69 -181q0 -123 -80 -194.5t-231 -71.5zM496 981q57 0 86.5 30.5 t29.5 75.5q0 111 -114 111q-74 0 -138 -49q4 -82 39 -125t97 -43z" />
<glyph horiz-adv-x="788" d="M186 848l285 606h-356v162h565v-152l-285 -616h-209z" />
<glyph horiz-adv-x="919" d="M461 834q-156 0 -240 55.5t-84 159.5q0 68 47 118.5t121 81.5q-66 33 -99.5 74t-33.5 109q0 84 75 141t214 57q141 0 214 -57t73 -141q0 -60 -35 -107t-95 -74q40 -18 65.5 -33t50 -38.5t36.5 -56t12 -74.5q0 -104 -83 -159.5t-238 -55.5zM481 1305q40 21 61 45t21 61 q0 36 -25.5 60t-72.5 24q-48 0 -75.5 -23t-27.5 -61q0 -40 27.5 -61.5t91.5 -44.5zM459 961q63 0 95 25.5t32 70.5q0 44 -36 74.5t-110 58.5q-112 -55 -112 -133q0 -45 33 -70.5t98 -25.5z" />
<glyph horiz-adv-x="942" d="M422 834q-158 0 -244 65l80 137q66 -47 164 -47q82 0 117.5 44t40.5 149q-47 -34 -90 -50t-107 -16q-109 0 -177.5 63t-68.5 185t80 194t229 72q164 0 249 -96.5t85 -288.5q0 -92 -21 -164t-55 -117.5t-81 -75.5t-96.5 -42t-104.5 -12zM444 1260q74 0 136 51 q-5 79 -39.5 122.5t-94.5 43.5q-58 0 -88 -30.5t-30 -76.5q0 -110 116 -110z" />
<glyph horiz-adv-x="1198" d="M600 -23q-250 0 -391 170.5t-141 458.5t141 458.5t391 170.5q249 0 389.5 -170.5t140.5 -458.5t-140.5 -458.5t-389.5 -170.5zM600 197q229 0 229 409q0 406 -229 406q-233 0 -233 -406q0 -409 233 -409z" />
<glyph horiz-adv-x="800" d="M53 0v233h244v713q-47 -25 -114 -42t-126 -17v246q155 0 246 79h254v-979h211v-233h-715z" />
<glyph horiz-adv-x="1056" d="M51 0v31q1 65 9.5 114t32 105.5t65 107.5t110.5 109.5t166 120.5q142 90 198 147.5t56 126.5q0 68 -41 105t-117 37q-72 0 -142 -46.5t-120 -132.5l-209 131q77 126 204 203.5t282 77.5q200 0 312 -95t112 -259q0 -83 -32.5 -152t-85.5 -120.5t-142 -112.5 q-23 -15 -72 -46t-71 -45.5t-57.5 -40.5t-52.5 -44t-32.5 -42t-20.5 -47h570v-233h-922z" />
<glyph horiz-adv-x="1101" d="M520 -29q-303 0 -487 207l178 166q127 -147 297 -147q105 0 162 41t57 120q0 95 -73 132.5t-216 37.5h-71v203h73q147 0 204.5 35.5t57.5 103.5q0 138 -184 138q-156 0 -280 -115l-154 172q84 78 209.5 126t257.5 48q202 0 322 -84t120 -237q0 -109 -68 -184t-192 -95 q141 -13 220 -94.5t79 -206.5q0 -170 -144.5 -268.5t-367.5 -98.5z" />
<glyph horiz-adv-x="1142" d="M631 0v223h-598v213l563 776h319v-761h209v-228h-209v-223h-284zM332 451h299v421z" />
<glyph horiz-adv-x="1054" d="M510 -29q-295 0 -483 164l149 195q65 -58 149.5 -93.5t174.5 -35.5q108 0 166.5 54t58.5 151q0 98 -53 150t-156 52q-64 0 -126 -32t-105 -91l-187 56l47 671h783l-19 -233h-540l-19 -252q36 36 101 58t145 22q201 0 311.5 -105t110.5 -296q0 -202 -138.5 -318.5 t-369.5 -116.5z" />
<glyph horiz-adv-x="1136" d="M598 -23q-235 0 -376.5 158t-141.5 451q0 136 32 247t85.5 184.5t126 123.5t150 72t161.5 22q135 0 220 -27.5t149 -74.5l-121 -191q-102 74 -236 74q-116 0 -189.5 -87t-88.5 -253q59 50 139 82.5t164 32.5t156 -24.5t128.5 -72t88.5 -124t32 -173.5q0 -190 -129.5 -305 t-349.5 -115zM610 186q88 0 138.5 58t50.5 143q0 84 -44 140.5t-145 56.5q-126 0 -243 -97q17 -301 243 -301z" />
<glyph horiz-adv-x="950" d="M154 0l467 979h-586v233h885v-217l-471 -995h-295z" />
<glyph horiz-adv-x="1114" d="M557 -25q-244 0 -375 89t-131 243q0 214 273 320q-109 56 -162 125t-53 174q0 133 123 220t325 87q214 0 331.5 -86t117.5 -221q0 -94 -58.5 -166.5t-161.5 -118.5q137 -57 207 -131t70 -199q0 -157 -132.5 -246.5t-373.5 -89.5zM573 731q152 71 152 168q0 55 -41.5 97 t-124.5 42q-84 0 -128 -39t-44 -96q0 -58 44 -96t142 -76zM557 168q97 0 155 44.5t58 115.5q0 65 -53.5 109.5t-177.5 94.5q-195 -79 -195 -204q0 -71 58.5 -115.5t154.5 -44.5z" />
<glyph horiz-adv-x="1136" d="M502 -23q-229 0 -369 103l121 190q107 -75 235 -75q116 0 191.5 90t87.5 260q-43 -46 -128 -83.5t-171 -37.5q-85 0 -158.5 24t-130 71t-89 123t-32.5 173q0 190 130.5 305t349.5 115q236 0 377 -157.5t141 -450.5q0 -136 -32 -247t-85 -185t-125.5 -124t-150.5 -72 t-162 -22zM524 631q68 0 133.5 27t112.5 67q-17 301 -244 301q-87 0 -137.5 -57.5t-50.5 -143.5q0 -194 186 -194z" />
<glyph horiz-adv-x="1058" d="M526 535q-202 0 -313 134.5t-111 362.5q0 227 111 362.5t313 135.5t313 -135.5t111 -362.5q0 -228 -111 -362.5t-313 -134.5zM526 733q90 0 128 76.5t38 222.5q0 144 -38.5 219.5t-127.5 75.5q-90 0 -128 -75t-38 -220t39 -222t127 -77z" />
<glyph horiz-adv-x="757" d="M109 549v199h178v573q-34 -19 -84 -32t-92 -13v176q121 3 180 59h250v-763h155v-199h-587z" />
<glyph horiz-adv-x="940" d="M98 555v49q0 53 4 89.5t20.5 83.5t46 86t83.5 85t131 92q125 76 152 100q38 41 40 93q0 43 -26.5 65.5t-73.5 22.5q-53 0 -110.5 -37t-98.5 -104l-170 123q72 113 165 171t220 58q166 0 252 -77t86 -216q0 -88 -51.5 -165t-185.5 -148q-104 -58 -141 -93.5t-48 -78.5h430 v-199h-725z" />
<glyph horiz-adv-x="929" d="M453 539q-128 0 -228.5 51.5t-163.5 142.5l152 133q94 -125 217 -125q148 0 148 111q0 62 -43.5 89.5t-141.5 27.5h-80v176h82q89 0 126.5 23.5t37.5 72.5q0 82 -108 82q-121 0 -222 -96l-131 157q157 148 375 148q163 0 248.5 -67t85.5 -195q0 -70 -35 -123.5 t-108 -77.5q89 -25 131.5 -85t42.5 -140q0 -151 -103 -228t-282 -77z" />
<glyph horiz-adv-x="980" d="M516 551v203h-440v161l436 596h256v-565h156v-192h-156v-203h-252zM305 930h227v317z" />
<glyph horiz-adv-x="929" d="M440 535q-130 0 -212 32.5t-156 91.5l106 164q47 -39 117 -67.5t137 -28.5q170 0 170 158q0 72 -41 108.5t-112 36.5q-89 0 -160 -86l-168 49l41 518h614l-12 -192h-414l-14 -178q60 57 188 57q151 0 237.5 -78.5t86.5 -238.5q0 -170 -109.5 -258t-298.5 -88z" />
<glyph horiz-adv-x="983" d="M520 535q-205 0 -311.5 120t-106.5 361q0 115 24 204.5t64 147t98 95t122 52.5t139 15q196 0 307 -82l-100 -178q-81 59 -207 59q-100 0 -144.5 -55t-50.5 -187q58 42 111.5 62t134.5 20q137 0 222 -75t85 -228t-100 -242t-287 -89zM522 719q72 0 110 38t38 95 q0 139 -146 139q-92 0 -170 -63q4 -101 47.5 -155t120.5 -54z" />
<glyph horiz-adv-x="831" d="M154 551l356 758h-444v202h708v-188l-358 -772h-262z" />
<glyph horiz-adv-x="964" d="M481 535q-194 0 -298.5 69t-104.5 199q0 85 59 149t150 101q-83 41 -123.5 91.5t-40.5 137.5q0 104 93 176t265 72q177 0 268 -71.5t91 -176.5q0 -74 -44 -133t-118 -92q102 -44 153.5 -99t51.5 -155q0 -130 -104 -199t-298 -69zM508 1122q50 26 76 56.5t26 76.5 q0 44 -32.5 75.5t-90.5 31.5q-60 0 -93.5 -29.5t-33.5 -75.5q0 -51 34.5 -79.5t113.5 -55.5zM477 694q162 0 162 119q0 55 -44 92t-138 74q-62 -29 -101 -71.5t-39 -94.5q0 -57 40 -88t120 -31z" />
<glyph horiz-adv-x="983" d="M432 535q-194 0 -307 81l100 172q84 -59 207 -59q100 0 144.5 55t50.5 185q-60 -42 -112.5 -62t-131.5 -20q-137 0 -223 78.5t-86 232.5q0 153 100 242.5t287 89.5q204 0 311 -121t107 -360q0 -114 -26 -204.5t-69 -147.5t-102 -94.5t-120.5 -52.5t-129.5 -15zM459 1067 q93 0 170 63q-6 100 -49.5 154.5t-118.5 54.5q-73 0 -110.5 -38.5t-37.5 -96.5q0 -137 146 -137z" />
<glyph horiz-adv-x="1107" d="M752 0l-705 1212h309l705 -1212h-309z" />
<glyph horiz-adv-x="628" d="M199 360l-66 814h365l-64 -814h-235zM158 0v248h315v-248h-315z" />
<glyph horiz-adv-x="1359" d="M184 0l62 279h-176v217h223l41 180h-195v219h244l59 279h267l-60 -279h162l61 279h271l-64 -279h211v-219h-258l-37 -180h224v-217h-273l-57 -279h-271l60 279h-162l-63 -279h-269zM561 496h166l39 180h-166z" />
<glyph horiz-adv-x="1052" d="M362 360q-8 44 -8 89q0 55 13.5 97.5t41.5 73.5t55 50.5t71 44.5q37 20 54.5 31t40 29t31.5 38.5t9 46.5q0 49 -41 75t-115 26q-70 0 -161 -37t-150 -88l-142 208q86 71 209 115.5t273 44.5q204 0 312 -83.5t108 -231.5q0 -48 -13.5 -89.5t-31 -68.5t-51 -55.5t-56 -43 t-63.5 -38.5q-51 -31 -78.5 -57t-42 -70.5t-6.5 -106.5h-259zM330 0v248h317v-248h-317z" />
<glyph horiz-adv-x="1107" d="M47 0l705 1212h309l-705 -1212h-309z" />
<glyph horiz-adv-x="1306" d="M518 -23q-239 0 -363 90t-124 246q0 72 23 130t67.5 101t92.5 73t114 59q-70 143 -70 258q0 132 95 222.5t276 90.5q165 0 249.5 -77t84.5 -201q0 -56 -18.5 -105t-46 -84t-72 -67.5t-84.5 -54t-95 -46.5q48 -72 131 -151q41 -43 101 -88q72 101 90 250h241 q-33 -214 -129 -361q100 -44 189 -47v-229q-183 -14 -385 86q-154 -95 -367 -95zM559 764q84 40 129 81t45 101q0 46 -25 77.5t-75 31.5q-47 0 -81 -31.5t-34 -93.5q0 -79 41 -166zM520 186q90 0 152 37q-27 23 -78 74q-101 101 -176 213q-115 -71 -115 -160q0 -84 62 -124 t155 -40z" />
<glyph horiz-adv-x="1187" d="M504 -150v138q-276 26 -422 268l203 123q45 -74 106 -123t119 -61v323q-87 23 -150 49.5t-119 68.5t-85 104t-29 143q0 150 102.5 241t274.5 105v117h180v-121q223 -27 358 -217l-192 -136q-73 108 -170 142v-297q79 -19 137 -40.5t109 -52.5t83 -69.5t50 -91.5t18 -119 q0 -142 -98 -239.5t-295 -118.5v-136h-180zM510 758v270q-58 -5 -94.5 -40.5t-36.5 -88.5q0 -57 32 -88t99 -53zM680 186q67 8 107 42t40 91q0 63 -35.5 98t-111.5 60v-291z" />
<glyph horiz-adv-x="1341" d="M176 723v221h987v-221h-987zM176 272v222h987v-222h-987z" />
<glyph horiz-adv-x="1300" d="M745 -20q-414 0 -501 430h-191v133h174q-2 23 -2 67q0 31 2 45h-174v133h187q33 219 169.5 334t331.5 115q355 0 463 -346l-223 -82q-69 207 -236 207q-89 0 -147.5 -58.5t-73.5 -169.5h242v-133h-254q0 -7 -1 -22.5t-1 -22.5q0 -47 2 -67h254v-133h-238 q45 -213 220 -213q79 0 142.5 57t94.5 166l229 -72q-58 -176 -176.5 -272t-292.5 -96z" />
<glyph horiz-adv-x="1339" d="M160 57v258l704 285l-704 287v258l1040 -461v-168z" />
<glyph horiz-adv-x="1339" d="M1190 57l-1040 461v168l1040 459v-258l-703 -285l703 -287v-258z" />
<glyph horiz-adv-x="1947" d="M424 414q-150 0 -241 107t-91 288q0 176 93 284.5t239 108.5q145 0 236.5 -108.5t91.5 -284.5q0 -180 -90.5 -287.5t-237.5 -107.5zM492 -2l700 1173h254l-701 -1173h-253zM424 600q104 0 104 209q0 201 -104 201q-49 0 -79 -48.5t-30 -152.5q0 -209 109 -209zM1526 -18 q-150 0 -241 107t-91 286q0 177 93 285t239 108t236.5 -108t90.5 -285q0 -179 -90 -286t-237 -107zM1526 168q52 0 78 48.5t26 158.5q0 203 -104 203q-49 0 -79 -49.5t-30 -153.5q0 -207 109 -207z" />
<glyph horiz-adv-x="1318" d="M532 80v395h-378v250h378v395h254v-395h377v-250h-377v-395h-254z" />
<glyph horiz-adv-x="1204" d="M279 -27q-104 0 -174 50t-70 155t69.5 164t167.5 59q86 0 189 -63q0 4 0.5 11t0.5 12.5t-1 9.5q-5 78 -62 172h-235v133h141q-76 117 -76 221q0 141 114.5 239.5t287.5 98.5q361 0 428 -346l-254 -51q-29 184 -156 184q-59 0 -96 -33.5t-37 -91.5q0 -30 6 -57t23 -60 t25.5 -47.5t35.5 -56.5h287v-133h-215q35 -89 35 -185q0 -70 -29 -143q19 -15 30 -22.5t30 -15t38 -7.5q70 0 105.5 39t38.5 137h227q-3 -64 -12 -114t-30.5 -100.5t-55.5 -83t-90 -53t-131 -20.5q-153 0 -283 95q-115 -97 -272 -97zM285 111q81 0 129 71q-74 74 -138 74 q-34 0 -52.5 -20.5t-18.5 -51.5q0 -34 21.5 -53.5t58.5 -19.5z" />
<glyph horiz-adv-x="1185" d="M446 0v156h-301v133h301v112h-301v134h299v16l-424 661h304l270 -444l272 444h299l-424 -661v-16h303v-134h-303v-112h303v-131h-303v-158h-295z" />
</font>
</defs>
</svg>
