<?xml version="1.0" standalone="no"?>
<!DOCTYPE svg PUBLIC "-//W3C//DTD SVG 1.1//EN" "http://www.w3.org/Graphics/SVG/1.1/DTD/svg11.dtd" >
<svg xmlns="http://www.w3.org/2000/svg" xmlns:xlink="http://www.w3.org/1999/xlink" version="1.1">
<metadata></metadata>
<defs>
<font id="oe_doo_prolight" horiz-adv-x="0" >
<font-face units-per-em="2048" ascent="1612" descent="-436" />
<missing-glyph horiz-adv-x="436" />
<glyph />
<glyph horiz-adv-x="682" />
<glyph unicode=" "  horiz-adv-x="436" />
<glyph unicode="&#x09;" horiz-adv-x="436" />
<glyph unicode="&#xa0;" horiz-adv-x="436" />
<glyph unicode="!" horiz-adv-x="446" d="M188 295l-18 461v540h106v-540l-16 -461h-72zM158 0v141h131v-141h-131z" />
<glyph unicode="&#x22;" horiz-adv-x="559" d="M131 979l-41 27q53 83 53 221h-51v145h137v-123q0 -83 -27 -154t-71 -116zM373 979l-41 27q51 84 51 221h-49v145h135v-123q0 -83 -26.5 -154t-69.5 -116z" />
<glyph unicode="#" horiz-adv-x="1439" d="M315 -2l82 393h-213v76h230l78 364h-230v74h244l82 389h82l-80 -389h362l80 389h86l-84 -389h223v-74h-237l-78 -364h238v-76h-254l-80 -393h-86l82 393h-361l-82 -393h-84zM498 467h362l74 364h-361z" />
<glyph unicode="$" horiz-adv-x="1314" d="M625 -188v155q-179 8 -284 83.5t-167 209.5l74 39q56 -123 142 -186.5t237 -73.5v680q-117 36 -189.5 70t-123 80.5t-71 105.5t-20.5 143q0 140 108.5 238.5t293.5 105.5v127h71v-127q255 -16 385 -229l-67 -49q-115 184 -318 200v-598q103 -32 171 -60t128 -65t93.5 -80 t52 -102t18.5 -135q0 -167 -127.5 -270.5t-335.5 -108.5v-153h-71zM627 807v582q-147 -7 -231.5 -83.5t-84.5 -183.5q0 -128 66.5 -191.5t249.5 -123.5zM696 39q170 3 270.5 84.5t100.5 216.5q0 139 -79 213t-292 143v-657z" />
<glyph unicode="%" horiz-adv-x="1982" d="M541 535q-136 0 -214.5 106t-78.5 291t80 293t215 108t216 -108t81 -293q0 -182 -82.5 -289.5t-216.5 -107.5zM549 -4l788 1323h88l-788 -1323h-88zM541 606q98 0 155.5 87.5t57.5 238.5q0 152 -56 241t-155 89t-156 -89t-57 -241t55.5 -239t155.5 -87zM1436 -14 q-135 0 -214 105.5t-79 289.5q0 185 81 293t216 108q133 0 214 -108.5t81 -292.5q0 -182 -82.5 -288.5t-216.5 -106.5zM1436 55q99 0 157 88t58 238q0 153 -56 241.5t-155 88.5q-101 0 -157 -88.5t-56 -241.5q0 -151 54.5 -238.5t154.5 -87.5z" />
<glyph unicode="&#x26;" horiz-adv-x="1468" d="M567 -23q-210 0 -341.5 100.5t-131.5 289.5q0 68 21 129.5t54 108t83 90t97.5 74t107.5 62.5q-115 201 -115 373q0 151 101 246.5t247 95.5q141 0 224 -78.5t83 -216.5q0 -53 -13.5 -99t-43 -84.5t-61 -69t-82 -62.5t-90 -54t-100.5 -54q-19 -10 -29 -15q12 -20 37 -57.5 t32 -48.5q173 -255 389 -426q131 170 164 471h94q-39 -331 -186 -523q150 -107 307 -141v-92q-189 37 -371 164q-180 -183 -477 -183zM541 874q8 4 23 12q50 26 75.5 39.5t68.5 39.5t66 44.5t52.5 47.5t44 56t25.5 62t11 74q0 104 -59 161.5t-156 57.5q-104 0 -179 -72.5 t-75 -189.5q0 -148 103 -332zM569 55q253 0 406 156q-221 174 -404 442q-29 41 -75 115q-63 -36 -110 -70.5t-93.5 -83t-71 -109t-24.5 -130.5q0 -155 105 -237.5t267 -82.5z" />
<glyph unicode="'" horiz-adv-x="319" d="M131 979l-41 27q53 83 53 221h-51v145h137v-123q0 -83 -27 -154t-71 -116z" />
<glyph unicode="(" horiz-adv-x="804" d="M657 -418q-249 196 -381.5 446t-132.5 531q0 280 132 528.5t382 448.5l48 -57q-214 -179 -335.5 -420.5t-121.5 -499.5q0 -262 122 -507t337 -417z" />
<glyph unicode=")" horiz-adv-x="804" d="M147 -418l-49 53q216 180 337.5 422t121.5 502t-122 504.5t-335 415.5l47 57q249 -196 382 -446t133 -531q0 -280 -132.5 -528.5t-382.5 -448.5z" />
<glyph unicode="*" horiz-adv-x="1036" d="M340 758l-57 35l194 319l-373 -10v67l373 -10l-194 318l57 34l178 -327l178 327l60 -34l-195 -318l371 10v-67l-371 10l195 -319l-60 -35l-178 327z" />
<glyph unicode="+" horiz-adv-x="1286" d="M602 219v412h-403v80h403v405h82v-405h403v-80h-403v-412h-82z" />
<glyph unicode="," horiz-adv-x="440" d="M193 -248l-41 27q51 81 51 221h-49v143h135v-120q0 -84 -26.5 -155t-69.5 -116z" />
<glyph unicode="-" horiz-adv-x="718" d="M141 606v78h437v-78h-437z" />
<glyph unicode="." horiz-adv-x="428" d="M145 0v143h138v-143h-138z" />
<glyph unicode="/" horiz-adv-x="1110" d="M76 0l856 1516h102l-856 -1516h-102z" />
<glyph unicode="0" horiz-adv-x="1202" d="M602 -33q-149 0 -257 87.5t-162 239t-54 349.5t54 349.5t162 239t257 87.5q150 0 257.5 -87.5t160.5 -238.5t53 -350t-53 -350t-160.5 -238.5t-257.5 -87.5zM602 51q184 0 279.5 161t95.5 431q0 176 -40.5 308t-126 209t-208.5 77q-183 0 -280 -162.5t-97 -431.5 t97 -430.5t280 -161.5z" />
<glyph unicode="1" horiz-adv-x="837" d="M129 0v82h254v1116q-100 -68 -248 -65v84q154 0 254 81h88v-1216h223v-82h-571z" />
<glyph unicode="2" horiz-adv-x="1083" d="M131 0v45q2 89 17.5 147.5t62.5 124.5t131 131.5t227 153.5q159 99 225 178t66 185q0 129 -79 202.5t-214 73.5q-122 0 -208.5 -64t-137.5 -165l-74 45q56 116 165.5 192t256.5 76q178 0 280.5 -96t102.5 -262q0 -122 -71.5 -218.5t-237.5 -195.5q-131 -81 -206 -135.5 t-121.5 -109.5t-62.5 -104t-20 -122h717v-82h-819z" />
<glyph unicode="3" horiz-adv-x="1116" d="M559 -31q-84 0 -156.5 20t-126 55.5t-93 77.5t-68.5 93l67 49q49 -91 142.5 -152t232.5 -61q148 0 239 81t91 214q0 146 -94 224.5t-289 78.5h-84v78h80q167 0 264.5 62t97.5 190q0 122 -74.5 190t-222.5 68q-201 0 -321 -172l-64 57q61 83 163.5 140t227.5 57 q187 0 286 -88.5t99 -243.5q0 -115 -76.5 -195t-203.5 -100q150 -23 230.5 -115t80.5 -235q0 -166 -119.5 -269.5t-308.5 -103.5z" />
<glyph unicode="4" horiz-adv-x="1169" d="M735 0v336h-624v76l618 886h100v-882h228v-80h-228v-336h-94zM213 416h522v751z" />
<glyph unicode="5" horiz-adv-x="1128" d="M551 -31q-85 0 -158.5 23t-124.5 61t-84 75.5t-55 76.5l66 49q16 -30 44 -61t71 -64.5t105.5 -54.5t131.5 -21q173 0 264.5 105.5t91.5 267.5q0 160 -88.5 251t-230.5 91q-101 0 -182.5 -48.5t-127.5 -123.5l-71 20l53 678h664l-2 -80h-584l-41 -505q38 52 121.5 94.5 t187.5 42.5q175 0 287 -113t112 -307q0 -95 -29.5 -177t-84.5 -145t-141.5 -99t-194.5 -36z" />
<glyph unicode="6" horiz-adv-x="1150" d="M592 -31q-72 0 -137.5 22t-126 72t-104 124t-69.5 186t-26 250q0 320 135 509t363 189q98 0 175 -28.5t156 -92.5l-49 -70q-71 60 -135 84.5t-145 24.5q-192 0 -297.5 -161.5t-108.5 -454.5q68 71 171.5 127.5t213.5 56.5q104 0 184.5 -32t130 -88t74.5 -128t25 -156 q0 -184 -118.5 -309t-311.5 -125zM594 49q155 0 245.5 102.5t90.5 249.5q0 65 -18.5 122t-57 104t-105 74.5t-153.5 27.5q-116 0 -214.5 -60.5t-158.5 -136.5q7 -101 31.5 -183.5t60 -137.5t82 -92t95.5 -53.5t102 -16.5z" />
<glyph unicode="7" horiz-adv-x="1005" d="M231 0l574 1217h-701v81h797v-75l-567 -1223h-103z" />
<glyph unicode="8" horiz-adv-x="1181" d="M596 -31q-207 0 -337 93.5t-130 254.5q0 58 21.5 108t54.5 86.5t85 70t99.5 55.5t110.5 47q-69 27 -116 52t-91.5 62t-67 87.5t-22.5 113.5q0 139 111.5 230.5t281.5 91.5t281.5 -91t111.5 -231q0 -48 -16.5 -90t-43 -73t-67.5 -59.5t-81.5 -48.5t-94.5 -42 q63 -25 110 -47t98.5 -55.5t84 -70t53.5 -87t21 -109.5q0 -161 -127 -254.5t-330 -93.5zM600 725q73 28 116 48t90 52.5t69 73.5t22 94q0 109 -86 179.5t-215 70.5q-130 0 -215.5 -70t-85.5 -178q0 -54 23 -96t71 -74t93 -52.5t118 -47.5zM596 47q161 0 259.5 72.5 t98.5 199.5q0 42 -13 79t-41 67.5t-58 54.5t-77 48t-85 40.5t-94 38.5q-64 -25 -108.5 -45.5t-96 -51.5t-83 -62.5t-52.5 -75t-21 -93.5q0 -126 103.5 -199t267.5 -73z" />
<glyph unicode="9" horiz-adv-x="1153" d="M526 -31q-98 0 -175 28.5t-156 92.5l49 66q70 -59 135 -83t145 -24q192 0 297.5 162.5t108.5 456.5q-68 -72 -171 -128.5t-212 -56.5q-104 0 -185 32t-130.5 88t-75 128t-25.5 156q0 184 118.5 309t311.5 125q72 0 137.5 -22t126 -71.5t104 -123.5t69.5 -186t26 -250 q0 -321 -135 -510t-363 -189zM557 561q116 0 214.5 60.5t158.5 136.5q-8 126 -43 221.5t-87.5 150.5t-113 82t-127.5 27q-154 0 -245 -102t-91 -248q0 -65 18.5 -122t57 -104t105 -74.5t153.5 -27.5z" />
<glyph unicode=":" horiz-adv-x="438" d="M152 934v145h135v-145h-135zM152 0v143h135v-143h-135z" />
<glyph unicode=";" horiz-adv-x="440" d="M154 934v145h135v-145h-135zM193 -213l-41 27q51 84 51 186h-49v143h135v-120q0 -60 -27.5 -126.5t-68.5 -109.5z" />
<glyph unicode="&#x3c;" horiz-adv-x="1361" d="M1122 170l-915 401v64l915 397v-84l-817 -346l817 -348v-84z" />
<glyph unicode="=" horiz-adv-x="1363" d="M252 797v75h860v-75h-860zM252 395v76h860v-76h-860z" />
<glyph unicode="&#x3e;" horiz-adv-x="1361" d="M242 170v84l817 346l-817 348v84l915 -401v-66z" />
<glyph unicode="?" horiz-adv-x="1052" d="M428 309q-2 35 -2 90q4 137 42.5 203.5t149.5 134.5q44 27 68 43t53 41t42.5 48.5t23.5 56.5t10 73q0 112 -76 178t-204 66q-107 0 -190.5 -56.5t-133.5 -135.5l-70 53q57 88 162 153.5t236 65.5q176 0 275 -85t99 -232q0 -62 -15 -108.5t-50 -84t-69.5 -62.5t-96.5 -63 q-48 -30 -77 -56t-47.5 -53.5t-26.5 -68.5t-10 -84t-1 -117h-92zM412 -2v131h120v-131h-120z" />
<glyph unicode="@" horiz-adv-x="1777" d="M879 -123q-167 0 -302 57t-220.5 155t-131 225t-45.5 272q0 210 93 374.5t255 253.5t365 89q202 0 363.5 -87t254.5 -247t93 -363q0 -200 -87 -303.5t-219 -103.5q-89 0 -145 37.5t-74 103.5q-146 -139 -317 -139q-119 0 -192.5 76.5t-73.5 226.5q0 138 45 250 t128.5 177.5t190.5 65.5q169 0 279 -106l12 92h80l-84 -561q-12 -78 29.5 -122t128.5 -44q103 0 170 89t67 261q0 187 -84 333.5t-232 226t-333 79.5q-138 0 -258.5 -48.5t-206.5 -134t-135 -209t-49 -267.5q0 -184 74 -330.5t220.5 -234t342.5 -87.5q118 0 211 22.5 t186 70.5l29 -47q-106 -53 -204 -78t-224 -25zM780 264q143 0 287 131q0 29 2 43l57 385q-97 105 -256 105q-92 0 -160.5 -62t-100 -155.5t-31.5 -202.5q0 -121 54.5 -182.5t147.5 -61.5z" />
<glyph unicode="A" horiz-adv-x="1349" d="M76 0l549 1524h100l549 -1524h-107l-180 508h-631l-182 -508h-98zM385 590h573l-286 799z" />
<glyph unicode="B" horiz-adv-x="1380" d="M205 0v1516h446q105 0 187 -11.5t150.5 -38.5t113.5 -70.5t69.5 -108.5t24.5 -152q0 -67 -20.5 -123.5t-52 -94.5t-74.5 -67t-84.5 -44.5t-85.5 -23.5q51 -7 98 -20t101 -42t93 -69.5t65 -107.5t26 -150q0 -188 -136.5 -290.5t-377.5 -102.5h-543zM305 817h389 q183 0 292.5 78t109.5 227q0 167 -109 237.5t-338 70.5h-344v-613zM305 82h436q206 0 313 84t107 235q0 163 -120.5 248.5t-346.5 85.5h-389v-653z" />
<glyph unicode="C" horiz-adv-x="1431" d="M758 -31q-184 0 -327.5 100.5t-223.5 282.5t-80 416q0 171 47.5 317t130.5 247t197.5 157.5t245.5 56.5q96 0 176 -25.5t136 -67t101.5 -103t74.5 -125t52 -140.5l-98 -30q-21 68 -44.5 122t-61 108.5t-83 91t-110.5 59t-143 22.5q-150 0 -269 -89t-184.5 -246.5 t-65.5 -354.5q0 -202 65 -363.5t186.5 -254.5t277.5 -93q84 0 154 25.5t117.5 65.5t86 98t61 112t40.5 119l96 -22q-17 -64 -41 -123.5t-69.5 -128t-103.5 -118t-146.5 -83t-194.5 -33.5z" />
<glyph unicode="D" horiz-adv-x="1415" d="M203 0v1516h307q786 0 786 -756q0 -384 -200 -572t-586 -188h-307zM305 88h213q344 0 510 164.5t166 505.5q0 340 -167 504.5t-511 164.5h-211v-1339z" />
<glyph unicode="E" horiz-adv-x="1206" d="M203 0v1516h889v-89h-787v-583h592v-86h-592v-670h803v-88h-905z" />
<glyph unicode="F" horiz-adv-x="1155" d="M203 0v1516h868v-89h-766v-593h572v-86h-572v-748h-102z" />
<glyph unicode="G" horiz-adv-x="1468" d="M741 -31q-127 0 -238.5 52.5t-196.5 151t-134 253t-49 346.5q0 155 42 294.5t118.5 246.5t195 170t260.5 63q398 0 545 -467l-96 -28q-32 96 -69 166t-90 126.5t-125.5 85.5t-164.5 29q-118 0 -216.5 -55t-162.5 -149.5t-99.5 -218t-35.5 -261.5q0 -178 44.5 -318.5 t119.5 -225.5t167 -129t194 -44q198 0 321.5 151t120.5 394h-379v84h477v-686h-90v315q-17 -63 -56 -123.5t-96 -111t-137.5 -81t-169.5 -30.5z" />
<glyph unicode="H" horiz-adv-x="1497" d="M203 0v1516h102v-668h887v668h102v-1516h-102v758h-887v-758h-102z" />
<glyph unicode="I" horiz-adv-x="532" d="M215 0v1516h102v-1516h-102z" />
<glyph unicode="J" horiz-adv-x="1013" d="M434 -31q-240 0 -366 215l67 60q110 -189 297 -189q293 0 293 344v1117h102v-1127q0 -206 -101 -313t-292 -107z" />
<glyph unicode="K" horiz-adv-x="1339" d="M203 0v1516h102v-869l789 869h120l-526 -578l602 -938h-116l-551 862l-318 -344v-518h-102z" />
<glyph unicode="L" horiz-adv-x="1155" d="M203 0v1516h102v-1428h766v-88h-868z" />
<glyph unicode="M" horiz-adv-x="1775" d="M203 0v1516h119l567 -1391l565 1391h119v-1516h-98v1323l-541 -1323h-96l-541 1325v-1325h-94z" />
<glyph unicode="N" horiz-adv-x="1513" d="M203 0v1516h104l907 -1340v1340h97v-1516h-97l-915 1350v-1350h-96z" />
<glyph unicode="O" horiz-adv-x="1515" d="M758 -31q-133 0 -249 57t-200.5 158.5t-133 250t-48.5 323.5t48.5 323.5t133 250t200.5 158t249 56.5q131 0 247 -56.5t201 -158t134 -250t49 -323.5t-49 -324t-134 -250t-201 -158t-247 -57zM758 57q114 0 212.5 52t167.5 144t108.5 222.5t39.5 282.5q0 203 -67 362.5 t-187.5 248.5t-273.5 89q-154 0 -275 -89t-187.5 -248.5t-66.5 -362.5t66.5 -362.5t187.5 -249t275 -89.5z" />
<glyph unicode="P" horiz-adv-x="1282" d="M203 0v1516h465q253 0 391.5 -108t138.5 -302q0 -191 -140 -297.5t-390 -106.5h-363v-702h-102zM305 788h367q208 0 316 86t108 232t-108.5 233.5t-315.5 87.5h-367v-639z" />
<glyph unicode="Q" horiz-adv-x="1515" d="M1120 -360q-201 0 -310 82.5t-112 252.5q-251 21 -411 235t-160 548q0 175 48.5 323.5t133 250t200 158t247.5 56.5q131 0 247 -56.5t201.5 -158t135 -250t49.5 -323.5q0 -167 -44.5 -310.5t-123 -244.5t-186 -161t-232.5 -69q4 -132 91 -189.5t255 -57.5h96v-86h-125z M756 57q115 0 213.5 52t168 144t109 222.5t39.5 282.5q0 203 -67 362.5t-188 248.5t-275 89t-274.5 -89t-186.5 -248.5t-66 -362.5t66 -362.5t186.5 -249t274.5 -89.5z" />
<glyph unicode="R" horiz-adv-x="1359" d="M203 0v1516h469q254 0 389 -108.5t135 -297.5q0 -160 -105 -263t-303 -126l416 -721h-114l-408 711h-379v-711h-100zM303 795h369q208 0 316 83.5t108 229.5q0 147 -108.5 233t-315.5 86h-369v-632z" />
<glyph unicode="S" horiz-adv-x="1318" d="M680 -31q-102 0 -185 20.5t-142.5 55.5t-107 88t-78 109.5t-56.5 128.5l86 41q60 -174 172.5 -265.5t312.5 -91.5q185 0 296.5 85t111.5 227q0 76 -21 130.5t-73.5 99t-128 79t-195.5 72.5q-90 28 -151 50.5t-118.5 51.5t-92 59t-62 70.5t-38.5 89.5t-11 113 q0 155 123 259.5t329 104.5q102 0 187 -27t145.5 -76.5t102.5 -108t71 -130.5l-82 -47q-121 301 -424 301q-162 0 -257 -79t-95 -193q0 -57 14.5 -100.5t41.5 -78t78 -64t112.5 -54t154.5 -53.5q85 -27 143.5 -49t119 -51.5t98.5 -63t69.5 -77t45.5 -99.5t14 -125 q0 -181 -139.5 -291.5t-370.5 -110.5z" />
<glyph unicode="T" horiz-adv-x="1259" d="M580 0v1427h-506v89h1114v-89h-506v-1427h-102z" />
<glyph unicode="U" horiz-adv-x="1460" d="M729 -29q-169 0 -292.5 70.5t-185 190t-61.5 272.5v1012h103v-1012q0 -194 116.5 -320.5t319.5 -126.5q199 0 319.5 124t120.5 308v1027h101v-1027q0 -108 -37.5 -202.5t-106.5 -164.5t-171.5 -110.5t-225.5 -40.5z" />
<glyph unicode="V" horiz-adv-x="1355" d="M627 -8l-551 1524h106l498 -1387l498 1387h100l-549 -1524h-102z" />
<glyph unicode="W" horiz-adv-x="1878" d="M504 0l-420 1516h106l367 -1350l336 1350h100l367 -1350l336 1350h96l-385 -1516h-96l-369 1348l-340 -1348h-98z" />
<glyph unicode="X" horiz-adv-x="1341" d="M70 0l540 813l-469 703h117l416 -623l409 623h109l-467 -703l543 -813h-115l-489 731l-486 -731h-108z" />
<glyph unicode="Y" horiz-adv-x="1259" d="M578 0v682l-519 834h109l463 -744l465 744h104l-520 -834v-682h-102z" />
<glyph unicode="Z" horiz-adv-x="1273" d="M90 0v80l954 1347h-901v89h1026v-82l-950 -1348h944v-86h-1073z" />
<glyph unicode="[" horiz-adv-x="788" d="M195 -410v1926h481v-80h-381v-1766h381v-80h-481z" />
<glyph unicode="\" horiz-adv-x="1097" d="M926 0l-856 1516h102l856 -1516h-102z" />
<glyph unicode="]" horiz-adv-x="788" d="M111 -410v80h381v1766h-381v80h483v-1926h-483z" />
<glyph unicode="^" horiz-adv-x="1286" d="M207 743l403 687h70l401 -687h-86l-352 594l-348 -594h-88z" />
<glyph unicode="_" horiz-adv-x="1024" d="M0 -225v82h1024v-82h-1024z" />
<glyph unicode="`" horiz-adv-x="1024" d="M408 1194l-277 319h131l213 -319h-67z" />
<glyph unicode="a" horiz-adv-x="1099" d="M403 -25q-139 0 -220 69.5t-81 199.5q0 184 187.5 291.5t562.5 158.5v78q0 117 -60 182.5t-182 65.5q-230 0 -413 -174l-52 59q78 80 199 137.5t277 57.5q327 0 327 -334v-528q0 -97 5.5 -144t19.5 -94h-96q-22 63 -25 186q-80 -85 -198.5 -148t-250.5 -63zM428 57 q125 0 240.5 63t183.5 140v371q-181 -26 -309 -64.5t-202 -87t-107 -103.5t-33 -122q0 -96 60 -146.5t167 -50.5z" />
<glyph unicode="b" horiz-adv-x="1198" d="M643 -23q-205 0 -379 197v-174h-98v1516h98v-615q67 80 164 139.5t215 59.5q201 0 321.5 -142.5t120.5 -416.5q0 -275 -120 -419.5t-322 -144.5zM621 59q167 0 266.5 122t99.5 360q0 233 -102 353t-269 120q-75 0 -150 -35t-119.5 -73t-82.5 -83v-567q97 -103 177.5 -150 t179.5 -47z" />
<glyph unicode="c" horiz-adv-x="1087" d="M569 -23q-199 0 -328.5 158.5t-129.5 403.5q0 96 19 179t53 143.5t78.5 107t97.5 74.5t109 42.5t114 14.5q155 0 245 -75.5t150 -223.5l-82 -33q-26 63 -53.5 106.5t-64.5 78t-85 51t-110 16.5q-75 0 -141 -29.5t-118.5 -87t-83 -151.5t-30.5 -213q0 -131 42 -240.5 t125.5 -176.5t192.5 -67q120 0 196 64t138 200l84 -32q-73 -155 -168.5 -232.5t-249.5 -77.5z" />
<glyph unicode="d" horiz-adv-x="1198" d="M555 -23q-201 0 -320.5 143t-119.5 417q0 275 120 419t322 144q207 0 377 -197v613h98v-1278q0 -98 5.5 -145t21.5 -93h-101q-24 64 -24 176q-67 -80 -164 -139.5t-215 -59.5zM582 59q57 0 113.5 19t101.5 50.5t78 61.5t59 62v567q-97 103 -176 149t-180 46 q-166 0 -265.5 -120.5t-99.5 -356.5q0 -234 101.5 -356t267.5 -122z" />
<glyph unicode="e" horiz-adv-x="1110" d="M569 -23q-140 0 -246.5 77t-160 203t-53.5 280q0 114 27.5 210t73 160t106.5 109t125.5 65.5t131.5 20.5q86 0 161.5 -33t136 -98.5t95.5 -174.5t35 -249v-15h-794q2 -132 42 -237.5t123.5 -172.5t200.5 -67q199 0 373 228l51 -58q-194 -248 -428 -248zM209 602h698 q-9 201 -102 311.5t-234 110.5q-65 0 -125.5 -26.5t-110.5 -77t-84 -133t-42 -185.5z" />
<glyph unicode="f" horiz-adv-x="663" d="M256 0v997h-188v82h188v187q0 277 362 252v-78q-36 4 -55 2q-111 -8 -160 -47t-49 -129v-187h254v-82h-254v-997h-98z" />
<glyph unicode="g" horiz-adv-x="1159" d="M535 -410q-237 0 -363.5 63t-126.5 191q0 47 21.5 90.5t57 76t70 55t72.5 40.5q-56 18 -82 48.5t-26 83.5q0 49 38 94.5t101 79.5q-82 51 -126 131.5t-44 177.5q0 160 113.5 269.5t300.5 109.5q162 0 272 -86q148 93 268 110v-84q-52 -7 -113 -30.5t-106 -51.5 q92 -95 92 -237q0 -158 -113 -265.5t-300 -107.5q-112 0 -187 37q-110 -57 -110 -127q0 -59 62 -78t265 -30q118 -6 200.5 -21t147.5 -45t96.5 -79.5t31.5 -121.5q0 -127 -136.5 -210t-375.5 -83zM541 418q144 0 233.5 86.5t89.5 214.5q0 129 -89.5 218t-233.5 89 t-232 -88.5t-88 -218.5q0 -128 88 -214.5t232 -86.5zM545 -344q194 0 302.5 62t108.5 155q0 37 -13.5 66.5t-40 49.5t-60 34.5t-81 23.5t-94.5 13.5t-108 7.5q-179 11 -215 18q-86 -36 -146.5 -95.5t-60.5 -135.5q0 -103 109 -151t299 -48z" />
<glyph unicode="h" horiz-adv-x="1173" d="M166 0v1516h98v-623q219 207 432 207q328 0 328 -336v-764h-98v745q0 135 -62.5 202t-193.5 67q-190 0 -406 -199v-815h-98z" />
<glyph unicode="i" horiz-adv-x="452" d="M170 1333v119h115v-119h-115zM176 0v1079h98v-1079h-98z" />
<glyph unicode="j" horiz-adv-x="452" d="M170 1333v119h115v-119h-115zM98 -412q-50 0 -86 6v78q32 -8 62 -8q49 0 75.5 26.5t26.5 92.5v1296h98v-1300q0 -191 -176 -191z" />
<glyph unicode="k" horiz-adv-x="1077" d="M166 0v1516h98v-1074l584 637h106l-356 -391l401 -688h-102l-360 616l-273 -294v-322h-98z" />
<glyph unicode="l" horiz-adv-x="452" d="M176 0v1516h98v-1516h-98z" />
<glyph unicode="m" horiz-adv-x="1867" d="M166 0v1079h98v-186q219 207 416 207q125 0 200 -56t99 -161q236 217 426 217q157 0 235 -88t78 -250v-762h-98v745q0 269 -240 269q-177 0 -389 -201v-813h-98v745q0 269 -240 269q-173 0 -389 -199v-815h-98z" />
<glyph unicode="n" horiz-adv-x="1173" d="M168 0v1079h98v-186q213 207 430 207q328 0 328 -336v-764h-98v745q0 135 -62 202t-194 67q-192 0 -404 -199v-815h-98z" />
<glyph unicode="o" horiz-adv-x="1177" d="M588 -23q-94 0 -180 40t-152 111t-105.5 178t-39.5 233q0 129 39 236.5t105 177.5t152 108.5t181 38.5q93 0 179 -38.5t153 -108.5t107 -177.5t40 -236.5q0 -126 -40 -233t-107 -178t-153.5 -111t-178.5 -40zM588 55q161 0 271 137t110 347t-109.5 345.5t-271.5 135.5 t-270.5 -135t-108.5 -346q0 -209 109 -346.5t270 -137.5z" />
<glyph unicode="p" horiz-adv-x="1198" d="M166 -410v1487h98v-176q67 80 164 139.5t215 59.5q201 0 321.5 -142.5t120.5 -416.5q0 -275 -120 -419.5t-322 -144.5q-116 0 -207.5 53t-171.5 142v-582h-98zM621 59q166 0 266 122t100 358q0 234 -102 354.5t-269 120.5q-57 0 -113.5 -19t-101.5 -50.5t-78 -61.5 t-59 -62v-565q96 -104 176.5 -150.5t180.5 -46.5z" />
<glyph unicode="q" horiz-adv-x="1198" d="M932 -410v584q-68 -79 -164.5 -138t-214.5 -59q-201 0 -320.5 143t-119.5 417q0 275 120 419t322 144q207 0 377 -197v176h98v-1489h-98zM580 59q57 0 113.5 19t101.5 50.5t78 61.5t59 62v567q-96 103 -176 149t-181 46q-165 0 -264.5 -120.5t-99.5 -356.5 q0 -234 101.5 -356t267.5 -122z" />
<glyph unicode="r" horiz-adv-x="802" d="M166 0v1079h100v-235q60 91 120 146t149.5 84.5t205.5 19.5l-6 -86q-85 9 -154.5 -4.5t-126 -51t-100.5 -85.5t-90 -119v-748h-98z" />
<glyph unicode="s" horiz-adv-x="1036" d="M516 -23q-252 0 -414 191l54 57q149 -174 360 -174q143 0 228 61t85 167q0 55 -20.5 95t-66 68.5t-100 47.5t-140.5 40q-75 18 -124 33.5t-99 40t-78.5 54t-46 73t-17.5 100.5q0 120 93.5 194.5t256.5 74.5q244 0 396 -160l-54 -55q-135 139 -335 139q-129 0 -196 -53.5 t-67 -132.5q0 -51 18.5 -87t61 -62t89.5 -42.5t126 -36.5q77 -18 127.5 -33t107 -41t88.5 -57t53.5 -79.5t21.5 -110.5q0 -146 -113.5 -229t-294.5 -83z" />
<glyph unicode="t" horiz-adv-x="747" d="M504 -12q-75 0 -124.5 16.5t-77 51.5t-38 80.5t-10.5 111.5v749h-186v82h186v387h98v-387h297v-82h-297v-743q0 -98 37.5 -142t140.5 -44q58 0 119 12v-80q-66 -12 -145 -12z" />
<glyph unicode="u" horiz-adv-x="1173" d="M477 -23q-327 0 -327 336v766h98v-747q0 -136 62.5 -203.5t193.5 -67.5q185 0 405 199v819h99v-1079h-99v186q-215 -209 -432 -209z" />
<glyph unicode="v" horiz-adv-x="1040" d="M469 -6l-408 1085h101l362 -973l361 973h94l-408 -1085h-102z" />
<glyph unicode="w" horiz-adv-x="1536" d="M408 -6l-345 1085h99l297 -960l270 960h84l301 -960l270 960h89l-314 -1085h-92l-297 946l-270 -946h-92z" />
<glyph unicode="x" horiz-adv-x="1040" d="M84 0l385 551l-365 528h105l315 -454l312 454h100l-365 -522l385 -557h-104l-336 483l-332 -483h-100z" />
<glyph unicode="y" horiz-adv-x="1044" d="M184 -416q-89 0 -200 27l22 84q96 -27 172 -27q95 0 152.5 42.5t91.5 133.5l55 146l-414 1089h101l362 -964l361 964h96l-477 -1259q-45 -122 -120.5 -179t-201.5 -57z" />
<glyph unicode="z" horiz-adv-x="1034" d="M111 0v63l673 936h-637v80h756v-65l-674 -936h701v-78h-819z" />
<glyph unicode="{" horiz-adv-x="770" d="M557 -410q-231 0 -231 232v493q0 58 -8 92t-32 59.5t-68.5 35.5t-117.5 10v82q60 0 100 7t65.5 20.5t38.5 39t17.5 54.5t4.5 76v493q0 232 231 232h123v-80h-84q-170 0 -170 -170v-484q0 -105 -29.5 -158t-103.5 -71q75 -22 104 -72.5t29 -156.5v-484q0 -170 170 -170h84 v-80h-123z" />
<glyph unicode="|" horiz-adv-x="704" d="M303 -412v1704h98v-1704h-98z" />
<glyph unicode="}" horiz-adv-x="770" d="M90 -410v80h84q170 0 170 170v490q0 104 29.5 154t103.5 69q-75 22 -104 70t-29 153v490q0 170 -170 170h-84v80h129q120 0 172.5 -57t52.5 -169v-499q0 -58 8 -92t32 -59.5t68.5 -35.5t117.5 -10v-82q-60 0 -100 -7t-65.5 -20.5t-38.5 -39t-17.5 -54.5t-4.5 -76v-499 q0 -112 -52.5 -169t-172.5 -57h-129z" />
<glyph unicode="~" horiz-adv-x="1286" d="M879 569q-59 0 -246 64.5t-230 64.5q-42 0 -65 -22.5t-29 -73.5l-67 8q7 85 51.5 125.5t116.5 40.5q59 0 242 -64.5t225 -64.5q87 0 90 82l67 -4q-4 -84 -43.5 -120t-111.5 -36z" />
<glyph unicode="&#xa2;" horiz-adv-x="1089" d="M283 -262l77 293q-115 65 -182 201t-67 307q0 114 27.5 209t73 159t106.5 108.5t127.5 64.5t136.5 20q42 0 65 -2l55 209h66l-59 -222q96 -28 159 -98.5t111 -185.5l-80 -33q-40 98 -90 157t-125 79l-246 -920q66 -29 131 -29q120 0 198.5 64.5t141.5 199.5l80 -32 q-73 -154 -169.5 -232t-250.5 -78q-75 0 -151 29l-70 -268h-65zM387 117l238 901q-53 5 -107 -4.5t-111.5 -42t-101.5 -85t-72 -142t-28 -205.5q0 -136 48 -249.5t134 -172.5z" />
<glyph unicode="&#xa3;" horiz-adv-x="1239" d="M311 -31q-99 0 -162 55t-63 148q0 104 61.5 161.5t157.5 57.5q69 0 124 -32t112 -91q24 100 -1 229.5t-98 258.5h-256v67h217q-112 195 -112 359q0 162 107.5 253t263.5 91q97 0 172 -33.5t118.5 -90.5t66.5 -120t28 -133l-89 -10q-3 56 -20.5 107.5t-50.5 97.5t-90 74 t-131 28q-119 0 -200 -68t-81 -196q0 -148 121 -359h356v-67h-321q100 -179 100 -375q0 -99 -29 -176q34 -38 55.5 -59t56 -47t72.5 -38t83 -12q196 0 202 320h86q-7 -398 -278 -398q-98 0 -170.5 43.5t-145.5 122.5q-44 -79 -111.5 -123.5t-150.5 -44.5zM313 35 q69 0 121 42t84 116q-41 45 -66 68t-64.5 43t-80.5 20q-66 0 -105.5 -40t-39.5 -112q0 -62 41 -99.5t110 -37.5z" />
<glyph unicode="&#xa5;" horiz-adv-x="1255" d="M580 0v264h-404v68h404v235h-404v66h402v47l-506 815h102l455 -731l456 731h101l-508 -815v-47h405v-66h-407v-235h407v-68h-407v-264h-96z" />
<glyph unicode="&#xa8;" horiz-adv-x="1036" d="M303 1192v137h105v-137h-105zM627 1192v137h104v-137h-104z" />
<glyph unicode="&#xa9;" horiz-adv-x="1767" d="M883 -117q-195 0 -358.5 96t-257 260t-93.5 359q0 146 55.5 278.5t150.5 228t227 152t278 56.5q194 0 357 -95.5t257 -260t94 -359.5t-94 -359t-257.5 -260t-358.5 -96zM885 -59q179 0 328.5 87.5t235 238.5t85.5 331q0 135 -50.5 257t-137 209.5t-207.5 139t-256 51.5 t-255.5 -51.5t-207 -139t-137 -209.5t-50.5 -257q0 -180 86 -331t236 -238.5t330 -87.5zM879 201q-147 0 -235.5 112.5t-88.5 298.5q0 176 89.5 291t236.5 115q224 0 290 -250l-65 -16q-24 100 -78 151t-147 51q-117 0 -187.5 -97t-70.5 -245q0 -158 69 -254t189 -96 q182 0 237 215l64 -18q-68 -258 -303 -258z" />
<glyph unicode="&#xab;" horiz-adv-x="1042" d="M416 0l-303 541l303 538h98l-301 -538l301 -541h-98zM811 0l-301 541l301 538h98l-301 -538l301 -541h-98z" />
<glyph unicode="&#xad;" horiz-adv-x="718" d="M141 606v78h437v-78h-437z" />
<glyph unicode="&#xae;" horiz-adv-x="1155" d="M578 594q-199 0 -336.5 138.5t-137.5 336.5q0 199 138 338t338 139q130 0 238.5 -63.5t170.5 -173t62 -240.5q0 -198 -137.5 -336.5t-335.5 -138.5zM580 641q177 0 299 124.5t122 303.5t-122.5 304.5t-300.5 125.5t-301 -125t-123 -305q0 -179 124 -303.5t302 -124.5z M416 807v530h182q91 0 138.5 -38.5t47.5 -110.5q0 -130 -143 -150l145 -231h-61l-139 227h-115v-227h-55zM471 1081h123q65 0 101 26t36 79q0 49 -35 74.5t-100 25.5h-125v-205z" />
<glyph unicode="&#xb4;" horiz-adv-x="1024" d="M563 1194l213 319h131l-278 -319h-66z" />
<glyph unicode="&#xb8;" horiz-adv-x="1024" d="M522 -401q-148 0 -258 77l31 48q98 -70 223 -70q72 0 120 31.5t48 91.5q0 32 -26 52.5t-66 20.5q-56 0 -129 -53l-41 27l51 176h62l-43 -141q47 47 122 47q62 0 104 -35.5t42 -89.5q0 -86 -68 -134t-172 -48z" />
<glyph unicode="&#xba;" horiz-adv-x="870" d="M436 870q-142 0 -242 99.5t-100 275.5q0 92 28 165.5t76.5 119t109 69t128.5 23.5q67 0 127.5 -23.5t108.5 -69t76 -119t28 -165.5q0 -89 -28 -161.5t-76 -118.5t-108.5 -70.5t-127.5 -24.5zM436 936q113 0 186.5 83t73.5 226q0 145 -73 227t-187 82q-116 0 -188 -81 t-72 -228q0 -142 72.5 -225.5t187.5 -83.5z" />
<glyph unicode="&#xbb;" horiz-adv-x="1042" d="M133 0l301 539l-301 540h98l304 -540l-304 -539h-98zM530 0l301 539l-301 540h99l301 -540l-301 -539h-99z" />
<glyph unicode="&#x2c6;" horiz-adv-x="1044" d="M211 1188l278 325h66l279 -325h-70l-244 235l-239 -235h-70z" />
<glyph unicode="&#x2da;" horiz-adv-x="1036" d="M518 1196q-81 0 -134.5 53t-53.5 133t53 132.5t135 52.5q80 0 134.5 -53t54.5 -132t-54.5 -132.5t-134.5 -53.5zM518 1255q56 0 91.5 35.5t35.5 91.5q0 54 -36 89.5t-91 35.5t-91 -35.5t-36 -89.5q0 -56 35.5 -91.5t91.5 -35.5z" />
<glyph unicode="&#x2dc;" horiz-adv-x="1032" d="M193 1192q0 104 40 152.5t121 48.5q38 0 84 -20t82 -43.5t78.5 -43.5t75.5 -20q50 0 72 30t22 97h72q0 -104 -40.5 -152.5t-121.5 -48.5q-40 0 -87 19.5t-83 43t-78 43t-72 19.5q-50 0 -72 -30t-22 -95h-71z" />
<glyph unicode="&#x5b0;" d="M584 -313q-23 0 -40.5 16.5t-17.5 40.5q0 21 17.5 40t40.5 19q22 0 40.5 -17.5t18.5 -41.5q0 -20 -17.5 -38.5t-41.5 -18.5zM584 -512q-23 0 -40.5 16t-17.5 41q0 21 17.5 39.5t40.5 18.5t41 -17t18 -41q0 -20 -17.5 -38.5t-41.5 -18.5z" />
<glyph unicode="&#x5b1;" d="M776 -313q-22 0 -39.5 16.5t-17.5 40.5q0 21 17.5 40t39.5 19q23 0 41.5 -17.5t18.5 -41.5q0 -20 -18 -38.5t-42 -18.5zM399 -313q-21 0 -38 16.5t-17 40.5q0 21 16.5 39t38.5 18q23 0 40.5 -16.5t17.5 -40.5q0 -20 -17 -38.5t-41 -18.5zM588 -313q-24 0 -42 16.5 t-18 40.5q0 21 17.5 39t42.5 18q19 0 36 -17t17 -40q0 -21 -15.5 -39t-37.5 -18zM494 -489q-23 0 -40.5 15.5t-17.5 39.5q0 23 17.5 40t40.5 17q21 0 39 -17t18 -40q0 -21 -16.5 -38t-40.5 -17zM776 -512q-23 0 -40 16t-17 41q0 21 17 39.5t40 18.5t41.5 -17t18.5 -41 q0 -20 -18 -38.5t-42 -18.5z" />
<glyph unicode="&#x5b2;" d="M778 -322q-24 0 -41.5 17t-17.5 41q0 23 17 40t42 17q22 0 39 -17t17 -40t-17 -40.5t-39 -17.5zM350 -291v68h314v-68h-314zM778 -522q-24 0 -41.5 16.5t-17.5 38.5q0 25 17 42t42 17q22 0 39 -17.5t17 -41.5q0 -22 -17 -38.5t-39 -16.5z" />
<glyph unicode="&#x5b3;" d="M776 -322q-23 0 -40 17.5t-17 40.5t17 40t40 17t40.5 -17t17.5 -40t-17.5 -40.5t-40.5 -17.5zM463 -516v106l12 119h-131v68h315v-68h-131l11 -119v-106h-76zM776 -522q-23 0 -40 16.5t-17 38.5q0 25 17 42t40 17q24 0 41 -17t17 -42q0 -22 -17.5 -38.5t-40.5 -16.5z" />
<glyph unicode="&#x5b4;" d="M594 -322q-24 0 -41.5 17t-17.5 41q0 23 17 40t42 17q22 0 38.5 -17t16.5 -40t-16.5 -40.5t-38.5 -17.5z" />
<glyph unicode="&#x5b5;" d="M492 -313q-21 0 -38.5 16.5t-17.5 40.5q0 21 16.5 39t39.5 18q21 0 39 -16.5t18 -40.5q0 -20 -17 -38.5t-40 -18.5zM692 -313q-24 0 -41.5 16.5t-17.5 40.5q0 22 16.5 39.5t42.5 17.5q18 0 34.5 -16.5t16.5 -40.5q0 -22 -14.5 -39.5t-36.5 -17.5z" />
<glyph unicode="&#x5b6;" d="M485 -313q-21 0 -38 16.5t-17 40.5q0 21 17 39t38 18q23 0 41.5 -16.5t18.5 -40.5q0 -20 -17.5 -38.5t-42.5 -18.5zM686 -313q-24 0 -40.5 16.5t-16.5 40.5q0 22 16 39.5t41 17.5q19 0 36 -17t17 -40q0 -22 -15 -39.5t-38 -17.5zM586 -489q-23 0 -39.5 15.5t-16.5 39.5 q0 23 17 40t39 17q21 0 39 -17t18 -40q0 -21 -16 -38t-41 -17z" />
<glyph unicode="&#x5b7;" d="M406 -291v68h364v-68h-364z" />
<glyph unicode="&#x5b8;" d="M547 -516v149l18 76h-172v68h385v-68h-170l19 -76v-149h-80z" />
<glyph unicode="&#x5b9;" d="M207 1317q-23 0 -40 17t-17 40q0 25 17 42.5t40 17.5t40 -17.5t17 -42.5q0 -23 -17 -40t-40 -17z" />
<glyph unicode="&#x5ba;" d="M203 1317q-25 0 -42.5 17t-17.5 40q0 25 17.5 42.5t42.5 17.5q22 0 38.5 -17.5t16.5 -42.5q0 -23 -16.5 -40t-38.5 -17z" />
<glyph unicode="&#x5bb;" d="M582 -313q-21 0 -38.5 16.5t-17.5 40.5q0 21 16.5 39t39.5 18q21 0 39 -16.5t18 -40.5q0 -20 -17.5 -38.5t-39.5 -18.5zM696 -465q-21 0 -39 16.5t-18 36.5q0 24 16.5 42t40.5 18q22 0 40 -18t18 -42q0 -18 -18 -35.5t-40 -17.5zM809 -618q-21 0 -38 16t-17 37t16.5 39 t38.5 18t39.5 -16.5t17.5 -40.5q0 -18 -17.5 -35.5t-39.5 -17.5z" />
<glyph unicode="&#x5bc;" d="M262 545q-25 0 -42 17t-17 42q0 23 17 39t42 16q22 0 38.5 -16t16.5 -39q0 -24 -16.5 -41.5t-38.5 -17.5z" />
<glyph unicode="&#x5be;" horiz-adv-x="509" d="M51 1090v81h408v-81h-408z" />
<glyph unicode="&#x5bf;" d="M332 1358v69h405v-69h-405z" />
<glyph unicode="&#x5c1;" d="M1272 1317q-25 0 -42.5 17t-17.5 40q0 25 17.5 42.5t42.5 17.5q22 0 38.5 -17.5t16.5 -42.5q0 -23 -16.5 -40t-38.5 -17z" />
<glyph unicode="&#x5c2;" d="M205 1317q-23 0 -40.5 17t-17.5 40q0 25 17.5 42.5t40.5 17.5t40 -17.5t17 -42.5q0 -23 -17 -40t-40 -17z" />
<glyph unicode="&#x5c7;" d="M555 -539v172l18 76h-149v68h342v-68h-150l21 -76v-172h-82z" />
<glyph unicode="&#x5d0;" horiz-adv-x="1210" d="M909 293q99 -128 145 -179.5t81 -76.5l-84 -64q-56 49 -125 140l-516 686l-230 -799h-106l260 893l-217 278h121l491 -647l246 647h110l-284 -737z" />
<glyph unicode="&#x5d1;" horiz-adv-x="1028" d="M109 0v84h655q-31 88 -31 211v557q0 235 -244 235h-368v84h375q340 0 340 -327v-561q0 -122 26 -199h137v-84h-890z" />
<glyph unicode="&#x5d2;" horiz-adv-x="724" d="M4 -12v96q288 46 428 285l-45 718h-274v84h368l51 -806l132 -365h-105l-106 297q-63 -128 -181 -209t-268 -100z" />
<glyph unicode="&#x5d3;" horiz-adv-x="989" d="M649 0v877q0 125 31 210h-621v84h842v-84h-123q-24 -79 -24 -198v-889h-105z" />
<glyph unicode="&#x5d4;" horiz-adv-x="1183" d="M903 0v1087h-725v84h828v-1171h-103zM180 0v500q0 120 35 176h90q-22 -70 -22 -246v-430h-103z" />
<glyph unicode="&#x5d5;" horiz-adv-x="493" d="M213 0v1087h-133v84h235v-1171h-102z" />
<glyph unicode="&#x5d6;" horiz-adv-x="686" d="M301 0l-57 854q-11 135 59 233h-223v84h526v-84h-211q-32 -53 -42.5 -100.5t-6.5 -120.5l57 -866h-102z" />
<glyph unicode="&#x5d7;" horiz-adv-x="1220" d="M178 0v1171h864v-1171h-104v1087h-657v-1087h-103z" />
<glyph unicode="&#x5d8;" horiz-adv-x="1230" d="M631 -23q-204 0 -329.5 148t-125.5 389v408q0 178 -24 249h98q29 -64 29 -176v-495q0 -195 97 -316t255 -121q159 0 255.5 120.5t96.5 316.5v358q0 120 -53 182t-154 62q-81 0 -162 -66l-32 74q105 78 213 78q140 0 214.5 -81.5t75.5 -236.5v-356q0 -241 -125 -389 t-329 -148z" />
<glyph unicode="&#x5d9;" horiz-adv-x="526" d="M322 494l-89 20q27 88 35 176.5t8 233.5v163h-206v84h309v-227q0 -150 -11.5 -255t-45.5 -195z" />
<glyph unicode="&#x5da;" horiz-adv-x="962" d="M682 -410v1497h-602v84h704v-1581h-102z" />
<glyph unicode="&#x5db;" horiz-adv-x="1015" d="M90 0v84h297q159 0 253.5 114t94.5 304v585h-645v84h750v-665q0 -227 -120.5 -366.5t-316.5 -139.5h-313z" />
<glyph unicode="&#x5dc;" horiz-adv-x="1009" d="M383 -18l-43 73q414 259 414 709v323h-664v429h105v-345h661v-395q0 -142 -35 -266t-100 -221t-148.5 -172.5t-189.5 -134.5z" />
<glyph unicode="&#x5dd;" horiz-adv-x="1234" d="M176 0v1171h883v-1171h-883zM281 84h675v1003h-675v-1003z" />
<glyph unicode="&#x5de;" horiz-adv-x="1191" d="M1008 866l28 -792l-6 -74h-434v84h336l-27 760q-4 130 -66.5 192t-187.5 62q-76 0 -165 -39t-156 -103l-88 -956h-105l101 973q-63 88 -175 141l43 86q125 -54 203 -164q84 69 181.5 108.5t189.5 39.5q161 0 241.5 -77t86.5 -241z" />
<glyph unicode="&#x5df;" horiz-adv-x="501" d="M223 -410v1497h-133v84h236v-1581h-103z" />
<glyph unicode="&#x5e0;" horiz-adv-x="690" d="M193 -12q-88 0 -166 12v88q64 -12 137 -12q111 0 178.5 48t67.5 138v825h-254v84h356v-909q0 -126 -84 -200t-235 -74z" />
<glyph unicode="&#x5e1;" horiz-adv-x="1228" d="M631 -20q-97 0 -179.5 35.5t-144 101.5t-96.5 168t-35 229v657h541q190 0 279 -97.5t89 -287.5v-272q0 -127 -35.5 -229t-97 -168t-144 -101.5t-177.5 -35.5zM631 66q154 0 253 111.5t99 322.5v295q0 146 -65.5 219t-202.5 73h-436v-587q0 -211 98.5 -322.5t253.5 -111.5 z" />
<glyph unicode="&#x5e2;" horiz-adv-x="1142" d="M891 1171h102l-26 -649q-6 -145 -70.5 -263t-183.5 -188.5t-271 -70.5h-362v84h362q-78 75 -102 215l-150 872h103l151 -888q17 -120 74 -191q157 30 247.5 147.5t98.5 282.5z" />
<glyph unicode="&#x5e3;" horiz-adv-x="1079" d="M819 -410v1201q0 119 -50.5 179t-150.5 85l-262 47q-80 -85 -127 -186.5t-47 -188.5q0 -251 230 -307l-19 -90q-154 29 -232.5 131t-76.5 266q-2 114 62 239.5t176 229.5l305 -57q152 -26 223.5 -112t71.5 -239v-1198h-103z" />
<glyph unicode="&#x5e4;" horiz-adv-x="1130" d="M162 0v84h411q94 0 166.5 46t108 114t35.5 143v412q0 119 -65.5 187.5t-176.5 82.5l-262 31q-82 -94 -127 -175.5t-45 -168.5q0 -105 59 -161.5t174 -76.5l-20 -88q-138 17 -224.5 95t-86.5 227q0 116 60.5 218.5t168.5 217.5l313 -35q160 -15 247 -106.5t87 -243.5v-416 q0 -103 -49 -191t-140 -142t-204 -54h-430z" />
<glyph unicode="&#x5e5;" horiz-adv-x="991" d="M932 1171l-354 -729q63 -145 63 -383v-469h-102v516q2 90 -19 195.5t-63 177.5l-404 692h117l334 -591l20 -35l295 626h113z" />
<glyph unicode="&#x5e6;" horiz-adv-x="1028" d="M969 1171l-326 -671l297 -430v-70h-815v84h694l-747 1087h118l392 -581l274 581h113z" />
<glyph unicode="&#x5e7;" horiz-adv-x="1163" d="M543 -4l-49 74q393 259 393 702v315h-737v84h841v-391q0 -509 -448 -784zM182 -410v920q0 106 33 166h88q-20 -66 -20 -230v-856h-101z" />
<glyph unicode="&#x5e8;" horiz-adv-x="987" d="M721 0v852q0 235 -246 235h-395v84h399q176 0 260 -82.5t84 -244.5v-844h-102z" />
<glyph unicode="&#x5e9;" horiz-adv-x="1488" d="M254 0l-98 1171h100l92 -1089h455q124 0 219.5 75.5t146 205t50.5 290.5v518h102v-516q0 -289 -143.5 -472t-368.5 -183h-555zM670 319l-76 39q104 167 104 410v403h103v-397q0 -276 -131 -455z" />
<glyph unicode="&#x5ea;" horiz-adv-x="1214" d="M106 -6q-2 0 -83 6v82q18 -2 57 -2q102 0 140 44.5t38 143.5v903h487q342 0 342 -327v-844h-102v852q0 115 -62.5 175t-181.5 60h-383v-827q0 -133 -56.5 -199.5t-195.5 -66.5z" />
<glyph unicode="&#x5f0;" horiz-adv-x="985" d="M705 0v1087h-134v84h236v-1171h-102zM213 0v1087h-133v84h235v-1171h-102z" />
<glyph unicode="&#x5f1;" horiz-adv-x="1019" d="M815 494l-88 20q27 88 35 176.5t8 233.5v163h-207v84h309v-227q0 -150 -11.5 -255t-45.5 -195zM213 0v1087h-133v84h235v-1171h-102z" />
<glyph unicode="&#x5f2;" horiz-adv-x="1054" d="M850 494l-88 20q27 88 35 176.5t8 233.5v163h-207v84h309v-227q0 -150 -11.5 -255t-45.5 -195zM322 494l-89 20q27 88 35 176.5t8 233.5v163h-206v84h309v-227q0 -150 -11.5 -255t-45.5 -195z" />
<glyph unicode="&#x5f3;" horiz-adv-x="319" d="M131 979l-41 27q53 83 53 221h-51v145h137v-123q0 -83 -27 -154t-71 -116z" />
<glyph unicode="&#x5f4;" horiz-adv-x="559" d="M131 979l-41 27q53 83 53 221h-51v145h137v-123q0 -83 -27 -154t-71 -116zM373 979l-41 27q51 84 51 221h-49v145h135v-123q0 -83 -26.5 -154t-69.5 -116z" />
<glyph unicode="&#x2000;" horiz-adv-x="819" />
<glyph unicode="&#x2001;" horiz-adv-x="1638" />
<glyph unicode="&#x2002;" horiz-adv-x="819" />
<glyph unicode="&#x2003;" horiz-adv-x="1638" />
<glyph unicode="&#x2004;" horiz-adv-x="546" />
<glyph unicode="&#x2005;" horiz-adv-x="409" />
<glyph unicode="&#x2006;" horiz-adv-x="273" />
<glyph unicode="&#x2007;" horiz-adv-x="273" />
<glyph unicode="&#x2008;" horiz-adv-x="204" />
<glyph unicode="&#x2009;" horiz-adv-x="327" />
<glyph unicode="&#x200a;" horiz-adv-x="91" />
<glyph unicode="&#x2010;" horiz-adv-x="718" d="M141 606v78h437v-78h-437z" />
<glyph unicode="&#x2011;" horiz-adv-x="718" d="M141 606v78h437v-78h-437z" />
<glyph unicode="&#x2012;" horiz-adv-x="718" d="M141 606v78h437v-78h-437z" />
<glyph unicode="&#x2013;" horiz-adv-x="1220" d="M145 600v88h930v-88h-930z" />
<glyph unicode="&#x2014;" horiz-adv-x="1892" d="M145 600v88h1604v-88h-1604z" />
<glyph unicode="&#x2018;" horiz-adv-x="335" d="M90 1026v123q0 83 27 154t71 116l41 -28q-53 -80 -53 -222h51v-143h-137z" />
<glyph unicode="&#x2019;" horiz-adv-x="319" d="M131 979l-41 27q53 83 53 221h-51v145h137v-123q0 -83 -27 -154t-71 -116z" />
<glyph unicode="&#x201a;" horiz-adv-x="319" d="M131 -248l-41 27q53 80 53 221h-51v143h137v-120q0 -84 -27 -155t-71 -116z" />
<glyph unicode="&#x201c;" horiz-adv-x="579" d="M90 1026v123q0 83 27 154t71 116l41 -28q-53 -80 -53 -222h51v-143h-137zM332 1026v123q0 83 26.5 154t69.5 116l41 -28q-51 -77 -51 -222h49v-143h-135z" />
<glyph unicode="&#x201d;" horiz-adv-x="559" d="M131 979l-41 27q53 83 53 221h-51v145h137v-123q0 -83 -27 -154t-71 -116zM373 979l-41 27q51 84 51 221h-49v145h135v-123q0 -83 -26.5 -154t-69.5 -116z" />
<glyph unicode="&#x201e;" horiz-adv-x="559" d="M131 -248l-41 27q53 80 53 221h-51v143h137v-120q0 -84 -27 -155t-71 -116zM373 -248l-41 27q51 81 51 221h-49v143h135v-120q0 -84 -26.5 -155t-69.5 -116z" />
<glyph unicode="&#x2022;" horiz-adv-x="944" d="M469 504q-92 0 -151.5 59.5t-59.5 153.5q0 95 59 155t152 60q95 0 156 -60t61 -155q0 -94 -61 -153.5t-156 -59.5z" />
<glyph unicode="&#x2026;" horiz-adv-x="1179" d="M145 0v143h131v-143h-131zM524 0v143h131v-143h-131zM903 0v143h129v-143h-129z" />
<glyph unicode="&#x202f;" horiz-adv-x="327" />
<glyph unicode="&#x2039;" horiz-adv-x="663" d="M416 0l-303 541l303 538h98l-301 -538l301 -541h-98z" />
<glyph unicode="&#x203a;" horiz-adv-x="663" d="M152 0l301 539l-301 540h98l301 -540l-301 -539h-98z" />
<glyph unicode="&#x2044;" horiz-adv-x="987" d="M-4 0l903 1516h92l-903 -1516h-92z" />
<glyph unicode="&#x205f;" horiz-adv-x="409" />
<glyph unicode="&#x20ac;" horiz-adv-x="1484" d="M850 -31q-220 0 -373.5 162.5t-195.5 431.5h-230v68h221q-8 57 -8 127q0 58 6 110h-219v68h225q41 267 195 428.5t369 161.5q87 0 159.5 -24.5t123.5 -64.5t93 -99.5t69.5 -120t51.5 -136.5l-88 -30q-21 69 -42.5 120.5t-56 105.5t-76 88.5t-101.5 56.5t-133 22 q-179 0 -305 -139.5t-162 -368.5h483v-68h-491q-7 -61 -7 -112q0 -64 9 -125h489v-68h-481q38 -230 164.5 -371t312.5 -141q77 0 140.5 25.5t106.5 63.5t78.5 95.5t56 109t40.5 116.5l88 -25q-18 -63 -41 -119.5t-66 -123t-96 -113.5t-133.5 -79t-175.5 -32z" />
<glyph unicode="&#x2122;" horiz-adv-x="1787" d="M340 649v797h-279v70h641v-70h-282v-797h-80zM864 649v867h84l309 -773l316 773h86v-867h-76v721l-295 -721h-69l-289 715v-715h-66z" />
<glyph unicode="&#x25fc;" horiz-adv-x="1075" d="M0 1075h1075v-1075h-1075v1075z" />
<glyph unicode="&#xfb1f;" horiz-adv-x="1054" d="M850 494l-88 20q27 88 35 176.5t8 233.5v163h-207v84h309v-227q0 -150 -11.5 -255t-45.5 -195zM322 494l-89 20q27 88 35 176.5t8 233.5v163h-206v84h309v-227q0 -150 -11.5 -255t-45.5 -195zM340 -291v68h365v-68h-365z" />
<glyph unicode="&#xfb20;" horiz-adv-x="1140" d="M891 1169h104l-28 -645q-6 -145 -70.5 -263.5t-183.5 -189.5t-271 -71h-360v84h340q-59 88 -82 215l-147 870h100l149 -884q11 -66 27 -111.5t49 -81.5q157 28 247.5 147t96.5 285z" />
<glyph unicode="&#xfb21;" horiz-adv-x="1902" d="M1540 225q208 -157 285 -188l-68 -82q-70 36 -153 102l-1002 770l-409 -827h-111l438 891l-364 280h153l875 -671l436 671h123l-481 -733z" />
<glyph unicode="&#xfb22;" horiz-adv-x="1822" d="M1411 0v1087h-1348v84h1670v-84h-217v-1087h-105z" />
<glyph unicode="&#xfb23;" horiz-adv-x="1939" d="M1659 0v1087h-1481v84h1583v-1171h-102zM180 0v465q0 113 35 174l90 -14q-22 -62 -22 -234v-391h-103z" />
<glyph unicode="&#xfb24;" horiz-adv-x="1738" d="M90 0v84h1022q154 0 251 113t97 305v585h-1370v84h1473v-665q0 -235 -124 -370.5t-313 -135.5h-1036z" />
<glyph unicode="&#xfb25;" horiz-adv-x="1697" d="M807 -18l-19 84q209 31 367 121.5t249 241t91 341.5v317h-1405v429h105v-345h1402v-395q0 -161 -59 -299.5t-164.5 -238.5t-250 -166t-316.5 -90z" />
<glyph unicode="&#xfb26;" horiz-adv-x="2045" d="M176 0v1171h1692v-1171h-1692zM281 84h1484v1003h-1484v-1003z" />
<glyph unicode="&#xfb27;" horiz-adv-x="1697" d="M1432 0v852q0 235 -246 235h-1104v84h1108q176 0 260 -82.5t84 -244.5v-844h-102z" />
<glyph unicode="&#xfb28;" horiz-adv-x="2060" d="M186 -6q-62 0 -161 6v82q18 -2 133 -2q103 0 140.5 44.5t37.5 143.5v903h1255q344 0 344 -327v-844h-104v852q0 115 -61.5 175t-180.5 60h-1151v-827q0 -132 -57 -199t-195 -67z" />
<glyph unicode="&#xfb29;" horiz-adv-x="1271" d="M199 618v80h403v406h82v-406h403v-80h-888z" />
<glyph unicode="&#xfb2a;" horiz-adv-x="1488" d="M1272 1317q-25 0 -42.5 17t-17.5 40q0 25 17.5 42.5t42.5 17.5q22 0 38.5 -17.5t16.5 -42.5q0 -23 -16.5 -40t-38.5 -17zM254 0l-98 1171h100l92 -1089h455q124 0 219.5 75.5t146 205t50.5 290.5v518h102v-516q0 -289 -143.5 -472t-368.5 -183h-555zM670 319l-76 39 q104 167 104 410v403h103v-397q0 -276 -131 -455z" />
<glyph unicode="&#xfb2b;" horiz-adv-x="1488" d="M205 1317q-23 0 -40.5 17t-17.5 40q0 25 17.5 42.5t40.5 17.5t40 -17.5t17 -42.5q0 -23 -17 -40t-40 -17zM254 0l-98 1171h100l92 -1089h455q124 0 219.5 75.5t146 205t50.5 290.5v518h102v-516q0 -289 -143.5 -472t-368.5 -183h-555zM670 319l-76 39q104 167 104 410 v403h103v-397q0 -276 -131 -455z" />
<glyph unicode="&#xfb2c;" horiz-adv-x="1488" d="M1272 1317q-25 0 -42.5 17t-17.5 40q0 25 17.5 42.5t42.5 17.5q22 0 38.5 -17.5t16.5 -42.5q0 -23 -16.5 -40t-38.5 -17zM254 0l-98 1171h100l92 -1089h455q124 0 219.5 75.5t146 205t50.5 290.5v518h102v-516q0 -289 -143.5 -472t-368.5 -183h-555zM670 319l-76 39 q104 167 104 410v403h103v-397q0 -276 -131 -455zM995 588q-23 0 -39 16.5t-16 38.5q0 23 16 39t39 16q22 0 38 -16t16 -39q0 -22 -16 -38.5t-38 -16.5z" />
<glyph unicode="&#xfb2d;" horiz-adv-x="1488" d="M205 1317q-23 0 -40.5 17t-17.5 40q0 25 17.5 42.5t40.5 17.5t40 -17.5t17 -42.5q0 -23 -17 -40t-40 -17zM254 0l-98 1171h100l92 -1089h455q124 0 219.5 75.5t146 205t50.5 290.5v518h102v-516q0 -289 -143.5 -472t-368.5 -183h-555zM670 319l-76 39q104 167 104 410 v403h103v-397q0 -276 -131 -455zM995 588q-23 0 -39 16.5t-16 38.5q0 23 16 39t39 16q22 0 38 -16t16 -39q0 -22 -16 -38.5t-38 -16.5z" />
<glyph unicode="&#xfb2e;" horiz-adv-x="1210" d="M909 293q99 -128 145 -179.5t81 -76.5l-84 -64q-56 49 -125 140l-516 686l-230 -799h-106l260 893l-217 278h121l491 -647l246 647h110l-284 -737zM406 -291v68h364v-68h-364z" />
<glyph unicode="&#xfb2f;" horiz-adv-x="1210" d="M909 293q99 -128 145 -179.5t81 -76.5l-84 -64q-56 49 -125 140l-516 686l-230 -799h-106l260 893l-217 278h121l491 -647l246 647h110l-284 -737zM395 -291v68h385v-68h-170l19 -76v-149h-80v149l18 76h-172z" />
<glyph unicode="&#xfb30;" horiz-adv-x="1210" d="M909 293q99 -128 145 -179.5t81 -76.5l-84 -64q-56 49 -125 140l-516 686l-230 -799h-106l260 893l-217 278h121l491 -647l246 647h110l-284 -737zM500 373q23 0 39 -16.5t16 -39.5t-16 -39t-39 -16t-39.5 16t-16.5 39t16.5 39.5t39.5 16.5z" />
<glyph unicode="&#xfb31;" horiz-adv-x="1028" d="M109 0v84h655q-31 88 -31 211v557q0 235 -244 235h-368v84h375q340 0 340 -327v-561q0 -122 26 -199h137v-84h-890zM397 543q-25 0 -42 17t-17 42q0 23 17 39t42 16q22 0 39 -16t17 -39q0 -24 -17 -41.5t-39 -17.5z" />
<glyph unicode="&#xfb32;" horiz-adv-x="724" d="M4 -12v96q288 46 428 285l-45 718h-274v84h368l51 -806l132 -365h-105l-106 297q-63 -128 -181 -209t-268 -100zM195 543q-25 0 -42.5 17t-17.5 42q0 23 17.5 39t42.5 16q22 0 38.5 -16t16.5 -39q0 -24 -16.5 -41.5t-38.5 -17.5z" />
<glyph unicode="&#xfb33;" horiz-adv-x="989" d="M649 0v877q0 125 31 210h-621v84h842v-84h-123q-24 -79 -24 -198v-889h-105zM346 559q-25 0 -42 17t-17 42q0 23 17 39.5t42 16.5q22 0 38.5 -16.5t16.5 -39.5q0 -24 -16.5 -41.5t-38.5 -17.5z" />
<glyph unicode="&#xfb34;" horiz-adv-x="1183" d="M903 0v1087h-725v84h828v-1171h-103zM180 0v500q0 120 35 176h90q-22 -70 -22 -246v-430h-103zM594 559q-25 0 -42 17t-17 42q0 23 17 39.5t42 16.5q22 0 38.5 -16.5t16.5 -39.5q0 -24 -16.5 -41.5t-38.5 -17.5z" />
<glyph unicode="&#xfb35;" horiz-adv-x="493" d="M213 0v1087h-133v84h235v-1171h-102zM41 559q-25 0 -42 17t-17 42q0 23 17 39.5t42 16.5q22 0 38.5 -16.5t16.5 -39.5q0 -24 -16.5 -41.5t-38.5 -17.5z" />
<glyph unicode="&#xfb36;" horiz-adv-x="686" d="M301 0l-57 854q-11 135 59 233h-223v84h526v-84h-211q-32 -53 -42.5 -100.5t-6.5 -120.5l57 -866h-102zM92 559q-25 0 -42 17t-17 42q0 23 17 39.5t42 16.5q22 0 38.5 -16.5t16.5 -39.5q0 -24 -16.5 -41.5t-38.5 -17.5z" />
<glyph unicode="&#xfb38;" horiz-adv-x="1230" d="M631 -23q-204 0 -329.5 148t-125.5 389v408q0 178 -24 249h98q29 -64 29 -176v-495q0 -195 97 -316t255 -121q159 0 255.5 120.5t96.5 316.5v358q0 120 -53 182t-154 62q-81 0 -162 -66l-32 74q105 78 213 78q140 0 214.5 -81.5t75.5 -236.5v-356q0 -241 -125 -389 t-329 -148zM627 543q-25 0 -42.5 17t-17.5 42q0 23 17.5 39t42.5 16q22 0 38.5 -16t16.5 -39q0 -24 -16.5 -41.5t-38.5 -17.5z" />
<glyph unicode="&#xfb39;" horiz-adv-x="526" d="M322 494l-89 20q27 88 35 176.5t8 233.5v163h-206v84h309v-227q0 -150 -11.5 -255t-45.5 -195zM117 772q-25 0 -42.5 17t-17.5 42q0 23 17.5 39.5t42.5 16.5q22 0 38.5 -16.5t16.5 -39.5q0 -24 -16.5 -41.5t-38.5 -17.5z" />
<glyph unicode="&#xfb3a;" horiz-adv-x="962" d="M682 -410v1497h-602v84h704v-1581h-102zM356 745q-25 0 -42 17.5t-17 42.5q0 23 17 39t42 16q22 0 39 -16t17 -39q0 -24 -17 -42t-39 -18z" />
<glyph unicode="&#xfb3b;" horiz-adv-x="1015" d="M90 0v84h297q159 0 253.5 114t94.5 304v585h-645v84h750v-665q0 -227 -120.5 -366.5t-316.5 -139.5h-313zM377 543q-25 0 -42.5 17t-17.5 42q0 23 17.5 39t42.5 16q22 0 38.5 -16t16.5 -39q0 -24 -16.5 -41.5t-38.5 -17.5z" />
<glyph unicode="&#xfb3c;" horiz-adv-x="1009" d="M383 -18l-43 73q414 259 414 709v323h-664v429h105v-345h661v-395q0 -142 -35 -266t-100 -221t-148.5 -172.5t-189.5 -134.5zM379 559q-25 0 -42.5 17t-17.5 42q0 23 17.5 39.5t42.5 16.5q22 0 38.5 -16.5t16.5 -39.5q0 -24 -16.5 -41.5t-38.5 -17.5z" />
<glyph unicode="&#xfb3e;" horiz-adv-x="1191" d="M1008 866l28 -792l-6 -74h-434v84h336l-27 760q-4 130 -66.5 192t-187.5 62q-76 0 -165 -39t-156 -103l-88 -956h-105l101 973q-63 88 -175 141l43 86q125 -54 203 -164q84 69 181.5 108.5t189.5 39.5q161 0 241.5 -77t86.5 -241zM668 618q0 -24 -17 -41.5t-39 -17.5 q-25 0 -42 17t-17 42q0 23 17 39.5t42 16.5q22 0 39 -16.5t17 -39.5z" />
<glyph unicode="&#xfb40;" horiz-adv-x="690" d="M193 -12q-88 0 -166 12v88q64 -12 137 -12q111 0 178.5 48t67.5 138v825h-254v84h356v-909q0 -126 -84 -200t-235 -74zM201 559q-25 0 -42.5 17t-17.5 42q0 23 17.5 39.5t42.5 16.5q22 0 38.5 -16.5t16.5 -39.5q0 -24 -16.5 -41.5t-38.5 -17.5z" />
<glyph unicode="&#xfb41;" horiz-adv-x="1228" d="M631 -20q-97 0 -179.5 35.5t-144 101.5t-96.5 168t-35 229v657h541q190 0 279 -97.5t89 -287.5v-272q0 -127 -35.5 -229t-97 -168t-144 -101.5t-177.5 -35.5zM631 66q154 0 253 111.5t99 322.5v295q0 146 -65.5 219t-202.5 73h-436v-587q0 -211 98.5 -322.5t253.5 -111.5 zM631 559q-25 0 -42.5 17t-17.5 42q0 23 17.5 39.5t42.5 16.5q22 0 38.5 -16.5t16.5 -39.5q0 -24 -16.5 -41.5t-38.5 -17.5z" />
<glyph unicode="&#xfb43;" horiz-adv-x="1079" d="M819 -410v1201q0 119 -50.5 179t-150.5 85l-262 47q-80 -85 -127 -186.5t-47 -188.5q0 -251 230 -307l-19 -90q-154 29 -232.5 131t-76.5 266q-2 114 62 239.5t176 229.5l305 -57q152 -26 223.5 -112t71.5 -239v-1198h-103zM500 668q-25 0 -42.5 17t-17.5 42 q0 23 17.5 39t42.5 16q22 0 38.5 -16t16.5 -39q0 -24 -16.5 -41.5t-38.5 -17.5z" />
<glyph unicode="&#xfb44;" horiz-adv-x="1130" d="M162 0v84h411q94 0 166.5 46t108 114t35.5 143v412q0 119 -65.5 187.5t-176.5 82.5l-262 31q-82 -94 -127 -175.5t-45 -168.5q0 -105 59 -161.5t174 -76.5l-20 -88q-138 17 -224.5 95t-86.5 227q0 116 60.5 218.5t168.5 217.5l313 -35q160 -15 247 -106.5t87 -243.5v-416 q0 -103 -49 -191t-140 -142t-204 -54h-430zM551 707q-25 0 -42 17t-17 42q0 23 17 39t42 16q22 0 38.5 -16t16.5 -39q0 -24 -16.5 -41.5t-38.5 -17.5z" />
<glyph unicode="&#xfb46;" horiz-adv-x="1028" d="M969 1171l-326 -671l297 -430v-70h-815v84h694l-747 1087h118l392 -581l274 581h113zM420 334q0 -25 -16.5 -42.5t-38.5 -17.5q-25 0 -42.5 17.5t-17.5 42.5q0 23 17.5 39t42.5 16q22 0 38.5 -16t16.5 -39z" />
<glyph unicode="&#xfb47;" horiz-adv-x="1163" d="M543 -4l-49 74q393 259 393 702v315h-737v84h841v-391q0 -509 -448 -784zM571 565q-25 0 -42 17.5t-17 42.5q0 23 17 39t42 16q22 0 39 -16t17 -39q0 -24 -17 -42t-39 -18zM182 -410v920q0 106 33 166h88q-20 -66 -20 -230v-856h-101z" />
<glyph unicode="&#xfb48;" horiz-adv-x="987" d="M721 0v852q0 235 -246 235h-395v84h399q176 0 260 -82.5t84 -244.5v-844h-102zM377 559q-25 0 -42.5 17t-17.5 42q0 23 17.5 39.5t42.5 16.5q22 0 38.5 -16.5t16.5 -39.5q0 -24 -16.5 -41.5t-38.5 -17.5z" />
<glyph unicode="&#xfb49;" horiz-adv-x="1488" d="M254 0l-98 1171h100l92 -1089h455q124 0 219.5 75.5t146 205t50.5 290.5v518h102v-516q0 -289 -143.5 -472t-368.5 -183h-555zM670 319l-76 39q104 167 104 410v403h103v-397q0 -276 -131 -455zM995 588q-23 0 -39 16.5t-16 38.5q0 23 16 39t39 16q22 0 38 -16t16 -39 q0 -22 -16 -38.5t-38 -16.5z" />
<glyph unicode="&#xfb4a;" horiz-adv-x="1214" d="M106 -6q-2 0 -83 6v82q18 -2 57 -2q102 0 140 44.5t38 143.5v903h487q342 0 342 -327v-844h-102v852q0 115 -62.5 175t-181.5 60h-383v-827q0 -133 -56.5 -199.5t-195.5 -66.5zM678 559q-25 0 -42.5 17t-17.5 42q0 23 17.5 39.5t42.5 16.5q22 0 38.5 -16.5t16.5 -39.5 q0 -24 -16.5 -41.5t-38.5 -17.5z" />
<glyph unicode="&#xfb4b;" horiz-adv-x="493" d="M199 1317q-23 0 -40.5 17t-17.5 40q0 25 17.5 42.5t40.5 17.5t40 -17.5t17 -42.5q0 -23 -17 -40t-40 -17zM213 0v1087h-133v84h235v-1171h-102z" />
<glyph unicode="&#xfb4c;" horiz-adv-x="1028" d="M258 1358v69h406v-69h-406zM109 0v84h655q-31 88 -31 211v557q0 235 -244 235h-368v84h375q340 0 340 -327v-561q0 -122 26 -199h137v-84h-890z" />
<glyph unicode="&#xfb4d;" horiz-adv-x="1015" d="M260 1358v69h406v-69h-406zM90 0v84h297q159 0 253.5 114t94.5 304v585h-645v84h750v-665q0 -227 -120.5 -366.5t-316.5 -139.5h-313z" />
<glyph unicode="&#xfb4e;" horiz-adv-x="1130" d="M344 1358v69h406v-69h-406zM162 0v84h411q94 0 166.5 46t108 114t35.5 143v412q0 119 -65.5 187.5t-176.5 82.5l-262 31q-82 -94 -127 -175.5t-45 -168.5q0 -105 59 -161.5t174 -76.5l-20 -88q-138 17 -224.5 95t-86.5 227q0 116 60.5 218.5t168.5 217.5l313 -35 q160 -15 247 -106.5t87 -243.5v-416q0 -103 -49 -191t-140 -142t-204 -54h-430z" />
<glyph unicode="&#xfb4f;" horiz-adv-x="1060" d="M899 -27q-57 53 -123 140l-698 915v477h102v-456l398 -521l247 643h109l-283 -737l109 -141q96 -126 142.5 -178t82.5 -78z" />
<glyph horiz-adv-x="1173" d="M68 0l469 1219h100l471 -1219h-102l-154 395h-539l-151 -395h-94zM342 467h483l-241 631z" />
<glyph horiz-adv-x="1191" d="M174 0v1212h395q230 0 347.5 -69t117.5 -236q0 -65 -25 -117.5t-65.5 -84.5t-84.5 -51.5t-91 -26.5q44 -6 84 -17.5t85 -35t77.5 -56t54 -84.5t21.5 -117q0 -153 -117 -235t-324 -82h-475zM270 657h330q156 0 248 60.5t92 175.5q0 131 -91 186.5t-280 55.5h-299v-478z M270 76h371q172 0 262 65.5t90 182.5q0 129 -101 195.5t-290 66.5h-332v-510z" />
<glyph horiz-adv-x="1236" d="M653 -25q-240 0 -392 177t-152 462q0 277 153 450t385 173q103 0 183.5 -29t135 -82.5t89 -115.5t59.5 -142l-94 -28q-21 68 -49 120.5t-71.5 98.5t-107.5 71t-145 25q-194 0 -315 -152.5t-121 -388.5q0 -245 122 -402t322 -157q71 0 129.5 19.5t98.5 50t73 75.5 t52.5 88.5t35.5 96.5l93 -20q-14 -54 -36 -103.5t-62.5 -103.5t-91.5 -93t-127.5 -64.5t-166.5 -25.5z" />
<glyph horiz-adv-x="1226" d="M174 0v1212h277q673 0 673 -604q0 -608 -673 -608h-277zM272 80h187q288 0 426.5 129.5t138.5 396.5q0 266 -138.5 395t-428.5 129h-185v-1050z" />
<glyph horiz-adv-x="1048" d="M174 0v1212h772v-82h-674v-450h506v-80h-506v-520h691v-80h-789z" />
<glyph horiz-adv-x="1001" d="M174 0v1212h754v-82h-656v-458h488v-80h-488v-592h-98z" />
<glyph horiz-adv-x="1273" d="M637 -25q-110 0 -206 42.5t-168.5 122t-114.5 202.5t-42 274q0 171 62 310.5t185.5 225t287.5 85.5q351 0 471 -375l-90 -26q-57 157 -145 238t-236 81q-133 0 -233.5 -72t-151.5 -193t-51 -272q0 -136 35.5 -245t97.5 -177.5t141 -104.5t170 -36q171 0 272.5 115 t106.5 309h-323v76h415v-555h-86v250q-40 -120 -141 -197.5t-256 -77.5z" />
<glyph horiz-adv-x="1296" d="M174 0v1212h98v-530h748v530h102v-1212h-102v600h-748v-600h-98z" />
<glyph horiz-adv-x="471" d="M186 0v1212h99v-1212h-99z" />
<glyph horiz-adv-x="880" d="M377 -25q-113 0 -192.5 50t-127.5 125l60 57q39 -63 102.5 -107.5t151.5 -44.5q128 0 189 64.5t61 197.5v895h98v-899q0 -168 -83 -253t-259 -85z" />
<glyph horiz-adv-x="1165" d="M174 0v1212h98v-684l670 684h111l-451 -462l514 -750h-110l-467 680l-267 -266v-414h-98z" />
<glyph horiz-adv-x="1001" d="M174 0v1212h98v-1132h658v-80h-756z" />
<glyph horiz-adv-x="1531" d="M174 0v1212h117l475 -1097l475 1097h117v-1212h-94v1057l-455 -1057h-90l-457 1059v-1059h-88z" />
<glyph horiz-adv-x="1302" d="M174 0v1212h98l768 -1050v1050h93v-1212h-89l-778 1063v-1063h-92z" />
<glyph horiz-adv-x="1312" d="M655 -25q-115 0 -214.5 45t-172.5 125.5t-115 200t-42 260.5t42 260.5t115 200t172.5 125.5t214.5 45q113 0 213 -45t174 -125.5t117 -200t43 -260.5t-43 -260.5t-117 -200t-174 -125.5t-213 -45zM655 57q197 0 322 152.5t125 396.5t-125 395.5t-322 151.5 q-198 0 -322 -151.5t-124 -395.5t124 -396.5t322 -152.5z" />
<glyph horiz-adv-x="1114" d="M174 0v1212h408q218 0 338 -85t120 -246q0 -160 -121.5 -244t-338.5 -84h-308v-553h-98zM272 629h314q176 0 266 66.5t90 183.5q0 119 -90 186.5t-266 67.5h-314v-504z" />
<glyph horiz-adv-x="1312" d="M975 -295q-183 0 -277.5 70.5t-97.5 208.5q-214 18 -351.5 188t-137.5 434q0 141 42 260.5t115 200t172.5 125.5t214.5 45q113 0 213 -45t174 -125.5t117 -200t43 -260.5q0 -269 -142 -439.5t-362 -184.5q3 -106 75 -152.5t222 -46.5h84v-78h-104zM655 55 q197 0 322 153.5t125 397.5t-125 397.5t-322 153.5q-198 0 -322 -153t-124 -398t124 -398t322 -153z" />
<glyph horiz-adv-x="1179" d="M174 0v1212h412q220 0 337 -86.5t117 -240.5q0 -130 -89.5 -213t-256.5 -103l353 -569h-109l-346 561h-320v-561h-98zM272 635h314q174 0 264 64.5t90 181.5q0 119 -90 185.5t-264 66.5h-314v-498z" />
<glyph horiz-adv-x="1142" d="M592 -25q-202 0 -319 82.5t-175 233.5l82 43q49 -135 147 -207t265 -72q158 0 250 65t92 175q0 118 -74.5 177t-277.5 118q-95 26 -155 47.5t-114.5 50t-83 63t-45 81.5t-16.5 110q0 126 106.5 210.5t286.5 84.5q172 0 281.5 -74.5t161.5 -197.5l-76 -43 q-103 235 -365 235q-144 0 -220.5 -60t-76.5 -153q0 -58 18 -98t64 -71.5t105.5 -53.5t162.5 -51q88 -25 144.5 -45.5t113 -51t88 -67t51 -89t19.5 -120.5q0 -150 -120.5 -236t-319.5 -86z" />
<glyph horiz-adv-x="1091" d="M498 0v1130h-435v82h965v-82h-432v-1130h-98z" />
<glyph horiz-adv-x="1261" d="M631 -25q-221 0 -345 121t-124 312v804h98v-802q0 -155 98 -254t273 -99q172 0 272.5 97t100.5 243v815h96v-815q0 -182 -127.5 -302t-341.5 -120z" />
<glyph horiz-adv-x="1173" d="M537 -6l-469 1218h100l422 -1097l420 1097h96l-469 -1218h-100z" />
<glyph horiz-adv-x="1622" d="M436 0l-360 1212h100l309 -1060l283 1060h92l309 -1060l285 1060h92l-334 -1212h-90l-307 1071l-289 -1071h-90z" />
<glyph horiz-adv-x="1155" d="M55 0l463 649l-401 563h110l351 -491l350 491h102l-399 -561l465 -651h-109l-414 575l-413 -575h-105z" />
<glyph horiz-adv-x="1095" d="M498 0v543l-447 669h107l393 -587l391 587h100l-444 -669v-543h-100z" />
<glyph horiz-adv-x="1103" d="M80 0v72l813 1058h-768v82h889v-73l-809 -1059h805v-80h-930z" />
<glyph horiz-adv-x="911" d="M455 -426q-154 0 -238 126t-84 333t84 334t238 127q155 0 241 -127.5t86 -333.5t-86 -332.5t-241 -126.5zM455 -350q116 0 176.5 104t60.5 279t-60.5 279t-176.5 104q-117 0 -178.5 -104.5t-61.5 -278.5t61.5 -278.5t178.5 -104.5z" />
<glyph horiz-adv-x="645" d="M121 -410v74h182v735q-26 -18 -81 -31.5t-99 -13.5v72q139 0 182 49h84v-811h164v-74h-432z" />
<glyph horiz-adv-x="815" d="M119 -410v23q0 93 21.5 150.5t85.5 116.5t198 140q104 64 146 112t42 112q0 84 -52 128t-140 44q-72 0 -133 -43t-92 -107l-66 39q39 81 116.5 134t176.5 53q128 0 201 -64t73 -182q0 -82 -50 -145.5t-167 -131.5q-118 -71 -172 -115.5t-72.5 -83.5t-21.5 -104h483v-76 h-577z" />
<glyph horiz-adv-x="798" d="M385 -424q-212 0 -311 174l61 43q80 -141 246 -141q102 0 157.5 47.5t55.5 134.5q0 96 -56.5 146.5t-189.5 50.5h-59v69h57q116 0 174 36t58 122q0 158 -189 158q-133 0 -215 -111l-57 49q100 138 276 138q137 0 204 -59t67 -169q0 -78 -42 -127t-118 -67 q87 -19 132.5 -84t45.5 -154q0 -123 -79.5 -189.5t-217.5 -66.5z" />
<glyph horiz-adv-x="841" d="M528 -408v226h-438v65l445 592h77v-586h160v-71h-160v-226h-84zM174 -115h356v475z" />
<glyph horiz-adv-x="837" d="M403 -424q-183 0 -284 164l55 47q13 -22 29.5 -42.5t44 -44t68 -38t87.5 -14.5q116 0 173 68t57 178q0 106 -60 163.5t-155 57.5q-69 0 -113.5 -24.5t-81.5 -76.5l-65 19l37 442h462l-2 -74h-391l-24 -290q68 71 192 71q127 0 207 -75t80 -216q0 -143 -80 -229t-236 -86z " />
<glyph horiz-adv-x="854" d="M446 -424q-65 0 -120 24.5t-100 75t-71 138t-26 204.5q0 222 91 348t251 126q131 0 229 -80l-45 -62q-79 66 -184 66q-123 0 -188.5 -102t-67.5 -281q119 110 248 110q138 0 209 -77t71 -197q0 -126 -80 -209.5t-217 -83.5zM449 -352q98 0 154 63t56 156q0 89 -51.5 147 t-158.5 58q-69 0 -130 -36.5t-102 -82.5q10 -155 75 -230t157 -75z" />
<glyph horiz-adv-x="776" d="M205 -408l387 807h-467v76h553v-74l-385 -809h-88z" />
<glyph horiz-adv-x="849" d="M428 -424q-143 0 -232.5 64t-89.5 176q0 46 17.5 83.5t51.5 66.5t71 50t90 43q-92 39 -138 82t-46 123q0 100 77.5 164t198.5 64q123 0 200 -64t77 -164q0 -80 -48.5 -125.5t-140.5 -81.5q55 -23 91.5 -42.5t70.5 -48t50.5 -66t16.5 -84.5q0 -112 -87.5 -176t-229.5 -64z M436 88q41 17 59.5 25t49 25t44 32t25 38.5t11.5 51.5q0 71 -56 117.5t-139 46.5q-84 0 -140.5 -45.5t-56.5 -118.5q0 -27 11 -50t25.5 -38t44 -31t49.5 -24.5t60 -23.5q9 -3 13 -5zM428 -358q104 0 169 47.5t65 128.5q0 24 -7.5 45.5t-18 37.5t-32 33t-37 27.5t-46.5 24.5 t-48 21.5t-53 21.5q-54 -22 -86 -38t-70 -42t-56 -58.5t-18 -72.5q0 -80 66.5 -128t171.5 -48z" />
<glyph horiz-adv-x="854" d="M381 -424q-133 0 -229 78l45 61q78 -65 184 -65q123 0 188.5 102t67.5 279q-122 -109 -248 -109q-138 0 -209 77.5t-71 197.5q0 127 80 211t217 84q65 0 120 -24.5t100 -75.5t71 -139.5t26 -205.5q0 -221 -92 -346t-250 -125zM403 -6q67 0 129 36t103 81q-10 157 -75 232 t-157 75q-98 0 -154 -63t-56 -156q0 -89 51.5 -147t158.5 -58z" />
<glyph horiz-adv-x="899" d="M449 -12q-124 0 -192.5 100t-68.5 264q0 166 68.5 266.5t192.5 100.5t192 -100.5t68 -266.5q0 -164 -68 -264t-192 -100zM449 47q93 0 141.5 83t48.5 222q0 140 -49 223.5t-141 83.5q-93 0 -142 -83.5t-49 -223.5q0 -139 49 -222t142 -83z" />
<glyph horiz-adv-x="649" d="M154 0v57h147v590q-19 -14 -63.5 -24.5t-79.5 -10.5v56q109 0 145 39h68v-650h131v-57h-348z" />
<glyph horiz-adv-x="804" d="M170 0v18q0 55 8.5 91.5t35.5 74.5t73.5 73.5t126.5 84.5q84 51 117.5 89t33.5 89q0 67 -41 103t-112 36q-58 0 -106.5 -33.5t-74.5 -86.5l-53 32q33 65 94.5 106.5t141.5 41.5q102 0 160.5 -51t58.5 -146q0 -65 -40 -114.5t-134 -106.5q-135 -82 -172.5 -125t-40.5 -117 h387v-59h-463z" />
<glyph horiz-adv-x="786" d="M383 -12q-171 0 -250 139l49 33q66 -111 197 -111q81 0 125.5 38t44.5 106q0 78 -44.5 117.5t-150.5 39.5h-49v58h45q94 0 140.5 29t46.5 98q0 124 -152 124q-107 0 -172 -90l-45 41q79 109 221 109q215 0 215 -180q0 -63 -33.5 -103.5t-93.5 -52.5q69 -14 106.5 -66.5 t37.5 -123.5q0 -98 -64.5 -151.5t-173.5 -53.5z" />
<glyph horiz-adv-x="829" d="M502 0v182h-352v51l356 474h61v-467h131v-58h-131v-182h-65zM217 238h287v378z" />
<glyph horiz-adv-x="825" d="M401 -12q-145 0 -229 131l45 37q22 -40 67 -74.5t115 -34.5q94 0 139.5 53.5t45.5 141.5q0 84 -48.5 130t-123.5 46q-55 0 -90 -19t-66 -61l-51 14l28 355h369l-2 -60h-311l-19 -231q51 57 154 57q101 0 165 -60t64 -171q0 -115 -64.5 -184.5t-187.5 -69.5z" />
<glyph horiz-adv-x="841" d="M436 -12q-110 0 -182 86.5t-72 267.5q0 178 73 277.5t202 99.5q106 0 182 -62l-35 -51q-67 56 -147 56q-99 0 -152 -82.5t-55 -225.5q104 86 199 86q111 0 168 -61t57 -156q0 -102 -63.5 -168.5t-174.5 -66.5zM438 45q77 0 123.5 51t46.5 123t-42.5 119t-127.5 47 q-95 0 -186 -96q8 -125 60 -184.5t126 -59.5z" />
<glyph horiz-adv-x="765" d="M236 0l309 645h-373v62h442v-60l-307 -647h-71z" />
<glyph horiz-adv-x="837" d="M422 -12q-115 0 -186.5 51.5t-71.5 140.5q0 70 48.5 114.5t135.5 80.5q-74 32 -110.5 66t-36.5 98q0 79 62 129.5t159 50.5q98 0 159.5 -50t61.5 -130q0 -63 -38.5 -99t-112.5 -65q93 -40 138.5 -81.5t45.5 -113.5q0 -89 -70 -140.5t-184 -51.5zM428 399q32 12 47.5 18.5 t39 20t34.5 25.5t20 30.5t9 41.5q0 59 -44 95t-110 36q-69 0 -113.5 -36t-44.5 -95q0 -23 10 -41.5t21.5 -30.5t38.5 -25.5t41.5 -19.5t50.5 -19zM422 41q84 0 135 37.5t51 101.5q0 33 -14.5 59t-46.5 47t-58 33t-73 31q-37 -16 -55.5 -24.5t-48 -25.5t-44 -32t-26 -38 t-11.5 -50q0 -63 54 -101t137 -38z" />
<glyph horiz-adv-x="841" d="M383 -12q-105 0 -182 61l35 49q64 -51 147 -51q99 0 152 81t55 224q-94 -86 -199 -86q-111 0 -167 61t-56 158q0 100 63 167t172 67q110 0 182 -86t72 -266q0 -177 -73.5 -278t-200.5 -101zM403 322q91 0 185 94q-7 124 -59.5 185t-125.5 61q-79 0 -124.5 -51t-45.5 -126 q0 -71 41.5 -117t128.5 -46z" />
<glyph horiz-adv-x="899" d="M449 901q-124 0 -192.5 100.5t-68.5 266.5t68 266t193 100q124 0 192 -100t68 -266t-68 -266.5t-192 -100.5zM449 961q92 0 141 83.5t49 223.5q0 139 -49 223t-141 84t-141.5 -84.5t-49.5 -222.5q0 -140 49 -223.5t142 -83.5z" />
<glyph horiz-adv-x="649" d="M154 913v60h147v590q-19 -16 -62.5 -26.5t-80.5 -10.5v55q112 3 145 39h68v-647h131v-60h-348z" />
<glyph horiz-adv-x="804" d="M170 915v17q0 74 18 120t69 93.5t157 111.5q84 51 117.5 89.5t33.5 89.5q0 67 -41 102t-112 35q-58 0 -106.5 -33.5t-74.5 -85.5l-53 33q33 64 95 105.5t141 41.5q102 0 160.5 -51.5t58.5 -146.5q0 -64 -40.5 -114t-133.5 -105q-136 -84 -173 -126.5t-40 -117.5h387v-58 h-463z" />
<glyph horiz-adv-x="786" d="M383 903q-170 0 -250 137l49 35q66 -112 197 -112q82 0 126 38t44 107q0 77 -45 117.5t-150 40.5h-49v55h45q93 0 140 29.5t47 97.5q0 127 -152 127q-104 0 -172 -90l-45 41q79 108 221 108q215 0 215 -180q0 -129 -127 -158q70 -15 107 -66.5t37 -123.5 q0 -98 -64 -150.5t-174 -52.5z" />
<glyph horiz-adv-x="829" d="M502 913v183h-352v53l356 471h61v-467h131v-57h-131v-183h-65zM217 1151h287v381z" />
<glyph horiz-adv-x="825" d="M401 920q-145 0 -229 131l45 36q22 -40 67 -74t115 -34q94 0 139.5 53.5t45.5 141.5q0 84 -48.5 130t-123.5 46q-55 0 -90 -19t-66 -61l-51 14l28 354h369l-2 -59h-311l-19 -233q53 59 154 59t165 -60t64 -171q0 -115 -64.5 -184.5t-187.5 -69.5z" />
<glyph horiz-adv-x="841" d="M436 901q-110 0 -182 87.5t-72 268.5q0 178 73 277.5t202 99.5q105 0 182 -63l-35 -49q-67 53 -147 53q-99 0 -152 -82t-55 -225q101 88 199 88q112 0 168.5 -61t56.5 -158q0 -102 -63.5 -169t-174.5 -67zM438 958q77 0 123.5 52t46.5 125q0 71 -42.5 118t-127.5 47 q-90 0 -186 -96q8 -125 60 -185.5t126 -60.5z" />
<glyph horiz-adv-x="765" d="M236 913l309 648h-373v59h442v-57l-307 -650h-71z" />
<glyph horiz-adv-x="837" d="M422 901q-115 0 -186.5 52t-71.5 141q0 70 48 114t136 80q-36 15 -58.5 27.5t-45 32t-33 45.5t-10.5 61q0 78 62 129t159 51q98 0 159.5 -51t61.5 -129q0 -64 -38.5 -100.5t-112.5 -65.5q93 -40 138.5 -81t45.5 -113q0 -90 -70 -141.5t-184 -51.5zM428 1313 q39 15 59 24.5t45 26t35.5 37.5t10.5 49q0 57 -44 93t-110 36q-68 0 -113 -35.5t-45 -93.5q0 -17 5.5 -31.5t11 -25t21.5 -21.5l24 -16.5t32 -16t31.5 -13t36.5 -13.5zM422 956q84 0 135 38t51 102q0 32 -14.5 57.5t-46.5 46.5t-58 33t-73 31q-43 -17 -69 -30t-56.5 -33.5 t-45 -46.5t-14.5 -58q0 -63 54 -101.5t137 -38.5z" />
<glyph horiz-adv-x="841" d="M383 901q-101 0 -182 64l35 49q63 -53 147 -53q99 0 152 82t55 223q-99 -86 -199 -86q-111 0 -167 61t-56 158q0 101 63 168t172 67q110 0 182 -87t72 -267q0 -177 -73.5 -278t-200.5 -101zM403 1237q93 0 185 92q-7 125 -59.5 186.5t-125.5 61.5q-79 0 -124.5 -51 t-45.5 -125q0 -72 41.5 -118t128.5 -46z" />
<glyph horiz-adv-x="1050" d="M524 -25q-204 0 -319 170.5t-115 458.5q0 289 115 461t319 172q206 0 320 -172t114 -461t-114 -459t-320 -170zM524 53q160 0 249 145.5t89 405.5q0 259 -90 406t-248 147t-248 -147t-90 -406t90 -405t248 -146z" />
<glyph horiz-adv-x="737" d="M61 0v80h295v1026q-52 -34 -129 -55t-157 -21v84q189 0 295 98h81v-1132h263v-80h-648z" />
<glyph horiz-adv-x="956" d="M76 0v41q4 68 18 119.5t40.5 98t77.5 94t116.5 95.5t169.5 115q142 91 204 166.5t62 175.5q0 117 -74.5 184.5t-202.5 67.5q-113 0 -195 -61.5t-130 -157.5l-74 41q57 113 157.5 185.5t243.5 72.5q170 0 269.5 -89t99.5 -239q0 -119 -69 -207.5t-222 -187.5 q-83 -54 -126 -82.5t-94.5 -67.5t-75 -65.5t-47 -62.5t-32 -72.5t-10.5 -83.5h666v-80h-772z" />
<glyph horiz-adv-x="962" d="M463 -25q-79 0 -146.5 19t-117.5 53.5t-85.5 70.5t-68.5 83l66 53q139 -201 350 -201q140 0 227.5 78t87.5 201q0 274 -360 274h-80v76h82q150 0 242 55.5t92 175.5t-69.5 184t-203.5 64q-105 0 -185.5 -45.5t-129.5 -116.5l-60 54q61 81 159.5 135.5t221.5 54.5 q172 0 266.5 -86t94.5 -235q0 -116 -73 -187t-181 -90q135 -19 207.5 -100.5t72.5 -216.5q0 -158 -114 -255.5t-295 -97.5z" />
<glyph horiz-adv-x="970" d="M639 0v303h-582v72l561 837h113v-829h201v-80h-201v-303h-92zM160 383h479v721z" />
<glyph horiz-adv-x="956" d="M469 -25q-265 0 -403 211l61 60q120 -191 340 -191q148 0 234.5 95t86.5 243q0 156 -82 238t-219 82q-173 0 -286 -158l-70 20l45 637h631l-4 -82h-551l-35 -471q43 54 119 90.5t168 36.5q171 0 275 -101.5t104 -291.5q0 -183 -114 -300.5t-300 -117.5z" />
<glyph horiz-adv-x="978" d="M524 -25q-88 0 -164 36t-137 107.5t-96 191.5t-35 276q0 292 125.5 471.5t333.5 179.5q165 0 285 -96l-48 -68q-100 86 -233 86q-172 0 -271.5 -159t-97.5 -416q58 69 154.5 122.5t202.5 53.5q174 0 270 -108.5t96 -270.5q0 -171 -106.5 -288.5t-278.5 -117.5zM526 51 q130 0 210.5 94.5t80.5 233.5q0 60 -16 113t-48.5 97t-90 69.5t-132.5 25.5q-72 0 -145.5 -33t-120 -71.5t-78.5 -79.5q7 -116 37.5 -204t78 -140.5t104 -78.5t120.5 -26z" />
<glyph horiz-adv-x="901" d="M203 0l520 1133h-631v79h727v-77l-522 -1135h-94z" />
<glyph horiz-adv-x="980" d="M492 -29q-196 0 -308 92t-112 226q0 126 80.5 207.5t240.5 148.5q-137 62 -201.5 129.5t-64.5 167.5q0 120 100 207.5t265 87.5q166 0 263 -87.5t97 -207.5q0 -55 -18.5 -98.5t-57.5 -78.5t-84 -61t-114 -57q171 -73 251 -152.5t80 -205.5q0 -131 -112 -224.5t-305 -93.5 zM489 682q147 63 209 118t62 138q0 40 -15.5 78t-46 71.5t-84 54.5t-122.5 21q-128 0 -200.5 -68.5t-72.5 -154.5q0 -81 61.5 -137t208.5 -121zM492 45q139 0 231 70t92 176q0 56 -21 100.5t-66.5 82.5t-102 68t-142.5 66q-169 -66 -243 -138t-74 -177q0 -108 92 -178 t234 -70z" />
<glyph horiz-adv-x="976" d="M426 -25q-164 0 -285 97l47 67q107 -86 236 -86q171 0 270 159.5t97 416.5q-53 -66 -151 -120t-204 -54q-118 0 -203 52t-125 135.5t-40 188.5q0 171 106.5 288.5t280.5 117.5q88 0 163.5 -35.5t136 -107t95.5 -191.5t35 -276q0 -292 -125.5 -472t-333.5 -180zM446 528 q55 0 111 18.5t100.5 48t77.5 59.5t56 59q-7 116 -37.5 204t-77 140t-103 78t-120.5 26q-132 0 -212.5 -94t-80.5 -233q0 -61 16 -114t49 -97t89.5 -69.5t131.5 -25.5z" />
<glyph horiz-adv-x="856" d="M420 604q-156 0 -241 125.5t-85 333.5q0 206 85 331.5t241 125.5q154 0 238.5 -125.5t84.5 -331.5q0 -208 -84 -333.5t-239 -125.5zM420 678q115 0 176 104.5t61 280.5q0 173 -61 278t-176 105q-116 0 -178 -105t-62 -278q0 -176 61.5 -280.5t178.5 -104.5z" />
<glyph horiz-adv-x="598" d="M86 618v74h184v738q-25 -19 -80 -32.5t-100 -13.5v70q139 0 182 49h84v-811h164v-74h-434z" />
<glyph horiz-adv-x="776" d="M84 621v22q0 92 21.5 149.5t85 116.5t196.5 140q106 64 148.5 111.5t42.5 111.5q0 84 -52.5 128t-140.5 44q-73 0 -133.5 -42t-91.5 -106l-68 37q41 82 118.5 134.5t176.5 52.5q127 0 201 -64t74 -182q0 -81 -51 -145t-167 -132q-119 -71 -172.5 -115.5t-72.5 -84 t-21 -103.5h484v-73h-578z" />
<glyph horiz-adv-x="737" d="M350 604q-213 0 -311 176l61 41q82 -141 246 -141q101 0 157 48t56 134q0 96 -56.5 146.5t-189.5 50.5h-59v69h57q116 0 174 36.5t58 123.5q0 156 -189 156q-131 0 -217 -111l-55 49q100 138 276 138q269 0 269 -228q0 -78 -41.5 -127t-116.5 -67q87 -18 132.5 -83 t45.5 -155q0 -123 -80 -189.5t-217 -66.5z" />
<glyph horiz-adv-x="772" d="M494 621v225h-441v65l447 592h78v-585h159v-72h-159v-225h-84zM139 915h357v476z" />
<glyph horiz-adv-x="768" d="M369 604q-183 0 -285 166l55 45q12 -22 29.5 -42t45 -43.5t67.5 -37.5t86 -14q117 0 174 67t57 177q0 106 -60 163.5t-155 57.5q-69 0 -113 -24.5t-82 -74.5l-65 17l35 442h465l-5 -73h-389l-24 -291q68 71 192 71q128 0 207.5 -74t79.5 -216t-80 -229t-235 -87z" />
<glyph horiz-adv-x="784" d="M412 604q-65 0 -120.5 24.5t-100.5 75.5t-71 138.5t-26 204.5q0 223 91 348t251 125q131 0 230 -78l-45 -62q-82 66 -185 66q-123 0 -188.5 -103t-67.5 -282q114 110 248 110q138 0 209.5 -76.5t71.5 -197.5q0 -126 -80 -209.5t-217 -83.5zM412 676q99 0 156 63t57 156 q0 90 -52 148.5t-159 58.5q-68 0 -129 -36.5t-103 -82.5q10 -157 74 -232t156 -75z" />
<glyph horiz-adv-x="706" d="M170 621l387 806h-469v76h555v-71l-385 -811h-88z" />
<glyph horiz-adv-x="786" d="M393 604q-142 0 -231.5 64.5t-89.5 175.5q0 47 17.5 85t51 66.5t71 49.5t89.5 42q-45 19 -73 34.5t-56 39.5t-41.5 57t-13.5 76q0 99 77.5 162.5t198.5 63.5q122 0 199.5 -63.5t77.5 -162.5q0 -81 -48.5 -126t-142.5 -81q57 -24 93 -43.5t71 -48t51.5 -66t16.5 -85.5 q0 -111 -88 -175.5t-230 -64.5zM401 1118q48 19 73 30.5t56 32t44.5 47t13.5 60.5q0 73 -55 118.5t-138 45.5q-84 0 -140 -45.5t-56 -118.5q0 -33 13 -58t44.5 -45t54.5 -30.5t72 -29.5q12 -5 18 -7zM393 672q104 0 168 46.5t64 127.5q0 41 -18.5 73.5t-57.5 58.5 t-72.5 41.5t-91.5 37.5q-45 -18 -69.5 -29t-60 -32t-54.5 -40t-33 -48t-14 -62q0 -80 67 -127t172 -47z" />
<glyph horiz-adv-x="784" d="M346 604q-130 0 -229 78l43 61q81 -65 186 -65q123 0 188.5 102t67.5 281q-117 -109 -248 -109q-138 0 -209 77t-71 198q0 126 79.5 209.5t215.5 83.5q65 0 121 -24.5t101 -75.5t71 -138.5t26 -204.5q0 -221 -92 -347t-250 -126zM369 1022q119 0 231 117q-10 157 -75 233 t-156 76q-98 0 -154.5 -64t-56.5 -157q0 -88 52 -146.5t159 -58.5z" />
<glyph horiz-adv-x="899" d="M752 0l-705 1212h100l705 -1212h-100z" />
<glyph horiz-adv-x="544" d="M238 250l-21 821h109l-19 -821h-69zM213 -2v117h119v-117h-119z" />
<glyph horiz-adv-x="1222" d="M270 -2l68 317h-168v74h182l64 293h-185v76h201l66 313h86l-66 -313h281l65 313h88l-67 -313h168v-76h-185l-61 -293h186v-74h-200l-68 -317h-86l68 317h-283l-66 -317h-88zM438 387h285l63 297h-286z" />
<glyph horiz-adv-x="948" d="M377 260q-2 23 -2 57q1 122 33 178t131 113q52 31 74.5 46t52 42t40.5 56.5t11 68.5q0 90 -67.5 142.5t-180.5 52.5q-92 0 -171.5 -45t-123.5 -107l-55 58q52 72 145 123t211 51q155 0 244.5 -73t89.5 -196q0 -51 -14.5 -90.5t-47 -71.5t-63 -52.5t-84.5 -51.5 q-93 -56 -118 -111.5t-23 -189.5h-82zM358 -2v117h121v-117h-121z" />
<glyph horiz-adv-x="899" d="M47 0l705 1212h100l-705 -1212h-100z" />
<glyph horiz-adv-x="1267" d="M494 -18q-188 0 -301 82t-113 233q0 69 24.5 126.5t72 101.5t96.5 75.5t120 65.5q-96 164 -96 297q0 120 86 198t213 78q124 0 195 -63t71 -177q0 -52 -20 -97t-49 -77.5t-77.5 -65t-90.5 -54.5t-102 -52q-14 -7 -21 -10q91 -141 225 -272q89 -89 166 -142 q114 134 143 373h86q-37 -270 -159 -414q133 -90 256 -110v-84q-157 20 -320 127q-157 -139 -405 -139zM467 698q146 72 196 107q115 82 115 190q0 81 -48.5 126.5t-133.5 45.5q-88 0 -149.5 -57t-61.5 -149q0 -112 82 -263zM494 57q210 0 335 117q-76 56 -161 141 q-141 134 -242 291q-58 -31 -98 -57.5t-78.5 -63.5t-58 -82.5t-19.5 -99.5q0 -120 90.5 -183t231.5 -63z" />
<glyph horiz-adv-x="1103" d="M520 -154v144q-126 6 -219 61t-158 174l72 43q105 -189 309 -202v536q-92 31 -149 59.5t-100.5 67t-61.5 89t-18 120.5q0 119 89 199t236 84v120h72v-122q105 -7 182.5 -52.5t138.5 -130.5l-67 -47q-48 70 -108.5 107.5t-145.5 44.5v-473q197 -64 277.5 -143t80.5 -230 q0 -136 -97 -216t-261 -89v-144h-72zM524 688v459q-109 -3 -176 -61.5t-67 -145.5q0 -97 54 -150t189 -102zM592 63q125 5 199.5 64t74.5 162q0 120 -60 179.5t-214 113.5v-519z" />
<glyph horiz-adv-x="1363" d="M246 754v77h872v-77h-872zM246 346v78h872v-78h-872z" />
<glyph horiz-adv-x="1167" d="M662 -25q-168 0 -282 123.5t-144 362.5h-205v59h200q-4 62 -4 94q0 66 4 95h-200v59h205q30 228 145.5 348.5t277.5 120.5q78 0 143.5 -28.5t112 -79t78.5 -113.5t51 -139l-77 -25q-34 137 -112.5 222t-192.5 85q-129 0 -217.5 -101.5t-114.5 -289.5h344v-59h-350 q-2 -29 -2 -95q0 -65 2 -94h350v-59h-344q24 -198 112.5 -303t221.5 -105q66 0 121.5 29.5t93.5 79t63 103t39 112.5l80 -25q-18 -68 -49.5 -130.5t-79 -120t-118 -92t-152.5 -34.5z" />
<glyph horiz-adv-x="1361" d="M236 125v86l823 350l-823 352v88l927 -407v-68z" />
<glyph horiz-adv-x="1361" d="M1128 125l-929 407v68l929 401v-88l-825 -350l825 -352v-86z" />
<glyph horiz-adv-x="1550" d="M389 455q-107 0 -173 88t-66 233t67 232.5t172 87.5q104 0 170 -87.5t66 -232.5t-66 -233t-170 -88zM408 -6l641 1077h84l-637 -1077h-88zM389 524q72 0 115 67t43 185q0 116 -43.5 183t-114.5 67t-115.5 -67t-44.5 -183q0 -118 44 -185t116 -67zM1161 -27 q-104 0 -169.5 87.5t-65.5 232.5t65.5 233t169.5 88q105 0 172.5 -88t67.5 -233t-66.5 -232.5t-173.5 -87.5zM1161 41q72 0 116 67t44 185q0 117 -44 184.5t-116 67.5q-70 0 -113.5 -67.5t-43.5 -184.5q0 -118 42.5 -185t114.5 -67z" />
<glyph horiz-adv-x="1286" d="M600 102v416h-407v84h407v412h86v-412h408v-84h-408v-416h-86z" />
<glyph horiz-adv-x="1005" d="M233 -31q-81 0 -137.5 43.5t-56.5 134.5q0 81 50 135t132 54q103 0 197 -90q8 58 8 92q0 117 -78 262h-217v59h180q-43 76 -65.5 136.5t-22.5 130.5q0 134 89.5 219.5t238.5 85.5q79 0 141 -25t100.5 -69.5t59.5 -99.5t25 -119l-89 -11q-5 108 -64 177t-169 69 q-109 0 -173.5 -62t-64.5 -165q0 -48 15.5 -98.5t31 -80.5t48.5 -88h299v-59h-267q70 -144 70 -264q0 -73 -20 -148q69 -75 99 -98q60 -45 126 -45q166 0 176 256l84 -2q-18 -328 -250 -328q-45 0 -84 11.5t-74.5 37t-58 45.5t-57.5 56q-34 -70 -90.5 -111t-131.5 -41z M236 31q114 0 163 145q-92 96 -178 96q-52 0 -80 -36.5t-28 -90.5q0 -56 35.5 -85t87.5 -29z" />
<glyph horiz-adv-x="1048" d="M477 0v221h-315v60h315v180h-315v61h315v29l-442 661h102l389 -585l389 585h99l-441 -661v-29h318v-61h-318v-180h318v-60h-318v-221h-96z" />
</font>
</defs>
</svg>
