<?xml version="1.0" encoding="utf-8"?>
<!-- Generator: Adobe Illustrator 21.1.0, SVG Export Plug-In . SVG Version: 6.00 Build 0)  -->
<svg version="1.1" id="Layer_1" xmlns="http://www.w3.org/2000/svg" xmlns:xlink="http://www.w3.org/1999/xlink" x="0px" y="0px"
	 viewBox="0 0 200 200" style="enable-background:new 0 0 200 200;" xml:space="preserve">
<path d="M171.9,192.2H26.1c-1.4,0-2.5-1.1-2.5-2.5s1.1-2.5,2.5-2.5h145.7c1.4,0,2.5,1.1,2.5,2.5S173.3,192.2,171.9,192.2z"/>
<path d="M35.7,180.1c-1.4,0-2.5-1.1-2.5-2.5V11.8c0-1.4,1.1-2.5,2.5-2.5L162.5,9c0,0,0,0,0,0c1.4,0,2.5,1.1,2.5,2.5
	c0,1.4-1.1,2.5-2.5,2.5L38.2,14.3v163.3C38.2,179,37,180.1,35.7,180.1z"/>
<path d="M162.4,180.1c-1.4,0-2.5-1.1-2.5-2.5V11.8c0-1.4,1.1-2.5,2.5-2.5s2.5,1.1,2.5,2.5v165.8C164.9,179,163.8,180.1,162.4,180.1z
	"/>
<path d="M73.5,79h-22c-1.4,0-2.5-1.1-2.5-2.5v-44c0-1.4,1.1-2.5,2.5-2.5h22c1.4,0,2.5,1.1,2.5,2.5v44C76,77.9,74.9,79,73.5,79z
	 M54,74h17V35H54V74z"/>
<path d="M73.5,57h-22c-1.4,0-2.5-1.1-2.5-2.5s1.1-2.5,2.5-2.5h22c1.4,0,2.5,1.1,2.5,2.5S74.9,57,73.5,57z"/>
<path d="M73.5,68h-22c-1.4,0-2.5-1.1-2.5-2.5s1.1-2.5,2.5-2.5h22c1.4,0,2.5,1.1,2.5,2.5S74.9,68,73.5,68z"/>
<path d="M109.5,79h-22c-1.4,0-2.5-1.1-2.5-2.5v-44c0-1.4,1.1-2.5,2.5-2.5h22c1.4,0,2.5,1.1,2.5,2.5v44C112,77.9,110.9,79,109.5,79z
	 M90,74h17V35H90V74z"/>
<path d="M109.5,57h-22c-1.4,0-2.5-1.1-2.5-2.5s1.1-2.5,2.5-2.5h22c1.4,0,2.5,1.1,2.5,2.5S110.9,57,109.5,57z"/>
<path d="M109.5,68h-22c-1.4,0-2.5-1.1-2.5-2.5s1.1-2.5,2.5-2.5h22c1.4,0,2.5,1.1,2.5,2.5S110.9,68,109.5,68z"/>
<path d="M145.5,79h-22c-1.4,0-2.5-1.1-2.5-2.5v-44c0-1.4,1.1-2.5,2.5-2.5h22c1.4,0,2.5,1.1,2.5,2.5v44C148,77.9,146.9,79,145.5,79z
	 M126,74h17V35h-17V74z"/>
<path d="M145.5,57h-22c-1.4,0-2.5-1.1-2.5-2.5s1.1-2.5,2.5-2.5h22c1.4,0,2.5,1.1,2.5,2.5S146.9,57,145.5,57z"/>
<path d="M145.5,68h-22c-1.4,0-2.5-1.1-2.5-2.5s1.1-2.5,2.5-2.5h22c1.4,0,2.5,1.1,2.5,2.5S146.9,68,145.5,68z"/>
<path d="M73.5,142h-22c-1.4,0-2.5-1.1-2.5-2.5v-44c0-1.4,1.1-2.5,2.5-2.5h22c1.4,0,2.5,1.1,2.5,2.5v44C76,140.9,74.9,142,73.5,142z
	 M54,137h17V98H54V137z"/>
<path d="M73.5,120h-22c-1.4,0-2.5-1.1-2.5-2.5s1.1-2.5,2.5-2.5h22c1.4,0,2.5,1.1,2.5,2.5S74.9,120,73.5,120z"/>
<path d="M73.5,131h-22c-1.4,0-2.5-1.1-2.5-2.5s1.1-2.5,2.5-2.5h22c1.4,0,2.5,1.1,2.5,2.5S74.9,131,73.5,131z"/>
<path d="M109.5,142h-22c-1.4,0-2.5-1.1-2.5-2.5v-44c0-1.4,1.1-2.5,2.5-2.5h22c1.4,0,2.5,1.1,2.5,2.5v44
	C112,140.9,110.9,142,109.5,142z M90,137h17V98H90V137z"/>
<path d="M109.5,120h-22c-1.4,0-2.5-1.1-2.5-2.5s1.1-2.5,2.5-2.5h22c1.4,0,2.5,1.1,2.5,2.5S110.9,120,109.5,120z"/>
<path d="M109.5,131h-22c-1.4,0-2.5-1.1-2.5-2.5s1.1-2.5,2.5-2.5h22c1.4,0,2.5,1.1,2.5,2.5S110.9,131,109.5,131z"/>
<path d="M145.5,142h-22c-1.4,0-2.5-1.1-2.5-2.5v-44c0-1.4,1.1-2.5,2.5-2.5h22c1.4,0,2.5,1.1,2.5,2.5v44
	C148,140.9,146.9,142,145.5,142z M126,137h17V98h-17V137z"/>
<path d="M145.5,120h-22c-1.4,0-2.5-1.1-2.5-2.5s1.1-2.5,2.5-2.5h22c1.4,0,2.5,1.1,2.5,2.5S146.9,120,145.5,120z"/>
<path d="M145.5,131h-22c-1.4,0-2.5-1.1-2.5-2.5s1.1-2.5,2.5-2.5h22c1.4,0,2.5,1.1,2.5,2.5S146.9,131,145.5,131z"/>
<path d="M73.5,180h-22c-1.4,0-2.5-1.1-2.5-2.5v-18c0-1.4,1.1-2.5,2.5-2.5h22c1.4,0,2.5,1.1,2.5,2.5v18C76,178.9,74.9,180,73.5,180z
	 M54,175h17v-13H54V175z"/>
<path d="M109.5,180h-22c-1.4,0-2.5-1.1-2.5-2.5v-18c0-1.4,1.1-2.5,2.5-2.5h22c1.4,0,2.5,1.1,2.5,2.5v18
	C112,178.9,110.9,180,109.5,180z M90,175h17v-13H90V175z"/>
<path d="M145.5,180h-22c-1.4,0-2.5-1.1-2.5-2.5v-18c0-1.4,1.1-2.5,2.5-2.5h22c1.4,0,2.5,1.1,2.5,2.5v18
	C148,178.9,146.9,180,145.5,180z M126,175h17v-13h-17V175z"/>
</svg>
