<?xml version="1.0" encoding="utf-8"?>
<!-- Generator: Adobe Illustrator 21.1.0, SVG Export Plug-In . SVG Version: 6.00 Build 0)  -->
<svg version="1.1" id="Layer_1" xmlns="http://www.w3.org/2000/svg" xmlns:xlink="http://www.w3.org/1999/xlink" x="0px" y="0px"
	 viewBox="0 0 200 200" style="enable-background:new 0 0 200 200;" xml:space="preserve">
<path d="M93.8,187.7c-0.9,0-1.8-0.3-2.5-1L7,102.5c-0.7-0.7-1-1.5-1-2.5c0-0.9,0.4-1.8,1-2.5l84.3-84.2c1.4-1.4,3.6-1.4,5,0
	c1.4,1.4,1.4,3.6,0,5L14.5,100l81.8,81.7c1.4,1.4,1.4,3.6,0,5C95.6,187.4,94.7,187.7,93.8,187.7z"/>
<path d="M193.5,103h-182c-1.9,0-3.5-1.6-3.5-3.5c0-1.9,1.6-3.5,3.5-3.5h182c1.9,0,3.5,1.6,3.5,3.5C197,101.4,195.4,103,193.5,103z"
	/>
</svg>
