<?xml version="1.0" encoding="utf-8"?>
<!-- Generator: Adobe Illustrator 21.1.0, SVG Export Plug-In . SVG Version: 6.00 Build 0)  -->
<svg version="1.1" id="Layer_1" xmlns="http://www.w3.org/2000/svg" xmlns:xlink="http://www.w3.org/1999/xlink" x="0px" y="0px"
	 viewBox="0 0 200 200" style="enable-background:new 0 0 200 200;" xml:space="preserve">
<path d="M172.9,182.5H27.1c-1.4,0-2.5-1.1-2.5-2.5s1.1-2.5,2.5-2.5h145.7c1.4,0,2.5,1.1,2.5,2.5S174.3,182.5,172.9,182.5z"/>
<path d="M182,119.7H17.5c-1,0-1.9-0.6-2.3-1.5s-0.2-2,0.5-2.7l20-21.4c0.5-0.5,1.1-0.8,1.8-0.8H162c0.7,0,1.4,0.3,1.8,0.8l20,21.4
	c0.7,0.7,0.9,1.8,0.5,2.7S183,119.7,182,119.7z M23.3,114.7h153l-15.3-16.4H38.6L23.3,114.7z"/>
<path d="M172,39.9H27.5c-1,0-1.9-0.6-2.3-1.5s-0.2-2,0.5-2.7l20-21.4c0.5-0.5,1.1-0.8,1.8-0.8H152c0.7,0,1.4,0.3,1.8,0.8l20,21.4
	c0.7,0.7,0.9,1.8,0.5,2.7S173,39.9,172,39.9z M33.3,34.9h133l-15.3-16.4H48.6L33.3,34.9z"/>
<path d="M27.5,182.3c-1.4,0-2.5-1.1-2.5-2.5l-1-62.2c0-1.4,1.1-2.5,2.5-2.5c0,0,0,0,0,0c1.4,0,2.5,1.1,2.5,2.5l1,62.2
	C30,181.1,28.9,182.3,27.5,182.3C27.5,182.3,27.5,182.3,27.5,182.3z"/>
<path d="M172.5,182.3c-1.4,0-2.5-1.1-2.5-2.5v-62.2c0-1.4,1.1-2.5,2.5-2.5s2.5,1.1,2.5,2.5v62.2C175,181.2,173.9,182.3,172.5,182.3z
	"/>
<path d="M151.5,97.8c-1.4,0-2.5-1.1-2.5-2.5V37.8c0-1.4,1.1-2.5,2.5-2.5s2.5,1.1,2.5,2.5v57.5C154,96.7,152.9,97.8,151.5,97.8z"/>
<path d="M49.5,96.9c-1.4,0-2.5-1.1-2.5-2.5V37.8c0-1.4,1.1-2.5,2.5-2.5s2.5,1.1,2.5,2.5v56.6C52,95.8,50.9,96.9,49.5,96.9z"/>
<path d="M42.5,180.4c-1.4,0-2.5-1.1-2.5-2.5v-36.2c0-1.4,1.1-2.5,2.5-2.5s2.5,1.1,2.5,2.5v36.2C45,179.3,43.9,180.4,42.5,180.4z"/>
<path d="M105.5,181.4c-1.4,0-2.5-1.1-2.5-2.5v-37.1c0-1.4,1.1-2.5,2.5-2.5s2.5,1.1,2.5,2.5v37.1C108,180.2,106.9,181.4,105.5,181.4z
	"/>
<path d="M105.5,144.2h-63c-1.4,0-2.5-1.1-2.5-2.5s1.1-2.5,2.5-2.5h63c1.4,0,2.5,1.1,2.5,2.5S106.9,144.2,105.5,144.2z"/>
<path d="M156.5,155.4h-35c-1.4,0-2.5-1.1-2.5-2.5v-22.3c0-1.4,1.1-2.5,2.5-2.5h35c1.4,0,2.5,1.1,2.5,2.5v22.3
	C159,154.3,157.9,155.4,156.5,155.4z M124,150.4h30v-17.3h-30V150.4z"/>
<path d="M140.4,75.7C140.4,75.7,140.4,75.7,140.4,75.7l-35-0.2c-0.7,0-1.3-0.3-1.8-0.7c-0.5-0.5-0.7-1.1-0.7-1.8l0.1-22.3
	c0-1.4,1.1-2.5,2.5-2.5c0,0,0,0,0,0l35,0.2c0.7,0,1.3,0.3,1.8,0.7c0.5,0.5,0.7,1.1,0.7,1.8l-0.1,22.3
	C142.9,74.6,141.8,75.7,140.4,75.7z M107.9,70.5l30,0.2l0.1-17.3l-30-0.2L107.9,70.5z"/>
<path d="M95.5,75.6h-35c-1.4,0-2.5-1.1-2.5-2.5V50.8c0-1.4,1.1-2.5,2.5-2.5h35c1.4,0,2.5,1.1,2.5,2.5v22.3
	C98,74.5,96.9,75.6,95.5,75.6z M63,70.6h30V53.3H63V70.6z"/>
<path d="M171.9,194.2H26.1c-1.4,0-2.5-1.1-2.5-2.5s1.1-2.5,2.5-2.5h145.7c1.4,0,2.5,1.1,2.5,2.5S173.3,194.2,171.9,194.2z"/>
</svg>
