<?xml version="1.0" encoding="utf-8"?>
<!-- Generator: Adobe Illustrator 21.1.0, SVG Export Plug-In . SVG Version: 6.00 Build 0)  -->
<svg version="1.1" id="Layer_1" xmlns="http://www.w3.org/2000/svg" xmlns:xlink="http://www.w3.org/1999/xlink" x="0px" y="0px"
	 viewBox="0 0 200 200" style="enable-background:new 0 0 200 200;" xml:space="preserve">
<path d="M84,174.2c-0.4,0-0.8-0.1-1.1-0.3c-0.9-0.4-1.4-1.3-1.4-2.2v-64.3L6.3,36.9c-0.7-0.7-1-1.8-0.6-2.7c0.4-1,1.3-1.6,2.3-1.6
	h184c1,0,1.9,0.6,2.3,1.6s0.1,2-0.6,2.7L119,107.4v39.3c0,0.8-0.4,1.5-1,2l-32.5,25C85.1,174,84.5,174.2,84,174.2z M14.3,37.6
	l71.4,66.9c0.5,0.5,0.8,1.1,0.8,1.8v60.3l27.5-21.2v-39.2c0-0.7,0.3-1.3,0.8-1.8l70.9-66.9H14.3z"/>
</svg>
