<?xml version="1.0" encoding="utf-8"?>
<!-- Generator: Adobe Illustrator 21.1.0, SVG Export Plug-In . SVG Version: 6.00 Build 0)  -->
<svg version="1.1" xmlns="http://www.w3.org/2000/svg" xmlns:xlink="http://www.w3.org/1999/xlink" x="0px" y="0px"
	 viewBox="0 0 200 200" style="enable-background:new 0 0 200 200;" xml:space="preserve">
<style type="text/css">
	.st0{fill:#030303;}
</style>
<g id="Layer_2">
</g>
<g id="Layer_1">
	<path class="st0" d="M28,125.6c0-7.8,0-16.7,2.3-25c0.5-1.5,1-3,1.5-4.4c2.8-7.2,6.9-14,11.4-20.5c0.8-1.2,1.6-2.4,2.4-3.6
		s1.6-2.4,2.3-3.7c0.8,1.5,1.2,3.2,1.5,5.1c0.2,1.4,0.6,3.1,0.7,4.8c-0.1,1.2-0.2,2.5-0.4,3.8c-0.2,1.3-0.4,2.7-0.6,4
		C48,92.1,49,98,53,103c5,4.9,14,1,16-4c3-7.9-3-16.8-2.2-25.5c0.1-1.4,0.3-2.8,0.5-4.2c0.7-4.2,2.1-8.3,4.4-12.3
		c0.6-1,1.3-1.9,2-2.8c0.9-1.4,2-2.8,3.3-4.1c1.2-1.3,2.5-2.6,3.8-3.9C92,37.7,104,22.8,95,9c7,1,11,4.9,15.7,8.9
		c1.3,1.7,2.3,3.4,3,5.3c0.5,1.4,0.9,2.9,1.1,4.4c1.1,8.5-0.1,17-1,25.4c-0.2,1.7-0.3,3.4-0.4,5.1c-0.6,3.1-0.8,6.5-0.5,9.9
		s1.1,6.8,2.4,9.7c1.4,1.7,2.5,3.3,3.9,4.6c5.8,5.7,13.8,2.8,18.8-0.2c6-4.9,5-12.9,3.7-19.3c-0.5-2.2-1.1-4.5-1.6-6.7
		c-0.4-2.2-0.7-4.5-0.6-6.8c0-1.6,0-2.9,0-3.9c1.8,0.8,3.4,1.7,5,2.7c1.7,1.2,3.2,2.5,4.7,3.9c1.5,1.4,2.8,2.8,4.1,4.3
		C171,80.2,180,114.8,170.2,144c-1,2.8-2.3,5.6-3.7,8.3c-1.5,2.7-3.2,5.3-5.1,7.9c-1.6,2.3-3.3,4.5-5.1,6.6c-1.7,2-3.5,4-5.4,5.8
		c-15.3,14.5-38.2,21.5-59.6,18.5c-2-0.2-4-0.6-6-0.9c-2-0.4-4-0.8-5.9-1.4c-1.7-0.6-3.4-1.3-5.1-2c-14.8-6.8-27.7-19-36.6-34
		c-1-1.7-1.9-3.4-2.8-5.1c-3.8-5.1-3.8-11-5.7-16.3C28.7,129.5,28.3,127.6,28,125.6z"/>
</g>
</svg>
