<?xml version="1.0" encoding="utf-8"?>
<!-- Generator: Adobe Illustrator 21.1.0, SVG Export Plug-In . SVG Version: 6.00 Build 0)  -->
<svg version="1.1" id="Layer_1" xmlns="http://www.w3.org/2000/svg" xmlns:xlink="http://www.w3.org/1999/xlink" x="0px" y="0px"
	 viewBox="0 0 200 200" style="enable-background:new 0 0 200 200;" xml:space="preserve">
<g>
	<path d="M172.8,177.4h-146c-0.7,0-1.3-0.3-1.8-0.7c-0.5-0.5-0.7-1.1-0.7-1.8l1.1-72.4c0-1.4,1.2-2.5,2.5-2.5c1.4,0,2.5,1.2,2.5,2.5
		l-1.1,69.9h140.9v-64.6c0-1.4,1.1-2.5,2.5-2.5s2.5,1.1,2.5,2.5v67.1C175.3,176.3,174.2,177.4,172.8,177.4z"/>
	<path d="M78,174.7c-1.4,0-2.5-1.1-2.5-2.5c0-10.3,0.1-34.1,0.1-42l-8.3,0.2c0,0-0.1,0-0.1,0l-8.2-0.2c0,7.9,0.1,31.6,0.1,42
		c0,1.4-1.1,2.5-2.5,2.5s-2.5-1.1-2.5-2.5c0-12.5-0.1-44.6-0.1-44.6c0-0.7,0.3-1.3,0.8-1.8c0.5-0.5,1.1-0.7,1.8-0.7l10.7,0.3
		l10.8-0.3c0.7,0,1.3,0.2,1.8,0.7c0.5,0.5,0.8,1.1,0.8,1.8c0,0.3-0.1,32.2-0.1,44.5C80.5,173.6,79.4,174.7,78,174.7z"/>
	<path d="M94.5,106.8c-0.9,0-1.7-0.4-2.1-1.2c0,0-2.9-4.7-5.8-8.8C73.2,77.8,59.3,57.6,49,38c-0.6-1.2-0.2-2.7,1-3.4
		c1.2-0.6,2.7-0.2,3.4,1C63.6,55,77.4,75.1,90.7,94c2.1,3,4.1,6.1,5.2,7.8c9.1,0,60.5,0,90.8,0c-13.1-20.5-32.9-55.7-36.9-62.8
		L137,38.8c-1.4,0-2.5-1.2-2.5-2.5c0-1.4,1.1-2.5,2.5-2.5c0,0,0,0,0,0l14.2,0.2c0.9,0,1.7,0.5,2.1,1.3c0.3,0.5,25.8,46.1,39.9,67.6
		c0.5,0.8,0.5,1.8,0.1,2.6s-1.3,1.3-2.2,1.3C159.2,106.8,94.5,106.8,94.5,106.8C94.5,106.8,94.5,106.8,94.5,106.8z"/>
	<path d="M115.6,176.5c-1.4,0-2.5-1.1-2.5-2.5v-66.2c0-1.4,1.1-2.5,2.5-2.5s2.5,1.1,2.5,2.5V174C118.1,175.4,117,176.5,115.6,176.5z
		"/>
	<path d="M30.2,102.3c0,0-0.1,0-0.1,0L9,101.2c-0.9,0-1.7-0.6-2.1-1.4c-0.4-0.8-0.4-1.7,0.1-2.5l39.6-62c0.5-0.7,1.2-1.1,2.1-1.2
		l63.3-0.4c0,0,0,0,0,0c1.4,0,2.5,1.1,2.5,2.5c0,1.4-1.1,2.5-2.5,2.5l-1.8,0l-60.2,0.4L13.5,96.4L29,97.2c4-5.4,21.9-29.7,29.2-39.2
		c0.8-1.1,2.4-1.3,3.5-0.4c1.1,0.8,1.3,2.4,0.4,3.5c-8.2,10.6-29.7,39.9-29.9,40.2C31.7,101.9,31,102.3,30.2,102.3z"/>
	<path d="M133.5,65.6c-1.4,0-2.5-1.1-2.5-2.5V25.2l-12.7-0.3c0,7.3-0.2,28.5-0.2,38.2c0,1.4-1.1,2.5-2.5,2.5s-2.5-1.1-2.5-2.5
		c0-11.8,0.2-40.5,0.2-40.8c0-0.7,0.3-1.3,0.8-1.8c0.5-0.5,1.1-0.7,1.8-0.7l17.7,0.4c1.4,0,2.4,1.1,2.4,2.5v40.3
		C136,64.5,134.9,65.6,133.5,65.6z"/>
</g>
</svg>
