<?xml version="1.0" encoding="utf-8"?>
<!-- Generator: Adobe Illustrator 21.1.0, SVG Export Plug-In . SVG Version: 6.00 Build 0)  -->
<svg version="1.1" xmlns="http://www.w3.org/2000/svg" xmlns:xlink="http://www.w3.org/1999/xlink" x="0px" y="0px"
	 viewBox="0 0 200 200" style="enable-background:new 0 0 200 200;" xml:space="preserve">
<style type="text/css">
	.st0{opacity:0.25;}
	.st1{fill:#FFFFFF;}
	.st2{fill:#49B8CC;}
</style>
<g id="Layer_2">
	<g class="st0">
		<circle cx="100" cy="100" r="88.5"/>
	</g>
	<path class="st1" d="M100,191c-50.2,0-91-40.8-91-91S49.8,9,100,9s91,40.8,91,91S150.2,191,100,191z M100,14c-47.4,0-86,38.6-86,86
		c0,47.4,38.6,86,86,86c47.4,0,86-38.6,86-86C186,52.6,147.4,14,100,14z"/>
</g>
<g id="Layer_1">
	<g>
		<path class="st2" d="M168.5,81.2c-0.1,6-1.6,11.7-4.2,17.2c-3.3,7.1-7.9,13.3-13,19.3c-6.4,7.6-13.5,14.6-20.8,21.4
			c-9.8,9-19.8,17.9-29.7,26.9c-0.9,0.8-0.9,0.8-1.8,0c-12.4-11.1-24.9-22-36.7-33.7c-6.7-6.6-13.1-13.3-18.8-20.9
			c-4.2-5.7-7.9-11.7-10.1-18.5c-2.3-7.2-2.8-14.5-0.4-21.7c3.9-11.6,12-18.7,24-20.9c13.1-2.4,24.2,1.7,33.2,11.4
			c3.1,3.3,5.9,6.8,8.8,10.2c0.8,0.9,0.8,0.9,1.6,0c2.8-3.3,5.6-6.5,8.5-9.8c6.1-7,13.8-11.2,23.1-12.3c9.4-1.1,17.9,1.2,25.2,7.3
			c6.1,5.1,9.5,11.8,10.6,19.6C168.3,78.2,168.4,79.7,168.5,81.2z"/>
	</g>
</g>
</svg>
