<?xml version="1.0" encoding="utf-8"?>
<!-- Generator: Adobe Illustrator 21.1.0, SVG Export Plug-In . SVG Version: 6.00 Build 0)  -->
<svg version="1.1" id="Layer_1" xmlns="http://www.w3.org/2000/svg" xmlns:xlink="http://www.w3.org/1999/xlink" x="0px" y="0px"
	 viewBox="0 0 200 200" style="enable-background:new 0 0 200 200;" xml:space="preserve">
<style type="text/css">
	.st0{fill:none;stroke:#000000;stroke-width:5;stroke-miterlimit:10;}
</style>
<path d="M173.9,192.2H28.1c-1.4,0-2.5-1.1-2.5-2.5s1.1-2.5,2.5-2.5h145.7c1.4,0,2.5,1.1,2.5,2.5S175.3,192.2,173.9,192.2z"/>
<rect x="32.5" y="96" width="5" height="82"/>
<rect x="167" y="96" width="5" height="82"/>
<path d="M12,110.9V83.1l89.5-52.5L190,83.1v26.8l-88.5-52.5L12,110.9z M17,85.9v16.2l84.5-50.5l83.5,49.5V85.9l-83.5-49.5L17,85.9z"
	/>
<rect x="15.8" y="100" transform="matrix(0.5383 -0.8428 0.8428 0.5383 -59.3729 96.6285)" width="85.4" height="5"/>
<path class="st0" d="M131.5,72.5"/>
<path class="st0" d="M169.5,138.5"/>
<rect x="144.5" y="62.5" transform="matrix(0.8554 -0.518 0.518 0.8554 -32.6135 91.1937)" width="5" height="83"/>
<rect x="35.5" y="94" width="27" height="5"/>
<rect x="141.5" y="94" width="28" height="5"/>
</svg>
