<?xml version="1.0" encoding="utf-8"?>
<!-- Generator: Adobe Illustrator 21.1.0, SVG Export Plug-In . SVG Version: 6.00 Build 0)  -->
<svg version="1.1" id="Layer_1" xmlns="http://www.w3.org/2000/svg" xmlns:xlink="http://www.w3.org/1999/xlink" x="0px" y="0px"
	 viewBox="0 0 200 200" style="enable-background:new 0 0 200 200;" xml:space="preserve">
<style type="text/css">
	.st0{fill:none;stroke:#000000;stroke-width:5;stroke-linecap:round;stroke-linejoin:round;stroke-miterlimit:10;}
</style>
<g>
	<path d="M125.5,181c-6.2,0-13.9,0-17-0.3c-20.5,0-40.9,0-61.4,0l-18.8,0c-12,0-18.3-6.2-18.5-18.5C9.6,153,9.7,82,9.8,79l0.2-10.2
		c0-0.1,0.1-16.4,0-24.1c-0.1-5.1,1.2-9.2,4-12c2.8-2.9,6.9-4.4,12.2-4.4c45.7,0,91.4,0,137.2,0c9.1,0,14.7,5.6,14.8,14.9
		c0,0,0,0.1,0,0.1c-0.3,8.6-0.7,26-0.7,26.2l-0.2,42.3l-0.2,13.7c0,1.4-1.1,2.5-2.5,2.5c0,0,0,0,0,0c-1.4,0-2.5-1.2-2.5-2.5
		l0.2-13.7l0.2-42.3c0-0.2,0.4-17.5,0.7-26.2c-0.1-4.5-1.9-9.9-9.8-9.9c-45.7,0-91.4,0-137.2,0c-3.9,0-6.8,1-8.7,2.9
		c-1.8,1.8-2.7,4.7-2.6,8.4c0.1,7.8,0,24.1,0,24.2L14.8,79c0,0.7-0.2,73.9,0,83.1c0.2,9.5,4.3,13.6,13.5,13.6l18.8,0
		c20.5,0,41,0,61.5,0c0.1,0,0.2,0,0.2,0c2.8,0.3,10.8,0.3,16.7,0.3c1.4,0,2.5,1.1,2.5,2.5S126.9,181,125.5,181z"/>
	<path d="M173.5,72h-159c-1.4,0-2.5-1.1-2.5-2.5s1.1-2.5,2.5-2.5h159c1.4,0,2.5,1.1,2.5,2.5S174.9,72,173.5,72z"/>
	<path class="st0" d="M59,31.6"/>
	<path class="st0" d="M137.1,28.7"/>
	<path class="st0" d="M59.7,30.1"/>
</g>
<path d="M155,194c-20.4,0-37-16.6-37-37s16.6-37,37-37s37,16.6,37,37S175.4,194,155,194z M155,125c-17.6,0-32,14.4-32,32
	s14.4,32,32,32s32-14.4,32-32S172.6,125,155,125z"/>
<path d="M167.5,167c-0.5,0-1-0.2-1.5-0.5l-12-9c-0.6-0.5-1-1.2-1-2v-21c0-1.4,1.1-2.5,2.5-2.5s2.5,1.1,2.5,2.5v19.8l11,8.3
	c1.1,0.8,1.3,2.4,0.5,3.5C169,166.7,168.3,167,167.5,167z"/>
<path d="M59.5,58c-4.7,0-8.5-3.8-8.5-8.5s3.8-8.5,8.5-8.5s8.5,3.8,8.5,8.5S64.2,58,59.5,58z M59.5,46c-1.9,0-3.5,1.6-3.5,3.5
	s1.6,3.5,3.5,3.5s3.5-1.6,3.5-3.5S61.4,46,59.5,46z"/>
<path d="M131.5,58c-4.7,0-8.5-3.8-8.5-8.5s3.8-8.5,8.5-8.5s8.5,3.8,8.5,8.5S136.2,58,131.5,58z M131.5,46c-1.9,0-3.5,1.6-3.5,3.5
	s1.6,3.5,3.5,3.5s3.5-1.6,3.5-3.5S133.4,46,131.5,46z"/>
<path d="M59.5,52c-1.4,0-2.5-1.1-2.5-2.5v-32c0-1.4,1.1-2.5,2.5-2.5s2.5,1.1,2.5,2.5v32C62,50.9,60.9,52,59.5,52z"/>
<path d="M131.5,52c-1.4,0-2.5-1.1-2.5-2.5v-32c0-1.4,1.1-2.5,2.5-2.5s2.5,1.1,2.5,2.5v32C134,50.9,132.9,52,131.5,52z"/>
<path d="M59.5,58c-4.7,0-8.5-3.8-8.5-8.5s3.8-8.5,8.5-8.5s8.5,3.8,8.5,8.5S64.2,58,59.5,58z M59.5,46c-1.9,0-3.5,1.6-3.5,3.5
	s1.6,3.5,3.5,3.5s3.5-1.6,3.5-3.5S61.4,46,59.5,46z"/>
<path d="M59.5,58c-4.7,0-8.5-3.8-8.5-8.5s3.8-8.5,8.5-8.5s8.5,3.8,8.5,8.5S64.2,58,59.5,58z M59.5,46c-1.9,0-3.5,1.6-3.5,3.5
	s1.6,3.5,3.5,3.5s3.5-1.6,3.5-3.5S61.4,46,59.5,46z"/>
</svg>
