<?xml version="1.0" encoding="utf-8"?>
<!-- Generator: Adobe Illustrator 21.1.0, SVG Export Plug-In . SVG Version: 6.00 Build 0)  -->
<svg version="1.1" id="Layer_1" xmlns="http://www.w3.org/2000/svg" xmlns:xlink="http://www.w3.org/1999/xlink" x="0px" y="0px"
	 viewBox="0 0 200 200" style="enable-background:new 0 0 200 200;" xml:space="preserve">
<path d="M78.6,149.7c-39.2,0-71.1-31.9-71.1-71.1S39.4,7.5,78.6,7.5s71.1,31.9,71.1,71.1S117.8,149.7,78.6,149.7z M78.6,12.5
	c-36.4,0-66.1,29.7-66.1,66.1s29.7,66.1,66.1,66.1s66.1-29.7,66.1-66.1S115,12.5,78.6,12.5z"/>
<path d="M181,188.2c-1.8,0-3.6-0.7-5-2.1L125,135c-2.7-2.7-2.7-7.2,0-9.9c2.7-2.7,7.2-2.7,9.9,0l51.1,51.1c2.7,2.7,2.7,7.2,0,9.9
	C184.6,187.5,182.8,188.2,181,188.2z"/>
</svg>
