<?xml version="1.0" encoding="utf-8"?>
<!-- Generator: Adobe Illustrator 21.1.0, SVG Export Plug-In . SVG Version: 6.00 Build 0)  -->
<svg version="1.1" id="Layer_1" xmlns="http://www.w3.org/2000/svg" xmlns:xlink="http://www.w3.org/1999/xlink" x="0px" y="0px"
	 viewBox="0 0 200 200" style="enable-background:new 0 0 200 200;" xml:space="preserve">
<style type="text/css">
	.st0{fill:none;}
	.st1{fill:#FFFFFF;}
</style>
<g>
	<rect x="66.5" y="90.8" class="st0" width="88.1" height="9.7"/>
	<rect x="66.5" y="104.9" class="st0" width="88.1" height="9.7"/>
	<rect x="66.5" y="76.7" class="st0" width="88.1" height="9.7"/>
	<path class="st0" d="M39.9,144.9c2.3,0,4.6,0,6.8-0.1l0-5.8H28.4c-0.3,0.2-0.5,0.5-0.8,0.7c0.6,0.7,1.3,1.5,1.9,2.3
		C30.8,144,34.3,145,39.9,144.9z"/>
	<path class="st0" d="M105.5,168.6c0,1-0.1,2-0.2,2.9h49.4v-9.7h-49.2C105.6,164.2,105.5,166.5,105.5,168.6z"/>
	<path class="st0" d="M90.5,141.4c0.3-0.6,0.7-1,1.1-1.5c-0.3-0.3-0.6-0.5-0.9-0.8H66.5v4.2h22.1C89.4,142.8,90,142.2,90.5,141.4z"
		/>
	<path class="st0" d="M94.8,136.8c3.4-2.1,7.1-1.9,10.3-1.7c0.9,0.1,1.8,0.1,2.7,0.1c0.8,0,1.5,0.4,1.9,1.1c1.6,2.8,2.3,5,2.2,6.9
		h42.7v-9.7H92.2C92.6,134.8,93.5,135.9,94.8,136.8z"/>
	<path class="st0" d="M103,150.7c0.9,2.3,1.5,4.5,1.9,6.7h49.8v-9.7h-45.2c-1.3,1-2.9,1.6-4.4,2.1
		C104.3,150.1,103.6,150.4,103,150.7z"/>
	<path class="st0" d="M62.1,123.3v-6.4v-14.1V88.6V74.5c0-1.2,1-2.2,2.2-2.2h92.5c1.2,0,2.2,1,2.2,2.2v14.1v14.1v14.1v14.1
		c0,0.1,0,0.1,0,0.2c0,0.1,0,0.1,0,0.2v14.1v14.1v13h10.2V53.8H51.3l-0.2,69.4C54.8,123.3,58.4,123.3,62.1,123.3z"/>
	<path class="st0" d="M90.3,128.7h64.3V119H66.5v4.2c3.3-0.1,6.6-0.2,9.9-0.4C82.9,122.4,87.7,124.5,90.3,128.7z"/>
	<polygon class="st0" points="186.6,49.4 186.6,33.5 37,33.5 37,49.4 49.1,49.4 171.4,49.4 	"/>
	<path d="M51.3,53.8h-4.4L46.7,123c1.5,0.1,2.9,0.1,4.4,0.2L51.3,53.8z"/>
	<path d="M169.2,172.6H159v1.1c0,1.2-1,2.2-2.2,2.2h-52.5c-0.2,0.4-0.3,0.8-0.5,1.1h67.7c1.2,0,2.2-1,2.2-2.2v-121h-4.4V172.6z"/>
	<path d="M188.8,29h-154c-1.2,0-2.2,1-2.2,2.2v20.4c0,1.2,1,2.2,2.2,2.2h12.1l0-2.2c0-1.2,1-2.2,2.2-2.2H37v-16h149.6v16h-15.2
		c1.2,0,2.2,1,2.2,2.2v2.2h15.2c1.2,0,2.2-1,2.2-2.2V31.3C191,30,190,29,188.8,29z"/>
	<path d="M171.4,49.4H49.1c-1.2,0-2.2,1-2.2,2.2l0,2.2h4.4h117.9h4.4v-2.2C173.6,50.4,172.7,49.4,171.4,49.4z"/>
	<path d="M64.3,86.4h2.2v-9.7h88.1v9.7h2.2c1.2,0,2.2,1,2.2,2.2V74.5c0-1.2-1-2.2-2.2-2.2H64.3c-1.2,0-2.2,1-2.2,2.2v14.1
		C62.1,87.4,63.1,86.4,64.3,86.4z"/>
	<path d="M156.8,90.8h-2.2v9.7h2.2c1.2,0,2.2,1,2.2,2.2V88.6C159,89.8,158,90.8,156.8,90.8z"/>
	<path d="M64.3,100.5h2.2v-9.7h-2.2c-1.2,0-2.2-1-2.2-2.2v14.1C62.1,101.5,63.1,100.5,64.3,100.5z"/>
	<path d="M64.3,90.8h2.2h88.1h2.2c1.2,0,2.2-1,2.2-2.2c0-1.2-1-2.2-2.2-2.2h-2.2H66.5h-2.2c-1.2,0-2.2,1-2.2,2.2
		C62.1,89.8,63.1,90.8,64.3,90.8z"/>
	<path d="M156.8,104.9h-2.2v9.7h2.2c1.2,0,2.2,1,2.2,2.2v-14.1C159,104,158,104.9,156.8,104.9z"/>
	<path d="M64.3,114.6h2.2v-9.7h-2.2c-1.2,0-2.2-1-2.2-2.2v14.1C62.1,115.6,63.1,114.6,64.3,114.6z"/>
	<path d="M64.3,104.9h2.2h88.1h2.2c1.2,0,2.2-1,2.2-2.2c0-1.2-1-2.2-2.2-2.2h-2.2H66.5h-2.2c-1.2,0-2.2,1-2.2,2.2
		C62.1,104,63.1,104.9,64.3,104.9z"/>
	<path d="M66.5,119h-2.2c-1.2,0-2.2-1-2.2-2.2v6.4c1.5,0,2.9,0,4.4-0.1V119z"/>
	<path d="M156.8,119h-2.2v9.7H90.3c0.1,0.1,0.2,0.3,0.2,0.4h66.3c1.1,0,2.1,0.9,2.2,2c0-0.1,0-0.1,0-0.2v-14.1
		C159,118.1,158,119,156.8,119z"/>
	<path d="M64.3,119h2.2h88.1h2.2c1.2,0,2.2-1,2.2-2.2c0-1.2-1-2.2-2.2-2.2h-2.2H66.5h-2.2c-1.2,0-2.2,1-2.2,2.2
		C62.1,118.1,63.1,119,64.3,119z"/>
	<path d="M66.5,143.3"/>
	<path d="M62.1,144.9C62.1,144.9,62.1,144.9,62.1,144.9"/>
	<path d="M156.8,133.1H92.1c0,0,0,0.1,0,0.1c0,0.1,0.1,0.2,0.1,0.3h62.4v9.7h2.2c1.2,0,2.2,1,2.2,2.2v-14.1c0-0.1,0-0.1,0-0.2
		C158.9,132.3,158,133.1,156.8,133.1z"/>
	<path d="M156.8,129.2H90.6c0.7,1.2,1.2,2.5,1.5,4h64.8c1.1,0,2.1-0.9,2.2-2C158.9,130,158,129.2,156.8,129.2z"/>
	<path d="M156.8,147.7h-2.2v9.7h2.2c1.2,0,2.2,1,2.2,2.2v-14.1C159,146.7,158,147.7,156.8,147.7z"/>
	<path d="M156.8,143.3h-2.2h-42.7c0,0.5-0.1,1-0.3,1.5c-0.4,1.3-1.2,2.2-2.2,2.9h45.2h2.2c1.2,0,2.2-1,2.2-2.2
		C159,144.3,158,143.3,156.8,143.3z"/>
	<path d="M156.8,161.8h-2.2v9.7h-49.4c0,0.4-0.1,0.8-0.2,1.1H159v-13C159,160.8,158,161.8,156.8,161.8z"/>
	<path d="M104.3,175.9h52.5c1.2,0,2.2-1,2.2-2.2v-1.1h-53.9C104.9,173.9,104.7,175,104.3,175.9z"/>
	<path d="M156.8,157.4h-2.2h-49.8c0.3,1.5,0.4,3,0.5,4.4h49.2h2.2c1.2,0,2.2-1,2.2-2.2C159,158.4,158,157.4,156.8,157.4z"/>
	<path class="st1" d="M85.9,177h-35C62.4,177.1,74.1,177.1,85.9,177z"/>
	<path class="st1" d="M100.7,172.6c0.1-0.4,0.1-0.7,0.2-1.1"/>
	<line class="st1" x1="62.1" y1="172.6" x2="62.1" y2="173.7"/>
	<path class="st1" d="M99,175.9c0.9-0.6,1.4-1.7,1.7-3.3"/>
	<path class="st1" d="M101,161.8c-0.1-1.4-0.3-2.9-0.6-4.4"/>
	<path d="M109.7,136.3c-0.4-0.7-1.1-1.1-1.9-1.1c-0.8,0-1.7-0.1-2.7-0.1c-3.2-0.2-6.9-0.5-10.3,1.7c0.2,0.1,0.4,0.2,0.5,0.3
		c0.5,0.3,0.9,0.8,1,1.3c3.6-2,7.7-1,11.4-1c1.5,2.6,2,4.4,1.9,5.8h2.2C112.1,141.3,111.4,139.1,109.7,136.3z"/>
	<path d="M100.8,177.3c0.5,0.3,0.9,0.7,1,1.3l0.1,0.3c0,0.1,0,0.2,0.1,0.2c0.7-0.6,1.3-1.3,1.8-2.1h-2.7
		C101,177.1,100.9,177.2,100.8,177.3z"/>
	<path d="M62.1,147.1v-1.6v-0.6c-3.6,0-7.3,0-11,0l0,2.2C54.8,147.1,58.4,147.1,62.1,147.1z"/>
	<path d="M27.7,143.3c2.3,3.3,7.6,3.9,12.2,3.8c2.3,0,4.5,0,6.8,0l0-2.2c-2.3,0-4.6,0-6.8,0.1c-5.5,0.1-9-0.9-10.4-2.8
		c-0.6-0.9-1.2-1.6-1.9-2.3c-0.6,0.5-1.2,0.9-1.8,1.2c0,0,0,0,0,0C26.4,141.7,27,142.4,27.7,143.3z"/>
	<path d="M105.4,161.8h-2.2c0.2,2.2,0.2,4.5,0.1,6.7c0,1.1-0.1,2.1-0.2,3h2.2c0.1-0.9,0.2-1.8,0.2-2.9
		C105.5,166.5,105.6,164.2,105.4,161.8z"/>
	<path d="M36.1,181.5c2.1-0.1,4.3-0.2,6.5-0.1c16.5,0.2,33.1,0.1,50,0c0.1,0,0.2,0,0.3,0l4.7-1.5l0,0c-0.1-0.4-0.1-0.7,0-1.1
		c-1.3,0.3-3,0.4-5,0.4c-16.7,0.1-33.3,0.2-50,0c-7-0.1-14.1,1-21.1-0.5c0.1,0.4,0.1,0.8,0,1.2l0,0l5.2,1.7"/>
	<path d="M100.2,149.8c1.2,2.5,2,5,2.5,7.6h2.2c-0.4-2.2-1-4.5-1.9-6.7c0.6-0.3,1.4-0.6,2.1-0.8c1.5-0.6,3.1-1.2,4.4-2.1h-5
		C102.9,148.3,101.3,148.8,100.2,149.8z"/>
	<path d="M17.2,178.6c0.2-0.7,0.7-1.2,1.3-1.4c-5.7-9.1-3-18.3,0.7-27.2c-1.6-4.7-6.3-1.6-9.8-4.2c0.3-2.6-0.9-5.7,1.5-8.2
		c4.3-0.6,8.1-0.7,11.5,1.1c0.1-0.6,0.5-1.1,1.1-1.5c0.1-0.1,0.3-0.2,0.4-0.3c-4.3-2.5-9-2.1-13.3-1.5c-0.5,0.1-0.9,0.3-1.3,0.6
		c-2.4,2.4-2.2,5.3-2.1,7.4c0,0.7,0.1,1.4,0,2c-0.1,0.8,0.2,1.6,0.9,2c2,1.5,4.2,1.6,5.9,1.7c1.8,0.1,2.4,0.2,2.8,0.8
		c-3.6,8.7-6.5,18.8,0.2,29c0,0,0,0,0-0.1L17.2,178.6z"/>
	<path d="M88.6,143.3h3.2c0.2-0.2,0.4-0.5,0.5-0.7c0.3-0.5,0.7-1,1-1.5c0,0-0.1,0-0.1-0.1c-0.6-0.3-1.2-0.7-1.7-1.1
		c-0.4,0.5-0.7,1-1.1,1.5C90,142.2,89.4,142.8,88.6,143.3z"/>
	<path d="M101.9,175.9c-0.2,0.4-0.5,0.8-0.8,1.1h2.7c0.2-0.4,0.4-0.7,0.5-1.1H101.9z"/>
	<path d="M46.7,144.9l0,2.2c1.5,0,2.9,0,4.4,0l0-2.2"/>
	<path d="M62.1,144.9v0.6C62.1,145.3,62.1,145.1,62.1,144.9C62.1,144.9,62.1,144.9,62.1,144.9z"/>
	<path d="M62.1,145.5v1.6c0.2,0,0.5,0,0.7,0C62.3,146.7,62.1,146.1,62.1,145.5z"/>
	<path d="M62.8,147.1c5.5,0,10.9,0,16.4,0c4.7,0,9.8-0.1,12.7-3.8h-3.2c-2.3,1.5-5.7,1.6-9.5,1.6l-8.2,0c-2.9,0-5.8,0-8.8,0
		c-0.1,0.2-0.1,0.4-0.1,0.6C62.1,146.1,62.3,146.7,62.8,147.1z"/>
	<path d="M104.4,147.7h5c1-0.7,1.8-1.6,2.2-2.9c0.2-0.5,0.3-1,0.3-1.5h-2.2C109.4,145.7,107,146.7,104.4,147.7z"/>
	<path d="M102.9,172.6h2.2c0.1-0.4,0.1-0.7,0.2-1.1h-2.2C103,171.9,103,172.3,102.9,172.6z"/>
	<path d="M102.9,172.6c-0.2,1.3-0.5,2.4-1,3.3h2.4c0.4-0.9,0.6-2,0.8-3.3H102.9z"/>
	<path d="M103.2,161.8h2.2c-0.1-1.4-0.3-2.9-0.5-4.4h-2.2C102.9,158.8,103.1,160.3,103.2,161.8z"/>
	<path d="M101.1,168.4c0,1.2-0.1,2.2-0.2,3h2.2c0.1-0.9,0.2-1.9,0.2-3c0.1-2.3,0.1-4.5-0.1-6.7H101
		C101.2,164.1,101.1,166.3,101.1,168.4z"/>
	<path d="M98.8,148.1c-0.8,0.6-1,1.7-0.6,2.7c1.1,2.2,1.8,4.4,2.2,6.6h2.2c-0.5-2.6-1.3-5.1-2.5-7.6c1.1-0.9,2.7-1.5,4.3-2.1h-5.1
		C99.1,147.8,98.9,147.9,98.8,148.1z"/>
	<path d="M62.1,149.3v-2.2c-3.7,0-7.3,0-11,0l0,2.2C54.8,149.3,58.4,149.3,62.1,149.3z"/>
	<path d="M96.3,140.1c-0.4,0.7-1.2,1.1-1.9,1.1c-0.3,0-0.6-0.1-0.9-0.2c-0.4,0.4-0.7,0.9-1,1.5c-0.2,0.3-0.3,0.5-0.5,0.7h2.7
		c2.8-4.2,6.2-4,10.4-3.7c0.5,0,1.1,0.1,1.6,0.1c1.1,2.1,1.1,3.2,0.9,3.6h2.2c0.2-1.4-0.3-3.2-1.9-5.8c-3.7,0-7.8-1-11.4,1
		C96.6,139,96.6,139.6,96.3,140.1z"/>
	<path d="M50.9,177h-2.1c-0.1,0-0.1,0-0.2,0c-2,0-4,0-6-0.1c-2.2,0-4.5,0.1-6.7,0.1c-5.2,0.2-10.2,0.4-15.1-0.9
		c-0.1,0-0.2,0-0.3-0.1c-4.9-7.7-3.3-15.5,0.8-25.4c0.2-0.5,0.2-1,0.1-1.5c-1.4-4.2-4.8-4.3-7-4.5c-1,0-1.8-0.1-2.6-0.3
		c0-0.4,0-0.8,0-1.2c-0.1-1.6-0.1-2.7,0.5-3.6c6.1-0.8,10.2-0.1,13.6,5c3,4.4,9.5,4.8,14.1,4.8c2.3,0,4.5,0,6.8-0.1l0-2.2
		c-2.3,0-4.5,0-6.8,0c-4.6,0-9.9-0.5-12.2-3.8c-0.6-0.9-1.2-1.7-1.9-2.3c-1.1,0.6-2.4,0.2-3-0.9c-0.3-0.5-0.3-1-0.2-1.5
		c-3.4-1.7-7.2-1.7-11.5-1.1c-2.4,2.5-1.2,5.6-1.5,8.2c3.5,2.6,8.2-0.5,9.8,4.2c-3.7,9-6.4,18.1-0.7,27.2c0.4-0.2,0.9-0.2,1.4,0
		c0.7,0.2,1.3,0.8,1.5,1.5c7,1.5,14.1,0.4,21.1,0.5c16.7,0.2,33.3,0.1,50,0c2,0,3.7-0.1,5-0.4c0.2-0.8,0.7-1.4,1.5-1.7
		c0.6-0.2,1.2-0.1,1.7,0.2c0.1-0.1,0.2-0.2,0.3-0.3H85.9C74.1,177.1,62.4,177.1,50.9,177z"/>
	<path d="M66.5,149.3c1.5,0,3,0,4.5,0l8.2,0c3.1,0,7.1,0,10.6-1.6H66.5V149.3z"/>
	<path d="M51.1,147.1c-1.5,0-2.9,0-4.4,0l0,2.2c1.5,0,2.9,0,4.4,0L51.1,147.1z"/>
	<path d="M48.8,177h2.1c-0.8,0-1.5,0-2.3,0C48.7,177,48.7,177,48.8,177z"/>
	<path d="M92.5,177c-2.2,0-4.4,0-6.7,0h15.2c0.3-0.3,0.6-0.7,0.8-1.1H99C97.8,176.8,95.8,177,92.5,177z"/>
	<path d="M66.5,147.7h-2.2c-0.6,0-1.1-0.2-1.5-0.6c-0.2,0-0.5,0-0.7,0v2.2c1.5,0,2.9,0,4.4,0V147.7z"/>
	<path d="M79.1,147.1c-5.5,0-10.9,0-16.4,0c0.4,0.4,0.9,0.6,1.5,0.6h2.2h23.2c1.8-0.8,3.3-2.1,4.5-4c0.1-0.2,0.2-0.3,0.3-0.4h-2.7
		C89,147,83.8,147.1,79.1,147.1z"/>
	<path d="M104.4,147.7c2.5-1,5-1.9,5.3-4.4h-2.2c0,0,0,0,0,0.1c-0.3,1-6,3.7-7.8,4.4"/>
	<path d="M100.9,171.5c0,0.4-0.1,0.8-0.2,1.1h2.2c0.1-0.4,0.1-0.7,0.2-1.1H100.9z"/>
	<path d="M99,175.9h2.9c0.5-0.9,0.8-1.9,1-3.3h-2.2"/>
	<path d="M100.4,157.4c0.3,1.5,0.5,3,0.6,4.4h2.2c-0.1-1.5-0.3-3-0.6-4.4H100.4z"/>
	<path d="M51,169.4l0,2.2h11v-2.2C58.4,169.4,54.7,169.4,51,169.4z"/>
	<path d="M78.7,169.4c0-1.2-1-2.2-2.2-2.2h-10v2.2c3.3,0,6.7,0,10,0c-3.3,0-6.7,0-10,0v2.1h10.8C78.1,171.2,78.7,170.4,78.7,169.4z"
		/>
	<path d="M62.1,169.4v-2.2H51l0,2.2C54.7,169.4,58.4,169.4,62.1,169.4z"/>
	<path d="M42.6,169.4c1.4,0,2.7,0,4.1,0l0-2.2h-4.1c-1.2,0-2.2,1-2.2,2.2c0,1.2,1,2.2,2.2,2.2h4.1l0-2.2
		C45.3,169.4,43.9,169.4,42.6,169.4z"/>
	<path d="M51,169.4l0-2.2h-4.4l0,2.2C48.1,169.4,49.6,169.4,51,169.4z"/>
	<path d="M46.6,169.4l0,2.2H51l0-2.2C49.6,169.4,48.1,169.4,46.6,169.4z"/>
	<path d="M66.5,169.4c-1.5,0-2.9,0-4.4,0v2.2h14.4c0.3,0,0.5-0.1,0.8-0.1H66.5V169.4z"/>
	<path d="M62.1,169.4c1.5,0,2.9,0,4.4,0v-2.2h-4.4V169.4z"/>
	<path d="M89.9,133.7c0.4,1.8,1.5,3.4,3.1,4.5c0.6-0.6,1.2-1,1.8-1.4c-1.4-0.9-2.3-2-2.7-3.2h-2.3C89.9,133.6,89.9,133.7,89.9,133.7
		z"/>
	<path d="M29.1,133.7c1.6-7.5,7.6-9.1,13.4-8.7c1.4,0.1,2.8,0.2,4.2,0.2l0-2.2c-1.4-0.1-2.7-0.1-4.1-0.2
		c-8.6-0.5-14.2,3.2-15.7,10.4c-0.3,1.4-1.3,2.7-2.9,3.7c0.7,0.4,1.3,0.8,1.9,1.3C27.5,137.1,28.7,135.5,29.1,133.7z"/>
	<path d="M62.1,125.5v-2.2c-3.6,0-7.3,0-10.9-0.1l0,2.2C54.8,125.5,58.4,125.5,62.1,125.5z"/>
	<path d="M26.9,139.1c0.2,0.2,0.5,0.4,0.7,0.7c0.3-0.2,0.5-0.5,0.8-0.7H26.9z"/>
	<path d="M92.2,139.1h-1.6c0.3,0.3,0.6,0.5,0.9,0.8C91.8,139.6,92,139.3,92.2,139.1z"/>
	<path d="M87.6,128.7h2.7c-2.6-4.3-7.4-6.3-14-5.9c-3.3,0.2-6.6,0.3-9.9,0.4v2.2c3.3-0.1,6.7-0.2,10-0.4
		C80.7,124.7,85,125.5,87.6,128.7z"/>
	<path d="M51.1,125.4l0-2.2c-1.5,0-2.9-0.1-4.4-0.2l0,2.2C48.2,125.3,49.7,125.3,51.1,125.4z"/>
	<path d="M88,129.2h2.6c-0.1-0.1-0.2-0.3-0.2-0.4h-2.7C87.7,128.9,87.9,129,88,129.2z"/>
	<path d="M66.5,125.4v-2.2c-1.5,0-2.9,0.1-4.4,0.1v2.2C63.5,125.5,65,125.4,66.5,125.4z"/>
	<path d="M89.9,133.6h2.3c0-0.1-0.1-0.2-0.1-0.3c0,0,0-0.1,0-0.1h-2.3C89.8,133.3,89.9,133.4,89.9,133.6z"/>
	<path d="M89.8,133.1h2.3c-0.3-1.5-0.8-2.8-1.5-4H88C88.8,130.2,89.4,131.6,89.8,133.1z"/>
	<path d="M92.2,139.1c-0.2,0.2-0.4,0.5-0.6,0.8c0.5,0.4,1.1,0.8,1.7,1.1c0,0,0.1,0,0.1,0.1c1-1.2,2-2,3-2.6c-0.2-0.5-0.5-1-1-1.3
		c-0.2-0.1-0.4-0.2-0.5-0.3c-0.6,0.4-1.2,0.9-1.8,1.4c0.4,0.3,0.8,0.6,1.3,0.9H92.2z"/>
	<path d="M22.6,138.6c1.1,0.6,2.2,1.4,3.2,2.4c0,0,0,0,0,0c0.7-0.4,1.3-0.8,1.8-1.2c-0.2-0.2-0.5-0.5-0.7-0.7h-2.2
		c0.5-0.2,0.9-0.5,1.3-0.8c-0.6-0.5-1.3-1-1.9-1.3c-0.1,0.1-0.3,0.2-0.4,0.3C23.1,137.5,22.7,138,22.6,138.6z"/>
	<path d="M93.4,141.1c0.3,0.1,0.6,0.2,0.9,0.2c0.8,0,1.5-0.4,1.9-1.1c0.3-0.5,0.3-1.1,0.2-1.7C95.4,139,94.4,139.9,93.4,141.1z"/>
	<path d="M22.8,140.1c0.6,1.1,1.9,1.4,3,0.9c-1-1-2.1-1.8-3.2-2.4C22.4,139.1,22.5,139.6,22.8,140.1z"/>
	<path d="M62.1,127.7v-2.2c-3.6,0-7.3,0-10.9-0.1l0,2.2C54.8,127.7,58.4,127.7,62.1,127.7z"/>
	<path d="M84.4,128.7h3.2c-2.7-3.2-6.9-4-11.2-3.7c-3.3,0.2-6.7,0.3-10,0.4v2.2"/>
	<path d="M31.2,134.2c0.7-3.2,2.6-7.5,11.2-7c1.4,0.1,2.9,0.2,4.3,0.2l0-2.2c-1.4-0.1-2.8-0.1-4.2-0.2c-5.8-0.3-11.8,1.2-13.4,8.7
		c-0.4,1.8-1.6,3.4-3.1,4.5c0.3,0.3,0.6,0.5,0.9,0.8h1.5C29.9,137.7,30.8,136,31.2,134.2z"/>
	<path d="M87.8,134.2c0.4,1.8,1.4,3.5,2.8,4.9h1.6c0.3-0.3,0.5-0.6,0.8-0.9c-1.5-1.2-2.7-2.7-3.1-4.5c0,0,0-0.1,0-0.1h-2.3
		C87.7,133.8,87.7,134,87.8,134.2z"/>
	<path d="M51.1,127.6l0-2.2c-1.5,0-2.9-0.1-4.4-0.2l0,2.2C48.2,127.5,49.7,127.5,51.1,127.6z"/>
	<path d="M66.5,125.4c-1.5,0-2.9,0.1-4.4,0.1v2.2c1.5,0,2.9,0,4.4-0.1V125.4z"/>
	<path d="M87.6,128.7h-3.2c0.2,0.1,0.4,0.3,0.6,0.4h3C87.9,129,87.7,128.9,87.6,128.7z"/>
	<path d="M87.6,133.6h2.3c0-0.1-0.1-0.3-0.1-0.4h-2.3C87.6,133.3,87.6,133.4,87.6,133.6z"/>
	<path d="M87.5,133.1h2.3c-0.4-1.6-1-2.9-1.8-4h-3C86.4,130.3,87.1,131.8,87.5,133.1z"/>
	<path d="M94.3,139.1c-0.5-0.3-0.9-0.5-1.3-0.9c-0.3,0.3-0.6,0.5-0.8,0.9H94.3z"/>
	<path d="M24.7,139.1h2.2c-0.3-0.3-0.6-0.6-0.9-0.8C25.6,138.5,25.2,138.8,24.7,139.1z"/>
	<path class="st1" d="M21.4,179.9l-0.1,0.3c-0.1,0.2-0.1,0.4-0.2,0.6"/>
	<path d="M19.9,188.4c-2-3.2-1.6-5.6-0.9-7.9c-0.6-0.1-1.1-0.4-1.4-0.9c-0.1-0.2-0.3-0.4-0.4-0.6c-0.8,2.7-1.9,6.1,0.9,10.6
		c0.5,0.8,1.5,1.2,2.5,1c1.9-0.5,4-0.3,6.3-0.1c1.3,0.1,2.6,0.2,4,0.2c3.2,0,6.5-0.6,9.6-3.5c0.9-0.8,1-2.2,0.2-3.1
		c-0.8-0.9-2.2-1-3.1-0.2c-0.3,0.3-0.7,0.6-1.1,0.8l2.5,0.8C32.9,191,25.9,186.6,19.9,188.4z"/>
	<path d="M19,180.5c0.1-0.4,0.3-0.8,0.4-1.3l2.1,0.7l0,0c0.1-0.4,0.1-0.9,0-1.2c-0.4-0.1-0.8-0.2-1.2-0.3h-0.9
		c-0.3-0.4-0.5-0.8-0.8-1.2c-0.6,0.2-1.1,0.7-1.3,1.4l-0.1,0.3c0,0,0,0,0,0.1c0.1,0.2,0.3,0.4,0.4,0.6
		C17.9,180.1,18.4,180.4,19,180.5z"/>
	<path d="M20,177.1c-0.5-0.1-1-0.1-1.4,0c0.2,0.4,0.5,0.8,0.8,1.2h0.9c0.4,0.1,0.8,0.2,1.2,0.3C21.3,177.9,20.7,177.4,20,177.1z"/>
	<path d="M27.3,186c-2-0.2-4.1-0.4-6.2-0.1c-0.8-1.9-0.4-3.3,0.1-5.1c-0.5-0.1-0.9-0.2-1.4-0.3c-0.3,0.1-0.6,0-0.8,0
		c-0.7,2.3-1,4.7,0.9,7.9c6-1.7,13,2.6,19.1-2.9l-2.5-0.8C33.7,186.5,30.7,186.3,27.3,186z"/>
	<path d="M19,180.5c0.3,0,0.5,0.1,0.8,0c0.5,0.1,0.9,0.2,1.4,0.3c0.1-0.2,0.1-0.4,0.2-0.6l0.1-0.3l-2.1-0.7
		C19.2,179.7,19.1,180.1,19,180.5z"/>
	<path d="M99.1,188.4c-6-1.7-13,2.6-19.1-2.9l2.5-0.8c-0.4-0.2-0.7-0.5-1.1-0.8c-0.9-0.8-2.3-0.7-3.1,0.2c-0.8,0.9-0.7,2.3,0.2,3.1
		c3.1,2.8,6.4,3.5,9.6,3.5c1.4,0,2.7-0.1,4-0.2c2.3-0.2,4.5-0.4,6.3,0.1c0.9,0.3,2-0.1,2.5-1c2.7-4.4,1.8-7.7,1-10.4
		c-0.6,0.5-1.2,0.8-2,1.1C100.7,182.6,101.2,185.1,99.1,188.4z"/>
	<path d="M101.8,178.6c-0.2-0.6-0.6-1-1-1.3c-0.8,0.7-1.9,1.2-3.2,1.5c-0.1,0.4-0.1,0.7,0,1.1l0,0l2.1-0.7c0.1,0.4,0.2,0.7,0.3,1.1
		c0.7-0.3,1.4-0.7,2-1.1c0-0.1,0-0.2-0.1-0.2L101.8,178.6z"/>
	<path d="M99,177.1c-0.8,0.2-1.3,0.9-1.5,1.7c1.4-0.3,2.4-0.8,3.2-1.5C100.2,177,99.6,176.9,99,177.1z"/>
	<path d="M99.1,188.4c2.1-3.3,1.6-5.7,0.9-8.1c-0.6,0.3-1.3,0.5-2.1,0.6c0.5,1.7,0.8,3.1,0,5c-2.1-0.3-4.2-0.1-6.2,0.1
		c-3.4,0.3-6.4,0.6-9.2-1.3l-2.5,0.8C86.1,191,93.1,186.6,99.1,188.4z"/>
	<path d="M97.9,180.9c0.8-0.2,1.5-0.4,2.1-0.6c-0.1-0.4-0.2-0.7-0.3-1.1l-2.1,0.7l0.1,0.3C97.7,180.5,97.8,180.7,97.9,180.9z"/>
</g>
</svg>
