<?xml version="1.0" encoding="utf-8"?>
<!-- Generator: Adobe Illustrator 21.1.0, SVG Export Plug-In . SVG Version: 6.00 Build 0)  -->
<svg version="1.1" xmlns="http://www.w3.org/2000/svg" xmlns:xlink="http://www.w3.org/1999/xlink" x="0px" y="0px"
	 viewBox="0 0 200 200" style="enable-background:new 0 0 200 200;" xml:space="preserve">
<style type="text/css">
	.st0{fill:none;stroke:#000000;stroke-width:3;stroke-linecap:round;stroke-linejoin:round;stroke-miterlimit:10;}
</style>
<g id="Layer_2">
</g>
<g id="Layer_1">
	<g>
		<path d="M27.2,95.7c-0.2,0-0.3,0-0.5-0.1c-0.8-0.3-1.2-1.1-0.9-1.9c1-2.9,2.1-5.9,3.2-9c4-11.2,8.5-23.8,12.6-34.1
			c3-7.4,8.5-11.3,16.9-11.6c26.9-1.3,54.8-1.3,83,0c10.3,0.5,16.1,5.2,19.3,15.9c1,3.4,2.5,6.8,3.9,10c1.5,3.6,3.1,7.3,4.2,11.1
			c0.7,2.3,1.4,4.4,2.2,6.7c1.2,3.5,2.4,7,3.3,11.1c0.2,0.8-0.3,1.6-1.1,1.8c-0.8,0.2-1.6-0.3-1.8-1.1c-0.9-3.9-2.1-7.4-3.2-10.8
			c-0.7-2.2-1.5-4.5-2.2-6.9c-1-3.6-2.6-7.2-4.1-10.7c-1.4-3.3-2.9-6.8-4-10.3c-2.9-9.5-7.5-13.4-16.6-13.8
			c-28.1-1.2-55.9-1.2-82.7,0c-7.2,0.3-11.7,3.4-14.3,9.8c-4.1,10.3-8.6,22.9-12.6,34c-1.1,3.1-2.2,6.1-3.2,9
			C28.4,95.3,27.8,95.7,27.2,95.7z"/>
		<path d="M155.1,96.6c-0.7,0-1.4-0.5-1.5-1.3c-1.3-9.6-5-20.7-10.6-32c-3.8-7.5-11.5-9-17.3-8.8c-11.3,0.2-22.8,0.2-33.8,0.2
			c-5.5,0-11,0-16.5,0c-11,0-15.3,3.3-19.6,14.7C55,71.6,53.9,74,53,76.2c-2.7,6.1-5.4,12.4-5.4,18.9c0,0.8-0.7,1.5-1.5,1.5
			c0,0,0,0,0,0c-0.8,0-1.5-0.7-1.5-1.5c0-7.1,2.9-13.7,5.7-20.1c1-2.3,2-4.5,2.8-6.7c4.7-12.6,10.1-16.7,22.4-16.7
			c5.5,0,11,0,16.5,0c11.1,0,22.5,0.1,33.8-0.2c9.6-0.2,16.5,3.4,20,10.5c5.8,11.6,9.5,22.9,10.9,32.9c0.1,0.8-0.5,1.6-1.3,1.7
			C155.2,96.6,155.1,96.6,155.1,96.6z"/>
		<path d="M99,154.4c-18.8,0-37.4,0-53-0.1c-0.8,0-1.5-0.7-1.5-1.5c0-0.8,0.7-1.5,1.5-1.5c0,0,0,0,0,0c27.6,0.1,65,0.1,95.2,0
			c1.8,0,3.5,0,5.2,0c1.7-0.1,3.4-0.2,5.1-0.3c0.8-0.1,1.5,0.6,1.6,1.4c0.1,0.8-0.6,1.5-1.4,1.6c-1.8,0.1-3.5,0.2-5.3,0.3
			c-1.7,0-3.5,0-5.3,0C128,154.4,113.5,154.4,99,154.4z"/>
		<path d="M29.6,155.4c-0.4,0-0.8-0.2-1.1-0.5c-1.3-1.5-1.7-1.7-2.8-2.1c-0.6-0.2-1.3-0.5-2.3-1c-4-1.9-8.5-5-8.3-11.8
			c0.2-5.4,0.1-10.9,0.1-16.3c0-5.3-0.1-10.8,0.1-16.2c0.1-4.4,1.8-8.3,4.8-10.9c2.8-2.4,6.5-3.5,10.4-3c10.1,1.2,20.4,1,30.4,0.9
			c2,0,4.1-0.1,6.1-0.1c11.2-0.1,22.7,0,33.7,0.1c23,0.2,46.7,0.3,70-1c7.4-0.4,12.9,3.6,14.6,10.7c0.3,1.4,0.5,2.8,0.6,4.4
			c0,0.1,0,0.1,0,0.2c-0.3,3.6-0.1,7.9,0.2,12.4c0.2,3,0.4,6.1,0.4,9.2c0,2.1,0,4-0.2,5.7c-0.9,9.8-8.6,17.3-18.2,17.9
			c-0.8,0-1.5-0.6-1.6-1.4s0.6-1.5,1.4-1.6c8.2-0.5,14.7-6.9,15.4-15.2c0.1-1.6,0.2-3.4,0.2-5.4c0-3-0.2-6-0.4-9
			c-0.3-4.6-0.6-9-0.2-12.8c0-1.3-0.2-2.5-0.5-3.7c-1.4-5.7-5.6-8.7-11.5-8.4c-23.4,1.4-47.2,1.2-70.2,1c-11-0.1-22.5-0.2-33.7-0.1
			c-2,0-4.1,0-6.1,0.1c-10.1,0.1-20.5,0.3-30.8-0.9C27,96.3,24.2,97.1,22,99c-2.3,2-3.7,5.1-3.8,8.7c-0.2,5.4-0.1,10.8-0.1,16.1
			c0,5.4,0.1,10.9-0.1,16.4c-0.1,4.7,2.6,7,6.6,9c0.9,0.4,1.5,0.6,2,0.8c1.5,0.6,2.3,0.9,4,3c0.5,0.6,0.5,1.6-0.2,2.1
			C30.3,155.3,30,155.4,29.6,155.4z"/>
		<path class="st0" d="M59.7,95.1"/>
	</g>
	<path d="M40.5,168.5h-3.3c-5,0-9.1-4.1-9.1-9.1v-6.5c0-0.2,0-0.4,0.1-0.6c0.4-1,0.4-1,10.5-0.9c3.7,0,8.3,0.1,9.1,0
		c0.3-0.1,0.6,0,0.9,0.1c0.6,0.2,0.9,0.8,0.9,1.4v6.5C49.7,164.4,45.6,168.5,40.5,168.5z M31.1,154.3v5.1c0,3.4,2.8,6.1,6.1,6.1h3.3
		c3.4,0,6.1-2.8,6.1-6.1v-5c-1.5,0-3.9,0-7.9,0C36,154.3,32.9,154.3,31.1,154.3z"/>
	<path d="M161.6,168.5h-3.3c-5,0-9.1-4.1-9.1-9.1v-6.5c0-0.8,0.6-1.4,1.3-1.5c0.7-0.1,4.6,0,11.1,0c3,0,6.4,0,7.3,0
		c0.1,0,0.3,0,0.4,0c0.8,0.1,1.5,0.8,1.4,1.6c0,0.2,0,0.3-0.1,0.5v6C170.7,164.4,166.6,168.5,161.6,168.5z M152.2,154.3v5.1
		c0,3.4,2.8,6.1,6.1,6.1h3.3c3.4,0,6.1-2.8,6.1-6.1v-5c-0.2,0-0.5,0-0.8,0c-1.4,0-3.3,0-5.4,0C158.3,154.3,154.3,154.3,152.2,154.3z
		"/>
	<path d="M53.1,140.2c-8.9,0-16.2-7.3-16.2-16.2s7.3-16.2,16.2-16.2s16.2,7.3,16.2,16.2S62,140.2,53.1,140.2z M53.1,110.7
		c-7.3,0-13.2,5.9-13.2,13.2s5.9,13.2,13.2,13.2s13.2-5.9,13.2-13.2S60.4,110.7,53.1,110.7z"/>
	<path d="M147.9,140.2c-8.9,0-16.2-7.3-16.2-16.2s7.3-16.2,16.2-16.2s16.2,7.3,16.2,16.2S156.9,140.2,147.9,140.2z M147.9,110.7
		c-7.3,0-13.2,5.9-13.2,13.2s5.9,13.2,13.2,13.2s13.2-5.9,13.2-13.2S155.2,110.7,147.9,110.7z"/>
	<path d="M191,168.5H10c-0.8,0-1.5-0.7-1.5-1.5s0.7-1.5,1.5-1.5h181c0.8,0,1.5,0.7,1.5,1.5S191.8,168.5,191,168.5z"/>
</g>
</svg>
