<?xml version="1.0" encoding="utf-8"?>
<!-- Generator: Adobe Illustrator 21.1.0, SVG Export Plug-In . SVG Version: 6.00 Build 0)  -->
<svg version="1.1" id="Layer_1" xmlns="http://www.w3.org/2000/svg" xmlns:xlink="http://www.w3.org/1999/xlink" x="0px" y="0px"
	 viewBox="0 0 200 200" style="enable-background:new 0 0 200 200;" xml:space="preserve">
<g>
	<path d="M62.5,192.9c-3.1,0-6.2,0-9.4-0.1c-3.3,0-7-2.1-8-6.5c-0.3-1.1-0.3-2.2-0.4-3.3c0-0.7-0.1-1.3-0.2-1.9
		c-0.2-1.4-0.3-2.8-0.4-4.2c0-0.5-0.1-1-0.1-1.4c-0.1-1.4,0.9-2.6,2.3-2.8c1.4-0.1,2.6,0.9,2.8,2.3c0,0.5,0.1,1,0.1,1.5
		c0.1,1.3,0.2,2.6,0.4,3.8c0.1,0.8,0.2,1.5,0.2,2.3c0.1,0.9,0.1,1.8,0.3,2.6c0.5,2.3,2.5,2.5,3.1,2.5c6.4,0.1,12.3,0.1,18.2,0
		c1.5,0,3.1-1.1,3.3-3.6c0.2-3.4,0.4-6.6,0.9-9.8c0.2-1.1,0.2-2.2,0.3-3.4c0.1-1,0.1-2,0.2-3c0.2-1.3,0.3-2.7,0.4-4
		c0.1-1.9,0.3-3.8,0.6-5.7c0.2-1.3,0.3-2.6,0.3-4c0-0.8,0.1-1.7,0.2-2.5c0.2-2.2,0.4-4.4,0.6-6.6l0.5-5.4c0.1-1.5,0.3-2.9,0.4-4.4
		c0.4-6,2.9-10.9,7.6-14.6c3.1-2.4,4.6-5.7,4.7-9.6c0-5.8,0-11.5,0-17.3c0-6,0-12,0-17.9c0-3.6-1.4-6.2-4.5-8.1
		c-1.3-0.8-2.9-1.2-4.7-1.2c-1.1,0-2.2,0-3.3,0c-1.9,0-3.8,0-5.6,0c-0.1,0-0.5,0.2-0.8,0.3c-0.7,0.3-1.7,0.6-2.9,0.5
		c-0.7-0.1-1.3-0.3-1.9-0.5c-0.5-0.1-0.9-0.3-1.2-0.3c-2.3,0-5.1,0-7.9,0c-0.7,0-1.2,0.1-1.7,0.3c-1.3,0.6-2.6,0.6-3.9,0
		c-0.5-0.2-1.1-0.3-1.8-0.3c-1.4,0-2.7,0-4,0c-2,0-3.9,0-5.7,0.1c-2,0.2-3.7,1-5.1,2.3c-1.9,1.9-2.9,4.1-2.8,6.8
		c0.1,6.7,0,38.5,0,38.8c0,1.4-1.1,2.5-2.5,2.5c0,0,0,0,0,0c-1.4,0-2.5-1.1-2.5-2.6c0-0.3,0-32,0-38.7c0-4.1,1.4-7.6,4.3-10.5
		c2.3-2.2,5.1-3.5,8.3-3.8c2.1-0.2,4.2-0.2,6.2-0.1c1.3,0,2.6,0,3.8,0c1.4,0,2.7,0.2,3.9,0.7c1.1-0.5,2.3-0.7,3.7-0.7
		c2.8,0,5.5,0,7.8,0c1.1,0,2,0.3,2.8,0.5c0.3,0.1,0.6,0.2,0.9,0.2c0.1,0,0.4-0.1,0.6-0.2c0.7-0.2,1.6-0.5,2.6-0.6c1.9,0,3.7,0,5.6,0
		c1.1,0,2.2,0,3.3,0c2.8,0,5.2,0.6,7.3,2c4.6,2.8,7,7,7,12.5c0,6,0,11.9,0,17.9c0,5.8,0,11.5,0,17.3c0,5.5-2.3,10.2-6.6,13.6
		c-3.5,2.8-5.3,6.3-5.6,10.9c-0.1,1.5-0.2,3-0.4,4.6l-0.5,5.4c-0.2,2.2-0.4,4.4-0.6,6.6c-0.1,0.8-0.1,1.6-0.2,2.3
		c-0.1,1.4-0.2,2.9-0.4,4.4c-0.3,1.8-0.4,3.5-0.5,5.4c-0.1,1.4-0.2,2.8-0.4,4.2c-0.1,0.9-0.2,1.8-0.2,2.7c-0.1,1.2-0.1,2.5-0.3,3.8
		c-0.4,3-0.7,6-0.9,9.3c-0.3,4.8-3.8,8.3-8.3,8.3C68.5,192.9,65.6,192.9,62.5,192.9z M69.8,62.3L69.8,62.3L69.8,62.3z"/>
	<path d="M62.3,55.2c-3.6,0-6.9-0.7-9.9-2.3c-2.6-1.3-4.8-3-7-5.3c-3.2-3.5-5.1-7.7-5.6-12.6c-0.5-4.8,0.4-9.3,2.7-13.3
		c4.3-7.6,11.2-11.6,19.8-11.7c5.9-0.1,11.3,2.1,15.6,6.3c3.5,3.4,5.7,7.4,6.5,12c0.1,0.7,0.2,1.4,0.2,2c0,0.6,0.1,1.2,0.2,1.7
		c0,0.2,0.1,0.4,0.1,0.6c0,0.1,0,0.2,0,0.4c0,0.4-0.1,0.8-0.1,1.1c-0.2,1.7-0.4,3.4-0.9,5.2c-1.6,5.3-4.9,9.5-9.7,12.5
		c-3.1,2-6.5,3.1-10,3.3C63.6,55.2,63,55.2,62.3,55.2z M62.6,15.1c-0.1,0-0.2,0-0.3,0c-6.9,0.1-12,3.1-15.4,9.2
		c-1.8,3.1-2.5,6.5-2.1,10.2c0.4,3.7,1.8,7,4.3,9.7c1.7,1.8,3.5,3.2,5.5,4.2c2.7,1.4,5.7,1.9,9.2,1.7c2.7-0.2,5.2-1,7.6-2.5
		c3.8-2.4,6.2-5.6,7.5-9.7c0.4-1.3,0.6-2.7,0.7-4.2c0-0.3,0.1-0.6,0.1-0.9c-0.1-0.7-0.2-1.4-0.2-2c0-0.5-0.1-1.1-0.2-1.5
		c-0.7-3.5-2.3-6.6-5.1-9.3C71.1,16.7,67.1,15.1,62.6,15.1z"/>
	<path d="M46.4,177.9c-1.3,0-2.4-1-2.5-2.3c-0.9-10.9-2.6-32.2-2.9-34.5c-0.2-1.3-0.3-2.6-0.4-3.8c-0.1-1.5-0.2-2.8-0.5-4.2
		c-0.6-3.9-1.8-6.1-3.6-7c-3.7-1.7-8.3-8.4-8.3-11.2c0-1.2,0.7-2.2,1.8-2.6c1.3-0.5,2.8,0.1,3.3,1.4c0.2,0.5,0.2,1,0.1,1.5
		c0.6,1.6,3.3,5.5,5.2,6.3c5.2,2.4,6.2,8.7,6.5,10.8c0.3,1.6,0.4,3.1,0.5,4.6c0.1,1.2,0.2,2.4,0.3,3.5c0.4,3.1,2.9,33.5,3,34.8
		c0.1,1.4-0.9,2.6-2.3,2.7C46.5,177.8,46.4,177.9,46.4,177.9z M31.8,116.9C31.8,116.9,31.8,116.9,31.8,116.9
		C31.8,116.9,31.8,116.9,31.8,116.9z M31.8,116.9C31.8,116.9,31.8,116.9,31.8,116.9C31.8,116.9,31.8,116.9,31.8,116.9z"/>
</g>
<path d="M62.8,193.5c-1.4,0-2.5-1.1-2.5-2.5v-61.1c0-1.4,1.1-2.5,2.5-2.5c1.4,0,2.5,1.1,2.5,2.5V191
	C65.3,192.4,64.2,193.5,62.8,193.5z"/>
<path d="M42.9,132.9c-1.4,0-2.5-1.1-2.5-2.5V64.1c0-1.4,1.1-2.5,2.5-2.5s2.5,1.1,2.5,2.5v66.2C45.5,131.7,44.3,132.9,42.9,132.9z"/>
<path d="M81.6,138c-1.4,0-2.5-1.1-2.5-2.5V64.1c0-1.4,1.1-2.5,2.5-2.5s2.5,1.1,2.5,2.5v71.3C84.2,136.8,83,138,81.6,138z"/>
<g>
	<path d="M138.1,192.9c-3.1,0-6.2,0-9.4-0.1c-3.3,0-7-2.1-8-6.5c-0.3-1.1-0.3-2.2-0.4-3.3c0-0.7-0.1-1.3-0.2-1.9
		c-0.2-1.4-0.3-2.8-0.4-4.2c0-0.5-0.1-1-0.1-1.4c-0.1-1.4,0.9-2.6,2.3-2.8c1.4-0.1,2.6,0.9,2.8,2.3c0,0.5,0.1,1,0.1,1.5
		c0.1,1.3,0.2,2.6,0.4,3.8c0.1,0.8,0.2,1.5,0.2,2.3c0.1,0.9,0.1,1.8,0.3,2.6c0.5,2.3,2.5,2.5,3.1,2.5c6.4,0.1,12.3,0.1,18.2,0
		c1.5,0,3.1-1.1,3.3-3.6c0.2-3.4,0.4-6.6,0.9-9.8c0.2-1.1,0.2-2.2,0.3-3.4c0.1-1,0.1-2,0.2-3c0.2-1.3,0.3-2.7,0.4-4
		c0.1-1.9,0.3-3.8,0.6-5.7c0.2-1.3,0.3-2.6,0.3-4c0-0.8,0.1-1.7,0.2-2.5c0.2-2.2,0.4-4.4,0.6-6.6l0.5-5.4c0.1-1.5,0.3-2.9,0.4-4.4
		c0.4-6,2.9-10.9,7.6-14.6c3.1-2.4,4.6-5.7,4.7-9.6c0-5.8,0-11.5,0-17.3c0-6,0-12,0-17.9c0-3.6-1.4-6.2-4.5-8.1
		c-1.3-0.8-2.9-1.2-4.7-1.2c-1.1,0-2.2,0-3.3,0c-1.9,0-3.8,0-5.6,0c-0.1,0-0.5,0.2-0.8,0.3c-0.7,0.3-1.7,0.6-2.9,0.5
		c-0.7-0.1-1.3-0.3-1.9-0.5c-0.5-0.1-0.9-0.3-1.2-0.3c-2.3,0-5.1,0-7.9,0c-0.7,0-1.2,0.1-1.7,0.3c-1.3,0.6-2.6,0.6-3.9,0
		c-0.5-0.2-1.1-0.3-1.8-0.3c-1.4,0-2.7,0-4,0c-2,0-3.9,0-5.7,0.1c-2,0.2-3.7,1-5.1,2.3c-1.9,1.9-2.9,4.1-2.8,6.8
		c0.1,6.7,0,38.5,0,38.8c0,1.4-1.1,2.5-2.5,2.5c0,0,0,0,0,0c-1.4,0-2.5-1.1-2.5-2.6c0-0.3,0-32,0-38.7c0-4.1,1.4-7.6,4.3-10.5
		c2.3-2.2,5.1-3.5,8.3-3.8c2.1-0.2,4.2-0.2,6.2-0.1c1.3,0,2.6,0,3.8,0c1.4,0,2.7,0.2,3.9,0.7c1.1-0.5,2.4-0.7,3.7-0.7
		c2.8,0,5.5,0,7.8,0c1.1,0,2,0.3,2.8,0.5c0.3,0.1,0.6,0.2,0.9,0.2c0.1,0,0.4-0.1,0.6-0.2c0.7-0.2,1.6-0.5,2.6-0.6c1.9,0,3.7,0,5.6,0
		c1.1,0,2.2,0,3.3,0c2.8,0,5.2,0.6,7.3,2c4.6,2.8,7,7,7,12.5c0,6,0,11.9,0,17.9c0,5.8,0,11.5,0,17.3c0,5.5-2.3,10.2-6.6,13.6
		c-3.5,2.8-5.3,6.3-5.6,10.9c-0.1,1.5-0.2,3-0.4,4.6l-0.5,5.4c-0.2,2.2-0.4,4.4-0.6,6.6c-0.1,0.8-0.1,1.6-0.2,2.3
		c-0.1,1.4-0.2,2.9-0.4,4.4c-0.3,1.8-0.4,3.5-0.5,5.4c-0.1,1.4-0.2,2.8-0.4,4.2c-0.1,0.9-0.2,1.8-0.2,2.7c-0.1,1.2-0.1,2.5-0.3,3.8
		c-0.4,3-0.7,6-0.9,9.3c-0.3,4.8-3.8,8.3-8.3,8.3C144.1,192.9,141.1,192.9,138.1,192.9z M145.4,62.3L145.4,62.3L145.4,62.3z"/>
	<path d="M137.9,55.2c-3.6,0-6.9-0.7-9.9-2.3c-2.6-1.3-4.8-3-7-5.3c-3.2-3.5-5.1-7.7-5.6-12.6c-0.5-4.8,0.4-9.3,2.7-13.3
		c4.3-7.6,11.2-11.6,19.8-11.7c5.9-0.1,11.3,2.1,15.6,6.3c3.5,3.4,5.7,7.4,6.5,12c0.1,0.7,0.2,1.4,0.2,2c0,0.6,0.1,1.2,0.2,1.7
		c0,0.2,0.1,0.4,0.1,0.6c0,0.1,0,0.2,0,0.4c0,0.4-0.1,0.8-0.1,1.1c-0.2,1.7-0.4,3.4-0.9,5.2c-1.6,5.3-4.9,9.5-9.7,12.5
		c-3.1,2-6.5,3.1-10,3.3C139.2,55.2,138.5,55.2,137.9,55.2z M138.2,15.1c-0.1,0-0.2,0-0.3,0c-6.9,0.1-12,3.1-15.4,9.2
		c-1.8,3.1-2.5,6.5-2.1,10.2c0.4,3.7,1.8,7,4.3,9.7c1.7,1.8,3.5,3.2,5.5,4.2c2.7,1.4,5.7,1.9,9.2,1.7c2.7-0.2,5.2-1,7.6-2.5
		c3.8-2.4,6.2-5.6,7.5-9.7c0.4-1.3,0.6-2.7,0.7-4.2c0-0.3,0.1-0.6,0.1-0.9c-0.1-0.7-0.2-1.4-0.2-2c0-0.5-0.1-1.1-0.2-1.5
		c-0.7-3.5-2.3-6.6-5.1-9.3C146.6,16.7,142.7,15.1,138.2,15.1z"/>
	<path d="M122,177.9c-1.3,0-2.4-1-2.5-2.3c-0.9-10.9-2.6-32.2-2.9-34.5c-0.2-1.3-0.3-2.6-0.4-3.8c-0.1-1.5-0.2-2.8-0.5-4.2
		c-0.6-3.9-1.8-6.1-3.6-7c-3.7-1.7-8.3-8.4-8.3-11.2c0-1.2,0.7-2.2,1.8-2.6c1.3-0.5,2.8,0.1,3.3,1.4c0.2,0.5,0.2,1,0.1,1.5
		c0.6,1.6,3.3,5.5,5.2,6.3c5.2,2.4,6.2,8.7,6.5,10.8c0.3,1.6,0.4,3.1,0.5,4.6c0.1,1.2,0.2,2.4,0.3,3.5c0.4,3.1,2.9,33.5,3,34.8
		c0.1,1.4-0.9,2.6-2.3,2.7C122.1,177.8,122,177.9,122,177.9z M107.4,116.9C107.4,116.9,107.4,116.9,107.4,116.9
		C107.4,116.9,107.4,116.9,107.4,116.9z M107.4,116.9C107.4,116.9,107.4,116.9,107.4,116.9C107.4,116.9,107.4,116.9,107.4,116.9z"/>
</g>
<path d="M138.4,193.5c-1.4,0-2.5-1.1-2.5-2.5v-61.1c0-1.4,1.1-2.5,2.5-2.5s2.5,1.1,2.5,2.5V191C140.9,192.4,139.8,193.5,138.4,193.5
	z"/>
<path d="M118.5,132.9c-1.4,0-2.5-1.1-2.5-2.5V64.1c0-1.4,1.1-2.5,2.5-2.5s2.5,1.1,2.5,2.5v66.2C121,131.7,119.9,132.9,118.5,132.9z"
	/>
<path d="M157.2,138c-1.4,0-2.5-1.1-2.5-2.5V64.1c0-1.4,1.1-2.5,2.5-2.5s2.5,1.1,2.5,2.5v71.3C159.8,136.8,158.6,138,157.2,138z"/>
</svg>
