<?xml version="1.0" encoding="utf-8"?>
<!-- Generator: Adobe Illustrator 21.1.0, SVG Export Plug-In . SVG Version: 6.00 Build 0)  -->
<svg version="1.1" id="Layer_1" xmlns="http://www.w3.org/2000/svg" xmlns:xlink="http://www.w3.org/1999/xlink" x="0px" y="0px"
	 viewBox="0 0 200 200" style="enable-background:new 0 0 200 200;" xml:space="preserve">
<style type="text/css">
	.st0{fill:none;stroke:#000000;stroke-width:5;stroke-linecap:round;stroke-linejoin:round;stroke-miterlimit:10;}
</style>
<path d="M174.9,193.2H29.1c-1.4,0-2.5-1.1-2.5-2.5s1.1-2.5,2.5-2.5h145.7c1.4,0,2.5,1.1,2.5,2.5S176.3,193.2,174.9,193.2z"/>
<path d="M38.7,181.1c-1.4,0-2.5-1.1-2.5-2.5V54.8c0-1.4,1.1-2.5,2.5-2.5L165.5,52c0,0,0,0,0,0c1.4,0,2.5,1.1,2.5,2.5
	c0,1.4-1.1,2.5-2.5,2.5L41.2,57.3v121.3C41.2,180,40,181.1,38.7,181.1z"/>
<path d="M165.5,181c-1.4,0-2.5-1.1-2.5-2.5v-124c0-1.4,1.1-2.5,2.5-2.5s2.5,1.1,2.5,2.5v124C168,179.9,166.9,181,165.5,181z"/>
<path d="M160.5,47h-115c-1.4,0-2.5-1.1-2.5-2.5s1.1-2.5,2.5-2.5h115c1.4,0,2.5,1.1,2.5,2.5S161.9,47,160.5,47z"/>
<path d="M64.5,45c-1.4,0-2.5-1.1-2.5-2.5v-6c0-1.4,1.1-2.5,2.5-2.5s2.5,1.1,2.5,2.5v6C67,43.9,65.9,45,64.5,45z"/>
<path d="M141.5,45c-1.4,0-2.5-1.1-2.5-2.5v-6c0-1.4,1.1-2.5,2.5-2.5s2.5,1.1,2.5,2.5v6C144,43.9,142.9,45,141.5,45z"/>
<path d="M45.5,55c-1.4,0-2.5-1.1-2.5-2.5v-8c0-1.4,1.1-2.5,2.5-2.5s2.5,1.1,2.5,2.5v8C48,53.9,46.9,55,45.5,55z"/>
<path d="M160.5,55c-1.4,0-2.5-1.1-2.5-2.5v-8c0-1.4,1.1-2.5,2.5-2.5s2.5,1.1,2.5,2.5v8C163,53.9,161.9,55,160.5,55z"/>
<path d="M94.5,97H56.7c-1.4,0-2.5-1.1-2.5-2.5V72.3c0-1.4,1.1-2.5,2.5-2.5h37.8c1.4,0,2.5,1.1,2.5,2.5v22.2C97,95.9,95.9,97,94.5,97
	z M59.2,92H92V74.8H59.2V92z"/>
<path d="M147.5,97h-37.8c-1.4,0-2.5-1.1-2.5-2.5V72.3c0-1.4,1.1-2.5,2.5-2.5h37.8c1.4,0,2.5,1.1,2.5,2.5v22.2
	C150,95.9,148.9,97,147.5,97z M112.2,92H145V74.8h-32.8V92z"/>
<path d="M94.5,134H56.7c-1.4,0-2.5-1.1-2.5-2.5v-22.2c0-1.4,1.1-2.5,2.5-2.5h37.8c1.4,0,2.5,1.1,2.5,2.5v22.2
	C97,132.9,95.9,134,94.5,134z M59.2,129H92v-17.2H59.2V129z"/>
<path d="M147.5,134h-37.8c-1.4,0-2.5-1.1-2.5-2.5v-22.2c0-1.4,1.1-2.5,2.5-2.5h37.8c1.4,0,2.5,1.1,2.5,2.5v22.2
	C150,132.9,148.9,134,147.5,134z M112.2,129H145v-17.2h-32.8V129z"/>
<path d="M94.5,171H56.7c-1.4,0-2.5-1.1-2.5-2.5v-22.2c0-1.4,1.1-2.5,2.5-2.5h37.8c1.4,0,2.5,1.1,2.5,2.5v22.2
	C97,169.9,95.9,171,94.5,171z M59.2,166H92v-17.2H59.2V166z"/>
<path d="M147.5,171h-37.8c-1.4,0-2.5-1.1-2.5-2.5v-22.2c0-1.4,1.1-2.5,2.5-2.5h37.8c1.4,0,2.5,1.1,2.5,2.5v22.2
	C150,169.9,148.9,171,147.5,171z M112.2,166H145v-17.2h-32.8V166z"/>
<path d="M69.5,35c-0.1,0-0.3,0-0.4,0c-0.2,0-1.2-0.1-4.6-0.1l-0.3,0c-5.5-0.1-7.9-2.1-8.9-3.8c-0.9-1.4-1.6-3.8,0-7.3
	c1.9-4.1,4.8-7.7,7.5-11.1c1.3-1.6,2.6-3.3,3.8-4.9c1.2-1.7,2.8-2.5,5-2.5c3.4,0,6.9,0,10.3,0l36.6,0c3.1,0,6.2,0,9.3,0
	c0.5,0,1,0,1.4,0c2.9-0.1,7-0.2,9.5,3.6c1.3,2,2.8,4,4.3,5.9c1.6,2.1,3.3,4.3,4.7,6.5l0.1,0.2c1.4,2.1,3.7,5.7,1,9.6
	c-2.1,3.1-7.5,3.6-13.3,4l-1,0.1c-1.4,0.1-2.6-0.9-2.7-2.3s0.9-2.6,2.3-2.7c0.3,0,0.7,0,1.1-0.1c7-0.4,9-1.2,9.5-1.8
	c0.6-0.9,0.4-1.6-1.1-4l-0.1-0.2c-1.4-2.1-3-4.2-4.5-6.2c-1.5-2-3.1-4-4.5-6.1c-0.9-1.4-2.2-1.5-5.2-1.4c-0.5,0-1.1,0-1.6,0
	c-3.1,0-6.2,0-9.2,0l-36.6,0c-3.5,0-6.9,0-10.4,0c-0.6,0-0.7,0.1-0.9,0.4c-1.3,1.8-2.6,3.5-3.9,5.1c-2.7,3.4-5.3,6.6-6.9,10.2
	c-0.3,0.6-0.7,1.8-0.3,2.5c0.4,0.7,1.9,1.4,4.8,1.5l0.3,0c5,0.1,5.2,0.1,5.6,0.2c1.3,0.3,2.1,1.7,1.8,3C71.6,34.2,70.6,35,69.5,35z
	 M68.9,34.9c0,0,0.1,0,0.2,0C69,34.9,68.9,34.9,68.9,34.9z"/>
<path d="M128,35c-3,0-5.6-1.3-7.5-3.1c-1.7-1.7-1.5-3.7-1.4-4.8c0-0.2,0.1-0.6,0-0.7c-1.2-4.1-2.5-8.3-3.7-12.4L114,9.3
	c-0.4-1.3,0.3-2.7,1.7-3.1c1.3-0.4,2.7,0.3,3.1,1.7l1.4,4.6c1.3,4.1,2.5,8.3,3.7,12.4c0.3,1,0.2,2,0.1,2.7c0,0.3-0.1,0.6,0,0.8
	c1.4,1.4,4.9,2.9,8.8-0.4c1-0.9,2.6-0.8,3.5,0.3c0.9,1,0.8,2.6-0.3,3.5C133.4,34,130.6,35,128,35z"/>
<path d="M88.4,34.9c-1.1,0-2.1-0.2-3-0.5c-6.2-2.4-5.4-7.4-4.9-9.8c0.6-3.1,1.6-6.2,2.6-9.1c0.9-2.6,1.8-5,2.3-7.5
	c0.3-1.4,1.6-2.2,3-1.9c1.4,0.3,2.2,1.6,1.9,3c-0.6,2.8-1.5,5.5-2.4,8.1c-1,2.8-1.9,5.5-2.4,8.3c-0.5,2.7-0.4,3.4,1.8,4.2
	c1.4,0.5,4.3,0,6.8-1.9c1.1-0.8,2.7-0.6,3.5,0.5c0.8,1.1,0.6,2.7-0.5,3.5C94.3,33.8,91.2,34.9,88.4,34.9z"/>
<path d="M135.7,31.3c-0.2,0-0.4,0-0.5-0.1c-1.2-0.3-2.1-1.4-2-2.6c-0.2-1-1.8-4.5-2.4-5.7l-1-1.7c-2.2-3.8-4.4-7.7-6.1-11.7
	c-0.5-1.3,0-2.7,1.3-3.3c1.3-0.5,2.7,0,3.3,1.3c1.6,3.8,3.8,7.6,5.9,11.2l1,1.7c0,0.1,3.6,6.4,3,8.8
	C137.9,30.5,136.9,31.3,135.7,31.3z M133.2,28.7L133.2,28.7L133.2,28.7z M133.3,28.2C133.3,28.2,133.3,28.2,133.3,28.2
	C133.3,28.2,133.3,28.2,133.3,28.2z"/>
<path d="M102.1,34.8c-4.1,0-8.9-2.7-9.1-6.6c-0.2-4.6,0.6-9.1,1.4-12.9c0.2-0.8,0.1-1.7,0.1-2.7c-0.1-1.5-0.1-3.1,0.4-4.8
	c0.4-1.3,1.8-2.1,3.1-1.6c1.3,0.4,2.1,1.8,1.6,3.1c-0.3,0.9-0.2,1.9-0.2,3.1c0.1,1.2,0.1,2.5-0.2,3.9C98.5,20,97.8,24,98,28
	c0.1,0.5,1.9,1.8,4.1,1.8c2.2,0,4-1.4,4.1-2c0.3-2.8-0.1-5.7-0.6-8.8c-0.1-0.8-0.2-1.5-0.4-2.3c-0.2-1.2-0.1-2.2-0.1-3.3
	c0-1.5,0.1-2.7-0.5-3.8c-0.6-1.2-0.1-2.7,1.1-3.4c1.2-0.6,2.7-0.1,3.4,1.1c1.1,2.2,1,4.3,1,6.2c0,0.9,0,1.7,0.1,2.5
	c0.1,0.7,0.2,1.5,0.3,2.2c0.5,3.3,1.1,6.6,0.7,10.2C110.7,32.2,106.1,34.8,102.1,34.8z"/>
<path d="M69.4,30.3c-1.2,0-2.2-0.8-2.4-2c-0.5-2.4,1.8-7.4,2-7.8l1-1.7c2.1-3.6,4.2-7.4,5.9-11.2c0.5-1.3,2-1.9,3.3-1.3
	c1.3,0.5,1.9,2,1.3,3.3c-1.7,4-4,7.9-6.1,11.7l-1,1.7c-0.4,0.7-1.4,3.6-1.4,4.5c0.2,1.3-0.7,2.5-2,2.8
	C69.8,30.3,69.6,30.3,69.4,30.3z M71.9,27.5L71.9,27.5L71.9,27.5z M71.9,27.2C71.9,27.2,71.9,27.2,71.9,27.2
	C71.9,27.2,71.9,27.2,71.9,27.2z"/>
<path d="M114.9,34.9c-2.5,0-4.9-1-7.7-3.1c-1.1-0.8-1.3-2.4-0.5-3.5c0.8-1.1,2.4-1.3,3.5-0.5c3.5,2.6,5.3,3,10-0.1
	c1.2-0.8,2.7-0.4,3.5,0.7c0.8,1.2,0.4,2.7-0.7,3.5C119.9,33.9,117.3,34.9,114.9,34.9z"/>
<path d="M75.9,35c-3.3,0-5.9-1.6-7.8-3.2c-1.1-0.9-1.2-2.4-0.4-3.5c0.9-1.1,2.4-1.2,3.5-0.4c3,2.5,5.5,3.2,9.8-0.1
	c1.1-0.8,2.7-0.6,3.5,0.5c0.8,1.1,0.6,2.7-0.5,3.5C81,34.1,78.3,35,75.9,35z"/>
<path class="st0" d="M146.2,24.8"/>
</svg>
