<?xml version="1.0" encoding="utf-8"?>
<!-- Generator: Adobe Illustrator 21.1.0, SVG Export Plug-In . SVG Version: 6.00 Build 0)  -->
<svg version="1.1" id="Layer_1" xmlns="http://www.w3.org/2000/svg" xmlns:xlink="http://www.w3.org/1999/xlink" x="0px" y="0px"
	 viewBox="0 0 200 200" style="enable-background:new 0 0 200 200;" xml:space="preserve">
<g>
	<g>
		<path d="M177,191.4c-0.1,0-0.2,0-0.2,0c-60.5-0.7-107.5-0.8-143.8-0.4h-0.3C21,191.1,10,191.2,9.5,172.6
			c-0.2-8.4-0.4-17,10.1-23.9c9.5-6.2,20-11.5,33.9-17.2c14.5-6,21.1-10.6,22.6-15.9c1.3-4.4-0.8-10.3-6.7-19c-1-1.4-1.5-2.4-2-3.1
			c-0.9-1.5-1.3-2.1-4.1-4.9C59.6,84.9,54.8,73,56,65.5c0.4-2.6,1.4-4.2,2.5-5.3c-1.3-6.9-1.1-18.7,1.6-28.5
			c1.8-6.2,6.2-11.2,14-15.9c20.4-12.2,39.1-7.1,51.2-0.6c16.4,8.7,22.2,26.3,15.3,47.1l0,0c8,11.6,1.7,19.9-4.4,27.9
			c-0.5,0.7-1,1.3-1.5,2c-7.9,10.7-10.8,17.9-9.4,23.3s7.5,10.3,19.8,15.7c4.4,2,8.8,4.1,13,6.2c6.5,3.2,13.3,6.5,20.1,9.2
			c11.1,4.4,15.6,13.8,12.8,26.4c-0.4,1.6-0.6,3.2-0.8,4.8C189.4,184.2,188.4,191.4,177,191.4z M78.7,185.8
			c27.9,0,60.4,0.2,98.1,0.6c0.1,0,0.2,0,0.2,0c7,0,7.4-2.7,8.4-9.2c0.2-1.6,0.5-3.3,0.9-5.1c2.3-10.2-1-17.1-9.8-20.6
			c-7-2.7-13.9-6.1-20.5-9.3c-4.2-2.1-8.5-4.2-12.9-6.1c-14-6.2-20.8-11.9-22.6-19c-1.9-7.1,1.2-15.4,10.2-27.6
			c0.5-0.7,1-1.4,1.6-2.1c6-7.9,10.3-13.6,4-22.5c-0.5-0.7-0.6-1.6-0.3-2.4c-0.2-0.5-0.2-1.1,0-1.7c6-18.3,1.2-33.7-12.9-41.1
			c-11-5.9-27.9-10.6-46.2,0.4c-6.6,4-10.4,8.1-11.8,12.9c-2.7,9.7-2.7,21.9-1.2,27.6c0.3,1.1-0.2,2.3-1.3,2.9
			c-0.8,0.4-1.3,1.3-1.5,2.8C60.2,72,64.1,82.1,67,85c3.1,3.1,3.7,4.1,4.8,5.9c0.4,0.7,0.9,1.6,1.8,2.8c7,10.2,9.2,17.1,7.4,23.2
			c-2.4,8-11.9,13.4-25.5,19.1c-13.6,5.6-23.8,10.8-33.1,16.8c-7.8,5.1-8.1,10.7-7.9,19.5c0.3,13.7,6.3,13.7,18.2,13.6H33
			C46.6,185.8,61.8,185.8,78.7,185.8z"/>
	</g>
</g>
</svg>
