<?xml version="1.0" encoding="utf-8"?>
<!-- Generator: Adobe Illustrator 21.1.0, SVG Export Plug-In . SVG Version: 6.00 Build 0)  -->
<svg version="1.1" id="Layer_1" xmlns="http://www.w3.org/2000/svg" xmlns:xlink="http://www.w3.org/1999/xlink" x="0px" y="0px"
	 viewBox="0 0 200 200" style="enable-background:new 0 0 200 200;" xml:space="preserve">
<g>
	<path d="M166.4,100.8H33.5c-0.7,0-1.3-0.3-1.7-0.7C31.3,99.6,31,99,31,98.3c0.3-10,4.4-18.2,8-25.4c2.5-5.1,4.9-9.8,5.9-14.7
		c3.9-19.5,15.9-17.4,24.6-15.9c3.6,0.6,7.1,1.2,9.9,0.6c5.3-1.1,9.3-0.6,12.1,1.8c4.8,3.9,4.7,11.4,4.6,18.1c0,0.5-0.2,0.9-0.4,1.3
		c2.2,0.1,4.3,0.7,6,1.2c1,0.3,2.6,0.8,3.2,0.7c0.1-0.2,0.3-0.8,0.3-2.1c0-8.2,1.8-13.9,5.4-17.4c4.2-4,9.9-4.1,14.9-3.9
		c2.2,0.1,5-0.2,7.7-0.6c6.9-0.8,14.7-1.8,17.3,4.2c1.9,4.4,4.4,8.6,7,13c6.9,11.8,14,23.9,11.2,39.5
		C168.6,100,167.5,100.8,166.4,100.8z M36.1,95.9h128.2c1.6-12.9-4.5-23.3-10.9-34.2c-2.6-4.4-5.2-8.9-7.3-13.5
		c-1.2-2.7-6.8-2-12.3-1.4c-2.9,0.4-5.9,0.7-8.6,0.6c-5.1-0.2-8.8,0.1-11.3,2.6c-2.6,2.5-3.9,7.1-3.9,13.9c0,1.9-0.2,4.6-2.2,6
		c-2.1,1.6-4.9,0.8-7.5,0c-3.9-1.2-6.9-1.8-9.6,0.6c-11.1,9.9-36.2,9.8-46.4,2.5c-0.3,0.6-0.6,1.3-1,1.9
		C40.2,81.5,36.9,88.2,36.1,95.9z M46.5,68.6c0.1,0.1,0.2,0.1,0.3,0.2c8,6.4,31.3,6.5,40.7-1.9c1.5-1.3,3-2.1,4.5-2.5
		c-0.5-0.4-0.7-1.1-0.7-1.8c0.1-5.3,0.1-11.8-2.8-14.3c-1.6-1.3-4.3-1.6-8-0.8c-3.7,0.8-7.8,0.1-11.7-0.6c-9.3-1.6-16.1-2.8-19,12
		C49.1,62.4,47.9,65.5,46.5,68.6z"/>
	<path d="M177.8,77.1c-1.3,0-2.4-1.1-2.4-2.4V18.7H29.2c-0.7,9.5-0.6,19.2-0.5,28.5c0,8.3,0.1,16.2-0.3,23.7
		c-0.1,1.3-1.2,2.4-2.6,2.3c-1.3-0.1-2.4-1.2-2.3-2.6c0.4-7.3,0.4-15.1,0.3-23.3c-0.1-10.2-0.1-20.7,0.7-31.2
		c0.1-1.3,1.2-2.2,2.4-2.2h150.9c1.3,0,2.4,1.1,2.4,2.4v58.4C180.2,76,179.1,77.1,177.8,77.1z"/>
	<path d="M56.7,126.8c-6.9,0-13.7,0-20.2,0c-6.3,0-12.5,0-18.5,0c-1.3,0-2.4-1.1-2.4-2.4c0-1.3,1.1-2.4,2.4-2.4c5.9,0,12.1,0,18.5,0
		c25,0,53.2,0.1,77-0.4c8.2-0.2,16.9-0.1,25.4-0.1c14.2,0,29,0,41.7-0.7c1.4-0.1,2.5,0.9,2.6,2.3c0.1,1.3-0.9,2.5-2.3,2.6
		c-12.9,0.8-27.7,0.8-42,0.7c-8.4,0-17.2,0-25.3,0.1C96.1,126.7,76,126.8,56.7,126.8z"/>
	<path d="M25.7,192.3c-3.5,0-7.3-0.1-11.6-0.3c-1.3,0-2.3-1.1-2.3-2.3l-0.1-2.2c-1.2-29.4-2.6-62.6,16.9-88.6
		c0.8-1.1,2.3-1.3,3.4-0.5c1.1,0.8,1.3,2.3,0.5,3.4c-18.4,24.6-17.1,56.9-15.9,85.4c24.6,0.8,29.7-0.5,31.3-14
		c0.2-1.3,1.4-2.3,2.7-2.1c1.3,0.2,2.3,1.4,2.1,2.7C50.8,189.4,42.8,192.3,25.7,192.3z"/>
	<path d="M186.7,192.9c0,0-0.1,0-0.1,0c-3-0.2-6.1-0.1-9.1-0.1c-12.7,0.2-25.8,0.4-28.8-16.9c-0.2-1.3,0.7-2.6,2-2.8
		c1.3-0.2,2.6,0.7,2.8,2c2.2,12.6,10.1,13.1,23.9,12.9c2.2,0,4.5-0.1,6.9,0c0-4.8-0.1-9.1-0.1-13.4c-0.1-9.9-0.2-18.4,0.3-26.9
		c1-16-4.6-30.5-17.4-45.8c-0.9-1-0.7-2.6,0.3-3.4c1-0.9,2.6-0.7,3.4,0.3c13.7,16.3,19.6,31.9,18.5,49.2c-0.5,8.3-0.4,16.7-0.3,26.5
		c0.1,5,0.1,10.2,0.1,16c0,0.7-0.3,1.3-0.8,1.8C188,192.7,187.4,192.9,186.7,192.9z"/>
	<path d="M72.5,174.9c-12.2,0-24.4-0.1-37-0.4c-1.3,0-2.4-1.2-2.4-2.5c0-1.3,1.2-2.4,2.5-2.4c24.4,0.6,47.4,0.4,71.7,0.2
		c12.2-0.1,24.9-0.2,37.9-0.2c7.7,0,12.9,0,19.7-0.5c1.3-0.1,2.5,0.9,2.6,2.3c0.1,1.3-0.9,2.5-2.3,2.6c-6.9,0.5-12.1,0.5-20,0.5
		c-13,0-25.6,0.1-37.8,0.2C95.5,174.8,84,174.9,72.5,174.9z"/>
	<path d="M129.6,77.2c-3.4,0-6.7-0.2-9.5-0.7c-8.9-1.4-14-4.7-14.8-9.3c-0.2-1.3,0.6-2.6,2-2.8c1.3-0.2,2.6,0.6,2.8,2
		c0.4,2.3,4.6,4.4,10.8,5.4c13.1,2.1,29.3-1,32.1-6.2c0.6-1.2,2.1-1.6,3.3-1c1.2,0.6,1.6,2.1,1,3.3
		C153.6,74.5,140.8,77.2,129.6,77.2z"/>
</g>
<path d="M39.5,73.2H25.8c-1.3,0-2.4-1.1-2.4-2.4s1.1-2.4,2.4-2.4h13.6c1.3,0,2.4,1.1,2.4,2.4S40.8,73.2,39.5,73.2z"/>
<path d="M177.8,77.1h-15.6c-1.3,0-2.4-1.1-2.4-2.4c0-1.3,1.1-2.4,2.4-2.4h15.6c1.3,0,2.4,1.1,2.4,2.4
	C180.2,76,179.2,77.1,177.8,77.1z"/>
</svg>
