<?xml version="1.0" encoding="utf-8"?>
<!-- Generator: Adobe Illustrator 21.1.0, SVG Export Plug-In . SVG Version: 6.00 Build 0)  -->
<svg version="1.1" id="Layer_1" xmlns="http://www.w3.org/2000/svg" xmlns:xlink="http://www.w3.org/1999/xlink" x="0px" y="0px"
	 viewBox="0 0 200 200" style="enable-background:new 0 0 200 200;" xml:space="preserve">
<style type="text/css">
	.st0{fill:none;}
</style>
<g>
	<path class="st0" d="M84,111.2c7.5,14.3,15,27,18.5,33c2.1-3.5,5.5-9.3,9.4-16.3"/>
	<path class="st0" d="M102.5,71.5c8,0,14.5-6.5,14.5-14.5s-6.5-14.5-14.5-14.5S88,49,88,57S94.5,71.5,102.5,71.5z"/>
	<path class="st0" d="M114.6,123C127,100.6,143,69,143,55c0-22.3-18.2-40.5-40.5-40.5S62,32.8,62,55c0,10.8,9.6,32.1,19.6,51.6
		 M102.5,37.5c10.8,0,19.5,8.7,19.5,19.5s-8.7,19.5-19.5,19.5S83,67.8,83,57S91.7,37.5,102.5,37.5z"/>
	<polygon class="st0" points="160.8,134.3 103.6,166.6 129.8,191.3 178.9,150.5 	"/>
	<path class="st0" d="M117.3,128.5c-6.8,12.1-12.1,20.9-12.7,21.9l-2.1,3.5l-2.1-3.5c-0.9-1.4-11.1-18.1-21.3-37.7l-58.9,17.1
		l21.2,27.4l57.2,6.6l54.8-30.9L117.3,128.5z"/>
	<path d="M162.2,128.8l-42.2-5.1c12.5-22.7,28-53.9,28-68.6c0-25.1-20.4-45.5-45.5-45.5C77.4,9.5,57,30,57,55
		c0,11.6,9.6,33.3,19.7,53L11.8,127l27,35l59.7,6.8l31.1,29.1l56.9-47.1L162.2,128.8z M81.6,106.7C71.6,87.2,62,65.8,62,55
		c0-22.3,18.2-40.5,40.5-40.5S143,32.8,143,55c0,14-16,45.6-28.4,68 M114.6,123c-4,7.1-10,17.7-12.1,21.1
		c-3.5-5.9-13.3-23.2-20.9-37.5 M41.4,157.2l-21.2-27.4l58.9-17.1c10.3,19.6,20.5,36.3,21.3,37.7l2.1,3.5l2.1-3.5
		c0.6-1,6-9.8,12.7-21.9l36,4.3l-54.8,30.9L41.4,157.2z M103.6,166.6l57.3-32.3l18.1,16.3l-49.1,40.7L103.6,166.6z"/>
	<path d="M102.5,76.5c10.8,0,19.5-8.7,19.5-19.5s-8.7-19.5-19.5-19.5S83,46.3,83,57S91.7,76.5,102.5,76.5z M102.5,42.5
		c8,0,14.5,6.5,14.5,14.5s-6.5,14.5-14.5,14.5S88,65,88,57S94.5,42.5,102.5,42.5z"/>
</g>
</svg>
