<?xml version="1.0" encoding="utf-8"?>
<!-- Generator: Adobe Illustrator 21.1.0, SVG Export Plug-In . SVG Version: 6.00 Build 0)  -->
<svg version="1.1" id="Layer_1" xmlns="http://www.w3.org/2000/svg" xmlns:xlink="http://www.w3.org/1999/xlink" x="0px" y="0px"
	 viewBox="0 0 200 200" style="enable-background:new 0 0 200 200;" xml:space="preserve">
<path d="M191,103.2c-18.8-33.1-53.7-53.7-90.9-53.7c-37.3,0-72.1,20.6-90.9,53.7l-4.3-2.5C24.5,66.1,61,44.5,100.1,44.5
	s75.6,21.6,95.3,56.3L191,103.2z"/>
<path d="M100.1,158c-39.1,0-75.6-21.6-95.3-56.3l4.3-2.5C28,132.4,62.8,153,100.1,153c37.3,0,72.1-20.6,90.9-53.7l4.3,2.5
	C175.7,136.4,139.2,158,100.1,158z"/>
<path d="M45.7,143c-9.1-12-13.9-26.3-13.9-41.3c0-15.7,5.2-30.5,14.9-42.8l3.9,3.1c-9.1,11.4-13.9,25.1-13.9,39.6
	c0,13.9,4.5,27.1,12.9,38.3L45.7,143z"/>
<path d="M155.8,142.2l-4-3c8.1-10.9,12.3-23.9,12.3-37.6c0-14.2-4.6-27.7-13.3-38.9l3.9-3.1c9.4,12.1,14.3,26.6,14.3,41.9
	C169.1,116.3,164.5,130.4,155.8,142.2z"/>
<path d="M100.8,138.2c-4.9,0-9.9-0.6-14.8-1.7l-2.3-0.5l5.4-30.1c-1.2-0.8-2.3-1.8-3.4-2.9c-4.2-4.4-6.3-9.8-6.3-15.9
	c0-6.1,2.2-11.6,6.3-15.8c4.1-4.3,9.3-6.6,15.3-6.6c6,0,11.3,2.2,15.5,6.6c4.2,4.3,6.3,9.6,6.3,15.8c0,6.2-2.1,11.5-6.3,15.8l0,0
	c-1.3,1.3-2.6,2.3-3.9,3.2l5.4,29.9l-2.3,0.5C110.6,137.7,105.7,138.2,100.8,138.2z M89.4,132.2c7.5,1.4,15.2,1.4,22.7,0l-5.2-28.8
	l1.7-0.8c1.5-0.7,2.7-1.6,4.2-3.1c3.3-3.4,4.9-7.4,4.9-12.3c0-4.9-1.6-9-4.9-12.4c-3.3-3.3-7.3-5-11.9-5c-4.7,0-8.5,1.6-11.7,5
	c-3.3,3.4-4.9,7.5-4.9,12.4c0,4.8,1.6,8.9,4.9,12.4c1.2,1.2,2.6,2.3,3.9,3.1l1.5,0.9L89.4,132.2z"/>
</svg>
