<?xml version="1.0" encoding="utf-8"?>
<!-- Generator: Adobe Illustrator 21.1.0, SVG Export Plug-In . SVG Version: 6.00 Build 0)  -->
<svg version="1.1" id="Layer_1" xmlns="http://www.w3.org/2000/svg" xmlns:xlink="http://www.w3.org/1999/xlink" x="0px" y="0px"
	 viewBox="0 0 200 200" style="enable-background:new 0 0 200 200;" xml:space="preserve">
<g>
	<path d="M81.1,84.3c1.6,1.5,3.3,6.5,5.1,11.3c0.8,2.1,1.5,4.3,2.3,6.2l4.2,0.6c-1.1-2.7-2.2-5.6-3.1-8c-2-5.7-3.8-10.6-6-12.7
		c-15.1-14.5-29-38.5-26.3-59.8l-3.6-0.5C50.9,43.9,65.4,69.1,81.1,84.3z"/>
	<path d="M161.9,36.7c-3.7,23.7-24.5,38.1-42.3,47.9c-2.4,1.3-5.1,5.1-9.3,11.2c-1.6,2.3-3.8,5.5-6,8.3l4.2,0.6
		c1.5-2,3.1-4.3,4.8-6.8c3-4.3,6.3-9.1,8-10.1c18.5-10.3,40.2-25.3,44.2-50.6L161.9,36.7z"/>
</g>
<g>
	<path d="M76.5,116.6c1.9-1,5-5.3,8-9.4c1.3-1.8,2.6-3.7,3.9-5.4l4.2,0.6c-1.8,2.2-3.7,4.8-5.2,6.9c-3.5,4.9-6.6,9.1-9.2,10.5
		c-18.5,9.8-38.5,29-41.9,50.1l-3.6-0.5C36.3,147.1,57.2,126.8,76.5,116.6z"/>
	<path d="M141,184.7c3-23.8-13-43.4-27.4-57.8c-1.9-1.9-3.4-6.3-5.8-13.3c-0.9-2.6-2.1-6.3-3.5-9.6l4.2,0.6c0.9,2.3,1.8,5,2.8,7.9
		c1.7,4.9,3.5,10.5,4.9,11.9c15,15,31.7,35.4,28.4,60.8L141,184.7z"/>
</g>
<g>
	<path d="M173.5,39.9L44.9,21.7L46.7,9l128.7,18.2L173.5,39.9z M50.3,17.6l119.1,16.8l0.4-3.2L50.8,14.4L50.3,17.6z"/>
</g>
<g>
	<path d="M151.8,194.1L23.1,175.9l1.8-12.7l128.7,18.2L151.8,194.1z M147.7,188.6l0.4-3.2L29,168.6l-0.4,3.2"/>
</g>
<g>
	<path d="M99.7,100.9L97.8,99c-0.2-0.2-4.2-4.3-7.2-11.3c-2.5-5.9-5.4-11.9-9.1-15.6c-4.1-4.1-7.1-10-7.2-10.2l-1.8-3.5l74.1,1.1
		l-10.2,10.1c-0.4,0.2-8.9,5.9-14.7,8.8c-5.3,2.6-11.7,9.9-11.8,10L99.7,100.9z M80.6,63.2c1.1,1.7,2.6,3.8,4.2,5.5
		C89.1,73,92.3,79.4,95,85.8c1.5,3.4,3.2,6.1,4.5,7.8l6.8-8.3c0.3-0.4,7.2-8.1,13.3-11.2c5.1-2.5,12.7-7.5,14-8.4l1.6-1.6L80.6,63.2
		z"/>
</g>
<g>
	<path d="M134.6,175.1l-87.3-11.9c-0.8-0.1-1.5-0.5-2-1.2c-1-1.4-0.6-3.4-0.1-4.9c0.8-2.5,4.1-6.6,9.1-12.7c1-1.2,2-2.4,2.8-3.5
		c3.4-4.3,10.7-9,16.6-12.8c1.2-0.8,2.2-1.5,3.2-2.1c5.1-3.4,11.2-9.3,12-10.2l7.6-9.7l7.7,1.5l0.4,1.4c0.1,0.3,2,7,3,13.8
		c0.6,4.1,3,6.6,5.7,9.5c1.1,1.2,2.3,2.4,3.4,3.8c6.1,7.6,10.7,14.5,13.7,20.6c4.1,8.1,4.1,15.2,4.1,15.5V175.1z M49.8,158.7
		l79.7,10.9c-0.4-2.5-1.2-6.4-3.3-10.6c-2.9-5.8-7.3-12.5-13.2-19.8c-1-1.2-2.1-2.4-3.1-3.4c-3.1-3.2-6.2-6.5-7-12.2
		c-0.7-4.7-1.8-9.5-2.4-11.7l-1.9-0.4l-6,7.7c-0.3,0.3-7,6.9-12.9,10.9c-1,0.7-2.1,1.4-3.3,2.1c-5.3,3.4-12.5,8.1-15.4,11.8
		c-0.9,1.1-1.8,2.3-2.9,3.5C55,151.3,50.4,156.9,49.8,158.7C49.8,158.7,49.8,158.7,49.8,158.7z"/>
</g>
</svg>
