<?xml version="1.0" encoding="utf-8"?>
<!-- Generator: Adobe Illustrator 21.1.0, SVG Export Plug-In . SVG Version: 6.00 Build 0)  -->
<svg version="1.1" xmlns="http://www.w3.org/2000/svg" xmlns:xlink="http://www.w3.org/1999/xlink" x="0px" y="0px"
	 viewBox="0 0 200 200" style="enable-background:new 0 0 200 200;" xml:space="preserve">
<g id="Layer_2">
</g>
<g id="Layer_1">
	<g>
		<path d="M164.7,79.4c-0.8,0-1.4-0.6-1.5-1.4c-0.3-3.8-0.2-7.7-0.1-11.5c0.2-6,0.4-11.8-1.2-17.5c-4.4-15.8-17-25-37.4-27.3
			c-20.3-2.3-41.3-4.6-61.7,4.1c-19.8,8.5-26.8,15.4-26.8,37.4v14.6c0,0.8-0.7,1.5-1.5,1.5s-1.5-0.7-1.5-1.5V63.3
			c0-21.9,6.2-30.6,28.7-40.2c21.1-9,42.5-6.6,63.2-4.3c21.4,2.4,35.2,12.6,39.9,29.5c1.7,6.2,1.5,12.4,1.3,18.4
			c-0.1,3.7-0.3,7.4,0,11.1c0.1,0.8-0.5,1.6-1.4,1.6C164.8,79.4,164.8,79.4,164.7,79.4z"/>
		<path d="M147.5,185.7c-0.6,0-1.2-0.4-1.4-1c-0.3-0.8,0.2-1.6,0.9-1.9c8.3-2.8,12.5-4.2,14.3-6.9c1.9-2.8,1.9-7.5,1.9-16.9
			c0-2.2,0-4.3,0-6.5c0.1-4.8,0.1-9.8-0.1-14.7c-0.4-8.1,0.2-14.2,10.2-17.9c4.1-1.5,7.8-5.4,10.1-10.5c2.2-4.9,2.6-10.2,1.2-13.6
			c-3.3-8-14.4-14.8-22.3-13.7c-12.3,1.7-19.5,9.4-19.9,21.1c-0.3,9.8-0.2,19.5-0.1,29.7c0,4.4,0.1,8.9,0.1,13.4
			c0,0.8-0.7,1.5-1.5,1.5H58.5c-0.8,0-1.5-0.7-1.5-1.5c0-4.5,0-9,0.1-13.5c0.1-10.2,0.1-19.8-0.2-29.6c-0.2-6.9-3.7-13.6-9.2-18.1
			c-4.4-3.6-9.4-5.1-14.1-4.2c-9.1,1.7-20.9,11.6-18.8,23.3c1,5.6,4.1,15.2,13.5,16.9c8,1.4,7.9,5.9,7.8,9.8c0,0.5,0,0.9,0,1.4
			c0,6.3,0,12.6,0,19l0,7.6c0,9.3,0,14,1.9,16.8c1.9,2.7,6,4.2,14.4,7c0.8,0.3,1.2,1.1,0.9,1.9c-0.3,0.8-1.1,1.2-1.9,0.9
			c-17.9-6.1-18.3-6.6-18.3-26.7l0-7.6c0-6.3,0-12.6,0-19c0-0.5,0-1,0-1.5c0.1-3.9,0.1-5.8-5.3-6.8c-8.2-1.5-14.1-8.5-16-19.3
			C9.4,91.1,22.5,79.9,33,77.9c5.5-1,11.4,0.7,16.5,4.8c6.2,5,10.1,12.6,10.3,20.4c0.3,9.8,0.2,19.5,0.2,29.7c0,4-0.1,7.9-0.1,12
			h79.3c0-4,0-8-0.1-11.9c-0.1-10.2-0.1-19.9,0.2-29.8c0.4-13.3,8.6-22.1,22.5-24c9.3-1.3,21.7,6.3,25.5,15.5
			c1.7,4.2,1.3,10.3-1.2,15.9c-2.6,5.9-6.9,10.3-11.8,12.1c-8.3,3.1-8.5,7.7-8.2,14.9c0.2,4.9,0.2,10,0.1,14.8c0,2.2,0,4.3,0,6.5
			c0,20.2-0.3,20.7-18.3,26.7C147.8,185.6,147.6,185.7,147.5,185.7z"/>
		<path d="M86,186.5c0,0-0.1,0-0.1,0c-4.9-0.4-10.1-0.3-15.1-0.3c-6.3,0.1-12.9,0.1-18.9-0.7c-0.8-0.1-1.4-0.9-1.3-1.7
			c0.1-0.8,0.9-1.4,1.7-1.3c5.9,0.8,12.3,0.8,18.5,0.7c5.1-0.1,10.3-0.1,15.4,0.3c10.1,0,20.8-0.3,31.2-0.5
			c10.5-0.3,20.4-0.5,29.8-0.5c0.8,0,1.5,0.7,1.5,1.5s-0.7,1.5-1.5,1.5c-9.4,0-19.2,0.2-29.7,0.5C106.9,186.2,96.1,186.5,86,186.5z"
			/>
		<path d="M61.1,128.5c-0.7,0-1.3-0.5-1.5-1.2c-0.2-0.8,0.3-1.6,1.1-1.8c25.7-5.8,51.3-3.9,77.5-1.4c0.8,0.1,1.4,0.8,1.3,1.6
			c-0.1,0.8-0.8,1.4-1.6,1.3c-25.9-2.6-51.3-4.4-76.6,1.3C61.4,128.5,61.3,128.5,61.1,128.5z"/>
	</g>
	<path d="M79.5,55.5c-3.9,0-7-3.1-7-7s3.1-7,7-7s7,3.1,7,7S83.4,55.5,79.5,55.5z M79.5,44.5c-2.2,0-4,1.8-4,4s1.8,4,4,4s4-1.8,4-4
		S81.7,44.5,79.5,44.5z"/>
	<path d="M118.5,55.5c-3.9,0-7-3.1-7-7s3.1-7,7-7s7,3.1,7,7S122.4,55.5,118.5,55.5z M118.5,44.5c-2.2,0-4,1.8-4,4s1.8,4,4,4
		s4-1.8,4-4S120.7,44.5,118.5,44.5z"/>
	<path d="M79.5,93.5c-3.9,0-7-3.1-7-7s3.1-7,7-7s7,3.1,7,7S83.4,93.5,79.5,93.5z M79.5,82.5c-2.2,0-4,1.8-4,4s1.8,4,4,4s4-1.8,4-4
		S81.7,82.5,79.5,82.5z"/>
	<path d="M118.5,93.5c-3.9,0-7-3.1-7-7s3.1-7,7-7s7,3.1,7,7S122.4,93.5,118.5,93.5z M118.5,82.5c-2.2,0-4,1.8-4,4s1.8,4,4,4
		s4-1.8,4-4S120.7,82.5,118.5,82.5z"/>
	<path d="M78,190.5H63c-2.5,0-4.5-2-4.5-4.5c0-0.8,0.7-1.5,1.5-1.5s1.5,0.7,1.5,1.5c0,0.8,0.7,1.5,1.5,1.5h15c0.8,0,1.5-0.7,1.5-1.5
		c0-0.8,0.7-1.5,1.5-1.5s1.5,0.7,1.5,1.5C82.5,188.5,80.5,190.5,78,190.5z"/>
	<path d="M135,190.5h-15c-2.5,0-4.5-2-4.5-4.5c0-0.8,0.7-1.5,1.5-1.5s1.5,0.7,1.5,1.5c0,0.8,0.7,1.5,1.5,1.5h15
		c0.8,0,1.5-0.7,1.5-1.5c0-0.8,0.7-1.5,1.5-1.5s1.5,0.7,1.5,1.5C139.5,188.5,137.5,190.5,135,190.5z"/>
</g>
</svg>
