<?xml version="1.0" encoding="utf-8"?>
<!-- Generator: Adobe Illustrator 21.1.0, SVG Export Plug-In . SVG Version: 6.00 Build 0)  -->
<svg version="1.1" id="Layer_1" xmlns="http://www.w3.org/2000/svg" xmlns:xlink="http://www.w3.org/1999/xlink" x="0px" y="0px"
	 viewBox="0 0 200 200" style="enable-background:new 0 0 200 200;" xml:space="preserve">
<style type="text/css">
	.st0{fill:none;stroke:#000000;stroke-width:5;stroke-linecap:round;stroke-linejoin:round;stroke-miterlimit:10;}
</style>
<path d="M172.9,194.2H27.1c-1.4,0-2.5-1.1-2.5-2.5s1.1-2.5,2.5-2.5h145.7c1.4,0,2.5,1.1,2.5,2.5S174.3,194.2,172.9,194.2z"/>
<path class="st0" d="M155.4,188.6"/>
<path d="M159.5,191c-1.4,0-2.5-1.1-2.5-2.5V34h-17.5c-1.4,0-2.5-1.1-2.5-2.5V14H64v18.5c0,1.4-1.1,2.5-2.5,2.5H43v153.5
	c0,1.4-1.1,2.5-2.5,2.5s-2.5-1.1-2.5-2.5v-156c0-1.4,1.1-2.5,2.5-2.5H59V11.5c0-1.4,1.1-2.5,2.5-2.5h78c1.4,0,2.5,1.1,2.5,2.5V29
	h17.5c1.4,0,2.5,1.1,2.5,2.5v157C162,189.9,160.9,191,159.5,191z"/>
<path d="M156.5,53h-55.9c-1.4,0-2.5-1.1-2.5-2.5s1.1-2.5,2.5-2.5h55.9c1.4,0,2.5,1.1,2.5,2.5S157.9,53,156.5,53z"/>
<path d="M156.5,70h-55.9c-1.4,0-2.5-1.1-2.5-2.5s1.1-2.5,2.5-2.5h55.9c1.4,0,2.5,1.1,2.5,2.5S157.9,70,156.5,70z"/>
<path d="M157.5,87h-56.9c-1.4,0-2.5-1.1-2.5-2.5s1.1-2.5,2.5-2.5h56.9c1.4,0,2.5,1.1,2.5,2.5S158.9,87,157.5,87z"/>
<path d="M157.5,104h-56.9c-1.4,0-2.5-1.1-2.5-2.5s1.1-2.5,2.5-2.5h56.9c1.4,0,2.5,1.1,2.5,2.5S158.9,104,157.5,104z"/>
<path d="M156.5,121h-55.9c-1.4,0-2.5-1.1-2.5-2.5s1.1-2.5,2.5-2.5h55.9c1.4,0,2.5,1.1,2.5,2.5S157.9,121,156.5,121z"/>
<path d="M158.5,139h-57.9c-1.4,0-2.5-1.1-2.5-2.5s1.1-2.5,2.5-2.5h57.9c1.4,0,2.5,1.1,2.5,2.5S159.9,139,158.5,139z"/>
<path d="M156.5,157h-55.9c-1.4,0-2.5-1.1-2.5-2.5s1.1-2.5,2.5-2.5h55.9c1.4,0,2.5,1.1,2.5,2.5S157.9,157,156.5,157z"/>
<path d="M157.5,175h-56.9c-1.4,0-2.5-1.1-2.5-2.5s1.1-2.5,2.5-2.5h56.9c1.4,0,2.5,1.1,2.5,2.5S158.9,175,157.5,175z"/>
</svg>
