<?xml version="1.0" encoding="utf-8"?>
<!-- Generator: Adobe Illustrator 21.1.0, SVG Export Plug-In . SVG Version: 6.00 Build 0)  -->
<svg version="1.1" id="Layer_1" xmlns="http://www.w3.org/2000/svg" xmlns:xlink="http://www.w3.org/1999/xlink" x="0px" y="0px"
	 viewBox="0 0 200 200" style="enable-background:new 0 0 200 200;" xml:space="preserve">
<g>
	<g>
		<g>
			<path d="M21.4,39.3l-5,3v-1.2c0-15.1,11.5-20.3,25.7-20.3h45.5c11.8,0,25.7,4.7,26.6,26.9l46.6,0.4c22.3,0.1,33.6,7.5,33.6,22.1
				v18h-5v-18c0-4.2,0-17-28.6-17.1l-51.5-0.4v-2.5c0-16.6-6.9-24.4-21.7-24.4H42.1c-11.4,0-20.7,3-20.7,15.3
				C21.4,41.1,21.4,39.3,21.4,39.3z"/>
		</g>
	</g>
	<g>
		<g>
			<path d="M182.5,182h-163c-6.6,0-12-5.4-12-12v-66.2c0-2.7,2.1-4.8,4.8-4.8h177.5c2.6,0,4.7,2.1,4.7,4.7V170
				C194.5,176.6,189.1,182,182.5,182z M12.5,104v66c0,3.8,3.2,7,7,7h163c3.8,0,7-3.2,7-7v-66H12.5z"/>
		</g>
	</g>
	<g>
		<g>
			<path d="M190.5,103.9h-180c-1.7,0-3-1.3-3-3V59.7c0-15,11.5-27.2,25.7-27.2h45.5c16.9,0,25.9,9.1,26.6,26.9l65.4,0.4
				c14.2,0.1,23.7,9,23.7,22.1v17.9c0.1,1-0.3,2-1,2.8C192.7,103.4,191.6,103.9,190.5,103.9z M12.5,98.9h176.9v-17
				c0-12.5-10.1-17-18.7-17.1l-70.3-0.4v-2.5c0-16.9-6.7-24.4-21.7-24.4H33.2c-11.4,0-20.7,10-20.7,22.2V98.9z"/>
		</g>
	</g>
</g>
</svg>
