<?xml version="1.0" standalone="no"?>
<!DOCTYPE svg PUBLIC "-//W3C//DTD SVG 1.1//EN" "http://www.w3.org/Graphics/SVG/1.1/DTD/svg11.dtd" >
<svg xmlns="http://www.w3.org/2000/svg">
<metadata>Generated by IcoMoon</metadata>
<defs>
<font id="icomoon" horiz-adv-x="1024">
<font-face units-per-em="1024" ascent="960" descent="-64" />
<missing-glyph horiz-adv-x="1024" />
<glyph unicode="&#x20;" horiz-adv-x="512" d="" />
<glyph unicode="&#xe912;" glyph-name="appartment" d="M880.128-24.064h-746.496c-7.168 0-12.8 5.632-12.8 12.8s5.632 12.8 12.8 12.8h745.984c7.168 0 12.8-5.632 12.8-12.8s-5.12-12.8-12.288-12.8zM182.784 37.888c-7.168 0-12.8 5.632-12.8 12.8v848.896c0 7.168 5.632 12.8 12.8 12.8l649.216 1.536c0 0 0 0 0 0 7.168 0 12.8-5.632 12.8-12.8s-5.632-12.8-12.8-12.8l-636.416-1.536v-836.096c0-7.168-6.144-12.8-12.8-12.8zM831.488 37.888c-7.168 0-12.8 5.632-12.8 12.8v848.896c0 7.168 5.632 12.8 12.8 12.8s12.8-5.632 12.8-12.8v-848.896c0-7.168-5.632-12.8-12.8-12.8zM376.32 555.52h-112.64c-7.168 0-12.8 5.632-12.8 12.8v225.28c0 7.168 5.632 12.8 12.8 12.8h112.64c7.168 0 12.8-5.632 12.8-12.8v-225.28c0-7.168-5.632-12.8-12.8-12.8zM276.48 581.12h87.040v199.68h-87.040v-199.68zM376.32 668.16h-112.64c-7.168 0-12.8 5.632-12.8 12.8s5.632 12.8 12.8 12.8h112.64c7.168 0 12.8-5.632 12.8-12.8s-5.632-12.8-12.8-12.8zM376.32 611.84h-112.64c-7.168 0-12.8 5.632-12.8 12.8s5.632 12.8 12.8 12.8h112.64c7.168 0 12.8-5.632 12.8-12.8s-5.632-12.8-12.8-12.8zM560.64 555.52h-112.64c-7.168 0-12.8 5.632-12.8 12.8v225.28c0 7.168 5.632 12.8 12.8 12.8h112.64c7.168 0 12.8-5.632 12.8-12.8v-225.28c0-7.168-5.632-12.8-12.8-12.8zM460.8 581.12h87.040v199.68h-87.040v-199.68zM560.64 668.16h-112.64c-7.168 0-12.8 5.632-12.8 12.8s5.632 12.8 12.8 12.8h112.64c7.168 0 12.8-5.632 12.8-12.8s-5.632-12.8-12.8-12.8zM560.64 611.84h-112.64c-7.168 0-12.8 5.632-12.8 12.8s5.632 12.8 12.8 12.8h112.64c7.168 0 12.8-5.632 12.8-12.8s-5.632-12.8-12.8-12.8zM744.96 555.52h-112.64c-7.168 0-12.8 5.632-12.8 12.8v225.28c0 7.168 5.632 12.8 12.8 12.8h112.64c7.168 0 12.8-5.632 12.8-12.8v-225.28c0-7.168-5.632-12.8-12.8-12.8zM645.12 581.12h87.040v199.68h-87.040v-199.68zM744.96 668.16h-112.64c-7.168 0-12.8 5.632-12.8 12.8s5.632 12.8 12.8 12.8h112.64c7.168 0 12.8-5.632 12.8-12.8s-5.632-12.8-12.8-12.8zM744.96 611.84h-112.64c-7.168 0-12.8 5.632-12.8 12.8s5.632 12.8 12.8 12.8h112.64c7.168 0 12.8-5.632 12.8-12.8s-5.632-12.8-12.8-12.8zM376.32 232.96h-112.64c-7.168 0-12.8 5.632-12.8 12.8v225.28c0 7.168 5.632 12.8 12.8 12.8h112.64c7.168 0 12.8-5.632 12.8-12.8v-225.28c0-7.168-5.632-12.8-12.8-12.8zM276.48 258.56h87.040v199.68h-87.040v-199.68zM376.32 345.6h-112.64c-7.168 0-12.8 5.632-12.8 12.8s5.632 12.8 12.8 12.8h112.64c7.168 0 12.8-5.632 12.8-12.8s-5.632-12.8-12.8-12.8zM376.32 289.28h-112.64c-7.168 0-12.8 5.632-12.8 12.8s5.632 12.8 12.8 12.8h112.64c7.168 0 12.8-5.632 12.8-12.8s-5.632-12.8-12.8-12.8zM560.64 232.96h-112.64c-7.168 0-12.8 5.632-12.8 12.8v225.28c0 7.168 5.632 12.8 12.8 12.8h112.64c7.168 0 12.8-5.632 12.8-12.8v-225.28c0-7.168-5.632-12.8-12.8-12.8zM460.8 258.56h87.040v199.68h-87.040v-199.68zM560.64 345.6h-112.64c-7.168 0-12.8 5.632-12.8 12.8s5.632 12.8 12.8 12.8h112.64c7.168 0 12.8-5.632 12.8-12.8s-5.632-12.8-12.8-12.8zM560.64 289.28h-112.64c-7.168 0-12.8 5.632-12.8 12.8s5.632 12.8 12.8 12.8h112.64c7.168 0 12.8-5.632 12.8-12.8s-5.632-12.8-12.8-12.8zM744.96 232.96h-112.64c-7.168 0-12.8 5.632-12.8 12.8v225.28c0 7.168 5.632 12.8 12.8 12.8h112.64c7.168 0 12.8-5.632 12.8-12.8v-225.28c0-7.168-5.632-12.8-12.8-12.8zM645.12 258.56h87.040v199.68h-87.040v-199.68zM744.96 345.6h-112.64c-7.168 0-12.8 5.632-12.8 12.8s5.632 12.8 12.8 12.8h112.64c7.168 0 12.8-5.632 12.8-12.8s-5.632-12.8-12.8-12.8zM744.96 289.28h-112.64c-7.168 0-12.8 5.632-12.8 12.8s5.632 12.8 12.8 12.8h112.64c7.168 0 12.8-5.632 12.8-12.8s-5.632-12.8-12.8-12.8zM376.32 38.4h-112.64c-7.168 0-12.8 5.632-12.8 12.8v92.16c0 7.168 5.632 12.8 12.8 12.8h112.64c7.168 0 12.8-5.632 12.8-12.8v-92.16c0-7.168-5.632-12.8-12.8-12.8zM276.48 64h87.040v66.56h-87.040v-66.56zM560.64 38.4h-112.64c-7.168 0-12.8 5.632-12.8 12.8v92.16c0 7.168 5.632 12.8 12.8 12.8h112.64c7.168 0 12.8-5.632 12.8-12.8v-92.16c0-7.168-5.632-12.8-12.8-12.8zM460.8 64h87.040v66.56h-87.040v-66.56zM744.96 38.4h-112.64c-7.168 0-12.8 5.632-12.8 12.8v92.16c0 7.168 5.632 12.8 12.8 12.8h112.64c7.168 0 12.8-5.632 12.8-12.8v-92.16c0-7.168-5.632-12.8-12.8-12.8zM645.12 64h87.040v66.56h-87.040v-66.56z" />
<glyph unicode="&#xe91e;" glyph-name="back" d="M480.256-1.024c-4.608 0-9.216 1.536-12.8 5.12l-431.616 431.104c-3.584 3.584-5.12 7.68-5.12 12.8 0 4.608 2.048 9.216 5.12 12.8l431.616 431.104c7.168 7.168 18.432 7.168 25.6 0s7.168-18.432 0-25.6l-418.816-418.304 418.816-418.304c7.168-7.168 7.168-18.432 0-25.6-3.584-3.584-8.192-5.12-12.8-5.12zM990.72 432.64h-931.84c-9.728 0-17.92 8.192-17.92 17.92s8.192 17.92 17.92 17.92h931.84c9.728 0 17.92-8.192 17.92-17.92s-8.192-17.92-17.92-17.92z" />
<glyph unicode="&#xe91f;" glyph-name="building" d="M885.248-29.184h-746.496c-7.168 0-12.8 5.632-12.8 12.8s5.632 12.8 12.8 12.8h745.984c7.168 0 12.8-5.632 12.8-12.8s-5.12-12.8-12.288-12.8zM239.104 32.768c-7.168 0-12.8 5.632-12.8 12.8v848.896c0 7.168 5.632 12.8 12.8 12.8h551.424c7.168 0 12.8-5.632 12.8-12.8s-5.632-12.8-12.8-12.8h-538.624v-836.096c0-7.168-6.144-12.8-12.8-12.8zM790.528 32.768c-7.168 0-12.8 5.632-12.8 12.8v848.896c0 7.168 5.632 12.8 12.8 12.8s12.8-5.632 12.8-12.8v-848.896c0-7.168-5.632-12.8-12.8-12.8zM476.672 668.16h-135.168c-7.168 0-12.8 5.632-12.8 12.8v113.664c0 7.168 5.632 12.8 12.8 12.8h135.168c7.168 0 12.8-5.632 12.8-12.8v-113.664c0-7.168-5.632-12.8-12.8-12.8zM354.304 693.76h109.568v88.064h-109.568v-88.064zM682.496 668.16h-135.168c-7.168 0-12.8 5.632-12.8 12.8v113.664c0 7.168 5.632 12.8 12.8 12.8h135.168c7.168 0 12.8-5.632 12.8-12.8v-113.664c0-7.168-6.144-12.8-12.8-12.8zM560.128 693.76h109.568v88.064h-109.568v-88.064zM476.672 477.184h-135.168c-7.168 0-12.8 5.632-12.8 12.8v113.664c0 7.168 5.632 12.8 12.8 12.8h135.168c7.168 0 12.8-5.632 12.8-12.8v-113.664c0-7.168-5.632-12.8-12.8-12.8zM354.304 502.784h109.568v88.064h-109.568v-88.064zM682.496 477.184h-135.168c-7.168 0-12.8 5.632-12.8 12.8v113.664c0 7.168 5.632 12.8 12.8 12.8h135.168c7.168 0 12.8-5.632 12.8-12.8v-113.664c0-7.168-6.144-12.8-12.8-12.8zM560.128 502.784h109.568v88.064h-109.568v-88.064zM476.672 289.792h-135.168c-7.168 0-12.8 5.632-12.8 12.8v113.664c0 7.168 5.632 12.8 12.8 12.8h135.168c7.168 0 12.8-5.632 12.8-12.8v-113.664c0-7.168-5.632-12.8-12.8-12.8zM354.304 315.392h109.568v88.064h-109.568v-88.064zM682.496 289.792h-135.168c-7.168 0-12.8 5.632-12.8 12.8v113.664c0 7.168 5.632 12.8 12.8 12.8h135.168c7.168 0 12.8-5.632 12.8-12.8v-113.664c0-7.168-6.144-12.8-12.8-12.8zM560.128 315.392h109.568v88.064h-109.568v-88.064zM547.328 32.768c-7.168 0-12.8 5.632-12.8 12.8v183.808c0 7.168 5.632 12.8 12.8 12.8h135.168c7.168 0 12.8-5.632 12.8-12.8s-5.632-12.8-12.8-12.8h-122.368v-171.008c0-7.168-6.144-12.8-12.8-12.8zM682.496 32.768c-7.168 0-12.8 5.632-12.8 12.8v183.808c0 7.168 5.632 12.8 12.8 12.8s12.8-5.632 12.8-12.8v-183.808c0-7.168-6.144-12.8-12.8-12.8zM341.504 38.4c-7.168 0-12.8 5.632-12.8 12.8v183.808c0 7.168 5.632 12.8 12.8 12.8h135.168c7.168 0 12.8-5.632 12.8-12.8s-5.632-12.8-12.8-12.8h-122.368v-171.008c0-7.168-5.632-12.8-12.8-12.8zM476.672 38.4c-7.168 0-12.8 5.632-12.8 12.8v183.808c0 7.168 5.632 12.8 12.8 12.8s12.8-5.632 12.8-12.8v-183.808c0-7.168-5.632-12.8-12.8-12.8z" />
<glyph unicode="&#xe920;" glyph-name="dup_triplex" d="M885.248 25.6h-746.496c-7.168 0-12.8 5.632-12.8 12.8s5.632 12.8 12.8 12.8h745.984c7.168 0 12.8-5.632 12.8-12.8s-5.12-12.8-12.288-12.8zM931.84 347.136h-842.24c-5.12 0-9.728 3.072-11.776 7.68s-1.024 10.24 2.56 13.824l102.4 109.568c2.56 2.56 5.632 4.096 9.216 4.096h637.44c3.584 0 7.168-1.536 9.216-4.096l102.4-109.568c3.584-3.584 4.608-9.216 2.56-13.824s-6.656-7.68-11.776-7.68zM119.296 372.736h783.36l-78.336 83.968h-626.688l-78.336-83.968zM880.64 755.712h-739.84c-5.12 0-9.728 3.072-11.776 7.68s-1.024 10.24 2.56 13.824l102.4 109.568c2.56 2.56 5.632 4.096 9.216 4.096h535.040c3.584 0 7.168-1.536 9.216-4.096l102.4-109.568c3.584-3.584 4.608-9.216 2.56-13.824s-6.656-7.68-11.776-7.68zM170.496 781.312h680.96l-78.336 83.968h-524.288l-78.336-83.968zM140.8 26.624c-7.168 0-12.8 5.632-12.8 12.8l-5.12 318.464c0 7.168 5.632 12.8 12.8 12.8 0 0 0 0 0 0 7.168 0 12.8-5.632 12.8-12.8l5.12-318.464c0-6.656-5.632-12.8-12.8-12.8 0 0 0 0 0 0zM883.2 26.624c-7.168 0-12.8 5.632-12.8 12.8v318.464c0 7.168 5.632 12.8 12.8 12.8s12.8-5.632 12.8-12.8v-318.464c0-7.168-5.632-12.8-12.8-12.8zM775.68 459.264c-7.168 0-12.8 5.632-12.8 12.8v294.4c0 7.168 5.632 12.8 12.8 12.8s12.8-5.632 12.8-12.8v-294.4c0-7.168-5.632-12.8-12.8-12.8zM253.44 463.872c-7.168 0-12.8 5.632-12.8 12.8v289.792c0 7.168 5.632 12.8 12.8 12.8s12.8-5.632 12.8-12.8v-289.792c0-7.168-5.632-12.8-12.8-12.8zM217.6 36.352c-7.168 0-12.8 5.632-12.8 12.8v185.344c0 7.168 5.632 12.8 12.8 12.8s12.8-5.632 12.8-12.8v-185.344c0-7.168-5.632-12.8-12.8-12.8zM540.16 31.232c-7.168 0-12.8 5.632-12.8 12.8v189.952c0 7.168 5.632 12.8 12.8 12.8s12.8-5.632 12.8-12.8v-189.952c0-6.656-5.632-12.8-12.8-12.8zM540.16 221.696h-322.56c-7.168 0-12.8 5.632-12.8 12.8s5.632 12.8 12.8 12.8h322.56c7.168 0 12.8-5.632 12.8-12.8s-5.632-12.8-12.8-12.8zM801.28 164.352h-179.2c-7.168 0-12.8 5.632-12.8 12.8v114.176c0 7.168 5.632 12.8 12.8 12.8h179.2c7.168 0 12.8-5.632 12.8-12.8v-114.176c0-7.168-5.632-12.8-12.8-12.8zM634.88 189.952h153.6v88.576h-153.6v-88.576zM718.848 572.416c0 0 0 0 0 0l-179.2 1.024c-3.584 0-6.656 1.536-9.216 3.584-2.56 2.56-3.584 5.632-3.584 9.216l0.512 114.176c0 7.168 5.632 12.8 12.8 12.8 0 0 0 0 0 0l179.2-1.024c3.584 0 6.656-1.536 9.216-3.584 2.56-2.56 3.584-5.632 3.584-9.216l-0.512-114.176c0-7.168-5.632-12.8-12.8-12.8zM552.448 599.040l153.6-1.024 0.512 88.576-153.6 1.024-0.512-88.576zM488.96 572.928h-179.2c-7.168 0-12.8 5.632-12.8 12.8v114.176c0 7.168 5.632 12.8 12.8 12.8h179.2c7.168 0 12.8-5.632 12.8-12.8v-114.176c0-7.168-5.632-12.8-12.8-12.8zM322.56 598.528h153.6v88.576h-153.6v-88.576zM880.128-34.304h-746.496c-7.168 0-12.8 5.632-12.8 12.8s5.632 12.8 12.8 12.8h745.984c7.168 0 12.8-5.632 12.8-12.8s-5.12-12.8-12.288-12.8z" />
<glyph unicode="&#xe925;" glyph-name="filter" d="M430.080 68.096c-2.048 0-4.096 0.512-5.632 1.536-4.608 2.048-7.168 6.656-7.168 11.264v329.216l-385.024 360.96c-3.584 3.584-5.12 9.216-3.072 13.824 2.048 5.12 6.656 8.192 11.776 8.192h942.080c5.12 0 9.728-3.072 11.776-8.192s0.512-10.24-3.072-13.824l-382.464-360.96v-201.216c0-4.096-2.048-7.68-5.12-10.24l-166.4-128c-2.048-1.536-5.12-2.56-7.68-2.56zM73.216 767.488l365.568-342.528c2.56-2.56 4.096-5.632 4.096-9.216v-308.736l140.8 108.544v200.704c0 3.584 1.536 6.656 4.096 9.216l363.008 342.528h-877.568z" />
<glyph unicode="&#xe926;" glyph-name="fire" d="M143.36 316.928c0 39.936 0 85.504 11.776 128 2.56 7.68 5.12 15.36 7.68 22.528 14.336 36.864 35.328 71.68 58.368 104.96 4.096 6.144 8.192 12.288 12.288 18.432s8.192 12.288 11.776 18.944c4.096-7.68 6.144-16.384 7.68-26.112 1.024-7.168 3.072-15.872 3.584-24.576-0.512-6.144-1.024-12.8-2.048-19.456s-2.048-13.824-3.072-20.48c-5.632-30.72-0.512-60.928 19.968-86.528 25.6-25.088 71.68-5.12 81.92 20.48 15.36 40.448-15.36 86.016-11.264 130.56 0.512 7.168 1.536 14.336 2.56 21.504 3.584 21.504 10.752 42.496 22.528 62.976 3.072 5.12 6.656 9.728 10.24 14.336 4.608 7.168 10.24 14.336 16.896 20.992 6.144 6.656 12.8 13.312 19.456 19.968 57.344 43.52 118.784 119.808 72.704 190.464 35.84-5.12 56.32-25.088 80.384-45.568 6.656-8.704 11.776-17.408 15.36-27.136 2.56-7.168 4.608-14.848 5.632-22.528 5.632-43.52-0.512-87.040-5.12-130.048-1.024-8.704-1.536-17.408-2.048-26.112-3.072-15.872-4.096-33.28-2.56-50.688s5.632-34.816 12.288-49.664c7.168-8.704 12.8-16.896 19.968-23.552 29.696-29.184 70.656-14.336 96.256 1.024 30.72 25.088 25.6 66.048 18.944 98.816-2.56 11.264-5.632 23.040-8.192 34.304-2.048 11.264-3.584 23.040-3.072 34.816 0 8.192 0 14.848 0 19.968 9.216-4.096 17.408-8.704 25.6-13.824 8.704-6.144 16.384-12.8 24.064-19.968s14.336-14.336 20.992-22.016c90.624-122.368 136.704-299.52 86.528-449.024-5.12-14.336-11.776-28.672-18.944-42.496-7.68-13.824-16.384-27.136-26.112-40.448-8.192-11.776-16.896-23.040-26.112-33.792-8.704-10.24-17.92-20.48-27.648-29.696-78.336-74.24-195.584-110.080-305.152-94.72-10.24 1.024-20.48 3.072-30.72 4.608-10.24 2.048-20.48 4.096-30.208 7.168-8.704 3.072-17.408 6.656-26.112 10.24-75.776 34.816-141.824 97.28-187.392 174.080-5.12 8.704-9.728 17.408-14.336 26.112-19.456 26.112-19.456 56.32-29.184 83.456-2.56 9.728-4.608 19.456-6.144 29.696z" />
<glyph unicode="&#xe92c;" glyph-name="ground-home" d="M884.736 51.712h-747.52c-3.584 0-6.656 1.536-9.216 3.584-2.56 2.56-3.584 5.632-3.584 9.216l5.632 370.688c0 7.168 6.144 12.8 12.8 12.8 7.168 0 12.8-6.144 12.8-12.8l-5.632-357.888h721.408v330.752c0 7.168 5.632 12.8 12.8 12.8s12.8-5.632 12.8-12.8v-343.552c0.512-7.168-5.12-12.8-12.288-12.8zM399.36 65.536c-7.168 0-12.8 5.632-12.8 12.8 0 52.736 0.512 174.592 0.512 215.040l-42.496-1.024c0 0-0.512 0-0.512 0l-41.984 1.024c0-40.448 0.512-161.792 0.512-215.040 0-7.168-5.632-12.8-12.8-12.8s-12.8 5.632-12.8 12.8c0 64-0.512 228.352-0.512 228.352 0 3.584 1.536 6.656 4.096 9.216s5.632 3.584 9.216 3.584l54.784-1.536 55.296 1.536c3.584 0 6.656-1.024 9.216-3.584s4.096-5.632 4.096-9.216c0-1.536-0.512-164.864-0.512-227.84-0.512-7.68-6.144-13.312-13.312-13.312zM483.84 413.184c-4.608 0-8.704 2.048-10.752 6.144 0 0-14.848 24.064-29.696 45.056-68.608 97.28-139.776 200.704-192.512 301.056-3.072 6.144-1.024 13.824 5.12 17.408 6.144 3.072 13.824 1.024 17.408-5.12 52.224-99.328 122.88-202.24 190.976-299.008 10.752-15.36 20.992-31.232 26.624-39.936 46.592 0 309.76 0 464.896 0-67.072 104.96-168.448 285.184-188.928 321.536l-65.536 1.024c-7.168 0-12.8 6.144-12.8 12.8 0 7.168 5.632 12.8 12.8 12.8 0 0 0 0 0 0l72.704-1.024c4.608 0 8.704-2.56 10.752-6.656 1.536-2.56 132.096-236.032 204.288-346.112 2.56-4.096 2.56-9.216 0.512-13.312s-6.656-6.656-11.264-6.656c-163.328 0-494.592 0-494.592 0s0 0 0 0zM591.872 56.32c-7.168 0-12.8 5.632-12.8 12.8v338.944c0 7.168 5.632 12.8 12.8 12.8s12.8-5.632 12.8-12.8v-338.944c0-7.168-5.632-12.8-12.8-12.8zM154.624 436.224c0 0-0.512 0-0.512 0l-108.032 5.632c-4.608 0-8.704 3.072-10.752 7.168s-2.048 8.704 0.512 12.8l202.752 317.44c2.56 3.584 6.144 5.632 10.752 6.144l324.096 2.048c0 0 0 0 0 0 7.168 0 12.8-5.632 12.8-12.8s-5.632-12.8-12.8-12.8h-9.216l-308.224-2.048-186.88-293.376 79.36-4.096c20.48 27.648 112.128 152.064 149.504 200.704 4.096 5.632 12.288 6.656 17.92 2.048 5.632-4.096 6.656-12.288 2.048-17.92-41.984-54.272-152.064-204.288-153.088-205.824-2.56-3.072-6.144-5.12-10.24-5.12zM683.52 624.128c-7.168 0-12.8 5.632-12.8 12.8v194.048l-65.024 1.536c0-37.376-1.024-145.92-1.024-195.584 0-7.168-5.632-12.8-12.8-12.8s-12.8 5.632-12.8 12.8c0 60.416 1.024 207.36 1.024 208.896 0 3.584 1.536 6.656 4.096 9.216s5.632 3.584 9.216 3.584l90.624-2.048c7.168 0 12.288-5.632 12.288-12.8v-206.336c0-7.68-5.632-13.312-12.8-13.312z" />
<glyph unicode="&#xe92d;" d="M965.12 448c0-250.251-202.869-453.12-453.12-453.12s-453.12 202.869-453.12 453.12c0 250.251 202.869 453.12 453.12 453.12s453.12-202.869 453.12-453.12z" />
<glyph unicode="&#xe92e;" d="M512-17.92c-257.024 0-465.92 208.896-465.92 465.92s208.896 465.92 465.92 465.92 465.92-208.896 465.92-465.92-208.896-465.92-465.92-465.92zM512 888.32c-242.688 0-440.32-197.632-440.32-440.32s197.632-440.32 440.32-440.32c242.688 0 440.32 197.632 440.32 440.32s-197.632 440.32-440.32 440.32z" />
<glyph unicode="&#xe92f;" d="M862.72 544.256c-0.512-30.72-8.192-59.904-21.504-88.064-16.896-36.352-40.448-68.096-66.56-98.816-32.768-38.912-69.12-74.752-106.496-109.568-50.176-46.080-101.376-91.648-152.064-137.728-4.608-4.096-4.608-4.096-9.216 0-63.488 56.832-127.488 112.64-187.904 172.544-34.304 33.792-67.072 68.096-96.256 107.008-21.504 29.184-40.448 59.904-51.712 94.72-11.776 36.864-14.336 74.24-2.048 111.104 19.968 59.392 61.44 95.744 122.88 107.008 67.072 12.288 123.904-8.704 169.984-58.368 15.872-16.896 30.208-34.816 45.056-52.224 4.096-4.608 4.096-4.608 8.192 0 14.336 16.896 28.672 33.28 43.52 50.176 31.232 35.84 70.656 57.344 118.272 62.976 48.128 5.632 91.648-6.144 129.024-37.376 31.232-26.112 48.64-60.416 54.272-100.352 1.536-7.68 2.048-15.36 2.56-23.040z" />
<glyph unicode="&#xe930;" d="M965.12 448c0-250.251-202.869-453.12-453.12-453.12s-453.12 202.869-453.12 453.12c0 250.251 202.869 453.12 453.12 453.12s453.12-202.869 453.12-453.12z" />
<glyph unicode="&#xe931;" d="M512-17.92c-257.024 0-465.92 208.896-465.92 465.92s208.896 465.92 465.92 465.92 465.92-208.896 465.92-465.92-208.896-465.92-465.92-465.92zM512 888.32c-242.688 0-440.32-197.632-440.32-440.32s197.632-440.32 440.32-440.32c242.688 0 440.32 197.632 440.32 440.32s-197.632 440.32-440.32 440.32z" />
<glyph unicode="&#xe932;" d="M862.72 544.256c-0.512-30.72-8.192-59.904-21.504-88.064-16.896-36.352-40.448-68.096-66.56-98.816-32.768-38.912-69.12-74.752-106.496-109.568-50.176-46.080-101.376-91.648-152.064-137.728-4.608-4.096-4.608-4.096-9.216 0-63.488 56.832-127.488 112.64-187.904 172.544-34.304 33.792-67.072 68.096-96.256 107.008-21.504 29.184-40.448 59.904-51.712 94.72-11.776 36.864-14.336 74.24-2.048 111.104 19.968 59.392 61.44 95.744 122.88 107.008 67.072 12.288 123.904-8.704 169.984-58.368 15.872-16.896 30.208-34.816 45.056-52.224 4.096-4.608 4.096-4.608 8.192 0 14.336 16.896 28.672 33.28 43.52 50.176 31.232 35.84 70.656 57.344 118.272 62.976 48.128 5.632 91.648-6.144 129.024-37.376 31.232-26.112 48.64-60.416 54.272-100.352 1.536-7.68 2.048-15.36 2.56-23.040z" />
<glyph unicode="&#xe933;" glyph-name="loft" d="M890.368-24.064h-746.496c-7.168 0-12.8 5.632-12.8 12.8s5.632 12.8 12.8 12.8h745.984c7.168 0 12.8-5.632 12.8-12.8s-5.12-12.8-12.288-12.8zM166.4 468.48h25.6v-419.84h-25.6v419.84zM855.040 468.48h25.6v-419.84h-25.6v419.84zM61.44 392.192v142.336l458.24 268.8 453.12-268.8v-137.216l-453.12 268.8-458.24-273.92zM87.040 520.192v-82.944l432.64 258.56 427.52-253.44v77.824l-427.52 253.44-432.64-253.44zM171.071 257.832l235.371 368.513 21.576-13.78-235.371-368.513-21.576 13.78zM631.638 602.597l21.898 13.261 220.129-363.511-21.898-13.261-220.129 363.511zM181.76 478.72h138.24v-25.6h-138.24v25.6zM724.48 478.72h143.36v-25.6h-143.36v25.6z" />
<glyph unicode="&#xe934;" glyph-name="long_term" d="M642.56 33.28c-31.744 0-71.168 0-87.040 1.536-104.96 0-209.408 0-314.368 0h-96.256c-61.44 0-93.696 31.744-94.72 94.72-1.024 47.104-0.512 410.624 0 425.984l1.024 52.224c0 0.512 0.512 83.968 0 123.392-0.512 26.112 6.144 47.104 20.48 61.44 14.336 14.848 35.328 22.528 62.464 22.528 233.984 0 467.968 0 702.464 0 46.592 0 75.264-28.672 75.776-76.288 0 0 0-0.512 0-0.512-1.536-44.032-3.584-133.12-3.584-134.144l-1.024-216.576-1.024-70.144c0-7.168-5.632-12.8-12.8-12.8 0 0 0 0 0 0-7.168 0-12.8 6.144-12.8 12.8l1.024 70.144 1.024 216.576c0 1.024 2.048 89.6 3.584 134.144-0.512 23.040-9.728 50.688-50.176 50.688-233.984 0-467.968 0-702.464 0-19.968 0-34.816-5.12-44.544-14.848-9.216-9.216-13.824-24.064-13.312-43.008 0.512-39.936 0-123.392 0-123.904l-0.512-51.712c0-3.584-1.024-378.368 0-425.472 1.024-48.64 22.016-69.632 69.12-69.632h96.256c104.96 0 209.92 0 314.88 0 0.512 0 1.024 0 1.024 0 14.336-1.536 55.296-1.536 85.504-1.536 7.168 0 12.8-5.632 12.8-12.8s-5.632-12.8-12.8-12.8zM888.32 591.36h-814.080c-7.168 0-12.8 5.632-12.8 12.8s5.632 12.8 12.8 12.8h814.080c7.168 0 12.8-5.632 12.8-12.8s-5.632-12.8-12.8-12.8zM793.6-33.28c-104.448 0-189.44 84.992-189.44 189.44s84.992 189.44 189.44 189.44 189.44-84.992 189.44-189.44-84.992-189.44-189.44-189.44zM793.6 320c-90.112 0-163.84-73.728-163.84-163.84s73.728-163.84 163.84-163.84 163.84 73.728 163.84 163.84-73.728 163.84-163.84 163.84zM857.6 104.96c-2.56 0-5.12 1.024-7.68 2.56l-61.44 46.080c-3.072 2.56-5.12 6.144-5.12 10.24v107.52c0 7.168 5.632 12.8 12.8 12.8s12.8-5.632 12.8-12.8v-101.376l56.32-42.496c5.632-4.096 6.656-12.288 2.56-17.92-2.56-3.072-6.144-4.608-10.24-4.608zM673.28 663.040c-24.064 0-43.52 19.456-43.52 43.52s19.456 43.52 43.52 43.52 43.52-19.456 43.52-43.52-19.456-43.52-43.52-43.52zM673.28 724.48c-9.728 0-17.92-8.192-17.92-17.92s8.192-17.92 17.92-17.92 17.92 8.192 17.92 17.92-8.192 17.92-17.92 17.92zM304.64 693.76c-7.168 0-12.8 5.632-12.8 12.8v163.84c0 7.168 5.632 12.8 12.8 12.8s12.8-5.632 12.8-12.8v-163.84c0-7.168-5.632-12.8-12.8-12.8zM673.28 693.76c-7.168 0-12.8 5.632-12.8 12.8v163.84c0 7.168 5.632 12.8 12.8 12.8s12.8-5.632 12.8-12.8v-163.84c0-7.168-5.632-12.8-12.8-12.8zM304.64 663.040c-24.064 0-43.52 19.456-43.52 43.52s19.456 43.52 43.52 43.52 43.52-19.456 43.52-43.52-19.456-43.52-43.52-43.52zM304.64 724.48c-9.728 0-17.92-8.192-17.92-17.92s8.192-17.92 17.92-17.92 17.92 8.192 17.92 17.92-8.192 17.92-17.92 17.92z" />
<glyph unicode="&#xe935;" glyph-name="magnify" d="M402.432 193.536c-200.704 0-364.032 163.328-364.032 364.032s163.328 364.032 364.032 364.032 364.032-163.328 364.032-364.032-163.328-364.032-364.032-364.032zM402.432 896c-186.368 0-338.432-152.064-338.432-338.432s152.064-338.432 338.432-338.432 338.432 152.064 338.432 338.432-152.064 338.432-338.432 338.432zM926.72-3.584c-9.216 0-18.432 3.584-25.6 10.752l-261.12 261.632c-13.824 13.824-13.824 36.864 0 50.688s36.864 13.824 50.688 0l261.632-261.632c13.824-13.824 13.824-36.864 0-50.688-7.168-7.168-16.384-10.752-25.6-10.752z" />
<glyph unicode="&#xe936;" d="M262.656 684.544h-22.528l-1.024-354.304c7.68-0.512 14.848-0.512 22.528-1.024l1.024 355.328z" />
<glyph unicode="&#xe937;" d="M866.304 76.288h-52.224v-5.632c0-6.144-5.12-11.264-11.264-11.264h-268.8c-1.024-2.048-1.536-4.096-2.56-5.632h346.624c6.144 0 11.264 5.12 11.264 11.264v619.52h-22.528v-608.256z" />
<glyph unicode="&#xe938;" d="M966.656 811.52h-788.48c-6.144 0-11.264-5.12-11.264-11.264v-104.448c0-6.144 5.12-11.264 11.264-11.264h61.952v11.264c0 6.144 5.12 11.264 11.264 11.264h-61.952v81.92h765.952v-81.92h-77.824c6.144 0 11.264-5.12 11.264-11.264v-11.264h77.824c6.144 0 11.264 5.12 11.264 11.264v103.936c0 6.656-5.12 11.776-11.264 11.776z" />
<glyph unicode="&#xe939;" d="M877.568 707.072h-626.176c-6.144 0-11.264-5.12-11.264-11.264v-11.264h648.704v11.264c0 6.144-4.608 11.264-11.264 11.264z" />
<glyph unicode="&#xe93a;" d="M329.216 517.632h11.264v49.664h451.072v-49.664h11.264c6.144 0 11.264-5.12 11.264-11.264v72.192c0 6.144-5.12 11.264-11.264 11.264h-473.6c-6.144 0-11.264-5.12-11.264-11.264v-72.192c0 6.144 5.12 11.264 11.264 11.264z" />
<glyph unicode="&#xe93b;" d="M802.816 495.104h-11.264v-49.664h11.264c6.144 0 11.264-5.12 11.264-11.264v72.192c0-6.144-5.12-11.264-11.264-11.264z" />
<glyph unicode="&#xe93c;" d="M329.216 445.44h11.264v49.664h-11.264c-6.144 0-11.264 5.12-11.264 11.264v-72.192c0 6.144 5.12 11.264 11.264 11.264z" />
<glyph unicode="&#xe93d;" d="M329.216 495.104h473.6c6.144 0 11.264 5.12 11.264 11.264s-5.12 11.264-11.264 11.264h-473.6c-6.144 0-11.264-5.12-11.264-11.264s5.12-11.264 11.264-11.264z" />
<glyph unicode="&#xe93e;" d="M802.816 422.912h-11.264v-49.664h11.264c6.144 0 11.264-5.12 11.264-11.264v72.192c0-6.656-5.12-11.264-11.264-11.264z" />
<glyph unicode="&#xe93f;" d="M329.216 373.248h11.264v49.664h-11.264c-6.144 0-11.264 5.12-11.264 11.264v-72.192c0 6.144 5.12 11.264 11.264 11.264z" />
<glyph unicode="&#xe940;" d="M329.216 422.912h473.6c6.144 0 11.264 5.12 11.264 11.264s-5.12 11.264-11.264 11.264h-473.6c-6.144 0-11.264-5.12-11.264-11.264 0-6.656 5.12-11.264 11.264-11.264z" />
<glyph unicode="&#xe941;" d="M340.48 350.72h-11.264c-6.144 0-11.264 5.12-11.264 11.264v-32.768c7.68 0 14.848 0 22.528 0.512v20.992z" />
<glyph unicode="&#xe942;" d="M802.816 350.72h-11.264v-49.664h-329.216c0.512-0.512 1.024-1.536 1.024-2.048h339.456c5.632 0 10.752-4.608 11.264-10.24 0 0.512 0 0.512 0 1.024v72.192c0-6.656-5.12-11.264-11.264-11.264z" />
<glyph unicode="&#xe943;" d="M329.216 350.72h473.6c6.144 0 11.264 5.12 11.264 11.264s-5.12 11.264-11.264 11.264h-473.6c-6.144 0-11.264-5.12-11.264-11.264 0-6.656 5.12-11.264 11.264-11.264z" />
<glyph unicode="&#xe945;" d="M317.952 218.112c0 0 0 0 0 0z" />
<glyph unicode="&#xe946;" d="M802.816 278.528h-331.264c0 0 0-0.512 0-0.512 0-0.512 0.512-1.024 0.512-1.536h319.488v-49.664h11.264c6.144 0 11.264-5.12 11.264-11.264v72.192c0 0.512 0 0.512 0 1.024-0.512-6.144-5.12-10.24-11.264-10.24z" />
<glyph unicode="&#xe947;" d="M802.816 298.496h-338.944c3.584-6.144 6.144-12.8 7.68-20.48h331.776c5.632 0 10.752 4.608 11.264 10.24-1.024 6.144-5.632 10.24-11.776 10.24z" />
<glyph unicode="&#xe948;" d="M802.816 203.776h-11.264v-49.664h11.264c6.144 0 11.264-5.12 11.264-11.264v72.192c0-6.144-5.12-11.264-11.264-11.264z" />
<glyph unicode="&#xe949;" d="M802.816 226.304h-229.888c0-2.56-0.512-5.12-1.536-7.68-2.048-6.656-6.144-11.264-11.264-14.848h242.688c6.144 0 11.264 5.12 11.264 11.264s-5.12 11.264-11.264 11.264z" />
<glyph unicode="&#xe94a;" d="M802.816 131.584h-11.264v-49.664h-252.928c0-2.048-0.512-4.096-1.024-5.632h276.48v66.56c0-6.144-5.12-11.264-11.264-11.264z" />
<glyph unicode="&#xe94b;" d="M534.016 59.392h268.8c6.144 0 11.264 5.12 11.264 11.264v5.632h-275.968c-1.024-6.656-2.048-12.288-4.096-16.896z" />
<glyph unicode="&#xe94c;" d="M802.816 154.112h-266.24c1.536-7.68 2.048-15.36 2.56-22.528h263.168c6.144 0 11.264 5.12 11.264 11.264 0.512 6.144-4.608 11.264-10.752 11.264z" />
<glyph unicode="&#xe94d;" d="M439.808 53.76h-179.2c58.88-0.512 118.784-0.512 179.2 0z" />
<glyph unicode="&#xe94e;" d="M515.584 76.288c0.512 2.048 0.512 3.584 1.024 5.632z" />
<glyph unicode="&#xe94f;" d="M506.88 59.392c4.608 3.072 7.168 8.704 8.704 16.896z" />
<glyph unicode="&#xe950;" d="M517.12 131.584c-0.512 7.168-1.536 14.848-3.072 22.528z" />
<glyph unicode="&#xe951;" d="M561.664 262.144c-2.048 3.584-5.632 5.632-9.728 5.632s-8.704 0.512-13.824 0.512c-16.384 1.024-35.328 2.56-52.736-8.704 1.024-0.512 2.048-1.024 2.56-1.536 2.56-1.536 4.608-4.096 5.12-6.656 18.432 10.24 39.424 5.12 58.368 5.12 7.68-13.312 10.24-22.528 9.728-29.696h11.264c1.536 9.728-2.048 20.992-10.752 35.328z" />
<glyph unicode="&#xe952;" d="M516.096 52.224c2.56-1.536 4.608-3.584 5.12-6.656l0.512-1.536c0-0.512 0-1.024 0.512-1.024 3.584 3.072 6.656 6.656 9.216 10.752h-13.824c-0.512-0.512-1.024-1.024-1.536-1.536z" />
<glyph unicode="&#xe953;" d="M317.952 206.848v11.264c-18.432 0-37.376 0-56.32 0v-11.264c18.944 0 37.376 0 56.32 0z" />
<glyph unicode="&#xe954;" d="M141.824 226.304c11.776-16.896 38.912-19.968 62.464-19.456 11.776 0 23.040 0 34.816 0v11.264c-11.776 0-23.552 0-34.816-0.512-28.16-0.512-46.080 4.608-53.248 14.336-3.072 4.608-6.144 8.192-9.728 11.776-3.072-2.56-6.144-4.608-9.216-6.144 0 0 0 0 0 0 3.072-3.072 6.144-6.656 9.728-11.264z" />
<glyph unicode="&#xe955;" d="M539.648 131.584h-11.264c1.024-11.264 1.024-23.040 0.512-34.304 0-5.632-0.512-10.752-1.024-15.36h11.264c0.512 4.608 1.024 9.216 1.024 14.848 0 10.752 0.512 22.528-0.512 34.816z" />
<glyph unicode="&#xe956;" d="M184.832 30.72c10.752 0.512 22.016 1.024 33.28 0.512 84.48-1.024 169.472-0.512 256 0 0.512 0 1.024 0 1.536 0l24.064 7.68c-0.512 2.048-0.512 3.584 0 5.632-6.656-1.536-15.36-2.048-25.6-2.048-85.504-0.512-170.496-1.024-256 0-35.84 0.512-72.192-5.12-108.032 2.56 0.512-2.048 0.512-4.096 0-6.144v0l26.624-8.704z" />
<glyph unicode="&#xe957;" d="M513.024 193.024c6.144-12.8 10.24-25.6 12.8-38.912h11.264c-2.048 11.264-5.12 23.040-9.728 34.304 3.072 1.536 7.168 3.072 10.752 4.096 7.68 3.072 15.872 6.144 22.528 10.752h-25.6c-8.192-2.56-16.384-5.12-22.016-10.24z" />
<glyph unicode="&#xe958;" d="M88.064 45.568c1.024 3.584 3.584 6.144 6.656 7.168-29.184 46.592-15.36 93.696 3.584 139.264-8.192 24.064-32.256 8.192-50.176 21.504 1.536 13.312-4.608 29.184 7.68 41.984 22.016 3.072 41.472 3.584 58.88-5.632 0.512 3.072 2.56 5.632 5.632 7.68 0.512 0.512 1.536 1.024 2.048 1.536-22.016 12.8-46.080 10.752-68.096 7.68-2.56-0.512-4.608-1.536-6.656-3.072-12.288-12.288-11.264-27.136-10.752-37.888 0-3.584 0.512-7.168 0-10.24-0.512-4.096 1.024-8.192 4.608-10.24 10.24-7.68 21.504-8.192 30.208-8.704 9.216-0.512 12.288-1.024 14.336-4.096-18.432-44.544-33.28-96.256 1.024-148.48 0 0 0 0 0 0.512l1.024 1.024z" />
<glyph unicode="&#xe959;" d="M453.632 226.304h16.384c1.024 1.024 2.048 2.56 2.56 3.584 1.536 2.56 3.584 5.12 5.12 7.68 0 0-0.512 0-0.512 0.512-3.072 1.536-6.144 3.584-8.704 5.632-2.048-2.56-3.584-5.12-5.632-7.68-2.048-4.096-5.12-7.168-9.216-9.728z" />
<glyph unicode="&#xe95a;" d="M521.728 59.392c-1.024-2.048-2.56-4.096-4.096-5.632h13.824c1.024 2.048 2.048 3.584 2.56 5.632h-12.288z" />
<glyph unicode="&#xe95b;" d="M239.104 218.112v-11.264c7.68 0 14.848 0 22.528 0v11.264z" />
<glyph unicode="&#xe95c;" d="M317.952 218.112v-3.072c0 1.024 0 2.048 0 3.072 0 0 0 0 0 0z" />
<glyph unicode="&#xe95d;" d="M317.952 215.040v-8.192c1.024 0 2.56 0 3.584 0-2.56 2.048-3.584 5.12-3.584 8.192z" />
<glyph unicode="&#xe95e;" d="M321.536 206.848c28.16 0 55.808 0 83.968 0 24.064 0 50.176 0.512 65.024 19.456h-16.384c-11.776-7.68-29.184-8.192-48.64-8.192h-41.984c-14.848 0-29.696 0-45.056 0-0.512-1.024-0.512-2.048-0.512-3.072 0-3.072 1.024-6.144 3.584-8.192z" />
<glyph unicode="&#xe95f;" d="M534.528 203.776h25.6c5.12 3.584 9.216 8.192 11.264 14.848 1.024 2.56 1.536 5.12 1.536 7.68h-11.264c-1.536-12.288-13.824-17.408-27.136-22.528z" />
<glyph unicode="&#xe960;" d="M526.848 76.288h11.264c0.512 2.048 0.512 3.584 1.024 5.632h-11.264c-0.512-2.048-0.512-4.096-1.024-5.632z" />
<glyph unicode="&#xe961;" d="M526.848 76.288c-1.024-6.656-2.56-12.288-5.12-16.896h12.288c2.048 4.608 3.072 10.24 4.096 16.896h-11.264z" />
<glyph unicode="&#xe962;" d="M528.384 131.584h11.264c-0.512 7.168-1.536 14.848-2.56 22.528h-11.264c1.024-7.168 2.048-14.848 2.56-22.528z" />
<glyph unicode="&#xe963;" d="M517.632 97.792c0-6.144-0.512-11.264-1.024-15.36h11.264c0.512 4.608 1.024 9.728 1.024 15.36 0.512 11.776 0.512 23.040-0.512 34.304h-11.264c1.024-12.288 0.512-23.552 0.512-34.304z" />
<glyph unicode="&#xe964;" d="M505.856 201.728c-4.096-3.072-5.12-8.704-3.072-13.824 5.632-11.264 9.216-22.528 11.264-33.792h11.264c-2.56 13.312-6.656 26.112-12.8 38.912 5.632 4.608 13.824 7.68 22.016 10.752h-26.112c-1.024-0.512-2.048-1.024-2.56-2.048z" />
<glyph unicode="&#xe965;" d="M317.952 195.584v11.264c-18.944 0-37.376 0-56.32 0v-11.264c18.944 0 37.376 0 56.32 0z" />
<glyph unicode="&#xe966;" d="M493.056 242.688c-2.048-3.584-6.144-5.632-9.728-5.632-1.536 0-3.072 0.512-4.608 1.024-2.048-2.048-3.584-4.608-5.12-7.68-1.024-1.536-1.536-2.56-2.56-3.584h13.824c14.336 21.504 31.744 20.48 53.248 18.944 2.56 0 5.632-0.512 8.192-0.512 5.632-10.752 5.632-16.384 4.608-18.432h11.264c1.024 7.168-1.536 16.384-9.728 29.696-18.944 0-39.936 5.12-58.368-5.12 0.512-3.072 0.512-6.144-1.024-8.704z" />
<glyph unicode="&#xe967;" d="M260.608 53.76h-10.752c-0.512 0-0.512 0-1.024 0-10.24 0-20.48 0-30.72 0.512-11.264 0-23.040-0.512-34.304-0.512-26.624-1.024-52.224-2.048-77.312 4.608-0.512 0-1.024 0-1.536 0.512-25.088 39.424-16.896 79.36 4.096 130.048 1.024 2.56 1.024 5.12 0.512 7.68-7.168 21.504-24.576 22.016-35.84 23.040-5.12 0-9.216 0.512-13.312 1.536 0 2.048 0 4.096 0 6.144-0.512 8.192-0.512 13.824 2.56 18.432 31.232 4.096 52.224 0.512 69.632-25.6 15.36-22.528 48.64-24.576 72.192-24.576 11.776 0 23.040 0 34.816 0.512v11.264c-11.776 0-23.040 0-34.816 0-23.552 0-50.688 2.56-62.464 19.456-3.072 4.608-6.144 8.704-9.728 11.776-5.632-3.072-12.288-1.024-15.36 4.608-1.536 2.56-1.536 5.12-1.024 7.68-17.408 8.704-36.864 8.704-58.88 5.632-12.288-12.8-6.144-28.672-7.68-41.984 17.92-13.312 41.984 2.56 50.176-21.504-18.944-46.080-32.768-92.672-3.584-139.264 2.048 1.024 4.608 1.024 7.168 0 3.584-1.024 6.656-4.096 7.68-7.68 35.84-7.68 72.192-2.048 108.032-2.56 85.504-1.024 170.496-0.512 256 0 10.24 0 18.944 0.512 25.6 2.048 1.024 4.096 3.584 7.168 7.68 8.704 3.072 1.024 6.144 0.512 8.704-1.024 0.512 0.512 1.024 1.024 1.536 1.536h-78.848c-60.416-1.536-120.32-1.536-179.2-1.024z" />
<glyph unicode="&#xe968;" d="M340.48 195.584c7.68 0 15.36 0 23.040 0h41.984c15.872 0 36.352 0 54.272 8.192h-119.296v-8.192z" />
<glyph unicode="&#xe969;" d="M261.632 206.848c-7.68 0-14.848 0-22.528 0v-11.264c7.68 0 14.848 0 22.528 0v11.264z" />
<glyph unicode="&#xe96a;" d="M249.856 53.76h10.752c-4.096 0-7.68 0-11.776 0 0.512 0 0.512 0 1.024 0z" />
<glyph unicode="&#xe96b;" d="M473.6 53.76c-11.264 0-22.528 0-34.304 0h77.824c1.536 1.536 3.072 3.584 4.096 5.632h-14.336c-6.144-4.608-16.384-5.632-33.28-5.632z" />
<glyph unicode="&#xe96c;" d="M340.48 203.776h-11.264c-3.072 0-5.632 1.024-7.68 3.072-1.024 0-2.56 0-3.584 0v-11.264c7.68 0 14.848 0 22.528 0v8.192z" />
<glyph unicode="&#xe96d;" d="M404.992 206.848c-28.16 0-55.808 0-83.968 0 2.048-2.048 4.608-3.072 7.68-3.072h130.048c9.216 4.096 16.896 10.752 23.040 20.48 0.512 1.024 1.024 1.536 1.536 2.048h-13.824c-13.824-18.944-40.448-19.456-64.512-19.456z" />
<glyph unicode="&#xe96e;" d="M534.528 203.776c12.8 5.12 25.6 9.728 27.136 22.528h-11.264c0 0 0 0 0-0.512-1.536-5.12-30.72-18.944-39.936-22.528z" />
<glyph unicode="&#xe96f;" d="M516.608 81.92c0-2.048-0.512-4.096-1.024-5.632h11.264c0.512 2.048 0.512 3.584 1.024 5.632h-11.264z" />
<glyph unicode="&#xe970;" d="M506.88 59.392h14.848c2.56 4.608 4.096 9.728 5.12 16.896h-11.264z" />
<glyph unicode="&#xe971;" d="M514.048 154.112c1.536-7.68 2.56-15.36 3.072-22.528h11.264c-0.512 7.68-1.536 15.36-3.072 22.528h-11.264z" />
<glyph unicode="&#xe972;" d="M261.12 92.672v-11.264h56.32v11.264c-18.432 0-37.376 0-56.32 0z" />
<glyph unicode="&#xe973;" d="M402.944 92.672c0 6.144-5.12 11.264-11.264 11.264h-51.2v-11.264c16.896 0 34.304 0 51.2 0-16.896 0-34.304 0-51.2 0v-10.752h55.296c4.096 1.536 7.168 5.632 7.168 10.752z" />
<glyph unicode="&#xe974;" d="M317.952 92.672v11.264h-56.832v-11.264c18.944 0 37.888 0 56.832 0z" />
<glyph unicode="&#xe975;" d="M218.112 92.672c7.168 0 13.824 0 20.992 0v11.264h-20.992c-6.144 0-11.264-5.12-11.264-11.264s5.12-11.264 11.264-11.264h20.992v11.264c-7.168 0-14.336 0-20.992 0z" />
<glyph unicode="&#xe976;" d="M261.12 92.672v11.264h-22.528v-11.264c7.68 0 15.36 0 22.528 0z" />
<glyph unicode="&#xe977;" d="M238.592 92.672v-11.264h22.528v11.264c-7.168 0-14.848 0-22.528 0z" />
<glyph unicode="&#xe978;" d="M340.48 92.672c-7.68 0-14.848 0-22.528 0v-11.264h73.728c1.536 0 2.56 0.512 4.096 0.512h-55.296v10.752z" />
<glyph unicode="&#xe979;" d="M317.952 92.672c7.68 0 14.848 0 22.528 0v11.264h-22.528v-11.264z" />
<glyph unicode="&#xe97a;" d="M460.288 275.456c2.048-9.216 7.68-17.408 15.872-23.040 3.072 3.072 6.144 5.12 9.216 7.168-7.168 4.608-11.776 10.24-13.824 16.384h-11.776c0.512 0 0.512-0.512 0.512-0.512z" />
<glyph unicode="&#xe97b;" d="M148.992 275.456c8.192 38.4 38.912 46.592 68.608 44.544 7.168-0.512 14.336-1.024 21.504-1.024v11.264c-7.168 0.512-13.824 0.512-20.992 1.024-44.032 2.56-72.704-16.384-80.384-53.248-1.536-7.168-6.656-13.824-14.848-18.944 3.584-2.048 6.656-4.096 9.728-6.656 8.192 5.632 14.336 13.824 16.384 23.040z" />
<glyph unicode="&#xe97c;" d="M317.952 317.44v11.264c-18.432 0-37.376 0-55.808 0.512v-11.264c18.432-0.512 36.864-0.512 55.808-0.512z" />
<glyph unicode="&#xe97d;" d="M137.728 247.808c1.024-1.024 2.56-2.048 3.584-3.584 1.536 1.024 2.56 2.56 4.096 3.584h-7.68z" />
<glyph unicode="&#xe97e;" d="M472.064 247.808h-8.192c1.536-1.536 3.072-2.56 4.608-4.096 1.536 1.536 2.56 3.072 3.584 4.096z" />
<glyph unicode="&#xe97f;" d="M448.512 301.056h13.824c-13.312 22.016-37.888 32.256-71.68 30.208-16.896-1.024-33.792-1.536-50.688-2.048v-11.264c16.896 0.512 34.304 1.024 51.2 2.048 22.016 1.536 44.032-2.56 57.344-18.944z" />
<glyph unicode="&#xe980;" d="M261.632 317.952v11.264c-7.68 0-14.848 0.512-22.528 1.024v-11.264c7.68-0.512 15.36-0.512 22.528-1.024z" />
<glyph unicode="&#xe981;" d="M450.56 298.496h13.312c-0.512 0.512-1.024 1.536-1.024 2.048h-13.824c0-0.512 1.024-1.024 1.536-2.048z" />
<glyph unicode="&#xe982;" d="M340.48 317.952v11.264c-7.68 0-14.848-0.512-22.528-0.512v-11.264c7.168 0 14.848 0.512 22.528 0.512z" />
<glyph unicode="&#xe983;" d="M460.288 275.968h11.776c0 0.512-0.512 1.024-0.512 1.536 0 0 0 0.512 0 0.512h-11.776c0-0.512 0.512-1.024 0.512-2.048z" />
<glyph unicode="&#xe984;" d="M459.776 278.528h11.776c-1.536 7.68-4.096 14.336-7.68 20.48h-13.312c4.096-5.632 7.168-12.8 9.216-20.48z" />
<glyph unicode="&#xe985;" d="M472.064 247.808c-1.024-1.024-2.048-2.56-3.072-4.096 2.56-2.048 5.632-4.096 8.704-5.632 0 0 0.512 0 0.512-0.512 5.12 6.144 10.24 10.24 15.36 13.312-1.024 2.56-2.56 5.12-5.12 6.656-1.024 0.512-2.048 1.024-2.56 1.536-3.072-2.048-6.144-4.608-9.216-7.168 2.048-1.536 4.096-3.072 6.656-4.608h-11.264z" />
<glyph unicode="&#xe986;" d="M115.712 250.368c5.632-3.072 11.264-7.168 16.384-12.288 0 0 0 0 0 0 3.584 2.048 6.656 4.096 9.216 6.144-1.024 1.024-2.56 2.56-3.584 3.584h-11.264c2.56 1.024 4.608 2.56 6.656 4.096-3.072 2.56-6.656 5.12-9.728 6.656-0.512-0.512-1.536-1.024-2.048-1.536-3.072-1.024-5.12-3.584-5.632-6.656z" />
<glyph unicode="&#xe987;" d="M478.208 237.568c1.536-0.512 3.072-1.024 4.608-1.024 4.096 0 7.68 2.048 9.728 5.632 1.536 2.56 1.536 5.632 1.024 8.704-5.12-2.56-10.24-7.168-15.36-13.312z" />
<glyph unicode="&#xe988;" d="M116.736 242.688c3.072-5.632 9.728-7.168 15.36-4.608-5.12 5.12-10.752 9.216-16.384 12.288-1.024-2.56-0.512-5.12 1.024-7.68z" />
<glyph unicode="&#xe989;" d="M317.952 306.176v11.264c-18.432 0-37.376 0-55.808 0.512v-11.264c18.432-0.512 36.864-0.512 55.808-0.512z" />
<glyph unicode="&#xe98a;" d="M432.128 301.056h16.384c-13.824 16.384-35.328 20.48-57.344 18.944-16.896-1.024-34.304-1.536-51.2-2.048v-11.264z" />
<glyph unicode="&#xe98b;" d="M159.744 272.896c3.584 16.384 13.312 38.4 57.344 35.84 7.168-0.512 14.848-1.024 22.016-1.024v11.264c-7.168 0.512-14.336 0.512-21.504 1.024-29.696 1.536-60.416-6.144-68.608-44.544-2.048-9.216-8.192-17.408-15.872-23.040 1.536-1.536 3.072-2.56 4.608-4.096h7.68c7.68 6.656 12.288 15.36 14.336 24.576z" />
<glyph unicode="&#xe98c;" d="M449.536 272.896c2.048-9.216 7.168-17.92 14.336-25.088h8.192c1.536 1.536 2.56 3.072 4.096 4.608-7.68 6.144-13.824 13.824-15.872 23.040 0 0 0 0.512 0 0.512h-11.776c0.512-1.024 0.512-2.048 1.024-3.072z" />
<glyph unicode="&#xe98d;" d="M261.632 306.688v11.264c-7.68 0-14.848 0.512-22.528 1.024v-11.264c7.68-0.512 15.36-0.512 22.528-1.024z" />
<glyph unicode="&#xe98e;" d="M340.48 317.952c-7.68 0-14.848-0.512-22.528-0.512v-11.264c7.68 0 14.848 0 22.528 0.512v11.264z" />
<glyph unicode="&#xe98f;" d="M448.512 301.056h-16.384c1.024-0.512 2.048-1.536 3.072-2.048h15.36c-0.512 0.512-1.536 1.024-2.048 2.048z" />
<glyph unicode="&#xe990;" d="M448.512 275.968h11.776c0 0.512-0.512 1.536-0.512 2.048h-11.776c0.512-0.512 0.512-1.024 0.512-2.048z" />
<glyph unicode="&#xe991;" d="M448 278.528h11.776c-2.048 8.192-5.12 14.848-9.216 20.48h-15.36c7.168-6.144 10.752-13.824 12.8-20.48z" />
<glyph unicode="&#xe992;" d="M482.816 247.808c-2.56 1.536-4.608 2.56-6.656 4.608-1.536-1.536-3.072-2.56-4.096-4.608h10.752z" />
<glyph unicode="&#xe993;" d="M126.464 247.808h11.264c-1.536 1.536-3.072 3.072-4.608 4.096-2.048-1.024-4.096-2.56-6.656-4.096z" />
<glyph unicode="&#xe994;" d="M109.568 38.912l-0.512-1.536c-0.512-1.024-0.512-2.048-1.024-3.072z" />
<glyph unicode="&#xe995;" d="M101.888-4.608c-10.24 16.384-8.192 28.672-4.608 40.448-3.072 0.512-5.632 2.048-7.168 4.608-0.512 1.024-1.536 2.048-2.048 3.072-4.096-13.824-9.728-31.232 4.608-54.272 2.56-4.096 7.68-6.144 12.8-5.12 9.728 2.56 20.48 1.536 32.256 0.512 6.656-0.512 13.312-1.024 20.48-1.024 16.384 0 33.28 3.072 49.152 17.92 4.608 4.096 5.12 11.264 1.024 15.872s-11.264 5.12-15.872 1.024c-1.536-1.536-3.584-3.072-5.632-4.096l12.8-4.096c-31.232-28.16-67.072-5.632-97.792-14.848z" />
<glyph unicode="&#xe996;" d="M97.28 35.84c0.512 2.048 1.536 4.096 2.048 6.656l10.752-3.584c0.512 2.048 0.512 4.608 0 6.144-2.048 0.512-4.096 1.024-6.144 1.536h-4.608c-1.536 2.048-2.56 4.096-4.096 6.144-3.072-1.024-5.632-3.584-6.656-7.168l-0.512-1.536c0 0 0 0 0-0.512 0.512-1.024 1.536-2.048 2.048-3.072 1.536-2.56 4.096-4.096 7.168-4.608z" />
<glyph unicode="&#xe997;" d="M102.4 53.248c-2.56 0.512-5.12 0.512-7.168 0 1.024-2.048 2.56-4.096 4.096-6.144h4.608c2.048-0.512 4.096-1.024 6.144-1.536-1.024 3.584-4.096 6.144-7.68 7.68z" />
<glyph unicode="&#xe998;" d="M139.776 7.68c-10.24 1.024-20.992 2.048-31.744 0.512-4.096 9.728-2.048 16.896 0.512 26.112-2.56 0.512-4.608 1.024-7.168 1.536-1.536-0.512-3.072 0-4.096 0-3.584-11.776-5.12-24.064 4.608-40.448 30.72 8.704 66.56-13.312 97.792 14.848l-12.8 4.096c-14.336-9.216-29.696-8.192-47.104-6.656z" />
<glyph unicode="&#xe999;" d="M97.28 35.84c1.536 0 2.56-0.512 4.096 0 2.56-0.512 4.608-1.024 7.168-1.536 0.512 1.024 0.512 2.048 1.024 3.072l0.512 1.536-10.752 3.584c-1.024-2.56-1.536-4.608-2.048-6.656z" />
<glyph unicode="&#xe99a;" d="M507.392-4.608c-30.72 8.704-66.56-13.312-97.792 14.848l12.8 4.096c-2.048 1.024-3.584 2.56-5.632 4.096-4.608 4.096-11.776 3.584-15.872-1.024s-3.584-11.776 1.024-15.872c15.872-14.336 32.768-17.92 49.152-17.92 7.168 0 13.824 0.512 20.48 1.024 11.776 1.024 23.040 2.048 32.256-0.512 4.608-1.536 10.24 0.512 12.8 5.12 13.824 22.528 9.216 39.424 5.12 53.248-3.072-2.56-6.144-4.096-10.24-5.632 4.096-11.776 6.656-24.576-4.096-41.472z" />
<glyph unicode="&#xe99b;" d="M521.216 45.568c-1.024 3.072-3.072 5.12-5.12 6.656-4.096-3.584-9.728-6.144-16.384-7.68-0.512-2.048-0.512-3.584 0-5.632v0l10.752 3.584c0.512-2.048 1.024-3.584 1.536-5.632 3.584 1.536 7.168 3.584 10.24 5.632 0 0.512 0 1.024-0.512 1.024l-0.512 2.048z" />
<glyph unicode="&#xe99c;" d="M506.88 53.248c-4.096-1.024-6.656-4.608-7.68-8.704 7.168 1.536 12.288 4.096 16.384 7.68-2.56 1.536-5.632 2.048-8.704 1.024z" />
<glyph unicode="&#xe99d;" d="M507.392-4.608c10.752 16.896 8.192 29.184 4.608 41.472-3.072-1.536-6.656-2.56-10.752-3.072 2.56-8.704 4.096-15.872 0-25.6-10.752 1.536-21.504 0.512-31.744-0.512-17.408-1.536-32.768-3.072-47.104 6.656l-12.8-4.096c31.232-28.16 67.072-5.632 97.792-14.848z" />
<glyph unicode="&#xe99e;" d="M501.248 33.792c4.096 1.024 7.68 2.048 10.752 3.072-0.512 2.048-1.024 3.584-1.536 5.632l-10.752-3.584 0.512-1.536c0-1.536 0.512-2.56 1.024-3.584z" />
<glyph unicode="&#xe99f;" glyph-name="parking_preview" d="M139.264 470.016c-1.024 0-1.536 0-2.56 0.512-4.096 1.536-6.144 5.632-4.608 9.728 5.12 14.848 10.752 30.208 16.384 46.080 20.48 57.344 43.52 121.856 64.512 174.592 15.36 37.888 43.52 57.856 86.528 59.392 137.728 6.656 280.576 6.656 424.96 0 52.736-2.56 82.432-26.624 98.816-81.408 5.12-17.408 12.8-34.816 19.968-51.2 7.68-18.432 15.872-37.376 21.504-56.832 3.584-11.776 7.168-22.528 11.264-34.304 6.144-17.92 12.288-35.84 16.896-56.832 1.024-4.096-1.536-8.192-5.632-9.216s-8.192 1.536-9.216 5.632c-4.608 19.968-10.752 37.888-16.384 55.296-3.584 11.264-7.68 23.040-11.264 35.328-5.12 18.432-13.312 36.864-20.992 54.784-7.168 16.896-14.848 34.816-20.48 52.736-14.848 48.64-38.4 68.608-84.992 70.656-143.872 6.144-286.208 6.144-423.424 0-36.864-1.536-59.904-17.408-73.216-50.176-20.992-52.736-44.032-117.248-64.512-174.080-5.632-15.872-11.264-31.232-16.384-46.080-1.024-2.56-4.096-4.608-7.168-4.608zM794.112 465.408c-3.584 0-7.168 2.56-7.68 6.656-6.656 49.152-25.6 105.984-54.272 163.84-19.456 38.4-58.88 46.080-88.576 45.056-57.856-1.024-116.736-1.024-173.056-1.024-28.16 0-56.32 0-84.48 0-56.32 0-78.336-16.896-100.352-75.264-4.096-11.264-9.728-23.552-14.336-34.816-13.824-31.232-27.648-63.488-27.648-96.768 0-4.096-3.584-7.68-7.68-7.68 0 0 0 0 0 0-4.096 0-7.68 3.584-7.68 7.68 0 36.352 14.848 70.144 29.184 102.912 5.12 11.776 10.24 23.040 14.336 34.304 24.064 64.512 51.712 85.504 114.688 85.504 28.16 0 56.32 0 84.48 0 56.832 0 115.2-0.512 173.056 1.024 49.152 1.024 84.48-17.408 102.4-53.76 29.696-59.392 48.64-117.248 55.808-168.448 0.512-4.096-2.56-8.192-6.656-8.704-1.024-0.512-1.536-0.512-1.536-0.512zM506.88 169.472c-96.256 0-191.488 0-271.36 0.512-4.096 0-7.68 3.584-7.68 7.68s3.584 7.68 7.68 7.68c0 0 0 0 0 0 141.312-0.512 332.8-0.512 487.424 0 9.216 0 17.92 0 26.624 0 8.704 0.512 17.408 1.024 26.112 1.536 4.096 0.512 7.68-3.072 8.192-7.168s-3.072-7.68-7.168-8.192c-9.216-0.512-17.92-1.024-27.136-1.536-8.704 0-17.92 0-27.136 0-67.072-0.512-141.312-0.512-215.552-0.512zM151.552 164.352c-2.048 0-4.096 1.024-5.632 2.56-6.656 7.68-8.704 8.704-14.336 10.752-3.072 1.024-6.656 2.56-11.776 5.12-20.48 9.728-43.52 25.6-42.496 60.416 1.024 27.648 0.512 55.808 0.512 83.456 0 27.136-0.512 55.296 0.512 82.944 0.512 22.528 9.216 42.496 24.576 55.808 14.336 12.288 33.28 17.92 53.248 15.36 51.712-6.144 104.448-5.12 155.648-4.608 10.24 0 20.992 0.512 31.232 0.512 57.344 0.512 116.224 0 172.544-0.512 117.76-1.024 239.104-1.536 358.4 5.12 37.888 2.048 66.048-18.432 74.752-54.784 1.536-7.168 2.56-14.336 3.072-22.528 0-0.512 0-0.512 0-1.024-1.536-18.432-0.512-40.448 1.024-63.488 1.024-15.36 2.048-31.232 2.048-47.104 0-10.752 0-20.48-1.024-29.184-4.608-50.176-44.032-88.576-93.184-91.648-4.096 0-7.68 3.072-8.192 7.168s3.072 7.68 7.168 8.192c41.984 2.56 75.264 35.328 78.848 77.824 0.512 8.192 1.024 17.408 1.024 27.648 0 15.36-1.024 30.72-2.048 46.080-1.536 23.552-3.072 46.080-1.024 65.536 0 6.656-1.024 12.8-2.56 18.944-7.168 29.184-28.672 44.544-58.88 43.008-119.808-7.168-241.664-6.144-359.424-5.12-56.32 0.512-115.2 1.024-172.544 0.512-10.24 0-20.992 0-31.232-0.512-51.712-0.512-104.96-1.536-157.696 4.608-15.872 1.536-30.208-2.56-41.472-12.288-11.776-10.24-18.944-26.112-19.456-44.544-1.024-27.648-0.512-55.296-0.512-82.432 0-27.648 0.512-55.808-0.512-83.968-0.512-24.064 13.312-35.84 33.792-46.080 4.608-2.048 7.68-3.072 10.24-4.096 7.68-3.072 11.776-4.608 20.48-15.36 2.56-3.072 2.56-8.192-1.024-10.752-0.512-1.024-2.048-1.536-4.096-1.536zM207.36 97.28h-16.896c-25.6 0-46.592 20.992-46.592 46.592v33.28c0 1.024 0 2.048 0.512 3.072 2.048 5.12 2.048 5.12 53.76 4.608 18.944 0 42.496-0.512 46.592 0 1.536 0.512 3.072 0 4.608-0.512 3.072-1.024 4.608-4.096 4.608-7.168v-33.28c0.512-25.6-20.48-46.592-46.592-46.592zM159.232 169.984v-26.112c0-17.408 14.336-31.232 31.232-31.232h16.896c17.408 0 31.232 14.336 31.232 31.232v25.6c-7.68 0-19.968 0-40.448 0-13.824 0.512-29.696 0.512-38.912 0.512zM827.392 97.28h-16.896c-25.6 0-46.592 20.992-46.592 46.592v33.28c0 4.096 3.072 7.168 6.656 7.68s23.552 0 56.832 0c15.36 0 32.768 0 37.376 0 0.512 0 1.536 0 2.048 0 4.096-0.512 7.68-4.096 7.168-8.192 0-1.024 0-1.536-0.512-2.56v-30.72c0.512-25.088-20.48-46.080-46.080-46.080zM779.264 169.984v-26.112c0-17.408 14.336-31.232 31.232-31.232h16.896c17.408 0 31.232 14.336 31.232 31.232v25.6c-1.024 0-2.56 0-4.096 0-7.168 0-16.896 0-27.648 0-16.384 0.512-36.864 0.512-47.616 0.512zM271.872 242.176c-45.568 0-82.944 37.376-82.944 82.944s37.376 82.944 82.944 82.944 82.944-37.376 82.944-82.944-37.376-82.944-82.944-82.944zM271.872 393.216c-37.376 0-67.584-30.208-67.584-67.584s30.208-67.584 67.584-67.584 67.584 30.208 67.584 67.584-30.208 67.584-67.584 67.584zM757.248 242.176c-45.568 0-82.944 37.376-82.944 82.944s37.376 82.944 82.944 82.944 82.944-37.376 82.944-82.944-36.864-82.944-82.944-82.944zM757.248 393.216c-37.376 0-67.584-30.208-67.584-67.584s30.208-67.584 67.584-67.584 67.584 30.208 67.584 67.584-30.208 67.584-67.584 67.584zM977.92 97.28h-926.72c-4.096 0-7.68 3.584-7.68 7.68s3.584 7.68 7.68 7.68h926.72c4.096 0 7.68-3.584 7.68-7.68s-3.584-7.68-7.68-7.68z" />
<glyph unicode="&#xe9a0;" glyph-name="partners" d="M320-27.648c-15.872 0-31.744 0-48.128 0.512-16.896 0-35.84 10.752-40.96 33.28-1.536 5.632-1.536 11.264-2.048 16.896 0 3.584-0.512 6.656-1.024 9.728-1.024 7.168-1.536 14.336-2.048 21.504 0 2.56-0.512 5.12-0.512 7.168-0.512 7.168 4.608 13.312 11.776 14.336 7.168 0.512 13.312-4.608 14.336-11.776 0-2.56 0.512-5.12 0.512-7.68 0.512-6.656 1.024-13.312 2.048-19.456 0.512-4.096 1.024-7.68 1.024-11.776 0.512-4.608 0.512-9.216 1.536-13.312 2.56-11.776 12.8-12.8 15.872-12.8 32.768-0.512 62.976-0.512 93.184 0 7.68 0 15.872 5.632 16.896 18.432 1.024 17.408 2.048 33.792 4.608 50.176 1.024 5.632 1.024 11.264 1.536 17.408 0.512 5.12 0.512 10.24 1.024 15.36 1.024 6.656 1.536 13.824 2.048 20.48 0.512 9.728 1.536 19.456 3.072 29.184 1.024 6.656 1.536 13.312 1.536 20.48 0 4.096 0.512 8.704 1.024 12.8 1.024 11.264 2.048 22.528 3.072 33.792l2.56 27.648c0.512 7.68 1.536 14.848 2.048 22.528 2.048 30.72 14.848 55.808 38.912 74.752 15.872 12.288 23.552 29.184 24.064 49.152 0 29.696 0 58.88 0 88.576 0 30.72 0 61.44 0 91.648 0 18.432-7.168 31.744-23.040 41.472-6.656 4.096-14.848 6.144-24.064 6.144-5.632 0-11.264 0-16.896 0-9.728 0-19.456 0-28.672 0-0.512 0-2.56-1.024-4.096-1.536-3.584-1.536-8.704-3.072-14.848-2.56-3.584 0.512-6.656 1.536-9.728 2.56-2.56 0.512-4.608 1.536-6.144 1.536-11.776 0-26.112 0-40.448 0-3.584 0-6.144-0.512-8.704-1.536-6.656-3.072-13.312-3.072-19.968 0-2.56 1.024-5.632 1.536-9.216 1.536-7.168 0-13.824 0-20.48 0-10.24 0-19.968 0-29.184-0.512-10.24-1.024-18.944-5.12-26.112-11.776-9.728-9.728-14.848-20.992-14.336-34.816 0.512-34.304 0-197.12 0-198.656 0-7.168-5.632-12.8-12.8-12.8 0 0 0 0 0 0-7.168 0-12.8 5.632-12.8 13.312 0 1.536 0 163.84 0 198.144 0 20.992 7.168 38.912 22.016 53.76 11.776 11.264 26.112 17.92 42.496 19.456 10.752 1.024 21.504 1.024 31.744 0.512 6.656 0 13.312 0 19.456 0 7.168 0 13.824-1.024 19.968-3.584 5.632 2.56 11.776 3.584 18.944 3.584 14.336 0 28.16 0 39.936 0 5.632 0 10.24-1.536 14.336-2.56 1.536-0.512 3.072-1.024 4.608-1.024 0.512 0 2.048 0.512 3.072 1.024 3.584 1.024 8.192 2.56 13.312 3.072 9.728 0 18.944 0 28.672 0 5.632 0 11.264 0 16.896 0 14.336 0 26.624-3.072 37.376-10.24 23.552-14.336 35.84-35.84 35.84-64 0-30.72 0-60.928 0-91.648 0-29.696 0-58.88 0-88.576 0-28.16-11.776-52.224-33.792-69.632-17.92-14.336-27.136-32.256-28.672-55.808-0.512-7.68-1.024-15.36-2.048-23.552l-2.56-27.648c-1.024-11.264-2.048-22.528-3.072-33.792-0.512-4.096-0.512-8.192-1.024-11.776-0.512-7.168-1.024-14.848-2.048-22.528-1.536-9.216-2.048-17.92-2.56-27.648-0.512-7.168-1.024-14.336-2.048-21.504-0.512-4.608-1.024-9.216-1.024-13.824-0.512-6.144-0.512-12.8-1.536-19.456-2.048-15.36-3.584-30.72-4.608-47.616-1.536-24.576-19.456-42.496-42.496-42.496-16.896-2.048-31.744-2.048-47.616-2.048zM357.376 641.024v0 0zM318.976 677.376c-18.432 0-35.328 3.584-50.688 11.776-13.312 6.656-24.576 15.36-35.84 27.136-16.384 17.92-26.112 39.424-28.672 64.512-2.56 24.576 2.048 47.616 13.824 68.096 22.016 38.912 57.344 59.392 101.376 59.904 30.208 0.512 57.856-10.752 79.872-32.256 17.92-17.408 29.184-37.888 33.28-61.44 0.512-3.584 1.024-7.168 1.024-10.24s0.512-6.144 1.024-8.704c0-1.024 0.512-2.048 0.512-3.072 0-0.512 0-1.024 0-2.048 0-2.048-0.512-4.096-0.512-5.632-1.024-8.704-2.048-17.408-4.608-26.624-8.192-27.136-25.088-48.64-49.664-64-15.872-10.24-33.28-15.872-51.2-16.896-3.072-0.512-6.144-0.512-9.728-0.512zM320.512 882.688c-0.512 0-1.024 0-1.536 0-35.328-0.512-61.44-15.872-78.848-47.104-9.216-15.872-12.8-33.28-10.752-52.224s9.216-35.84 22.016-49.664c8.704-9.216 17.92-16.384 28.16-21.504 13.824-7.168 29.184-9.728 47.104-8.704 13.824 1.024 26.624 5.12 38.912 12.8 19.456 12.288 31.744 28.672 38.4 49.664 2.048 6.656 3.072 13.824 3.584 21.504 0 1.536 0.512 3.072 0.512 4.608-0.512 3.584-1.024 7.168-1.024 10.24 0 2.56-0.512 5.632-1.024 7.68-3.584 17.92-11.776 33.792-26.112 47.616-15.872 16.896-36.352 25.088-59.392 25.088zM237.568 49.152c-6.656 0-12.288 5.12-12.8 11.776-4.608 55.808-13.312 164.864-14.848 176.64-1.024 6.656-1.536 13.312-2.048 19.456-0.512 7.68-1.024 14.336-2.56 21.504-3.072 19.968-9.216 31.232-18.432 35.84-18.944 8.704-42.496 43.008-42.496 57.344 0 6.144 3.584 11.264 9.216 13.312 6.656 2.56 14.336-0.512 16.896-7.168 1.024-2.56 1.024-5.12 0.512-7.68 3.072-8.192 16.896-28.16 26.624-32.256 26.624-12.288 31.744-44.544 33.28-55.296 1.536-8.192 2.048-15.872 2.56-23.552 0.512-6.144 1.024-12.288 1.536-17.92 2.048-15.872 14.848-171.52 15.36-178.176 0.512-7.168-4.608-13.312-11.776-13.824-0.512 0.512-1.024 0-1.024 0zM162.816 361.472c0 0 0 0 0 0s0 0 0 0zM162.816 361.472c0 0 0 0 0 0s0 0 0 0zM321.536-30.72c-7.168 0-12.8 5.632-12.8 12.8v312.832c0 7.168 5.632 12.8 12.8 12.8s12.8-5.632 12.8-12.8v-312.832c0-7.168-5.632-12.8-12.8-12.8zM219.648 279.552c-7.168 0-12.8 5.632-12.8 12.8v339.456c0 7.168 5.632 12.8 12.8 12.8s12.8-5.632 12.8-12.8v-338.944c0.512-7.168-5.632-13.312-12.8-13.312zM417.792 253.44c-7.168 0-12.8 5.632-12.8 12.8v365.568c0 7.168 5.632 12.8 12.8 12.8s12.8-5.632 12.8-12.8v-365.056c0.512-7.168-5.632-13.312-12.8-13.312zM707.072-27.648c-15.872 0-31.744 0-48.128 0.512-16.896 0-35.84 10.752-40.96 33.28-1.536 5.632-1.536 11.264-2.048 16.896 0 3.584-0.512 6.656-1.024 9.728-1.024 7.168-1.536 14.336-2.048 21.504 0 2.56-0.512 5.12-0.512 7.168-0.512 7.168 4.608 13.312 11.776 14.336 7.168 0.512 13.312-4.608 14.336-11.776 0-2.56 0.512-5.12 0.512-7.68 0.512-6.656 1.024-13.312 2.048-19.456 0.512-4.096 1.024-7.68 1.024-11.776 0.512-4.608 0.512-9.216 1.536-13.312 2.56-11.776 12.8-12.8 15.872-12.8 32.768-0.512 62.976-0.512 93.184 0 7.68 0 15.872 5.632 16.896 18.432 1.024 17.408 2.048 33.792 4.608 50.176 1.024 5.632 1.024 11.264 1.536 17.408 0.512 5.12 0.512 10.24 1.024 15.36 1.024 6.656 1.536 13.824 2.048 20.48 0.512 9.728 1.536 19.456 3.072 29.184 1.024 6.656 1.536 13.312 1.536 20.48 0 4.096 0.512 8.704 1.024 12.8 1.024 11.264 2.048 22.528 3.072 33.792l2.56 27.648c0.512 7.68 1.536 14.848 2.048 22.528 2.048 30.72 14.848 55.808 38.912 74.752 15.872 12.288 23.552 29.184 24.064 49.152 0 29.696 0 58.88 0 88.576 0 30.72 0 61.44 0 91.648 0 18.432-7.168 31.744-23.040 41.472-6.656 4.096-14.848 6.144-24.064 6.144-5.632 0-11.264 0-16.896 0-9.728 0-19.456 0-28.672 0-0.512 0-2.56-1.024-4.096-1.536-3.584-1.536-8.704-3.072-14.848-2.56-3.584 0.512-6.656 1.536-9.728 2.56-2.56 0.512-4.608 1.536-6.144 1.536-11.776 0-26.112 0-40.448 0-3.584 0-6.144-0.512-8.704-1.536-6.656-3.072-13.312-3.072-19.968 0-2.56 1.024-5.632 1.536-9.216 1.536-7.168 0-13.824 0-20.48 0-10.24 0-19.968 0-29.184-0.512-10.24-1.024-18.944-5.12-26.112-11.776-9.728-9.728-14.848-20.992-14.336-34.816 0.512-34.304 0-197.12 0-198.656 0-7.168-5.632-12.8-12.8-12.8 0 0 0 0 0 0-7.168 0-12.8 5.632-12.8 13.312 0 1.536 0 163.84 0 198.144 0 20.992 7.168 38.912 22.016 53.76 11.776 11.264 26.112 17.92 42.496 19.456 10.752 1.024 21.504 1.024 31.744 0.512 6.656 0 13.312 0 19.456 0 7.168 0 13.824-1.024 19.968-3.584 5.632 2.56 12.288 3.584 18.944 3.584 14.336 0 28.16 0 39.936 0 5.632 0 10.24-1.536 14.336-2.56 1.536-0.512 3.072-1.024 4.608-1.024 0.512 0 2.048 0.512 3.072 1.024 3.584 1.024 8.192 2.56 13.312 3.072 9.728 0 18.944 0 28.672 0 5.632 0 11.264 0 16.896 0 14.336 0 26.624-3.072 37.376-10.24 23.552-14.336 35.84-35.84 35.84-64 0-30.72 0-60.928 0-91.648 0-29.696 0-58.88 0-88.576 0-28.16-11.776-52.224-33.792-69.632-17.92-14.336-27.136-32.256-28.672-55.808-0.512-7.68-1.024-15.36-2.048-23.552l-2.56-27.648c-1.024-11.264-2.048-22.528-3.072-33.792-0.512-4.096-0.512-8.192-1.024-11.776-0.512-7.168-1.024-14.848-2.048-22.528-1.536-9.216-2.048-17.92-2.56-27.648-0.512-7.168-1.024-14.336-2.048-21.504-0.512-4.608-1.024-9.216-1.024-13.824-0.512-6.144-0.512-12.8-1.536-19.456-2.048-15.36-3.584-30.72-4.608-47.616-1.536-24.576-19.456-42.496-42.496-42.496-16.896-2.048-32.256-2.048-47.616-2.048zM744.448 641.024v0 0zM706.048 677.376c-18.432 0-35.328 3.584-50.688 11.776-13.312 6.656-24.576 15.36-35.84 27.136-16.384 17.92-26.112 39.424-28.672 64.512-2.56 24.576 2.048 47.616 13.824 68.096 22.016 38.912 57.344 59.392 101.376 59.904 30.208 0.512 57.856-10.752 79.872-32.256 17.92-17.408 29.184-37.888 33.28-61.44 0.512-3.584 1.024-7.168 1.024-10.24s0.512-6.144 1.024-8.704c0-1.024 0.512-2.048 0.512-3.072 0-0.512 0-1.024 0-2.048 0-2.048-0.512-4.096-0.512-5.632-1.024-8.704-2.048-17.408-4.608-26.624-8.192-27.136-25.088-48.64-49.664-64-15.872-10.24-33.28-15.872-51.2-16.896-3.072-0.512-6.656-0.512-9.728-0.512zM707.584 882.688c-0.512 0-1.024 0-1.536 0-35.328-0.512-61.44-15.872-78.848-47.104-9.216-15.872-12.8-33.28-10.752-52.224s9.216-35.84 22.016-49.664c8.704-9.216 17.92-16.384 28.16-21.504 13.824-7.168 29.184-9.728 47.104-8.704 13.824 1.024 26.624 5.12 38.912 12.8 19.456 12.288 31.744 28.672 38.4 49.664 2.048 6.656 3.072 13.824 3.584 21.504 0 1.536 0.512 3.072 0.512 4.608-0.512 3.584-1.024 7.168-1.024 10.24 0 2.56-0.512 5.632-1.024 7.68-3.584 17.92-11.776 33.792-26.112 47.616-16.384 16.896-36.352 25.088-59.392 25.088zM624.64 49.152c-6.656 0-12.288 5.12-12.8 11.776-4.608 55.808-13.312 164.864-14.848 176.64-1.024 6.656-1.536 13.312-2.048 19.456-0.512 7.68-1.024 14.336-2.56 21.504-3.072 19.968-9.216 31.232-18.432 35.84-18.944 8.704-42.496 43.008-42.496 57.344 0 6.144 3.584 11.264 9.216 13.312 6.656 2.56 14.336-0.512 16.896-7.168 1.024-2.56 1.024-5.12 0.512-7.68 3.072-8.192 16.896-28.16 26.624-32.256 26.624-12.288 31.744-44.544 33.28-55.296 1.536-8.192 2.048-15.872 2.56-23.552 0.512-6.144 1.024-12.288 1.536-17.92 2.048-15.872 14.848-171.52 15.36-178.176 0.512-7.168-4.608-13.312-11.776-13.824-0.512 0.512-1.024 0-1.024 0zM549.888 361.472c0 0 0 0 0 0s0 0 0 0zM549.888 361.472c0 0 0 0 0 0s0 0 0 0zM708.608-30.72c-7.168 0-12.8 5.632-12.8 12.8v312.832c0 7.168 5.632 12.8 12.8 12.8s12.8-5.632 12.8-12.8v-312.832c0-7.168-5.632-12.8-12.8-12.8zM606.72 279.552c-7.168 0-12.8 5.632-12.8 12.8v339.456c0 7.168 5.632 12.8 12.8 12.8s12.8-5.632 12.8-12.8v-338.944c0-7.168-5.632-13.312-12.8-13.312zM804.864 253.44c-7.168 0-12.8 5.632-12.8 12.8v365.568c0 7.168 5.632 12.8 12.8 12.8s12.8-5.632 12.8-12.8v-365.056c0.512-7.168-5.632-13.312-12.8-13.312z" />
<glyph unicode="&#xe9a1;" glyph-name="penthouse" d="M895.488-29.184h-746.496c-7.168 0-12.8 5.632-12.8 12.8s5.632 12.8 12.8 12.8h745.984c7.168 0 12.8-5.632 12.8-12.8s-5.12-12.8-12.288-12.8zM198.144 32.768c-7.168 0-12.8 5.632-12.8 12.8v633.856c0 7.168 5.632 12.8 12.8 12.8l649.216 1.536c0 0 0 0 0 0 7.168 0 12.8-5.632 12.8-12.8s-5.632-12.8-12.8-12.8l-636.416-1.536v-621.056c0-7.168-6.144-12.8-12.8-12.8zM847.36 33.28c-7.168 0-12.8 5.632-12.8 12.8v634.88c0 7.168 5.632 12.8 12.8 12.8s12.8-5.632 12.8-12.8v-634.88c0-7.168-5.632-12.8-12.8-12.8zM821.76 719.36h-588.8c-7.168 0-12.8 5.632-12.8 12.8s5.632 12.8 12.8 12.8h588.8c7.168 0 12.8-5.632 12.8-12.8s-5.632-12.8-12.8-12.8zM330.24 729.6c-7.168 0-12.8 5.632-12.8 12.8v30.72c0 7.168 5.632 12.8 12.8 12.8s12.8-5.632 12.8-12.8v-30.72c0-7.168-5.632-12.8-12.8-12.8zM724.48 729.6c-7.168 0-12.8 5.632-12.8 12.8v30.72c0 7.168 5.632 12.8 12.8 12.8s12.8-5.632 12.8-12.8v-30.72c0-7.168-5.632-12.8-12.8-12.8zM232.96 678.4c-7.168 0-12.8 5.632-12.8 12.8v40.96c0 7.168 5.632 12.8 12.8 12.8s12.8-5.632 12.8-12.8v-40.96c0-7.168-5.632-12.8-12.8-12.8zM821.76 678.4c-7.168 0-12.8 5.632-12.8 12.8v40.96c0 7.168 5.632 12.8 12.8 12.8s12.8-5.632 12.8-12.8v-40.96c0-7.168-5.632-12.8-12.8-12.8zM483.84 463.36h-193.536c-7.168 0-12.8 5.632-12.8 12.8v113.664c0 7.168 5.632 12.8 12.8 12.8h193.536c7.168 0 12.8-5.632 12.8-12.8v-113.664c0-7.168-5.632-12.8-12.8-12.8zM303.104 488.96h167.936v88.064h-167.936v-88.064zM755.2 463.36h-193.536c-7.168 0-12.8 5.632-12.8 12.8v113.664c0 7.168 5.632 12.8 12.8 12.8h193.536c7.168 0 12.8-5.632 12.8-12.8v-113.664c0-7.168-5.632-12.8-12.8-12.8zM574.464 488.96h167.936v88.064h-167.936v-88.064zM483.84 273.92h-193.536c-7.168 0-12.8 5.632-12.8 12.8v113.664c0 7.168 5.632 12.8 12.8 12.8h193.536c7.168 0 12.8-5.632 12.8-12.8v-113.664c0-7.168-5.632-12.8-12.8-12.8zM303.104 299.52h167.936v88.064h-167.936v-88.064zM755.2 273.92h-193.536c-7.168 0-12.8 5.632-12.8 12.8v113.664c0 7.168 5.632 12.8 12.8 12.8h193.536c7.168 0 12.8-5.632 12.8-12.8v-113.664c0-7.168-5.632-12.8-12.8-12.8zM574.464 299.52h167.936v88.064h-167.936v-88.064zM483.84 84.48h-193.536c-7.168 0-12.8 5.632-12.8 12.8v113.664c0 7.168 5.632 12.8 12.8 12.8h193.536c7.168 0 12.8-5.632 12.8-12.8v-113.664c0-7.168-5.632-12.8-12.8-12.8zM303.104 110.080h167.936v88.064h-167.936v-88.064zM755.2 84.48h-193.536c-7.168 0-12.8 5.632-12.8 12.8v113.664c0 7.168 5.632 12.8 12.8 12.8h193.536c7.168 0 12.8-5.632 12.8-12.8v-113.664c0-7.168-5.632-12.8-12.8-12.8zM574.464 110.080h167.936v88.064h-167.936v-88.064zM355.84 780.8c-0.512 0-1.536 0-2.048 0-1.024 0-6.144 0.512-23.552 0.512h-1.536c-28.16 0.512-40.448 10.752-45.568 19.456-4.608 7.168-8.192 19.456 0 37.376 9.728 20.992 24.576 39.424 38.4 56.832 6.656 8.192 13.312 16.896 19.456 25.088 6.144 8.704 14.336 12.8 25.6 12.8 17.408 0 35.328 0 52.736 0h187.392c15.872 0 31.744 0 47.616 0 2.56 0 5.12 0 7.168 0 14.848 0.512 35.84 1.024 48.64-18.432 6.656-10.24 14.336-20.48 22.016-30.208 8.192-10.752 16.896-22.016 24.064-33.28l0.512-1.024c7.168-10.752 18.944-29.184 5.12-49.152-10.752-15.872-38.4-18.432-68.096-20.48l-5.12-0.512c-7.168-0.512-13.312 4.608-13.824 11.776s4.608 13.312 11.776 13.824c1.536 0 3.584 0 5.632 0.512 35.84 2.048 46.080 6.144 48.64 9.216 3.072 4.608 2.048 8.192-5.632 20.48l-0.512 1.024c-7.168 10.752-15.36 21.504-23.040 31.744s-15.872 20.48-23.040 31.232c-4.608 7.168-11.264 7.68-26.624 7.168-2.56 0-5.632 0-8.192 0-15.872 0-31.744 0-47.104 0h-187.392c-17.92 0-35.328 0-53.248 0-3.072 0-3.584-0.512-4.608-2.048-6.656-9.216-13.312-17.92-19.968-26.112-13.824-17.408-27.136-33.792-35.328-52.224-1.536-3.072-3.584-9.216-1.536-12.8s9.728-7.168 24.576-7.68h1.536c25.6-0.512 26.624-0.512 28.672-1.024 6.656-1.536 10.752-8.704 9.216-15.36-2.048-4.608-7.168-8.704-12.8-8.704zM352.768 781.312c0 0 0.512 0 1.024 0-0.512 0-1.024 0-1.024 0zM655.36 780.8c-15.36 0-28.672 6.656-38.4 15.872-8.704 8.704-7.68 18.944-7.168 24.576 0 1.024 0.512 3.072 0 3.584-6.144 20.992-12.8 42.496-18.944 63.488l-7.168 24.064c-2.048 6.656 1.536 13.824 8.704 15.872 6.656 2.048 13.824-1.536 15.872-8.704l7.168-23.552c6.656-20.992 12.8-42.496 18.944-63.488 1.536-5.12 1.024-10.24 0.512-13.824 0-1.536-0.512-3.072 0-4.096 7.168-7.168 25.088-14.848 45.056 2.048 5.12 4.608 13.312 4.096 17.92-1.536 4.608-5.12 4.096-13.312-1.536-17.92-13.312-11.264-27.648-16.384-40.96-16.384zM452.608 781.312c-5.632 0-10.752 1.024-15.36 2.56-31.744 12.288-27.648 37.888-25.088 50.176 3.072 15.872 8.192 31.744 13.312 46.592 4.608 13.312 9.216 25.6 11.776 38.4 1.536 7.168 8.192 11.264 15.36 9.728s11.264-8.192 9.728-15.36c-3.072-14.336-7.68-28.16-12.288-41.472-5.12-14.336-9.728-28.16-12.288-42.496-2.56-13.824-2.048-17.408 9.216-21.504 7.168-2.56 22.016 0 34.816 9.728 5.632 4.096 13.824 3.072 17.92-2.56s3.072-13.824-2.56-17.92c-14.336-10.24-30.208-15.872-44.544-15.872zM694.784 799.744c-1.024 0-2.048 0-2.56 0.512-6.144 1.536-10.752 7.168-10.24 13.312-1.024 5.12-9.216 23.040-12.288 29.184l-5.12 8.704c-11.264 19.456-22.528 39.424-31.232 59.904-2.56 6.656 0 13.824 6.656 16.896 6.656 2.56 13.824 0 16.896-6.656 8.192-19.456 19.456-38.912 30.208-57.344l5.12-8.704c0-0.512 18.432-32.768 15.36-45.056-1.536-6.656-6.656-10.752-12.8-10.752zM681.984 813.056v0 0zM682.496 815.616c0 0 0 0 0 0s0 0 0 0zM522.752 781.824c-20.992 0-45.568 13.824-46.592 33.792-1.024 23.552 3.072 46.592 7.168 66.048 1.024 4.096 0.512 8.704 0.512 13.824-0.512 7.68-0.512 15.872 2.048 24.576 2.048 6.656 9.216 10.752 15.872 8.192 6.656-2.048 10.752-9.216 8.192-15.872-1.536-4.608-1.024-9.728-1.024-15.872 0.512-6.144 0.512-12.8-1.024-19.968-3.584-18.944-7.168-39.424-6.144-59.904 0.512-2.56 9.728-9.216 20.992-9.216s20.48 7.168 20.992 10.24c1.536 14.336-0.512 29.184-3.072 45.056-0.512 4.096-1.024 7.68-2.048 11.776-1.024 6.144-0.512 11.264-0.512 16.896 0 7.68 0.512 13.824-2.56 19.456-3.072 6.144-0.512 13.824 5.632 17.408 6.144 3.072 13.824 0.512 17.408-5.632 5.632-11.264 5.12-22.016 5.12-31.744 0-4.608 0-8.704 0.512-12.8 0.512-3.584 1.024-7.68 1.536-11.264 2.56-16.896 5.632-33.792 3.584-52.224-2.56-19.456-26.112-32.768-46.592-32.768zM355.328 804.864c-6.144 0-11.264 4.096-12.288 10.24-2.56 12.288 9.216 37.888 10.24 39.936l5.12 8.704c10.752 18.432 21.504 37.888 30.208 57.344 2.56 6.656 10.24 9.728 16.896 6.656 6.656-2.56 9.728-10.24 6.656-16.896-8.704-20.48-20.48-40.448-31.232-59.904l-5.12-8.704c-2.048-3.584-7.168-18.432-7.168-23.040 1.024-6.656-3.584-12.8-10.24-14.336-1.024 0-2.048 0-3.072 0zM368.128 819.2v0 0zM368.128 820.736c0 0 0 0 0 0s0 0 0 0zM588.288 781.312c-12.8 0-25.088 5.12-39.424 15.872-5.632 4.096-6.656 12.288-2.56 17.92s12.288 6.656 17.92 2.56c17.92-13.312 27.136-15.36 51.2 0.512 6.144 4.096 13.824 2.048 17.92-3.584 4.096-6.144 2.048-13.824-3.584-17.92-15.872-10.24-29.184-15.36-41.472-15.36zM388.608 780.8c-16.896 0-30.208 8.192-39.936 16.384-5.632 4.608-6.144 12.288-2.048 17.92 4.608 5.632 12.288 6.144 17.92 2.048 15.36-12.8 28.16-16.384 50.176 0.512 5.632 4.096 13.824 3.072 17.92-2.56s3.072-13.824-2.56-17.92c-15.36-11.776-29.184-16.384-41.472-16.384z" />
<glyph unicode="&#xe9a2;" glyph-name="profile" d="M906.24-19.968c-0.512 0-1.024 0-1.024 0-309.76 3.584-550.4 4.096-736.256 2.048h-1.536c-59.904-0.512-116.224-1.024-118.784 94.208-1.024 43.008-2.048 87.040 51.712 122.368 48.64 31.744 102.4 58.88 173.568 88.064 74.24 30.72 108.032 54.272 115.712 81.408 6.656 22.528-4.096 52.736-34.304 97.28-5.12 7.168-7.68 12.288-10.24 15.872-4.608 7.68-6.656 10.752-20.992 25.088-18.944 18.944-43.52 79.872-37.376 118.272 2.048 13.312 7.168 21.504 12.8 27.136-6.656 35.328-5.632 95.744 8.192 145.92 9.216 31.744 31.744 57.344 71.68 81.408 104.448 62.464 200.192 36.352 262.144 3.072 83.968-44.544 113.664-134.656 78.336-241.152v0c40.96-59.392 8.704-101.888-22.528-142.848-2.56-3.584-5.12-6.656-7.68-10.24-40.448-54.784-55.296-91.648-48.128-119.296s38.4-52.736 101.376-80.384c22.528-10.24 45.056-20.992 66.56-31.744 33.28-16.384 68.096-33.28 102.912-47.104 56.832-22.528 79.872-70.656 65.536-135.168-2.048-8.192-3.072-16.384-4.096-24.576-4.096-32.768-9.216-69.632-67.584-69.632zM402.944 8.704c142.848 0 309.248-1.024 502.272-3.072 0.512 0 1.024 0 1.024 0 35.84 0 37.888 13.824 43.008 47.104 1.024 8.192 2.56 16.896 4.608 26.112 11.776 52.224-5.12 87.552-50.176 105.472-35.84 13.824-71.168 31.232-104.96 47.616-21.504 10.752-43.52 21.504-66.048 31.232-71.68 31.744-106.496 60.928-115.712 97.28-9.728 36.352 6.144 78.848 52.224 141.312 2.56 3.584 5.12 7.168 8.192 10.752 30.72 40.448 52.736 69.632 20.48 115.2-2.56 3.584-3.072 8.192-1.536 12.288-1.024 2.56-1.024 5.632 0 8.704 30.72 93.696 6.144 172.544-66.048 210.432-56.32 30.208-142.848 54.272-236.544-2.048-33.792-20.48-53.248-41.472-60.416-66.048-13.824-49.664-13.824-112.128-6.144-141.312 1.536-5.632-1.024-11.776-6.656-14.848-4.096-2.048-6.656-6.656-7.68-14.336-4.608-29.184 15.36-80.896 30.208-95.744 15.872-15.872 18.944-20.992 24.576-30.208 2.048-3.584 4.608-8.192 9.216-14.336 35.84-52.224 47.104-87.552 37.888-118.784-12.288-40.96-60.928-68.608-130.56-97.792-69.632-28.672-121.856-55.296-169.472-86.016-39.936-26.112-41.472-54.784-40.448-99.84 1.536-70.144 32.256-70.144 93.184-69.632h1.536c69.632 0.512 147.456 0.512 233.984 0.512z" />
<glyph unicode="&#xe9a3;" glyph-name="sablet" d="M851.968 443.904h-680.448c-3.584 0-6.656 1.536-8.704 3.584-2.56 2.56-4.096 5.632-4.096 9.216 1.536 51.2 22.528 93.184 40.96 130.048 12.8 26.112 25.088 50.176 30.208 75.264 19.968 99.84 81.408 89.088 125.952 81.408 18.432-3.072 36.352-6.144 50.688-3.072 27.136 5.632 47.616 3.072 61.952-9.216 24.576-19.968 24.064-58.368 23.552-92.672 0-2.56-1.024-4.608-2.048-6.656 11.264-0.512 22.016-3.584 30.72-6.144 5.12-1.536 13.312-4.096 16.384-3.584 0.512 1.024 1.536 4.096 1.536 10.752 0 41.984 9.216 71.168 27.648 89.088 21.504 20.48 50.688 20.992 76.288 19.968 11.264-0.512 25.6 1.024 39.424 3.072 35.328 4.096 75.264 9.216 88.576-21.504 9.728-22.528 22.528-44.032 35.84-66.56 35.328-60.416 71.68-122.368 57.344-202.24-0.512-6.656-6.144-10.752-11.776-10.752zM184.832 468.992h656.384c8.192 66.048-23.040 119.296-55.808 175.104-13.312 22.528-26.624 45.568-37.376 69.12-6.144 13.824-34.816 10.24-62.976 7.168-14.848-2.048-30.208-3.584-44.032-3.072-26.112 1.024-45.056-0.512-57.856-13.312-13.312-12.8-19.968-36.352-19.968-71.168 0-9.728-1.024-23.552-11.264-30.72-10.752-8.192-25.088-4.096-38.4 0-19.968 6.144-35.328 9.216-49.152-3.072-56.832-50.688-185.344-50.176-237.568-12.8-1.536-3.072-3.072-6.656-5.12-9.728-15.872-33.792-32.768-68.096-36.864-107.52zM238.080 608.768c0.512-0.512 1.024-0.512 1.536-1.024 40.96-32.768 160.256-33.28 208.384 9.728 7.68 6.656 15.36 10.752 23.040 12.8-2.56 2.048-3.584 5.632-3.584 9.216 0.512 27.136 0.512 60.416-14.336 73.216-8.192 6.656-22.016 8.192-40.96 4.096s-39.936-0.512-59.904 3.072c-47.616 8.192-82.432 14.336-97.28-61.44-3.584-17.92-9.728-33.792-16.896-49.664zM910.336 565.248c-6.656 0-12.288 5.632-12.288 12.288v286.72h-748.544c-3.584-48.64-3.072-98.304-2.56-145.92 0-42.496 0.512-82.944-1.536-121.344-0.512-6.656-6.144-12.288-13.312-11.776-6.656 0.512-12.288 6.144-11.776 13.312 2.048 37.376 2.048 77.312 1.536 119.296-0.512 52.224-0.512 105.984 3.584 159.744 0.512 6.656 6.144 11.264 12.288 11.264h772.608c6.656 0 12.288-5.632 12.288-12.288v-299.008c0-6.656-5.632-12.288-12.288-12.288zM290.304 310.784c-35.328 0-70.144 0-103.424 0-32.256 0-64 0-94.72 0-6.656 0-12.288 5.632-12.288 12.288s5.632 12.288 12.288 12.288c30.208 0 61.952 0 94.72 0 128 0 272.384-0.512 394.24 2.048 41.984 1.024 86.528 0.512 130.048 0.512 72.704 0 148.48 0 213.504 3.584 7.168 0.512 12.8-4.608 13.312-11.776 0.512-6.656-4.608-12.8-11.776-13.312-66.048-4.096-141.824-4.096-215.040-3.584-43.008 0-88.064 0-129.536-0.512-89.6-1.024-192.512-1.536-291.328-1.536zM131.584-24.576c-17.92 0-37.376 0.512-59.392 1.536-6.656 0-11.776 5.632-11.776 11.776l-0.512 11.264c-6.144 150.528-13.312 320.512 86.528 453.632 4.096 5.632 11.776 6.656 17.408 2.56s6.656-11.776 2.56-17.408c-94.208-125.952-87.552-291.328-81.408-437.248 125.952-4.096 152.064 2.56 160.256 71.68 1.024 6.656 7.168 11.776 13.824 10.752s11.776-7.168 10.752-13.824c-9.728-79.872-50.688-94.72-138.24-94.72zM955.904-27.648c0 0-0.512 0-0.512 0-15.36 1.024-31.232 0.512-46.592 0.512-65.024-1.024-132.096-2.048-147.456 86.528-1.024 6.656 3.584 13.312 10.24 14.336s13.312-3.584 14.336-10.24c11.264-64.512 51.712-67.072 122.368-66.048 11.264 0 23.040 0.512 35.328 0 0 24.576-0.512 46.592-0.512 68.608-0.512 50.688-1.024 94.208 1.536 137.728 5.12 81.92-23.552 156.16-89.088 234.496-4.608 5.12-3.584 13.312 1.536 17.408 5.12 4.608 13.312 3.584 17.408-1.536 70.144-83.456 100.352-163.328 94.72-251.904-2.56-42.496-2.048-85.504-1.536-135.68 0.512-25.6 0.512-52.224 0.512-81.92 0-3.584-1.536-6.656-4.096-9.216-1.536-2.048-4.608-3.072-8.192-3.072zM371.2 64.512c-62.464 0-124.928 0.512-189.44 2.048-6.656 0-12.288 6.144-12.288 12.8s6.144 12.288 12.8 12.288c124.928-3.072 242.688-2.048 367.104-1.024 62.464 0.512 127.488 1.024 194.048 1.024 39.424 0 66.048 0 100.864 2.56 6.656 0.512 12.8-4.608 13.312-11.776 0.512-6.656-4.608-12.8-11.776-13.312-35.328-2.56-61.952-2.56-102.4-2.56-66.56 0-131.072-0.512-193.536-1.024-60.928-0.512-119.808-1.024-178.688-1.024zM663.552 564.736c-17.408 0-34.304 1.024-48.64 3.584-45.568 7.168-71.68 24.064-75.776 47.616-1.024 6.656 3.072 13.312 10.24 14.336 6.656 1.024 13.312-3.072 14.336-10.24 2.048-11.776 23.552-22.528 55.296-27.648 67.072-10.752 150.016 5.12 164.352 31.744 3.072 6.144 10.752 8.192 16.896 5.12s8.192-10.752 5.12-16.896c-18.944-33.792-84.48-47.616-141.824-47.616zM202.24 585.216h-70.144c-6.656 0-12.288 5.632-12.288 12.288s5.632 12.288 12.288 12.288h69.632c6.656 0 12.288-5.632 12.288-12.288s-5.12-12.288-11.776-12.288zM910.336 565.248h-79.872c-6.656 0-12.288 5.632-12.288 12.288s5.632 12.288 12.288 12.288h79.872c6.656 0 12.288-5.632 12.288-12.288s-5.12-12.288-12.288-12.288z" />
<glyph unicode="&#xe9a4;" glyph-name="search_results" d="M830.464 300.544l-216.064 26.112c64 116.224 143.36 275.968 143.36 351.232 0 128.512-104.448 232.96-232.96 232.96-128.512 0.512-232.96-104.448-232.96-232.448 0-59.392 49.152-170.496 100.864-271.36l-332.288-97.28 138.24-179.2 305.664-34.816 159.232-148.992 291.328 241.152-124.416 112.64zM417.792 413.696c-51.2 99.84-100.352 209.408-100.352 264.704 0 114.176 93.184 207.36 207.36 207.36s207.36-93.696 207.36-207.36c0-71.68-81.92-233.472-145.408-348.16zM586.752 330.24c-20.48-36.352-51.2-90.624-61.952-108.032-17.92 30.208-68.096 118.784-107.008 192zM211.968 155.136l-108.544 140.288 301.568 87.552c52.736-100.352 104.96-185.856 109.056-193.024l10.752-17.92 10.752 17.92c3.072 5.12 30.72 50.176 65.024 112.128l184.32-22.016-280.576-158.208-292.352 33.28zM530.432 107.008l293.376 165.376 92.672-83.456-251.392-208.384-134.656 126.464zM524.8 568.32c55.296 0 99.84 44.544 99.84 99.84s-44.544 99.84-99.84 99.84-99.84-45.056-99.84-99.84 44.544-99.84 99.84-99.84zM524.8 742.4c40.96 0 74.24-33.28 74.24-74.24s-33.28-74.24-74.24-74.24-74.24 33.28-74.24 74.24 33.28 74.24 74.24 74.24z" />
<glyph unicode="&#xe9a5;" glyph-name="shchavot" d="M977.92 431.616c-96.256 169.472-274.944 274.944-465.408 274.944-190.976 0-369.152-105.472-465.408-274.944l-22.016 12.8c100.352 177.152 287.232 287.744 487.424 287.744s387.072-110.592 487.936-288.256l-22.528-12.288zM512.512 151.040c-200.192 0-387.072 110.592-487.936 288.256l22.016 12.8c96.768-169.984 274.944-275.456 465.92-275.456s369.152 105.472 465.408 274.944l22.016-12.8c-100.352-177.152-287.232-287.744-487.424-287.744zM233.984 227.84c-46.592 61.44-71.168 134.656-71.168 211.456 0 80.384 26.624 156.16 76.288 219.136l19.968-15.872c-46.592-58.368-71.168-128.512-71.168-202.752 0-71.168 23.040-138.752 66.048-196.096l-19.968-15.872zM797.696 231.936l-20.48 15.36c41.472 55.808 62.976 122.368 62.976 192.512 0 72.704-23.552 141.824-68.096 199.168l19.968 15.872c48.128-61.952 73.216-136.192 73.216-214.528 0.512-75.776-23.040-147.968-67.584-208.384zM516.096 252.416c-25.088 0-50.688 3.072-75.776 8.704l-11.776 2.56 27.648 154.112c-6.144 4.096-11.776 9.216-17.408 14.848-21.504 22.528-32.256 50.176-32.256 81.408s11.264 59.392 32.256 80.896c20.992 22.016 47.616 33.792 78.336 33.792s57.856-11.264 79.36-33.792c21.504-22.016 32.256-49.152 32.256-80.896s-10.752-58.88-32.256-80.896v0c-6.656-6.656-13.312-11.776-19.968-16.384l27.648-153.088-11.776-2.56c-26.112-6.144-51.2-8.704-76.288-8.704zM457.728 283.136c38.4-7.168 77.824-7.168 116.224 0l-26.624 147.456 8.704 4.096c7.68 3.584 13.824 8.192 21.504 15.872 16.896 17.408 25.088 37.888 25.088 62.976s-8.192 46.080-25.088 63.488c-16.896 16.896-37.376 25.6-60.928 25.6-24.064 0-43.52-8.192-59.904-25.6-16.896-17.408-25.088-38.4-25.088-63.488 0-24.576 8.192-45.568 25.088-63.488 6.144-6.144 13.312-11.776 19.968-15.872l7.68-4.608-26.624-146.432z" />
<glyph unicode="&#xe9a6;" glyph-name="shchavot-v2" d="M509.952 151.040c-39.424 0-79.36 4.608-118.784 13.824l-18.432 4.096 43.008 241.152c-9.728 6.656-18.432 14.336-27.136 23.040-33.28 35.328-50.176 78.336-50.176 127.488s17.408 92.672 50.688 126.464c32.768 34.304 74.24 52.736 122.368 52.736s90.624-17.408 124.416-52.736c33.792-34.304 50.688-76.8 50.688-126.464s-16.896-92.16-50.688-126.464v0c-10.24-10.24-20.992-18.432-31.232-25.6l43.008-239.616-18.432-4.096c-40.96-9.728-79.872-13.824-119.296-13.824zM418.816 199.168c59.904-11.264 121.856-11.264 181.76 0l-41.472 230.912 13.824 6.656c11.776 5.632 21.504 12.8 33.792 25.088 26.624 27.136 39.424 59.392 39.424 98.304s-12.8 72.192-39.424 99.328c-27.136 26.112-58.88 39.424-95.744 39.424-37.888 0-68.096-12.8-93.696-39.936-26.624-27.136-39.424-59.904-39.424-99.328 0-38.4 12.8-71.168 39.424-99.328 9.728-9.728 20.992-18.432 31.232-25.088l11.776-7.168-41.472-228.864zM513.536-38.4c-266.24 0-482.816 216.576-482.816 482.304s216.576 482.816 482.816 482.816 482.816-216.576 482.816-482.816-217.088-482.304-482.816-482.304zM513.536 901.12c-252.416 0-457.216-204.8-457.216-457.216 0-251.904 204.8-456.704 457.216-456.704 251.904 0 457.216 204.8 457.216 457.216-0.512 251.904-205.312 456.704-457.216 456.704z" />
<glyph unicode="&#xe9a7;" glyph-name="short_term" d="M415.232 528.384c8.192-7.68 16.896-33.28 26.112-57.856 4.096-10.752 7.68-22.016 11.776-31.744l21.504-3.072c-5.632 13.824-11.264 28.672-15.872 40.96-10.24 29.184-19.456 54.272-30.72 65.024-77.312 74.24-148.48 197.12-134.656 306.176l-18.432 2.56c-14.336-115.2 59.904-244.224 140.288-322.048zM828.928 772.096c-18.944-121.344-125.44-195.072-216.576-245.248-12.288-6.656-26.112-26.112-47.616-57.344-8.192-11.776-19.456-28.16-30.72-42.496l21.504-3.072c7.68 10.24 15.872 22.016 24.576 34.816 15.36 22.016 32.256 46.592 40.96 51.712 94.72 52.736 205.824 129.536 226.304 259.072l-18.432 2.56zM391.68 363.008c9.728 5.12 25.6 27.136 40.96 48.128 6.656 9.216 13.312 18.944 19.968 27.648l21.504-3.072c-9.216-11.264-18.944-24.576-26.624-35.328-17.92-25.088-33.792-46.592-47.104-53.76-94.72-50.176-197.12-148.48-214.528-256.512l-18.432 2.56c18.432 114.176 125.44 218.112 224.256 270.336zM721.92 14.336c15.36 121.856-66.56 222.208-140.288 295.936-9.728 9.728-17.408 32.256-29.696 68.096-4.608 13.312-10.752 32.256-17.92 49.152l21.504-3.072c4.608-11.776 9.216-25.6 14.336-40.448 8.704-25.088 17.92-53.76 25.088-60.928 76.8-76.8 162.304-181.248 145.408-311.296l-18.432 2.56zM888.32 755.712l-658.432 93.184 9.216 65.024 658.944-93.184-9.728-65.024zM257.536 869.888l609.792-86.016 2.048 16.384-609.28 86.016-2.56-16.384zM777.216-33.792l-658.944 93.184 9.216 65.024 658.944-93.184-9.216-65.024zM756.224-5.632l2.048 16.384-609.792 86.016-2.048-16.384zM510.464 443.392l-9.728 9.728c-1.024 1.024-21.504 22.016-36.864 57.856-12.8 30.208-27.648 60.928-46.592 79.872-20.992 20.992-36.352 51.2-36.864 52.224l-9.216 17.92 379.392-5.632-52.224-51.712c-2.048-1.024-45.568-30.208-75.264-45.056-27.136-13.312-59.904-50.688-60.416-51.2l-52.224-64zM412.672 636.416c5.632-8.704 13.312-19.456 21.504-28.16 22.016-22.016 38.4-54.784 52.224-87.552 7.68-17.408 16.384-31.232 23.040-39.936l34.816 42.496c1.536 2.048 36.864 41.472 68.096 57.344 26.112 12.8 65.024 38.4 71.68 43.008l8.192 8.192-279.552 4.608zM689.152 63.488l-446.976 60.928c-4.096 0.512-7.68 2.56-10.24 6.144-5.12 7.168-3.072 17.408-0.512 25.088 4.096 12.8 20.992 33.792 46.592 65.024 5.12 6.144 10.24 12.288 14.336 17.92 17.408 22.016 54.784 46.080 84.992 65.536 6.144 4.096 11.264 7.68 16.384 10.752 26.112 17.408 57.344 47.616 61.44 52.224l38.912 49.664 39.424-7.68 2.048-7.168c0.512-1.536 10.24-35.84 15.36-70.656 3.072-20.992 15.36-33.792 29.184-48.64 5.632-6.144 11.776-12.288 17.408-19.456 31.232-38.912 54.784-74.24 70.144-105.472 20.992-41.472 20.992-77.824 20.992-79.36v-14.848zM254.976 147.456l408.064-55.808c-2.048 12.8-6.144 32.768-16.896 54.272-14.848 29.696-37.376 64-67.584 101.376-5.12 6.144-10.752 12.288-15.872 17.408-15.872 16.384-31.744 33.28-35.84 62.464-3.584 24.064-9.216 48.64-12.288 59.904l-9.728 2.048-30.72-39.424c-1.536-1.536-35.84-35.328-66.048-55.808-5.12-3.584-10.752-7.168-16.896-10.752-27.136-17.408-64-41.472-78.848-60.416-4.608-5.632-9.216-11.776-14.848-17.92-15.872-19.456-39.424-48.128-42.496-57.344 0 0 0 0 0 0z" />
<glyph unicode="&#xe9a8;" glyph-name="sofa_preview" d="M843.264 553.472c-4.096 0-7.168 3.072-7.68 7.168-1.536 19.456-1.024 39.424-0.512 58.88 1.024 30.72 2.048 60.416-6.144 89.6-22.528 80.896-87.040 128-191.488 139.776-103.936 11.776-211.456 23.552-315.904-20.992-101.376-43.52-137.216-78.848-137.216-191.488v-74.752c0-4.096-3.584-7.68-7.68-7.68s-7.68 3.584-7.68 7.68v74.24c0 112.128 31.744 156.672 146.944 205.824 108.032 46.080 217.6 33.792 323.584 22.016 109.568-12.288 180.224-64.512 204.288-151.040 8.704-31.744 7.68-63.488 6.656-94.208-0.512-18.944-1.536-37.888 0-56.832 0.512-4.096-2.56-8.192-7.168-8.192 0.512 0 0.512 0 0 0zM755.2 9.216c-3.072 0-6.144 2.048-7.168 5.12-1.536 4.096 1.024 8.192 4.608 9.728 42.496 14.336 64 21.504 73.216 35.328 9.728 14.336 9.728 38.4 9.728 86.528 0 11.264 0 22.016 0 33.28 0.512 24.576 0.512 50.176-0.512 75.264-2.048 41.472 1.024 72.704 52.224 91.648 20.992 7.68 39.936 27.648 51.712 53.76 11.264 25.088 13.312 52.224 6.144 69.632-16.896 40.96-73.728 75.776-114.176 70.144-62.976-8.704-99.84-48.128-101.888-108.032-1.536-50.176-1.024-99.84-0.512-152.064 0-22.528 0.512-45.568 0.512-68.608 0-4.096-3.584-7.68-7.68-7.68h-421.888c-4.096 0-7.68 3.584-7.68 7.68 0 23.040 0 46.080 0.512 69.12 0.512 52.224 0.512 101.376-1.024 151.552-1.024 35.328-18.944 69.632-47.104 92.672-22.528 18.432-48.128 26.112-72.192 21.504-46.592-8.704-107.008-59.392-96.256-119.296 5.12-28.672 20.992-77.824 69.12-86.528 40.96-7.168 40.448-30.208 39.936-50.176 0-2.56 0-4.608 0-7.168 0-32.256 0-64.512 0-97.28v-38.912c0-47.616 0-71.68 9.728-86.016 9.728-13.824 30.72-21.504 73.728-35.84 4.096-1.536 6.144-5.632 4.608-9.728s-5.632-6.144-9.728-4.608c-91.648 31.232-93.696 33.792-93.696 136.704v38.912c0 32.256 0 64.512 0 97.28 0 2.56 0 5.12 0 7.68 0.512 19.968 0.512 29.696-27.136 34.816-41.984 7.68-72.192 43.52-81.92 98.816-12.288 69.12 54.784 126.464 108.544 136.704 28.16 5.12 58.368-3.584 84.48-24.576 31.744-25.6 51.712-64.512 52.736-104.448 1.536-50.176 1.024-99.84 1.024-152.064 0-20.48-0.512-40.448-0.512-61.44h406.016c0 20.48 0 40.96-0.512 60.928-0.512 52.224-0.512 101.888 1.024 152.576 2.048 68.096 44.032 113.152 115.2 122.88 47.616 6.656 111.104-32.256 130.56-79.36 8.704-21.504 6.656-52.736-6.144-81.408-13.312-30.208-35.328-52.736-60.416-61.952-42.496-15.872-43.52-39.424-41.984-76.288 1.024-25.088 1.024-51.2 0.512-75.776 0-11.264 0-22.016 0-33.28 0-103.424-1.536-105.984-93.696-136.704-0.512-0.512-1.536-1.024-2.048-1.024zM440.32 5.12c0 0-0.512 0-0.512 0-25.088 2.048-51.712 1.536-77.312 1.536-32.256-0.512-66.048-0.512-96.768 3.584-4.096 0.512-7.168 4.608-6.656 8.704s4.608 7.168 8.704 6.656c30.208-4.096 62.976-4.096 94.72-3.584 26.112 0.512 52.736 0.512 78.848-1.536 51.712 0 106.496 1.536 159.744 2.56 53.76 1.536 104.448 2.56 152.576 2.56 4.096 0 7.68-3.584 7.68-7.68s-3.584-7.68-7.68-7.68c-48.128 0-98.304-1.024-152.064-2.56-54.272-1.024-109.568-2.56-161.28-2.56zM312.832 302.080c-3.584 0-6.656 2.56-7.68 6.144-1.024 4.096 1.536 8.192 5.632 9.216 131.584 29.696 262.656 19.968 396.8 7.168 4.096-0.512 7.168-4.096 6.656-8.192s-4.096-7.168-8.192-6.656c-132.608 13.312-262.656 22.528-392.192-6.656 0.512-1.024 0-1.024-1.024-1.024zM407.040 675.84c-19.968 0-35.84 15.872-35.84 35.84s15.872 35.84 35.84 35.84 35.84-15.872 35.84-35.84-15.872-35.84-35.84-35.84zM407.040 732.16c-11.264 0-20.48-9.216-20.48-20.48s9.216-20.48 20.48-20.48 20.48 9.216 20.48 20.48-9.216 20.48-20.48 20.48zM606.72 675.84c-19.968 0-35.84 15.872-35.84 35.84s15.872 35.84 35.84 35.84 35.84-15.872 35.84-35.84-15.872-35.84-35.84-35.84zM606.72 732.16c-11.264 0-20.48-9.216-20.48-20.48s9.216-20.48 20.48-20.48 20.48 9.216 20.48 20.48-9.216 20.48-20.48 20.48zM407.040 481.28c-19.968 0-35.84 15.872-35.84 35.84s15.872 35.84 35.84 35.84 35.84-15.872 35.84-35.84-15.872-35.84-35.84-35.84zM407.040 537.6c-11.264 0-20.48-9.216-20.48-20.48s9.216-20.48 20.48-20.48 20.48 9.216 20.48 20.48-9.216 20.48-20.48 20.48zM606.72 481.28c-19.968 0-35.84 15.872-35.84 35.84s15.872 35.84 35.84 35.84 35.84-15.872 35.84-35.84-15.872-35.84-35.84-35.84zM606.72 537.6c-11.264 0-20.48-9.216-20.48-20.48s9.216-20.48 20.48-20.48 20.48 9.216 20.48 20.48-9.216 20.48-20.48 20.48zM399.36-15.36h-76.8c-12.8 0-23.040 10.24-23.040 23.040 0 4.096 3.584 7.68 7.68 7.68s7.68-3.584 7.68-7.68c0-4.096 3.584-7.68 7.68-7.68h76.8c4.096 0 7.68 3.584 7.68 7.68s3.584 7.68 7.68 7.68 7.68-3.584 7.68-7.68c0-12.8-10.24-23.040-23.040-23.040zM691.2-15.36h-76.8c-12.8 0-23.040 10.24-23.040 23.040 0 4.096 3.584 7.68 7.68 7.68s7.68-3.584 7.68-7.68c0-4.096 3.584-7.68 7.68-7.68h76.8c4.096 0 7.68 3.584 7.68 7.68s3.584 7.68 7.68 7.68 7.68-3.584 7.68-7.68c0-12.8-10.24-23.040-23.040-23.040z" />
<glyph unicode="&#xe9a9;" glyph-name="tall_building" d="M885.248-34.304h-746.496c-7.168 0-12.8 5.632-12.8 12.8s5.632 12.8 12.8 12.8h745.984c7.168 0 12.8-5.632 12.8-12.8s-5.12-12.8-12.288-12.8zM816.64-17.92c-7.168 0-12.8 5.632-12.8 12.8v791.040h-89.6c-7.168 0-12.8 5.632-12.8 12.8v89.6h-373.76v-94.72c0-7.168-5.632-12.8-12.8-12.8h-94.72v-785.92c0-7.168-5.632-12.8-12.8-12.8s-12.8 5.632-12.8 12.8v798.72c0 7.168 5.632 12.8 12.8 12.8h94.72v94.72c0 7.168 5.632 12.8 12.8 12.8h399.36c7.168 0 12.8-5.632 12.8-12.8v-89.6h89.6c7.168 0 12.8-5.632 12.8-12.8v-803.84c0-7.168-5.632-12.8-12.8-12.8zM801.28 688.64h-286.208c-7.168 0-12.8 5.632-12.8 12.8s5.632 12.8 12.8 12.8h286.208c7.168 0 12.8-5.632 12.8-12.8s-5.632-12.8-12.8-12.8zM801.28 601.6h-286.208c-7.168 0-12.8 5.632-12.8 12.8s5.632 12.8 12.8 12.8h286.208c7.168 0 12.8-5.632 12.8-12.8s-5.632-12.8-12.8-12.8zM806.4 514.56h-291.328c-7.168 0-12.8 5.632-12.8 12.8s5.632 12.8 12.8 12.8h291.328c7.168 0 12.8-5.632 12.8-12.8s-5.632-12.8-12.8-12.8zM806.4 427.52h-291.328c-7.168 0-12.8 5.632-12.8 12.8s5.632 12.8 12.8 12.8h291.328c7.168 0 12.8-5.632 12.8-12.8s-5.632-12.8-12.8-12.8zM801.28 340.48h-286.208c-7.168 0-12.8 5.632-12.8 12.8s5.632 12.8 12.8 12.8h286.208c7.168 0 12.8-5.632 12.8-12.8s-5.632-12.8-12.8-12.8zM811.52 248.32h-296.448c-7.168 0-12.8 5.632-12.8 12.8s5.632 12.8 12.8 12.8h296.448c7.168 0 12.8-5.632 12.8-12.8s-5.632-12.8-12.8-12.8zM801.28 156.16h-286.208c-7.168 0-12.8 5.632-12.8 12.8s5.632 12.8 12.8 12.8h286.208c7.168 0 12.8-5.632 12.8-12.8s-5.632-12.8-12.8-12.8zM806.4 64h-291.328c-7.168 0-12.8 5.632-12.8 12.8s5.632 12.8 12.8 12.8h291.328c7.168 0 12.8-5.632 12.8-12.8s-5.632-12.8-12.8-12.8z" />
<glyph unicode="&#xe9aa;" glyph-name="tik_neches" d="M109.568 758.784l-25.6-15.36v6.144c0 77.312 58.88 103.936 131.584 103.936h232.96c60.416 0 131.584-24.064 136.192-137.728l238.592-2.048c114.176-0.512 172.032-38.4 172.032-113.152v-92.16h-25.6v92.16c0 21.504 0 87.040-146.432 87.552l-263.68 2.048v12.8c0 84.992-35.328 124.928-111.104 124.928h-232.96c-58.368 0-105.984-15.36-105.984-78.336 0 0 0 9.216 0 9.216zM934.4 28.16h-834.56c-33.792 0-61.44 27.648-61.44 61.44v338.944c0 13.824 10.752 24.576 24.576 24.576h908.8c13.312 0 24.064-10.752 24.064-24.064v-339.456c0-33.792-27.648-61.44-61.44-61.44zM64 427.52v-337.92c0-19.456 16.384-35.84 35.84-35.84h834.56c19.456 0 35.84 16.384 35.84 35.84v337.92h-906.24zM975.36 428.032h-921.6c-8.704 0-15.36 6.656-15.36 15.36v210.944c0 76.8 58.88 139.264 131.584 139.264h232.96c86.528 0 132.608-46.592 136.192-137.728l334.848-2.048c72.704-0.512 121.344-46.080 121.344-113.152v-91.648c0.512-5.12-1.536-10.24-5.12-14.336s-9.216-6.656-14.848-6.656zM64 453.632h905.728v87.040c0 64-51.712 87.040-95.744 87.552l-359.936 2.048v12.8c0 86.528-34.304 124.928-111.104 124.928h-232.96c-58.368 0-105.984-51.2-105.984-113.664v-200.704z" />
</font>
</defs>
</svg>
